<?xml version="1.0" encoding="UTF-8" standalone="no"?>
<!-- Created with Inkscape (http://www.inkscape.org/) -->

<svg
   xmlns:dc="http://purl.org/dc/elements/1.1/"
   xmlns:cc="http://creativecommons.org/ns#"
   xmlns:rdf="http://www.w3.org/1999/02/22-rdf-syntax-ns#"
   xmlns:svg="http://www.w3.org/2000/svg"
   xmlns="http://www.w3.org/2000/svg"
   xmlns:sodipodi="http://sodipodi.sourceforge.net/DTD/sodipodi-0.dtd"
   xmlns:inkscape="http://www.inkscape.org/namespaces/inkscape"
   width="64"
   height="64"
   id="svg4999"
   version="1.1"
   inkscape:version="0.91 r13725"
   viewBox="0 0 64 64"
   sodipodi:docname="drawing.svg">
  <defs
     id="defs5001">
    <clipPath
       clipPathUnits="userSpaceOnUse"
       id="clipPath3543">
      <path
         d="m 0,3366 1200,0 L 1200,0 0,0 0,3366 Z"
         id="path3545"
         inkscape:connector-curvature="0" />
    </clipPath>
    <clipPath
       clipPathUnits="userSpaceOnUse"
       id="clipPath3551">
      <path
         d="m 563.985,3024.34 71.556,0 0,-71.56 -71.556,0 0,71.56 z"
         id="path3553"
         inkscape:connector-curvature="0" />
    </clipPath>
    <clipPath
       clipPathUnits="userSpaceOnUse"
       id="clipPath3555">
      <path
         d="m 563.985,2952.784 71.556,0 0,71.549 -71.556,0 0,-71.549 z"
         id="path3557"
         inkscape:connector-curvature="0" />
    </clipPath>
  </defs>
  <sodipodi:namedview
     id="base"
     pagecolor="#ffffff"
     bordercolor="#666666"
     borderopacity="1.0"
     inkscape:pageopacity="0.0"
     inkscape:pageshadow="2"
     inkscape:zoom="7.7781746"
     inkscape:cx="39.520029"
     inkscape:cy="43.682284"
     inkscape:current-layer="layer1"
     showgrid="true"
     inkscape:document-units="px"
     inkscape:grid-bbox="true"
     inkscape:window-width="1547"
     inkscape:window-height="876"
     inkscape:window-x="53"
     inkscape:window-y="24"
     inkscape:window-maximized="1" />
  <metadata
     id="metadata5004">
    <rdf:RDF>
      <cc:Work
         rdf:about="">
        <dc:format>image/svg+xml</dc:format>
        <dc:type
           rdf:resource="http://purl.org/dc/dcmitype/StillImage" />
        <dc:title></dc:title>
      </cc:Work>
    </rdf:RDF>
  </metadata>
  <g
     id="layer1"
     inkscape:label="Layer 1"
     inkscape:groupmode="layer">
    <g
       id="g3539"
       transform="matrix(0.8625982,0,0,-0.86409193,-485.30994,2614.4441)">
      <g
         id="g3541"
         clip-path="url(#clipPath3543)">
        <g
           id="g3547">
          <g
             id="g3549" />
          <g
             id="g3559">
            <g
               clip-path="url(#clipPath3551)"
               id="g3561"
               style="opacity:0.13999903">
              <g
                 id="g3563">
                <g
                   clip-path="url(#clipPath3555)"
                   id="g3565">
                  <g
                     transform="translate(635.541,2988.5576)"
                     id="g3567">
                    <path
                       d="m 0,0 c 0,-19.759 -16.02,-35.777 -35.778,-35.777 -19.761,0 -35.778,16.018 -35.778,35.777 0,19.759 16.017,35.778 35.778,35.778 C -16.02,35.778 0,19.759 0,0"
                       style="fill:#ffffff;fill-opacity:1;fill-rule:nonzero;stroke:none"
                       id="path3569"
                       inkscape:connector-curvature="0" />
                  </g>
                </g>
              </g>
            </g>
          </g>
        </g>
        <g
           id="g3571"
           transform="translate(563.439,2988.5586)">
          <path
             d="M 0,0 C 0,20.06 16.263,36.324 36.324,36.324 56.384,36.324 72.647,20.06 72.647,0 72.647,-20.061 56.384,-36.323 36.324,-36.323 16.263,-36.323 0,-20.061 0,0 Z"
             style="fill:none;stroke:#ffffff;stroke-width:0.99400002;stroke-linecap:butt;stroke-linejoin:miter;stroke-miterlimit:10;stroke-dasharray:none;stroke-opacity:1"
             id="path3573"
             inkscape:connector-curvature="0" />
        </g>
      </g>
    </g>
    <g
       id="g3535"
       transform="matrix(1.25,0,0,-1.25,49.257839,31.921815)">
      <path
         d="m 0,0 -11.122,-6.422 -11.122,-6.422 0,12.844 0,12.842 L -11.122,6.42 0,0 Z"
         style="fill:#ffffff;fill-opacity:1;fill-rule:nonzero;stroke:none"
         id="path3537"
         inkscape:connector-curvature="0" />
    </g>
  </g>
</svg>
