<?xml version="1.0" encoding="utf-8"?>
<!DOCTYPE svg PUBLIC "-//W3C//DTD SVG 1.1//EN" "http://www.w3.org/Graphics/SVG/1.1/DTD/svg11.dtd">
<svg version="1.1" id="Layer_1" xmlns="http://www.w3.org/2000/svg" xmlns:xlink="http://www.w3.org/1999/xlink" x="0px" y="0px" width="570px" height="570px" viewBox="0 0 570 570" enable-background="new 0 0 570 570" xml:space="preserve">
	<rect fill="#154364" width="570" height="570"></rect>
	<path fill="#215579" d="M285.013,322.312l-18.59,5.237c-0.935-2.734-3.156-4.865-5.946-5.67L268.862,285h-1.031l-8.334,36.657 c-0.482-0.08-0.976-0.135-1.483-0.135c-2.489,0-4.74,1.029-6.354,2.684L206.92,285h-1.528L251,324.965 c-1.161,1.494-1.864,3.369-1.879,5.405l-75.86,3.69c-0.302-2.546-1.956-4.671-4.223-5.636L183.822,285h-1.061l-14.679,43.107 c-0.568-0.15-1.167-0.236-1.78-0.236c-0.875,0-1.708,0.166-2.483,0.458L143.808,285h-1.106l20.203,43.751 c-2.157,1.196-3.619,3.498-3.619,6.148c0,0.371,0.04,0.729,0.091,1.086l-47.283,10.914c-0.674-2.203-2.392-3.938-4.574-4.636 L121.307,285h-1.035l-13.733,57.032c-0.372-0.06-0.759-0.101-1.151-0.101c-2.564,0-4.801,1.382-6.022,3.443l-55.979-28.09 c0.548-1.248,0.859-2.625,0.859-4.072c0-1.82-0.488-3.524-1.328-4.997L79.309,285h-1.871l-35.057,22.365 c-1.307-1.844-3.207-3.227-5.43-3.865L41.31,285h-1.036l-4.298,18.268c-0.593-0.109-1.201-0.175-1.824-0.175 c-1.956,0-3.771,0.567-5.319,1.528L15.301,285h-1.222l13.93,20.194c-2.403,1.85-3.956,4.746-3.956,8.019 c0,0.773,0.096,1.522,0.262,2.252l-24.29,6.847v1.041l24.562-6.923c1.342,4.006,5.112,6.897,9.566,6.897 c0.226,0,0.447-0.016,0.673-0.031l13.547,72.145c-2.494,0.559-4.74,1.775-6.545,3.453L0.024,356.872v1.423l41.094,41.312 c-2.372,2.544-3.831,5.957-3.831,9.718c0,0.417,0.021,0.834,0.061,1.247l-37.324,4.625v1.01l37.439-4.641 c0.599,3.78,2.68,7.063,5.631,9.231l-12.442,18.323c-2.191-1.383-4.785-2.192-7.565-2.192c-5.389,0-10.079,3.011-12.487,7.445 l-10.576-5.277v1.125l10.135,5.053c-0.814,1.794-1.272,3.79-1.272,5.892c0,1.205,0.15,2.382,0.433,3.504l-9.295,2.72v1.044 l9.581-2.799c1.287,3.91,4.228,7.073,7.988,8.656L0.117,510.842v2.846l18.421-49.04c1.428,0.482,2.956,0.75,4.55,0.75 c6.032,0,11.18-3.771,13.241-9.084l45.864,16.001c-0.155,0.583-0.246,1.196-0.246,1.83c0,1.197,0.301,2.322,0.824,3.308 l-82.719,52.23l0.031,1.016l83.231-52.401c0.312,0.428,0.669,0.819,1.071,1.166l-27.582,37.105 c-1.518-1.017-3.348-1.614-5.313-1.614c-5.289,0-9.581,4.298-9.581,9.602c0,0.432,0.04,0.85,0.09,1.263L0.06,533.655 c-0.01-0.04-0.025-0.085-0.035-0.131v4.66c0.226-0.33,0.31-1.404,0.31-2.496c0-0.407-0.038-0.65-0.089-1.042l41.939-7.838 c0.805,3.343,3.343,6.007,6.621,6.962L40.274,570h1.036l8.476-35.998c0.553,0.096,1.121,0.161,1.704,0.161 c4.555,0,8.36-3.192,9.335-7.461l60.684,10.618c-0.024,0.23-0.035,0.467-0.035,0.708c0,1.212,0.308,2.349,0.839,3.344L77.438,570 h1.871l43.551-27.783c0.865,1.165,2.082,2.061,3.5,2.513L120.272,570h1.035l6.027-25.045c0.378,0.066,0.76,0.106,1.152,0.106 c0.874,0,1.708-0.171,2.483-0.462l11.733,25.4h1.106l-11.924-25.818c1.488-0.829,2.639-2.182,3.212-3.81l46.569,12.823 c-0.085,0.442-0.135,0.9-0.135,1.373c0,2.91,1.764,5.403,4.276,6.474L182.761,570h1.061l2.94-8.641 c0.573,0.15,1.167,0.235,1.785,0.235c1.924,0,3.665-0.773,4.935-2.035l11.91,10.44h1.528l-12.784-11.199 c0.891-1.182,1.423-2.645,1.423-4.232c0-1.931-0.774-3.675-2.032-4.948l23.948-27.412c1.564,1.231,3.53,1.972,5.671,1.972 c3.73,0,6.932-2.229,8.38-5.426l35.862,14.172c-0.306,0.916-0.477,1.896-0.477,2.911c0,4.213,2.824,7.757,6.675,8.862L267.831,570 h1.031l5.704-25.079c0.504,0.085,1.021,0.141,1.549,0.141c1.765,0,3.409-0.507,4.807-1.372l4.092,5.931v-1.768l-3.263-4.732 c1.574-1.225,2.74-2.95,3.263-4.936v-4.66c-0.207-0.795-0.514-1.549-0.91-2.243l0.91-0.571v-1.076l-1.397,0.881 c-0.95-1.354-2.252-2.435-3.782-3.108l5.179-13.719v-2.846l-6.118,16.202c-0.875-0.276-1.811-0.432-2.781-0.432 c-0.828,0-1.629,0.12-2.392,0.326l-17.494-53.321c2.553-1.051,4.354-3.569,4.354-6.505c0-0.509-0.061-1.007-0.161-1.483 l24.592-7.195v-1.044l-24.879,7.279c-0.99-2.681-3.553-4.585-6.57-4.585c-0.181,0-0.362,0.01-0.543,0.024l-3.86-25.653 c4.268-0.794,7.868-3.499,9.873-7.193l25.979,12.96v-1.125l-25.538-12.739c0.82-1.796,1.277-3.787,1.277-5.887 c0-0.423-0.023-0.835-0.06-1.247l24.32-3.017v-1.01l-24.44,3.025c-0.956-6.042-5.706-10.818-11.728-11.798l8.545-67.098 c0.206,0.016,0.412,0.03,0.624,0.03c2.272,0,4.338-0.858,5.912-2.262l21.087,21.199v-1.423l-20.378-20.484 c1.413-1.578,2.277-3.66,2.277-5.947c0-0.659-0.076-1.302-0.211-1.925l18.312-5.163V322.312z M173.311,335.065l75.855-3.69 c0.109,1.071,0.422,2.086,0.874,3.011l-47.327,26.835c-2.026-3.241-5.62-5.398-9.718-5.398c-2.594,0-4.986,0.864-6.906,2.317 l-14.951-18.158C172.441,338.74,173.266,337,173.311,335.065z M142.516,460.084c-0.241,0-0.487,0.01-0.724,0.034l-4.575-25.809 c1.082-0.271,2.062-0.795,2.876-1.498l36.584,36.668c-1.301,1.412-2.286,3.127-2.844,5.022l-24.416-6.164 c0.07-0.401,0.115-0.809,0.115-1.226C149.533,463.23,146.391,460.084,142.516,460.084z M135.524,467.523l-39.687,5.208 c-0.247-1.202-0.8-2.292-1.574-3.187l36.651-36.733c1.232,1.065,2.835,1.719,4.59,1.719c0.246,0,0.487-0.015,0.729-0.04 l4.569,25.814c-3.042,0.765-5.299,3.519-5.299,6.808C135.503,467.253,135.513,467.388,135.524,467.523z M130.205,432.098 l-36.655,36.733c-1.227-1.065-2.831-1.719-4.584-1.719c-1.106,0-2.143,0.262-3.072,0.719L59.04,421.376 c3.046-1.922,5.313-4.968,6.218-8.558l63.309,13.695c-0.045,0.321-0.08,0.653-0.08,0.983 C128.486,429.263,129.14,430.866,130.205,432.098z M140.802,432.098c1.055-1.217,1.699-2.8,1.713-4.54l89.9-5.69 c0.302,3.067,1.569,5.843,3.495,8.028l-41.106,39.102c-2.277-2.228-5.394-3.6-8.827-3.6c-3.313,0-6.334,1.276-8.59,3.368 L140.802,432.098z M232.346,420.471c0,0.131,0.01,0.261,0.01,0.392l-89.91,5.696c-0.191-1.443-0.819-2.746-1.744-3.771 l44.739-46.836c2.015,1.77,4.66,2.85,7.555,2.85c3.002,0,5.736-1.161,7.781-3.057l35.34,35.074 C233.778,413.357,232.346,416.745,232.346,420.471z M164.569,341.707c0.552,0.14,1.13,0.225,1.734,0.225 c1.513,0,2.916-0.487,4.062-1.306l14.951,18.151c-2.323,2.103-3.785,5.148-3.785,8.53c0,3.083,1.21,5.883,3.181,7.943 l-44.734,46.837c-0.532-0.446-1.135-0.808-1.784-1.079L164.569,341.707z M112.406,348.959c0-0.366-0.041-0.728-0.091-1.079 l47.282-10.915c0.613,2.006,2.101,3.631,4.017,4.43l-26.376,79.302c-0.558-0.146-1.135-0.226-1.734-0.226 c-0.709,0-1.397,0.105-2.041,0.302l-25.1-65.453C110.751,354.199,112.406,351.774,112.406,348.959z M101.099,354.521 c1.187,0.919,2.674,1.472,4.289,1.472c0.708,0,1.397-0.11,2.041-0.306l25.099,65.453c-1.804,0.849-3.187,2.442-3.755,4.388 l-63.304-13.693c0.146-0.815,0.222-1.654,0.222-2.509c0-4.037-1.674-7.671-4.363-10.266L101.099,354.521z M35.826,323.176 c3.051-0.507,5.641-2.388,7.108-4.991l55.975,28.086c-0.342,0.83-0.533,1.74-0.533,2.688c0,1.9,0.753,3.625,1.975,4.888 l-39.772,44.544c-2.463-2.06-5.63-3.302-9.089-3.302c-0.723,0-1.432,0.055-2.131,0.16L35.826,323.176z M82.52,471.363 l-45.86-16.001c0.408-1.326,0.628-2.734,0.628-4.196c0-4.711-2.287-8.889-5.805-11.478l12.441-18.324 c2.192,1.388,4.786,2.192,7.565,2.192c2.418,0,4.689-0.608,6.682-1.674l26.848,46.445 C83.923,469.078,83.048,470.128,82.52,471.363z M121.69,536.33l-60.695-10.618c0.045-0.382,0.075-0.764,0.075-1.156 c0-2.971-1.347-5.625-3.463-7.384l27.582-37.11c1.091,0.704,2.383,1.111,3.776,1.111c1.175,0,2.282-0.292,3.257-0.81 l32.157,51.975C123.062,533.298,122.092,534.7,121.69,536.33z M128.486,531.001c-1.177,0-2.283,0.291-3.257,0.804l-32.152-51.976 c1.754-1.276,2.901-3.348,2.901-5.685c0-0.141-0.01-0.276-0.021-0.412l39.687-5.213c0.528,2.604,2.489,4.676,5.022,5.369 l-11.311,57.167C129.069,531.021,128.782,531.001,128.486,531.001z M132.976,532.625c-0.76-0.634-1.655-1.102-2.634-1.374 l11.31-57.167c0.286,0.035,0.572,0.061,0.864,0.061c3.107,0,5.741-2.026,6.661-4.831l24.411,6.163 c-0.177,0.839-0.272,1.714-0.272,2.609c0,3.413,1.348,6.51,3.536,8.792L132.976,532.625z M181.936,552.226l-46.568-12.824 c0.086-0.443,0.136-0.9,0.136-1.373c0-1.81-0.688-3.453-1.809-4.7l43.878-45.751c2.222,1.971,5.133,3.176,8.331,3.197 l1.905,56.801C185.078,547.861,182.822,549.716,181.936,552.226z M192.769,548.962c-1.105-0.839-2.473-1.356-3.956-1.411 l-1.906-56.812c2.971-0.216,5.656-1.457,7.708-3.377l21.655,21.48c-1.442,1.629-2.327,3.765-2.327,6.112 c0,2.585,1.065,4.922,2.775,6.596L192.769,548.962z M223.146,505.73c-2.377,0-4.538,0.914-6.172,2.396l-21.651-21.48 c2.061-2.257,3.318-5.258,3.318-8.561c0-0.519-0.036-1.026-0.098-1.529l48.199-7.826c0.387,1.639,1.343,3.056,2.654,4.026 l-21.656,34.214C226.384,506.188,224.82,505.73,223.146,505.73z M253.564,474.145c0.589,0,1.162-0.08,1.709-0.221l17.494,53.327 c-2.222,0.875-4.016,2.579-5.013,4.74l-35.866-14.171c0.296-0.905,0.457-1.865,0.457-2.866c0-3.051-1.483-5.751-3.765-7.43 l21.662-34.22C251.232,473.838,252.363,474.145,253.564,474.145z M252.026,460.254c-3.131,0.705-5.475,3.506-5.475,6.858 c0,0.21,0.01,0.417,0.03,0.623l-48.192,7.827c-0.447-2.208-1.462-4.208-2.891-5.837l41.104-39.102 c2.564,2.52,6.073,4.077,9.948,4.077c0.543,0,1.086-0.035,1.614-0.096L252.026,460.254z M247.849,406.299 c-0.427-0.04-0.859-0.061-1.297-0.061c-3.765,0-7.188,1.468-9.732,3.865l-35.333-35.073c1.844-2.041,2.971-4.751,2.971-7.723 c0-1.874-0.452-3.648-1.247-5.212l47.323-26.835c1.308,2.026,3.404,3.488,5.856,3.941L247.849,406.299z"></path>
	<polygon fill="#215579" points="15.309,569.912 14.079,570 0,549.431 0.032,547.764"></polygon>
	<path fill="#215579" d="M570,322.312l-18.588,5.237c-0.937-2.734-3.157-4.865-5.947-5.67L553.849,285h-1.03l-8.334,36.657 c-0.483-0.08-0.975-0.135-1.483-0.135c-2.488,0-4.74,1.029-6.354,2.684L491.908,285h-1.528l45.609,39.965 c-1.162,1.494-1.865,3.369-1.88,5.405l-75.859,3.69c-0.303-2.546-1.957-4.671-4.225-5.636L468.81,285h-1.06l-14.679,43.107 c-0.568-0.15-1.167-0.236-1.779-0.236c-0.876,0-1.711,0.166-2.485,0.458L428.797,285h-1.107l20.203,43.751 c-2.156,1.196-3.619,3.498-3.619,6.148c0,0.371,0.04,0.729,0.09,1.086l-47.282,10.914c-0.673-2.203-2.392-3.938-4.574-4.636 L406.295,285h-1.034l-13.733,57.032c-0.373-0.06-0.759-0.101-1.151-0.101c-2.564,0-4.801,1.382-6.022,3.443l-55.979-28.09 c0.548-1.248,0.858-2.625,0.858-4.072c0-1.82-0.487-3.524-1.326-4.997L364.297,285h-1.87l-35.058,22.365 c-1.308-1.844-3.208-3.227-5.43-3.865l4.358-18.5h-1.034l-4.299,18.268c-0.593-0.109-1.201-0.175-1.824-0.175 c-1.956,0-3.77,0.567-5.318,1.528L300.289,285h-1.222l13.93,20.194c-2.402,1.85-3.956,4.746-3.956,8.019 c0,0.773,0.096,1.522,0.262,2.252l-24.29,6.847v1.041l24.561-6.923c1.344,4.006,5.113,6.897,9.567,6.897 c0.226,0,0.446-0.016,0.673-0.031l13.548,72.145c-2.494,0.559-4.74,1.775-6.546,3.453l-41.803-42.021v1.423l41.094,41.312 c-2.372,2.544-3.83,5.957-3.83,9.718c0,0.417,0.021,0.834,0.06,1.247l-37.323,4.625v1.01l37.44-4.641 c0.598,3.78,2.679,7.063,5.63,9.231l-12.44,18.323c-2.193-1.383-4.786-2.192-7.566-2.192c-5.39,0-10.079,3.011-12.486,7.445 l-10.577-5.277v1.125l10.134,5.053c-0.814,1.794-1.271,3.79-1.271,5.892c0,1.205,0.15,2.382,0.433,3.504l-9.295,2.72v1.044 l9.581-2.799c1.287,3.91,4.228,7.073,7.987,8.656l-17.568,46.551v2.846l18.513-49.04c1.429,0.482,2.957,0.75,4.551,0.75 c6.032,0,11.18-3.771,13.24-9.084l45.865,16.001c-0.156,0.583-0.247,1.196-0.247,1.83c0,1.197,0.303,2.322,0.825,3.308 l-82.747,52.182v1.186l83.289-52.522c0.312,0.428,0.669,0.819,1.071,1.166l-27.582,37.105c-1.518-1.017-3.348-1.614-5.313-1.614 c-5.288,0-9.581,4.298-9.581,9.602c0,0.432,0.04,0.85,0.09,1.263l-41.938,7.837c-0.01-0.04-0.025-0.085-0.035-0.131v4.66 c0.196-0.75,0.307-1.539,0.307-2.348c0-0.407-0.035-0.799-0.086-1.19l41.939-7.838c0.805,3.343,3.343,6.007,6.62,6.962 L325.264,570h1.034l8.476-35.998c0.553,0.096,1.121,0.161,1.704,0.161c4.554,0,8.359-3.192,9.334-7.461l60.685,10.618 c-0.025,0.23-0.035,0.467-0.035,0.708c0,1.212,0.308,2.349,0.84,3.344L362.427,570h1.87l43.553-27.783 c0.864,1.165,2.081,2.061,3.497,2.513L405.261,570h1.034l6.027-25.045c0.378,0.066,0.759,0.106,1.151,0.106 c0.875,0,1.71-0.171,2.483-0.462l11.732,25.4h1.107l-11.924-25.818c1.487-0.829,2.639-2.182,3.212-3.81l46.569,12.823 c-0.086,0.442-0.137,0.9-0.137,1.373c0,2.91,1.765,5.403,4.278,6.474L467.75,570h1.06l2.941-8.641 c0.573,0.15,1.165,0.235,1.784,0.235c1.925,0,3.664-0.773,4.937-2.035L490.38,570h1.528l-12.783-11.199 c0.89-1.182,1.423-2.645,1.423-4.232c0-1.931-0.774-3.675-2.031-4.948l23.948-27.412c1.563,1.231,3.528,1.972,5.671,1.972 c3.729,0,6.932-2.229,8.379-5.426l35.862,14.172c-0.307,0.916-0.478,1.896-0.478,2.911c0,4.213,2.824,7.757,6.675,8.862 L552.818,570h1.03l5.706-25.079c0.503,0.085,1.021,0.141,1.549,0.141c1.764,0,3.408-0.507,4.806-1.372L570,549.62v-1.768 l-3.263-4.732c1.574-1.225,2.741-2.95,3.263-4.936v-4.66c-0.205-0.795-0.512-1.549-0.91-2.243l0.91-0.571v-1.076l-1.397,0.881 c-0.948-1.354-2.251-2.435-3.78-3.108L570,513.688v-2.846l-6.117,16.202c-0.875-0.276-1.809-0.432-2.779-0.432 c-0.83,0-1.629,0.12-2.394,0.326l-17.493-53.321c2.555-1.051,4.353-3.569,4.353-6.505c0-0.509-0.061-1.007-0.16-1.483L570,458.434 v-1.044l-24.878,7.279c-0.99-2.681-3.554-4.585-6.569-4.585c-0.181,0-0.361,0.01-0.542,0.024l-3.86-25.653 c4.267-0.794,7.866-3.499,9.871-7.193L570,440.222v-1.125l-25.536-12.739c0.819-1.796,1.277-3.787,1.277-5.887 c0-0.423-0.025-0.835-0.061-1.247L570,416.207v-1.01l-24.439,3.025c-0.956-6.042-5.707-10.818-11.728-11.798l8.545-67.098 c0.207,0.016,0.413,0.03,0.623,0.03c2.272,0,4.339-0.858,5.911-2.262L570,358.295v-1.423l-20.379-20.484 c1.413-1.578,2.278-3.66,2.278-5.947c0-0.659-0.075-1.302-0.212-1.925L570,323.353V322.312z M458.299,335.065l75.855-3.69 c0.109,1.071,0.422,2.086,0.874,3.011L487.7,361.221c-2.024-3.241-5.62-5.398-9.717-5.398c-2.593,0-4.987,0.864-6.906,2.317 l-14.95-18.158C457.43,338.74,458.254,337,458.299,335.065z M427.504,460.084c-0.241,0-0.488,0.01-0.724,0.034l-4.575-25.809 c1.082-0.271,2.062-0.795,2.877-1.498l36.585,36.668c-1.303,1.412-2.288,3.127-2.846,5.022l-24.415-6.164 c0.07-0.401,0.115-0.809,0.115-1.226C434.521,463.23,431.379,460.084,427.504,460.084z M420.511,467.523l-39.687,5.208 c-0.246-1.202-0.799-2.292-1.573-3.187l36.651-36.733c1.231,1.065,2.835,1.719,4.589,1.719c0.246,0,0.488-0.015,0.729-0.04 l4.568,25.814c-3.041,0.765-5.298,3.519-5.298,6.808C420.491,467.253,420.501,467.388,420.511,467.523z M415.193,432.098 l-36.656,36.733c-1.226-1.065-2.83-1.719-4.585-1.719c-1.106,0-2.141,0.262-3.07,0.719l-26.853-46.455 c3.045-1.922,5.312-4.968,6.217-8.558l63.308,13.695c-0.045,0.321-0.08,0.653-0.08,0.983 C413.474,429.263,414.128,430.866,415.193,432.098z M425.789,432.098c1.057-1.217,1.7-2.8,1.715-4.54l89.901-5.69 c0.301,3.067,1.568,5.843,3.493,8.028l-41.104,39.102c-2.277-2.228-5.395-3.6-8.828-3.6c-3.312,0-6.333,1.276-8.59,3.368 L425.789,432.098z M517.334,420.471c0,0.131,0.011,0.261,0.011,0.392l-89.911,5.696c-0.191-1.443-0.819-2.746-1.744-3.771 l44.739-46.836c2.015,1.77,4.66,2.85,7.555,2.85c3.002,0,5.736-1.161,7.782-3.057l35.338,35.074 C518.767,413.357,517.334,416.745,517.334,420.471z M449.558,341.707c0.552,0.14,1.13,0.225,1.734,0.225 c1.512,0,2.915-0.487,4.061-1.306l14.95,18.151c-2.323,2.103-3.785,5.148-3.785,8.53c0,3.083,1.211,5.883,3.182,7.943 l-44.734,46.837c-0.532-0.446-1.136-0.808-1.783-1.079L449.558,341.707z M397.394,348.959c0-0.366-0.041-0.728-0.091-1.079 l47.282-10.915c0.614,2.006,2.103,3.631,4.018,4.43l-26.377,79.302c-0.559-0.146-1.137-0.226-1.734-0.226 c-0.708,0-1.396,0.105-2.04,0.302l-25.1-65.453C395.739,354.199,397.394,351.774,397.394,348.959z M386.089,354.521 c1.185,0.919,2.673,1.472,4.287,1.472c0.709,0,1.397-0.11,2.04-0.306l25.1,65.453c-1.805,0.849-3.188,2.442-3.755,4.388 l-63.304-13.693c0.146-0.815,0.221-1.654,0.221-2.509c0-4.037-1.674-7.671-4.363-10.266L386.089,354.521z M320.813,323.176 c3.052-0.507,5.64-2.388,7.108-4.991l55.974,28.086c-0.342,0.83-0.533,1.74-0.533,2.688c0,1.9,0.755,3.625,1.977,4.888 l-39.773,44.544c-2.462-2.06-5.63-3.302-9.088-3.302c-0.725,0-1.433,0.055-2.131,0.16L320.813,323.176z M367.509,471.363 l-45.86-16.001c0.407-1.326,0.628-2.734,0.628-4.196c0-4.711-2.286-8.889-5.807-11.478l12.442-18.324 c2.191,1.388,4.786,2.192,7.565,2.192c2.418,0,4.69-0.608,6.681-1.674l26.849,46.445 C368.91,469.078,368.037,470.128,367.509,471.363z M406.678,536.33l-60.694-10.618c0.045-0.382,0.074-0.764,0.074-1.156 c0-2.971-1.346-5.625-3.462-7.384l27.582-37.11c1.091,0.704,2.383,1.111,3.774,1.111c1.177,0,2.283-0.292,3.259-0.81 l32.156,51.975C408.05,533.298,407.079,534.7,406.678,536.33z M413.474,531.001c-1.176,0-2.282,0.291-3.256,0.804l-32.153-51.976 c1.754-1.276,2.9-3.348,2.9-5.685c0-0.141-0.01-0.276-0.02-0.412l39.687-5.213c0.528,2.604,2.489,4.676,5.022,5.369 l-11.311,57.167C414.057,531.021,413.771,531.001,413.474,531.001z M417.963,532.625c-0.759-0.634-1.654-1.102-2.634-1.374 l11.311-57.167c0.286,0.035,0.572,0.061,0.864,0.061c3.106,0,5.741-2.026,6.661-4.831l24.409,6.163 c-0.176,0.839-0.271,1.714-0.271,2.609c0,3.413,1.348,6.51,3.535,8.792L417.963,532.625z M466.925,552.226l-46.569-12.824 c0.086-0.443,0.136-0.9,0.136-1.373c0-1.81-0.688-3.453-1.809-4.7l43.879-45.751c2.222,1.971,5.132,3.176,8.33,3.197l1.904,56.801 C470.065,547.861,467.811,549.716,466.925,552.226z M477.757,548.962c-1.104-0.839-2.472-1.356-3.956-1.411l-1.903-56.812 c2.97-0.216,5.653-1.457,7.705-3.377l21.655,21.48c-1.442,1.629-2.327,3.765-2.327,6.112c0,2.585,1.066,4.922,2.775,6.596 L477.757,548.962z M508.136,505.73c-2.378,0-4.54,0.914-6.174,2.396l-21.65-21.48c2.06-2.257,3.317-5.258,3.317-8.561 c0-0.519-0.035-1.026-0.096-1.529l48.198-7.826c0.387,1.639,1.343,3.056,2.653,4.026l-21.655,34.214 C511.372,506.188,509.81,505.73,508.136,505.73z M538.553,474.145c0.588,0,1.161-0.08,1.709-0.221l17.493,53.327 c-2.222,0.875-4.017,2.579-5.011,4.74l-35.868-14.171c0.297-0.905,0.458-1.865,0.458-2.866c0-3.051-1.483-5.751-3.766-7.43 l21.661-34.22C536.22,473.838,537.352,474.145,538.553,474.145z M537.014,460.254c-3.131,0.705-5.474,3.506-5.474,6.858 c0,0.21,0.011,0.417,0.03,0.623l-48.193,7.827c-0.447-2.208-1.462-4.208-2.89-5.837l41.104-39.102 c2.564,2.52,6.073,4.077,9.948,4.077c0.544,0,1.086-0.035,1.613-0.096L537.014,460.254z M532.837,406.299 c-0.428-0.04-0.859-0.061-1.297-0.061c-3.766,0-7.188,1.468-9.732,3.865l-35.333-35.073c1.845-2.041,2.971-4.751,2.971-7.723 c0-1.874-0.452-3.648-1.247-5.212l47.322-26.835c1.308,2.026,3.403,3.488,5.857,3.941L532.837,406.299z"></path>
	<polygon fill="#215579" points="300.289,570 299.067,570 285.013,549.62 285.013,547.852"></polygon>
	<path fill="#215579" d="M285.013,37.311l-18.59,5.238c-0.935-2.735-3.156-4.866-5.946-5.67L268.862,0h-1.031l-8.334,36.656 c-0.482-0.08-0.976-0.136-1.483-0.136c-2.489,0-4.74,1.031-6.354,2.685L206.92,0h-1.528L251,39.964 c-1.161,1.493-1.864,3.369-1.879,5.404l-75.86,3.69c-0.302-2.543-1.956-4.67-4.223-5.635L183.822,0h-1.061l-14.679,43.106 c-0.568-0.15-1.167-0.236-1.78-0.236c-0.875,0-1.708,0.166-2.483,0.457L143.808,0h-1.106l20.203,43.75 c-2.157,1.197-3.619,3.498-3.619,6.148c0,0.372,0.04,0.728,0.091,1.085l-47.283,10.914c-0.674-2.202-2.392-3.936-4.574-4.635 L121.307,0h-1.035l-13.733,57.032c-0.372-0.061-0.759-0.102-1.151-0.102c-2.564,0-4.801,1.383-6.022,3.445L43.387,32.284 c0.548-1.248,0.859-2.625,0.859-4.072c0-1.82-0.488-3.524-1.328-4.998L79.309,0h-1.871L42.381,22.366 c-1.307-1.847-3.207-3.228-5.43-3.867L41.31,0h-1.036l-4.298,18.268c-0.593-0.11-1.201-0.176-1.824-0.176 c-1.956,0-3.771,0.568-5.319,1.528L15.301,0h-1.222l13.93,20.194c-2.403,1.85-3.956,4.745-3.956,8.018 c0,0.773,0.096,1.524,0.262,2.252l-24.29,6.847v1.041l24.562-6.922c1.342,4.007,5.112,6.897,9.566,6.897 c0.226,0,0.447-0.016,0.673-0.03l13.547,72.144c-2.494,0.558-4.74,1.775-6.545,3.454L0.024,71.871v1.423l41.094,41.312 c-2.372,2.543-3.831,5.958-3.831,9.717c0,0.418,0.021,0.835,0.061,1.248l-37.324,4.624v1.01l37.439-4.639 c0.599,3.781,2.68,7.063,5.631,9.23L30.653,154.12c-2.191-1.382-4.785-2.191-7.565-2.191c-5.389,0-10.079,3.01-12.487,7.444 l-10.576-5.278v1.127l10.135,5.052c-0.814,1.795-1.272,3.791-1.272,5.892c0,1.207,0.15,2.383,0.433,3.504l-9.295,2.719v1.046 l9.581-2.8c1.287,3.91,4.228,7.073,7.988,8.658l-17.569,46.55v2.844l18.514-49.039c1.428,0.483,2.956,0.749,4.55,0.749 c6.032,0,11.18-3.77,13.241-9.083l45.864,16.001c-0.155,0.584-0.246,1.196-0.246,1.83c0,1.197,0.301,2.323,0.824,3.308 L0.024,244.633v1.187l83.29-52.525c0.312,0.429,0.669,0.82,1.071,1.168l-27.582,37.104c-1.518-1.016-3.348-1.614-5.313-1.614 c-5.289,0-9.581,4.298-9.581,9.602c0,0.433,0.04,0.85,0.09,1.262L0.06,248.653c-0.01-0.039-0.025-0.085-0.035-0.13v4.659 c0.196-0.748,0.307-1.538,0.307-2.346c0-0.408-0.035-0.8-0.086-1.193l41.939-7.836c0.805,3.343,3.343,6.007,6.621,6.963 L40.274,285h1.036l8.476-35.999c0.553,0.096,1.121,0.162,1.704,0.162c4.555,0,8.36-3.193,9.335-7.461l60.684,10.617 c-0.024,0.232-0.035,0.468-0.035,0.709c0,1.211,0.308,2.347,0.839,3.343L77.438,285h1.871l43.551-27.785 c0.865,1.166,2.082,2.061,3.5,2.513L120.272,285h1.035l6.027-25.045c0.378,0.065,0.76,0.105,1.152,0.105 c0.874,0,1.708-0.171,2.483-0.462L142.702,285h1.106l-11.924-25.819c1.488-0.829,2.639-2.183,3.212-3.811l46.569,12.824 c-0.085,0.442-0.135,0.899-0.135,1.373c0,2.911,1.764,5.404,4.276,6.475L182.761,285h1.061l2.94-8.641 c0.573,0.15,1.167,0.236,1.785,0.236c1.924,0,3.665-0.774,4.935-2.036L205.393,285h1.528l-12.784-11.2 c0.891-1.182,1.423-2.644,1.423-4.233c0-1.93-0.774-3.674-2.032-4.946l23.948-27.413c1.564,1.231,3.53,1.97,5.671,1.97 c3.73,0,6.932-2.227,8.38-5.424l35.862,14.17c-0.306,0.916-0.477,1.896-0.477,2.912c0,4.212,2.824,7.756,6.675,8.862L267.831,285 h1.031l5.704-25.08c0.504,0.085,1.021,0.141,1.549,0.141c1.765,0,3.409-0.508,4.807-1.372l4.092,5.932v-1.771l-3.263-4.729 c1.574-1.227,2.74-2.951,3.263-4.938v-4.659c-0.207-0.795-0.514-1.547-0.91-2.242l0.91-0.574v-1.074l-1.397,0.879 c-0.95-1.352-2.252-2.433-3.782-3.107l5.179-13.719v-2.844l-6.118,16.201c-0.875-0.275-1.811-0.432-2.781-0.432 c-0.828,0-1.629,0.121-2.392,0.326l-17.494-53.322c2.553-1.05,4.354-3.569,4.354-6.505c0-0.507-0.061-1.005-0.161-1.483 l24.592-7.193v-1.046l-24.879,7.279c-0.99-2.679-3.553-4.584-6.57-4.584c-0.181,0-0.362,0.01-0.543,0.024l-3.86-25.653 c4.268-0.794,7.868-3.499,9.873-7.193l25.979,12.96v-1.127l-25.538-12.738c0.82-1.794,1.277-3.785,1.277-5.887 c0-0.423-0.023-0.834-0.06-1.247l24.32-3.017v-1.01l-24.44,3.027c-0.956-6.044-5.706-10.818-11.728-11.799l8.545-67.097 c0.206,0.015,0.412,0.03,0.624,0.03c2.272,0,4.338-0.86,5.912-2.262l21.087,21.199v-1.423l-20.378-20.485 c1.413-1.579,2.277-3.66,2.277-5.947c0-0.658-0.076-1.302-0.211-1.924l18.312-5.164V37.311z M173.311,50.064l75.855-3.691 c0.109,1.071,0.422,2.087,0.874,3.012L202.713,76.22c-2.026-3.243-5.62-5.399-9.718-5.399c-2.594,0-4.986,0.864-6.906,2.318 L171.139,54.98C172.441,53.739,173.266,52,173.311,50.064z M142.516,175.083c-0.241,0-0.487,0.01-0.724,0.035l-4.575-25.809 c1.082-0.271,2.062-0.795,2.876-1.498l36.584,36.667c-1.301,1.413-2.286,3.127-2.844,5.023l-24.416-6.163 c0.07-0.402,0.115-0.81,0.115-1.228C149.533,178.23,146.391,175.083,142.516,175.083z M135.524,182.522l-39.687,5.209 c-0.247-1.202-0.8-2.292-1.574-3.188l36.651-36.732c1.232,1.065,2.835,1.719,4.59,1.719c0.246,0,0.487-0.015,0.729-0.04 l4.569,25.814c-3.042,0.765-5.299,3.519-5.299,6.807C135.503,182.252,135.513,182.387,135.524,182.522z M130.205,147.098 L93.549,183.83c-1.227-1.066-2.831-1.719-4.584-1.719c-1.106,0-2.143,0.262-3.072,0.72L59.04,136.375 c3.046-1.92,5.313-4.967,6.218-8.557l63.309,13.695c-0.045,0.321-0.08,0.653-0.08,0.984 C128.486,144.262,129.14,145.865,130.205,147.098z M140.802,147.098c1.055-1.217,1.699-2.801,1.713-4.541l89.9-5.69 c0.302,3.068,1.569,5.841,3.495,8.028l-41.106,39.101c-2.277-2.226-5.394-3.6-8.827-3.6c-3.313,0-6.334,1.277-8.59,3.369 L140.802,147.098z M232.346,135.469c0,0.131,0.01,0.262,0.01,0.393l-89.91,5.695c-0.191-1.443-0.819-2.745-1.744-3.771 l44.739-46.837c2.015,1.77,4.66,2.851,7.555,2.851c3.002,0,5.736-1.162,7.781-3.057l35.34,35.074 C233.778,128.356,232.346,131.745,232.346,135.469z M164.569,56.705c0.552,0.142,1.13,0.226,1.734,0.226 c1.513,0,2.916-0.487,4.062-1.306l14.951,18.153c-2.323,2.101-3.785,5.147-3.785,8.53c0,3.082,1.21,5.883,3.181,7.944 l-44.734,46.836c-0.532-0.446-1.135-0.809-1.784-1.08L164.569,56.705z M112.406,63.959c0-0.367-0.041-0.729-0.091-1.081 l47.282-10.914c0.613,2.005,2.101,3.63,4.017,4.429l-26.376,79.303c-0.558-0.146-1.135-0.227-1.734-0.227 c-0.709,0-1.397,0.106-2.041,0.302l-25.1-65.452C110.751,69.198,112.406,66.774,112.406,63.959z M101.099,69.519 c1.187,0.919,2.674,1.474,4.289,1.474c0.708,0,1.397-0.111,2.041-0.308l25.099,65.453c-1.804,0.85-3.187,2.443-3.755,4.388 l-63.304-13.693c0.146-0.814,0.222-1.654,0.222-2.509c0-4.036-1.674-7.67-4.363-10.264L101.099,69.519z M35.826,38.174 c3.051-0.506,5.641-2.387,7.108-4.99L98.908,61.27c-0.342,0.83-0.533,1.74-0.533,2.69c0,1.9,0.753,3.624,1.975,4.886 l-39.772,44.546c-2.463-2.062-5.63-3.303-9.089-3.303c-0.723,0-1.432,0.055-2.131,0.16L35.826,38.174z M82.52,186.364 l-45.86-16.001c0.408-1.327,0.628-2.735,0.628-4.198c0-4.71-2.287-8.887-5.805-11.477l12.441-18.323 c2.192,1.387,4.786,2.191,7.565,2.191c2.418,0,4.689-0.608,6.682-1.673l26.848,46.445 C83.923,184.076,83.048,185.127,82.52,186.364z M121.69,251.329l-60.695-10.617c0.045-0.382,0.075-0.765,0.075-1.156 c0-2.971-1.347-5.626-3.463-7.385l27.582-37.11c1.091,0.705,2.383,1.111,3.776,1.111c1.175,0,2.282-0.292,3.257-0.809 l32.157,51.975C123.062,248.298,122.092,249.7,121.69,251.329z M128.486,246c-1.177,0-2.283,0.293-3.257,0.805l-32.152-51.975 c1.754-1.277,2.901-3.348,2.901-5.686c0-0.141-0.01-0.276-0.021-0.412l39.687-5.213c0.528,2.604,2.489,4.675,5.022,5.369 l-11.311,57.167C129.069,246.02,128.782,246,128.486,246z M132.976,247.624c-0.76-0.633-1.655-1.101-2.634-1.373l11.31-57.168 c0.286,0.035,0.572,0.061,0.864,0.061c3.107,0,5.741-2.025,6.661-4.832l24.411,6.164c-0.177,0.839-0.272,1.714-0.272,2.609 c0,3.413,1.348,6.51,3.536,8.792L132.976,247.624z M181.936,267.224l-46.568-12.824c0.086-0.442,0.136-0.899,0.136-1.372 c0-1.81-0.688-3.453-1.809-4.7l43.878-45.752c2.222,1.971,5.133,3.177,8.331,3.197l1.905,56.801 C185.078,262.86,182.822,264.715,181.936,267.224z M192.769,263.961c-1.105-0.84-2.473-1.357-3.956-1.412l-1.906-56.811 c2.971-0.217,5.656-1.458,7.708-3.378l21.655,21.48c-1.442,1.63-2.327,3.766-2.327,6.113c0,2.584,1.065,4.922,2.775,6.597 L192.769,263.961z M223.146,220.728c-2.377,0-4.538,0.916-6.172,2.398l-21.651-21.479c2.061-2.258,3.318-5.258,3.318-8.562 c0-0.519-0.036-1.026-0.098-1.528l48.199-7.828c0.387,1.64,1.343,3.057,2.654,4.028l-21.656,34.213 C226.384,221.187,224.82,220.728,223.146,220.728z M253.564,189.144c0.589,0,1.162-0.08,1.709-0.221l17.494,53.327 c-2.222,0.875-4.016,2.579-5.013,4.741l-35.866-14.172c0.296-0.905,0.457-1.865,0.457-2.866c0-3.05-1.483-5.751-3.765-7.429 l21.662-34.219C251.232,188.837,252.363,189.144,253.564,189.144z M252.026,175.254c-3.131,0.703-5.475,3.503-5.475,6.856 c0,0.212,0.01,0.418,0.03,0.624l-48.192,7.827c-0.447-2.207-1.462-4.207-2.891-5.837l41.104-39.1 c2.564,2.519,6.073,4.077,9.948,4.077c0.543,0,1.086-0.035,1.614-0.096L252.026,175.254z M247.849,121.298 c-0.427-0.04-0.859-0.061-1.297-0.061c-3.765,0-7.188,1.469-9.732,3.867l-35.333-35.075c1.844-2.042,2.971-4.75,2.971-7.722 c0-1.875-0.452-3.649-1.247-5.212l47.323-26.836c1.308,2.027,3.404,3.49,5.856,3.943L247.849,121.298z"></path>
	<polygon fill="#215579" points="15.301,285 14.079,285 0.024,264.62 0.024,262.85"></polygon>
	<path fill="#215579" d="M570,37.311l-18.588,5.238c-0.937-2.735-3.157-4.866-5.947-5.67L553.849,0h-1.03l-8.334,36.656 c-0.483-0.08-0.975-0.136-1.483-0.136c-2.488,0-4.74,1.031-6.354,2.685L491.908,0h-1.528l45.609,39.964 c-1.162,1.493-1.865,3.369-1.88,5.404l-75.859,3.69c-0.303-2.543-1.957-4.67-4.225-5.635L468.81,0h-1.06l-14.679,43.106 c-0.568-0.15-1.167-0.236-1.779-0.236c-0.876,0-1.711,0.166-2.485,0.457L428.797,0h-1.107l20.203,43.75 c-2.156,1.197-3.619,3.498-3.619,6.148c0,0.372,0.04,0.728,0.09,1.085l-47.282,10.914c-0.673-2.202-2.392-3.936-4.574-4.635 L406.295,0h-1.034l-13.733,57.032c-0.373-0.061-0.759-0.102-1.151-0.102c-2.564,0-4.801,1.383-6.022,3.445l-55.979-28.091 c0.548-1.248,0.858-2.625,0.858-4.072c0-1.82-0.487-3.524-1.326-4.998L364.297,0h-1.87l-35.058,22.366 c-1.308-1.847-3.208-3.228-5.43-3.867L326.298,0h-1.034l-4.299,18.268c-0.593-0.11-1.201-0.176-1.824-0.176 c-1.956,0-3.77,0.568-5.318,1.528L300.289,0h-1.222l13.93,20.194c-2.402,1.85-3.956,4.745-3.956,8.018 c0,0.773,0.096,1.524,0.262,2.252l-24.29,6.847v1.041l24.561-6.922c1.344,4.007,5.113,6.897,9.567,6.897 c0.226,0,0.446-0.016,0.673-0.03l13.548,72.144c-2.494,0.558-4.74,1.775-6.546,3.454l-41.803-42.022v1.423l41.094,41.312 c-2.372,2.543-3.83,5.958-3.83,9.717c0,0.418,0.021,0.835,0.06,1.248l-37.323,4.624v1.01l37.44-4.639 c0.598,3.781,2.679,7.063,5.63,9.23l-12.44,18.323c-2.193-1.382-4.786-2.191-7.566-2.191c-5.39,0-10.079,3.01-12.486,7.444 l-10.577-5.278v1.127l10.134,5.052c-0.814,1.795-1.271,3.791-1.271,5.892c0,1.207,0.15,2.383,0.433,3.504l-9.295,2.719v1.046 l9.581-2.8c1.287,3.91,4.228,7.073,7.987,8.658l-17.568,46.55v2.844l18.513-49.039c1.429,0.483,2.957,0.749,4.551,0.749 c6.032,0,11.18-3.77,13.24-9.083l45.865,16.001c-0.156,0.584-0.247,1.196-0.247,1.83c0,1.197,0.303,2.323,0.825,3.308 l-82.747,52.182v1.187l83.289-52.525c0.312,0.429,0.669,0.82,1.071,1.168l-27.582,37.104c-1.518-1.016-3.348-1.614-5.313-1.614 c-5.288,0-9.581,4.298-9.581,9.602c0,0.433,0.04,0.85,0.09,1.262l-41.938,7.836c-0.01-0.039-0.025-0.085-0.035-0.13v4.659 c0.196-0.748,0.307-1.538,0.307-2.346c0-0.408-0.035-0.8-0.086-1.193l41.939-7.836c0.805,3.343,3.343,6.007,6.62,6.963 L325.264,285h1.034l8.476-35.999c0.553,0.096,1.121,0.162,1.704,0.162c4.554,0,8.359-3.193,9.334-7.461l60.685,10.617 c-0.025,0.232-0.035,0.468-0.035,0.709c0,1.211,0.308,2.347,0.84,3.343L362.427,285h1.87l43.553-27.785 c0.864,1.166,2.081,2.061,3.497,2.513L405.261,285h1.034l6.027-25.045c0.378,0.065,0.759,0.105,1.151,0.105 c0.875,0,1.71-0.171,2.483-0.462L427.689,285h1.107l-11.924-25.819c1.487-0.829,2.639-2.183,3.212-3.811l46.569,12.824 c-0.086,0.442-0.137,0.899-0.137,1.373c0,2.911,1.765,5.404,4.278,6.475L467.75,285h1.06l2.941-8.641 c0.573,0.15,1.165,0.236,1.784,0.236c1.925,0,3.664-0.774,4.937-2.036L490.38,285h1.528l-12.783-11.2 c0.89-1.182,1.423-2.644,1.423-4.233c0-1.93-0.774-3.674-2.031-4.946l23.948-27.413c1.563,1.231,3.528,1.97,5.671,1.97 c3.729,0,6.932-2.227,8.379-5.424l35.862,14.17c-0.307,0.916-0.478,1.896-0.478,2.912c0,4.212,2.824,7.756,6.675,8.862 L552.818,285h1.03l5.706-25.08c0.503,0.085,1.021,0.141,1.549,0.141c1.764,0,3.408-0.508,4.806-1.372l4.091,5.932v-1.771 l-3.263-4.729c1.574-1.227,2.741-2.951,3.263-4.938v-4.659c-0.205-0.795-0.512-1.547-0.91-2.242l0.91-0.574v-1.074l-1.397,0.879 c-0.948-1.352-2.251-2.433-3.78-3.107L570,228.686v-2.844l-6.117,16.201c-0.875-0.275-1.809-0.432-2.779-0.432 c-0.83,0-1.629,0.121-2.394,0.326l-17.493-53.322c2.555-1.05,4.353-3.569,4.353-6.505c0-0.507-0.061-1.005-0.16-1.483L570,173.434 v-1.046l-24.878,7.279c-0.99-2.679-3.554-4.584-6.569-4.584c-0.181,0-0.361,0.01-0.542,0.024l-3.86-25.653 c4.267-0.794,7.866-3.499,9.871-7.193L570,155.221v-1.127l-25.536-12.738c0.819-1.794,1.277-3.785,1.277-5.887 c0-0.423-0.025-0.834-0.061-1.247L570,131.206v-1.01l-24.439,3.027c-0.956-6.044-5.707-10.818-11.728-11.799l8.545-67.097 c0.207,0.015,0.413,0.03,0.623,0.03c2.272,0,4.339-0.86,5.911-2.262L570,73.294v-1.423l-20.379-20.485 c1.413-1.579,2.278-3.66,2.278-5.947c0-0.658-0.075-1.302-0.212-1.924L570,38.351V37.311z M458.299,50.064l75.855-3.691 c0.109,1.071,0.422,2.087,0.874,3.012L487.7,76.22c-2.024-3.243-5.62-5.399-9.717-5.399c-2.593,0-4.987,0.864-6.906,2.318 l-14.95-18.158C457.43,53.739,458.254,52,458.299,50.064z M427.504,175.083c-0.241,0-0.488,0.01-0.724,0.035l-4.575-25.809 c1.082-0.271,2.062-0.795,2.877-1.498l36.585,36.667c-1.303,1.413-2.288,3.127-2.846,5.023l-24.415-6.163 c0.07-0.402,0.115-0.81,0.115-1.228C434.521,178.23,431.379,175.083,427.504,175.083z M420.511,182.522l-39.687,5.209 c-0.246-1.202-0.799-2.292-1.573-3.188l36.651-36.732c1.231,1.065,2.835,1.719,4.589,1.719c0.246,0,0.488-0.015,0.729-0.04 l4.568,25.814c-3.041,0.765-5.298,3.519-5.298,6.807C420.491,182.252,420.501,182.387,420.511,182.522z M415.193,147.098 l-36.656,36.732c-1.226-1.066-2.83-1.719-4.585-1.719c-1.106,0-2.141,0.262-3.07,0.72l-26.853-46.456 c3.045-1.92,5.312-4.967,6.217-8.557l63.308,13.695c-0.045,0.321-0.08,0.653-0.08,0.984 C413.474,144.262,414.128,145.865,415.193,147.098z M425.789,147.098c1.057-1.217,1.7-2.801,1.715-4.541l89.901-5.69 c0.301,3.068,1.568,5.841,3.493,8.028l-41.104,39.101c-2.277-2.226-5.395-3.6-8.828-3.6c-3.312,0-6.333,1.277-8.59,3.369 L425.789,147.098z M517.334,135.469c0,0.131,0.011,0.262,0.011,0.393l-89.911,5.695c-0.191-1.443-0.819-2.745-1.744-3.771 l44.739-46.837c2.015,1.77,4.66,2.851,7.555,2.851c3.002,0,5.736-1.162,7.782-3.057l35.338,35.074 C518.767,128.356,517.334,131.745,517.334,135.469z M449.558,56.705c0.552,0.142,1.13,0.226,1.734,0.226 c1.512,0,2.915-0.487,4.061-1.306l14.95,18.153c-2.323,2.101-3.785,5.147-3.785,8.53c0,3.082,1.211,5.883,3.182,7.944 l-44.734,46.836c-0.532-0.446-1.136-0.809-1.783-1.08L449.558,56.705z M397.394,63.959c0-0.367-0.041-0.729-0.091-1.081 l47.282-10.914c0.614,2.005,2.103,3.63,4.018,4.429l-26.377,79.303c-0.559-0.146-1.137-0.227-1.734-0.227 c-0.708,0-1.396,0.106-2.04,0.302l-25.1-65.452C395.739,69.198,397.394,66.774,397.394,63.959z M386.089,69.519 c1.185,0.919,2.673,1.474,4.287,1.474c0.709,0,1.397-0.111,2.04-0.308l25.1,65.453c-1.805,0.85-3.188,2.443-3.755,4.388 l-63.304-13.693c0.146-0.814,0.221-1.654,0.221-2.509c0-4.036-1.674-7.67-4.363-10.264L386.089,69.519z M320.813,38.174 c3.052-0.506,5.64-2.387,7.108-4.99l55.974,28.085c-0.342,0.83-0.533,1.74-0.533,2.69c0,1.9,0.755,3.624,1.977,4.886 l-39.773,44.546c-2.462-2.062-5.63-3.303-9.088-3.303c-0.725,0-1.433,0.055-2.131,0.16L320.813,38.174z M367.509,186.364 l-45.86-16.001c0.407-1.327,0.628-2.735,0.628-4.198c0-4.71-2.286-8.887-5.807-11.477l12.442-18.323 c2.191,1.387,4.786,2.191,7.565,2.191c2.418,0,4.69-0.608,6.681-1.673l26.849,46.445 C368.91,184.076,368.037,185.127,367.509,186.364z M406.678,251.329l-60.694-10.617c0.045-0.382,0.074-0.765,0.074-1.156 c0-2.971-1.346-5.626-3.462-7.385l27.582-37.11c1.091,0.705,2.383,1.111,3.774,1.111c1.177,0,2.283-0.292,3.259-0.809 l32.156,51.975C408.05,248.298,407.079,249.7,406.678,251.329z M413.474,246c-1.176,0-2.282,0.293-3.256,0.805l-32.153-51.975 c1.754-1.277,2.9-3.348,2.9-5.686c0-0.141-0.01-0.276-0.02-0.412l39.687-5.213c0.528,2.604,2.489,4.675,5.022,5.369 l-11.311,57.167C414.057,246.02,413.771,246,413.474,246z M417.963,247.624c-0.759-0.633-1.654-1.101-2.634-1.373l11.311-57.168 c0.286,0.035,0.572,0.061,0.864,0.061c3.106,0,5.741-2.025,6.661-4.832l24.409,6.164c-0.176,0.839-0.271,1.714-0.271,2.609 c0,3.413,1.348,6.51,3.535,8.792L417.963,247.624z M466.925,267.224l-46.569-12.824c0.086-0.442,0.136-0.899,0.136-1.372 c0-1.81-0.688-3.453-1.809-4.7l43.879-45.752c2.222,1.971,5.132,3.177,8.33,3.197l1.904,56.801 C470.065,262.86,467.811,264.715,466.925,267.224z M477.757,263.961c-1.104-0.84-2.472-1.357-3.956-1.412l-1.903-56.811 c2.97-0.217,5.653-1.458,7.705-3.378l21.655,21.48c-1.442,1.63-2.327,3.766-2.327,6.113c0,2.584,1.066,4.922,2.775,6.597 L477.757,263.961z M508.136,220.728c-2.378,0-4.54,0.916-6.174,2.398l-21.65-21.479c2.06-2.258,3.317-5.258,3.317-8.562 c0-0.519-0.035-1.026-0.096-1.528l48.198-7.828c0.387,1.64,1.343,3.057,2.653,4.028l-21.655,34.213 C511.372,221.187,509.81,220.728,508.136,220.728z M538.553,189.144c0.588,0,1.161-0.08,1.709-0.221l17.493,53.327 c-2.222,0.875-4.017,2.579-5.011,4.741l-35.868-14.172c0.297-0.905,0.458-1.865,0.458-2.866c0-3.05-1.483-5.751-3.766-7.429 l21.661-34.219C536.22,188.837,537.352,189.144,538.553,189.144z M537.014,175.254c-3.131,0.703-5.474,3.503-5.474,6.856 c0,0.212,0.011,0.418,0.03,0.624l-48.193,7.827c-0.447-2.207-1.462-4.207-2.89-5.837l41.104-39.1 c2.564,2.519,6.073,4.077,9.948,4.077c0.544,0,1.086-0.035,1.613-0.096L537.014,175.254z M532.837,121.298 c-0.428-0.04-0.859-0.061-1.297-0.061c-3.766,0-7.188,1.469-9.732,3.867l-35.333-35.075c1.845-2.042,2.971-4.75,2.971-7.722 c0-1.875-0.452-3.649-1.247-5.212l47.322-26.836c1.308,2.027,3.403,3.49,5.857,3.943L532.837,121.298z"></path>
	<polygon fill="#215579" points="300.289,285 299.067,285 285.013,264.62 285.013,262.85"></polygon>
	<path fill="#165177" d="M58.825,40.165c-4.779,3.68-7.868,9.438-7.868,15.947c0,1.538,0.19,3.028,0.52,4.479L0.098,74.209v2.069 l51.918-13.767c2.67,7.967,10.169,13.716,19.026,13.716c0.45,0,0.891-0.029,1.34-0.059l26.944,143.487 c-4.959,1.109-9.428,3.528-13.017,6.868L0.097,142.947v2.83l84.803,82.166c-4.719,5.061-7.619,11.848-7.619,19.327 c0,0.83,0.04,1.66,0.12,2.48L0.02,259.354l0.077,1.604l77.534-9.228c1.19,7.519,5.329,14.047,11.198,18.356L64.083,306.53 c-4.358-2.749-9.518-4.358-15.047-4.358c-10.717,0-20.045,5.989-24.834,14.808L0.097,306.481v2.24l23.226,10.047 c-1.62,3.57-2.53,7.54-2.53,11.719c0,2.4,0.3,4.739,0.86,6.97l-21.556,5.409v2.078l22.125-5.567 c2.56,7.778,8.408,14.065,15.887,17.216L0.097,449.178l0.089,5.313l39.803-97.188c2.839,0.959,5.879,1.49,9.048,1.49 c11.998,0,22.236-7.499,26.334-18.067l91.222,31.824c-0.311,1.16-0.49,2.379-0.49,3.639c0,2.38,0.602,4.62,1.64,6.579L0.097,486.552 v2.141l168.726-104.243c0.619,0.85,1.33,1.629,2.13,2.318l-54.86,73.799c-3.019-2.02-6.659-3.209-10.568-3.209 c-10.519,0-19.056,8.548-19.056,19.097c0,0.859,0.079,1.689,0.18,2.51L0.561,495.566c-0.021-0.08-0.444-1.186-0.464-1.275v9.269 c0.39-1.49,0.798-3.052,0.798-4.66c0-0.811,0.083-0.916,0.208-1.791l85.917-16.175c1.6,6.647,6.648,11.948,13.167,13.848L83.22,570 h2.059l16.858-74.76c1.1,0.191,2.228,0.32,3.388,0.32c9.059,0,16.627-6.349,18.566-14.837l120.696,21.117 c-0.051,0.459-0.07,0.93-0.07,1.408c0,2.409,0.609,4.669,1.669,6.649L157.136,570h3.718l86.623-58.423c1.72,2.32,4.14,4.102,6.959,5 L242.327,570h2.06l11.988-52.972c0.75,0.129,1.509,0.208,2.289,0.208c1.74,0,3.4-0.339,4.94-0.919L286.939,570h2.198l-23.716-54.513 c2.96-1.648,5.249-4.34,6.39-7.579l92.621,25.506c-0.17,0.881-0.27,1.79-0.27,2.729c0,5.79,3.51,10.749,8.509,12.879L366.612,570 h2.108l5.849-20.349c1.141,0.301,2.32,0.471,3.55,0.471c3.83,0,7.29-1.539,9.818-4.05L411.622,570h3.041l-25.427-25.438 c1.771-2.35,2.829-5.259,2.829-8.419c0-3.839-1.538-7.307-4.038-9.838l47.631-54.521c3.109,2.449,7.019,3.919,11.277,3.919 c7.418,0,13.786-4.429,16.666-10.789l71.325,28.187c-0.608,1.818-0.948,3.77-0.948,5.788c0,8.38,5.617,15.428,13.276,17.629 L535.808,570h2.049l11.347-53.042c1,0.17,2.031,0.278,3.08,0.278c3.511,0,6.779-1.009,9.559-2.728l8.139,11.797v-3.519l-6.489-9.409 c3.131-2.439,5.448-5.868,6.489-9.818v-9.269c-0.41-1.579-1.02-3.079-1.811-4.46l1.811-1.139v-2.141l-2.78,1.75 c-1.889-2.688-4.478-4.839-7.519-6.179l10.299-27.286v-5.659l-12.167,32.225c-1.74-0.549-3.6-0.858-5.53-0.858 c-1.648,0-3.238,0.239-4.759,0.649l-34.792-106.053c5.079-2.09,8.658-7.099,8.658-12.938c0-1.012-0.121-2-0.32-2.95l48.91-14.309 v-2.078l-49.48,14.477c-1.97-5.329-7.068-9.118-13.067-9.118c-0.359,0-0.721,0.02-1.08,0.049l-7.678-51.021 c8.488-1.58,15.647-6.958,19.637-14.309l51.669,25.777v-2.24l-50.79-25.335c1.63-3.57,2.54-7.53,2.54-11.709 c0-0.84-0.051-1.66-0.121-2.48l48.371-5.999v-2.01l-48.611,6.021c-1.897-12.02-11.347-21.518-23.325-23.467l16.997-133.449 c0.41,0.031,0.819,0.061,1.239,0.061c4.521,0,8.63-1.709,11.758-4.499l41.942,42.163v-2.83l-40.533-40.743 c2.811-3.14,4.531-7.278,4.531-11.828c0-1.311-0.15-2.589-0.42-3.829l36.422-10.269v-2.069l-36.973,10.418 c-1.859-5.438-6.278-9.678-11.828-11.277L537.856,0h-2.049l-16.576,72.91c-0.961-0.16-1.941-0.271-2.951-0.271 c-4.948,0-9.428,2.051-12.636,5.339L414.663,0h-3.041l90.712,79.487c-2.31,2.97-3.71,6.7-3.739,10.748l-150.879,7.341 c-0.6-5.06-3.89-9.29-8.398-11.209L368.721,0h-2.108l-29.193,85.736c-1.131-0.299-2.32-0.469-3.54-0.469 c-1.74,0-3.4,0.33-4.938,0.91L289.138,0h-2.198l40.181,87.018c-4.29,2.378-7.197,6.957-7.197,12.229c0,0.737,0.078,1.448,0.18,2.159 l-94.042,21.706c-1.34-4.381-4.759-7.829-9.098-9.22L244.387,0h-2.06l-27.315,113.433c-0.74-0.121-1.509-0.201-2.289-0.201 c-5.098,0-9.549,2.75-11.978,6.851L89.408,64.21c1.09-2.479,1.71-5.22,1.71-8.098c0-3.621-0.97-7.009-2.639-9.938L160.854,0h-3.718 L87.409,44.483c-2.599-3.67-6.378-6.419-10.797-7.688L85.279,0H83.22l-8.549,36.336c-1.18-0.221-2.389-0.352-3.629-0.352 c-3.889,0-7.499,1.131-10.578,3.041 M347.815,99.576l150.869-7.341c0.221,2.13,0.84,4.149,1.74,5.989l-94.132,53.372 c-4.028-6.448-11.177-10.738-19.326-10.738c-5.158,0-9.917,1.72-13.737,4.608l-29.733-36.113 C346.087,106.883,347.726,103.425,347.815,99.576z M286.568,348.225c-0.48,0-0.969,0.02-1.439,0.07l-9.098-51.331 c2.15-0.541,4.099-1.58,5.717-2.98l72.766,72.928c-2.589,2.811-4.55,6.22-5.658,9.989l-48.561-12.258 c0.141-0.801,0.23-1.609,0.23-2.439C300.526,354.483,294.277,348.225,286.568,348.225z M272.661,363.021l-78.933,10.359 c-0.49-2.39-1.589-4.56-3.13-6.339l72.895-73.059c2.451,2.119,5.64,3.42,9.129,3.42c0.49,0,0.969-0.029,1.449-0.08l9.088,51.341 c-6.048,1.52-10.537,6.999-10.537,13.539C272.622,362.482,272.641,362.752,272.661,363.021z M262.083,292.563l-72.905,73.059 c-2.439-2.12-5.627-3.419-9.117-3.419c-2.201,0-4.259,0.52-6.108,1.43l-53.411-92.396c6.06-3.819,10.568-9.879,12.369-17.017 l125.914,27.234c-0.09,0.64-0.16,1.3-0.16,1.96C258.664,286.924,259.964,290.113,262.083,292.563z M283.159,292.563 c2.099-2.419,3.38-5.569,3.41-9.029l178.803-11.316c0.6,6.099,3.12,11.617,6.95,15.966l-81.755,77.769 c-4.528-4.431-10.727-7.158-17.556-7.158c-6.588,0-12.597,2.538-17.086,6.697L283.159,292.563z M465.232,269.438 c0,0.26,0.02,0.519,0.02,0.78L286.43,281.547c-0.381-2.871-1.631-5.461-3.47-7.499l88.982-93.155 c4.009,3.52,9.268,5.669,15.025,5.669c5.97,0,11.408-2.31,15.478-6.079l70.286,69.759 C468.081,255.289,465.232,262.028,465.232,269.438z M330.43,112.782c1.1,0.279,2.25,0.449,3.449,0.449 c3.009,0,5.799-0.969,8.078-2.599l29.734,36.105c-4.62,4.179-7.528,10.236-7.528,16.966c0,6.13,2.408,11.699,6.327,15.798 l-88.97,93.155c-1.06-0.891-2.261-1.609-3.55-2.15L330.43,112.782z M226.68,127.21c0-0.73-0.08-1.449-0.18-2.15l94.041-21.705 c1.221,3.989,4.18,7.22,7.989,8.809l-52.46,157.725c-1.109-0.29-2.259-0.45-3.449-0.45c-1.41,0-2.781,0.211-4.06,0.599 l-49.919-130.178C223.392,137.628,226.68,132.809,226.68,127.21z M204.196,138.269c2.359,1.83,5.317,2.93,8.527,2.93 c1.41,0,2.779-0.221,4.06-0.609l49.919,130.178c-3.589,1.689-6.339,4.861-7.469,8.729L133.33,252.26 c0.289-1.618,0.439-3.288,0.439-4.989c0-8.027-3.33-15.257-8.678-20.416L204.196,138.269z M74.372,75.929 c6.069-1.009,11.217-4.749,14.137-9.928l111.328,55.86c-0.68,1.65-1.061,3.46-1.061,5.349c0,3.78,1.5,7.21,3.931,9.719 l-79.105,88.596c-4.899-4.1-11.197-6.569-18.076-6.569c-1.439,0-2.849,0.111-4.24,0.32L74.372,75.929z M167.243,370.661 l-91.212-31.825c0.81-2.641,1.25-5.438,1.25-8.349c0-9.367-4.549-17.677-11.547-22.826l24.745-36.443 c4.358,2.76,9.518,4.359,15.047,4.359c4.81,0,9.328-1.211,13.288-3.33l53.399,92.376 C170.031,366.112,168.293,368.202,167.243,370.661z M245.147,499.87l-120.715-21.117c0.09-0.76,0.15-1.52,0.15-2.299 c0-5.909-2.679-11.188-6.89-14.687l54.86-73.809c2.169,1.4,4.739,2.208,7.508,2.208c2.339,0,4.538-0.58,6.479-1.608l63.956,103.374 C247.877,493.842,245.947,496.631,245.147,499.87z M258.664,489.272c-2.339,0-4.538,0.58-6.477,1.6l-63.948-103.374 c3.489-2.539,5.768-6.659,5.768-11.309c0-0.279-0.02-0.549-0.039-0.818l78.933-10.369c1.051,5.179,4.95,9.299,9.988,10.678 l-22.496,113.702C259.824,489.312,259.253,489.272,258.664,489.272z M267.591,492.501c-1.509-1.26-3.288-2.189-5.237-2.729 L284.85,376.07c0.568,0.07,1.139,0.119,1.719,0.119c6.178,0,11.417-4.029,13.247-9.608l48.551,12.258 c-0.35,1.67-0.541,3.41-0.541,5.19c0,6.788,2.681,12.947,7.029,17.486L267.591,492.501z M364.972,531.484l-92.62-25.506 c0.17-0.879,0.27-1.788,0.27-2.729c0-3.6-1.371-6.868-3.599-9.349l87.271-90.995c4.419,3.92,10.209,6.319,16.567,6.358 l3.788,112.973C371.221,522.807,366.731,526.495,364.972,531.484z M386.519,524.995c-2.201-1.67-4.919-2.698-7.87-2.808 l-3.788-112.992c5.909-0.432,11.248-2.899,15.327-6.72l43.071,42.724c-2.871,3.24-4.63,7.489-4.63,12.158 c0,5.138,2.12,9.788,5.521,13.117L386.519,524.995z M446.936,439.009c-4.729,0-9.027,1.82-12.277,4.771l-43.061-42.724 c4.099-4.49,6.598-10.46,6.598-17.027c0-1.03-0.07-2.04-0.189-3.04l95.859-15.568c0.771,3.26,2.669,6.08,5.28,8.009l-43.071,68.05 C453.374,439.919,450.265,439.009,446.936,439.009z M507.433,376.189c1.17,0,2.311-0.158,3.399-0.439l34.794,106.062 c-4.421,1.74-7.988,5.13-9.969,9.429l-71.335-28.186c0.59-1.8,0.91-3.708,0.91-5.698c0-6.069-2.95-11.439-7.488-14.778l43.081-68.06 C502.793,375.58,505.043,376.189,507.433,376.189z M504.373,348.564c-6.228,1.4-10.887,6.97-10.887,13.639 c0,0.42,0.02,0.83,0.059,1.238l-95.85,15.567c-0.891-4.388-2.909-8.367-5.748-11.607l81.752-77.767 c5.099,5.009,12.078,8.108,19.787,8.108c1.08,0,2.16-0.07,3.208-0.189L504.373,348.564z M496.066,241.252 c-0.852-0.08-1.711-0.119-2.58-0.119c-7.488,0-14.298,2.92-19.357,7.688l-70.274-69.759c3.669-4.06,5.909-9.449,5.909-15.358 c0-3.729-0.9-7.259-2.48-10.367l94.121-53.373c2.6,4.031,6.769,6.94,11.648,7.839L496.066,241.252z"></path>
</svg>
