<?xml version="1.0" encoding="utf-8"?>
<!-- Generator: Adobe Illustrator 16.0.0, SVG Export Plug-In . SVG Version: 6.00 Build 0)  -->
<!DOCTYPE svg PUBLIC "-//W3C//DTD SVG 1.1//EN" "http://www.w3.org/Graphics/SVG/1.1/DTD/svg11.dtd">
<svg version="1.1" id="Layer_1" xmlns="http://www.w3.org/2000/svg" xmlns:xlink="http://www.w3.org/1999/xlink" x="0px" y="0px"
	 width="400px" height="385px" viewBox="0 0 400 385" enable-background="new 0 0 400 385" xml:space="preserve">
<path fill="#FFFFFF" d="M302.625,351.258l-104.769-83.75L93.638,350.662l49.759-123.522l-109.58-71.445l130.566,6.99l33.966-133.911
	l34.448,133.886l136.916-9.329l-115.192,73.106L302.625,351.258z M197.859,261.822l94.715,75.712l-43.51-112.896l103.5-65.686
	l-123.152,8.39L198.379,46.729l-30.586,120.586l-117.68-6.299l98.769,64.396l-44.81,111.239L197.859,261.822z"/>
<path fill="#FFFFFF" d="M200.658,291.289c-2.532,0-5.081-0.114-7.575-0.341l0.268-2.95c4.859,0.441,9.891,0.44,14.783-0.014
	l0.272,2.949C205.846,291.169,203.239,291.289,200.658,291.289z M178.009,288.168c-4.914-1.388-9.727-3.244-14.305-5.52l1.319-2.651
	c4.414,2.192,9.054,3.982,13.792,5.321L178.009,288.168z M223.475,288.121l-0.813-2.849c4.736-1.348,9.372-3.147,13.777-5.348
	l1.325,2.649C233.194,284.855,228.385,286.723,223.475,288.121z M150.664,274.593c-4.075-3.071-7.892-6.537-11.343-10.304
	l2.185-2.001c3.329,3.634,7.011,6.978,10.942,9.939L150.664,274.593z M250.787,274.492l-1.788-2.359
	c3.927-2.974,7.602-6.325,10.919-9.964l2.19,1.996C258.667,267.936,254.858,271.41,250.787,274.492z M130.053,252.084
	c-2.705-4.34-5.016-8.947-6.868-13.694l2.761-1.076c1.786,4.577,4.014,9.021,6.622,13.205L130.053,252.084z M271.352,251.939
	l-2.518-1.562c2.6-4.189,4.818-8.637,6.596-13.223l2.764,1.07C276.348,242.98,274.047,247.594,271.352,251.939z M118.966,223.657
	c-0.939-4.998-1.42-10.13-1.43-15.253l2.963-0.006c0.009,4.942,0.473,9.892,1.379,14.712L118.966,223.657z M282.379,223.486
	l-2.912-0.541c0.895-4.819,1.35-9.77,1.35-14.714v-0.343h2.963v0.343C283.779,213.357,283.309,218.488,282.379,223.486z
	 M121.818,193.682l-2.914-0.535c0.922-5.023,2.321-9.985,4.155-14.748l2.765,1.063C124.056,184.054,122.708,188.838,121.818,193.682
	z M279.404,193.188c-0.92-4.835-2.297-9.61-4.096-14.192l2.758-1.083c1.865,4.755,3.295,9.707,4.248,14.723L279.404,193.188z
	 M132.393,166.228l-2.521-1.556c2.681-4.34,5.783-8.458,9.22-12.242l2.193,1.991C137.97,158.069,134.978,162.042,132.393,166.228z
	 M268.656,165.802c-2.611-4.17-5.625-8.124-8.961-11.75l2.182-2.005c3.459,3.761,6.584,7.86,9.292,12.185L268.656,165.802z
	 M152.184,144.435l-1.792-2.357c4.068-3.093,8.444-5.82,13.004-8.11l1.329,2.647C160.329,138.821,156.109,141.452,152.184,144.435z
	 M248.732,144.134c-3.942-2.959-8.18-5.563-12.591-7.743l1.313-2.655c4.575,2.261,8.968,4.962,13.058,8.029L248.732,144.134z
	 M178.491,131.236l-0.817-2.848c4.902-1.405,9.97-2.362,15.062-2.843l0.278,2.948C188.103,128.958,183.217,129.88,178.491,131.236z
	 M222.339,131.1c-4.729-1.325-9.621-2.217-14.54-2.651l0.26-2.95c5.102,0.45,10.176,1.375,15.079,2.749L222.339,131.1z"/>
<g>
	<g>
		<ellipse fill="#F5EEE5" cx="200.148" cy="33.221" rx="33.247" ry="33.221"/>
		<g>
			<g>
				<defs>
					<ellipse id="SVGID_1_" cx="200.148" cy="33.221" rx="33.247" ry="33.221"/>
				</defs>
				<clipPath id="SVGID_2_">
					<use xlink:href="#SVGID_1_"  overflow="visible"/>
				</clipPath>
				<path clip-path="url(#SVGID_2_)" fill="#E6C19D" d="M210.123,50.431l18.551,5.116c2.128,0.73,3.79,2.326,4.722,4.385v6.511
					h-66.494v-6.511c0.864-2.06,2.593-3.655,4.721-4.385l18.553-5.116v-9.9h19.948V50.431z"/>
			</g>
			<g>
				<defs>
					<ellipse id="SVGID_3_" cx="200.148" cy="33.221" rx="33.247" ry="33.221"/>
				</defs>
				<clipPath id="SVGID_4_">
					<use xlink:href="#SVGID_3_"  overflow="visible"/>
				</clipPath>
				<g clip-path="url(#SVGID_4_)">
					<g>
						<defs>
							<path id="SVGID_5_" d="M210.123,50.431l18.551,5.116c2.128,0.73,3.79,2.326,4.722,4.385v6.511h-66.494v-6.511
								c0.864-2.06,2.593-3.655,4.721-4.385l18.553-5.116v-9.9h19.948V50.431z"/>
						</defs>
						<defs>
							<path id="SVGID_6_" d="M210.123,50.431l18.551,5.116c2.128,0.73,3.79,2.326,4.722,4.385v6.511h-66.494v-6.511
								c0.864-2.06,2.593-3.655,4.721-4.385l18.553-5.116v-9.9h19.948V50.431z"/>
						</defs>
						<defs>
							<path id="SVGID_7_" d="M210.123,50.431l18.551,5.116c2.128,0.73,3.79,2.326,4.722,4.385v6.511h-66.494v-6.511
								c0.864-2.06,2.593-3.655,4.721-4.385l18.553-5.116v-9.9h19.948V50.431z"/>
						</defs>
						<clipPath id="SVGID_8_">
							<use xlink:href="#SVGID_5_"  overflow="visible"/>
						</clipPath>
						<clipPath id="SVGID_9_" clip-path="url(#SVGID_8_)">
							<use xlink:href="#SVGID_6_"  overflow="visible"/>
						</clipPath>
						<clipPath id="SVGID_10_" clip-path="url(#SVGID_9_)">
							<use xlink:href="#SVGID_7_"  overflow="visible"/>
						</clipPath>
						<path clip-path="url(#SVGID_10_)" fill="#E6A523" d="M166.901,38.536h66.494v27.907h-66.494V38.536z M200.148,58.469
							c7.314,0,13.3-4.187,13.3-9.302c0-5.116-5.985-9.301-13.3-9.301s-13.299,4.186-13.299,9.301
							C186.849,54.283,192.833,58.469,200.148,58.469z"/>
						<path clip-path="url(#SVGID_10_)" fill="#D4B08D" d="M200.148,51.825c-1.131,0-2.594-0.265-3.591-0.729
							c-1.13-0.599-5.319-4.054-6.782-5.516c-1.861-1.994-2.793-4.52-3.059-8.837c-0.267-4.318-1.396-19.733-1.396-23.255
							c0-4.983,3.79-12.757,14.695-12.757h0.066l0,0l0,0h0.066c10.972,0.066,14.695,7.773,14.695,12.757
							c0,3.521-1.131,18.937-1.396,23.255c-0.267,4.318-1.198,6.777-3.061,8.837c-1.396,1.529-5.584,4.917-6.782,5.516
							C202.742,51.56,201.279,51.825,200.148,51.825L200.148,51.825z"/>
						<path clip-path="url(#SVGID_10_)" fill="#D98C21" d="M200.148,38.536c-8.444,0-15.294,4.917-15.294,10.965
							c0,6.045,6.85,10.962,15.294,10.962s15.293-4.917,15.293-10.962C215.441,43.454,208.592,38.536,200.148,38.536z
							 M200.148,57.806c-6.982,0-12.634-3.987-12.634-8.97s5.651-8.97,12.634-8.97c6.981,0,12.634,3.987,12.634,8.97
							S207.129,57.806,200.148,57.806z"/>
					</g>
				</g>
				<path clip-path="url(#SVGID_4_)" fill="#F3CFA6" d="M200.148,49.167c-0.997,0-2.328-0.199-3.192-0.599
					c-1.063-0.464-4.786-3.056-6.05-4.186c-1.663-1.527-2.527-3.389-2.793-6.643c-0.267-3.256-1.264-14.817-1.264-17.475
					c0-3.787,3.391-9.633,13.299-9.633l0,0l0,0l0,0l0,0c9.908,0,13.3,5.846,13.3,9.633c0,2.658-0.999,14.286-1.265,17.542
					c-0.267,3.254-1.063,5.116-2.793,6.645c-1.263,1.129-5.053,3.72-6.05,4.186C202.476,48.969,201.145,49.167,200.148,49.167
					L200.148,49.167z"/>
				<path clip-path="url(#SVGID_4_)" fill="#A37160" d="M204.803,40.862c-1.264,1.33-3.457,1.994-5.387,1.595
					c-1.795-0.398-3.125-1.328-3.79-2.856L204.803,40.862z"/>
				<path clip-path="url(#SVGID_4_)" fill="none" stroke="#A37160" stroke-linecap="round" stroke-linejoin="round" d="
					M204.803,40.862c-1.264,1.33-3.457,1.994-5.387,1.595c-1.795-0.398-3.125-1.328-3.79-2.856L204.803,40.862z"/>
				<g clip-path="url(#SVGID_4_)">
					<g>
						<defs>
							<rect id="SVGID_11_" x="189.508" y="27.242" width="20.614" height="3.322"/>
						</defs>
						<clipPath id="SVGID_12_">
							<use xlink:href="#SVGID_11_"  overflow="visible"/>
						</clipPath>
						<circle clip-path="url(#SVGID_12_)" fill="#2A1F21" cx="206.132" cy="29.9" r="1.329"/>
					</g>
					<g>
						<defs>
							<rect id="SVGID_13_" x="189.508" y="27.242" width="20.614" height="3.322"/>
						</defs>
						<clipPath id="SVGID_14_">
							<use xlink:href="#SVGID_13_"  overflow="visible"/>
						</clipPath>
						<circle clip-path="url(#SVGID_14_)" fill="#2A1F21" cx="194.164" cy="29.9" r="1.329"/>
					</g>
				</g>
				<path clip-path="url(#SVGID_4_)" fill="none" stroke="#CC9872" stroke-width="2" d="M190.174,27.906
					c0,0,0.731-1.993,4.056-1.993c2.261,0,3.59,0.997,4.256,1.993"/>
				<path clip-path="url(#SVGID_4_)" fill="none" stroke="#BB8660" stroke-width="2" d="M210.188,27.906c0,0-0.73-1.993-4.056-1.993
					c-3.19,0-4.654,1.993-4.654,3.322c0,1.263,0,5.98,0,5.98"/>
				<path clip-path="url(#SVGID_4_)" fill="#462329" d="M212.649,32.024c0,0,0.532-4.185,2.461-4.783
					c0.265-1.196,0.997-4.651,0.997-6.578c0-1.927-0.2-3.787-1.264-5.381c-1.197-1.728-3.724-2.725-5.054-2.725
					c-1.529,0.93-5.12,3.057-6.25,4.319c-0.598,0.664,0.265,1.196,0.265,1.196s0.799-0.333,1.132-0.399
					c1.662-0.465,5.318-0.796,6.449,0.865c1.396,1.993,1.396,7.84,1.396,8.704C212.782,28.039,212.649,32.024,212.649,32.024z"/>
				<path clip-path="url(#SVGID_4_)" fill="#6C373E" d="M185.187,27.242c1.929,0.664,2.46,4.783,2.46,4.783
					s-0.133-3.985-0.133-4.783c0-1.063,0.133-6.047,2.261-8.439c2.395-2.657,5.585-3.521,7.381-2.325
					c0.931,0.598,4.057,3.654,7.383,1.129c1.993-1.528,5.649-4.983,5.649-4.983s-1.928-5.914-10.706-5.249
					c-3.723,0.332-7.846-0.599-7.846-0.599s-0.066,1.661,0.599,2.525c-5.519,1.595-7.314,5.582-7.847,8.637
					c-0.132,0.599-0.199,1.197-0.199,1.795c0,0.332,0,0.665,0,0.93C184.189,22.591,184.92,25.979,185.187,27.242z"/>
			</g>
		</g>
	</g>
</g>
<g>
	<ellipse fill="#F5EEE5" cx="96.203" cy="351.336" rx="33.247" ry="33.222"/>
	<g>
		<g>
			<defs>
				<ellipse id="SVGID_15_" cx="96.203" cy="351.336" rx="33.247" ry="33.222"/>
			</defs>
			<clipPath id="SVGID_16_">
				<use xlink:href="#SVGID_15_"  overflow="visible"/>
			</clipPath>
			<path clip-path="url(#SVGID_16_)" fill="#D4B08D" d="M106.177,368.546l18.551,5.116c2.129,0.729,3.792,2.324,4.722,4.384v6.512
				H62.955v-6.512c0.864-2.06,2.593-3.654,4.722-4.384l18.552-5.116v-9.9h19.949V368.546z"/>
		</g>
		<g>
			<defs>
				<ellipse id="SVGID_17_" cx="96.203" cy="351.336" rx="33.247" ry="33.222"/>
			</defs>
			<clipPath id="SVGID_18_">
				<use xlink:href="#SVGID_17_"  overflow="visible"/>
			</clipPath>
			<g clip-path="url(#SVGID_18_)">
				<g>
					<defs>
						<path id="SVGID_19_" d="M106.177,368.546l18.551,5.116c2.129,0.729,3.792,2.324,4.722,4.384v6.512H62.955v-6.512
							c0.864-2.06,2.593-3.654,4.722-4.384l18.552-5.116v-9.9h19.949V368.546z"/>
					</defs>
					<clipPath id="SVGID_20_">
						<use xlink:href="#SVGID_19_"  overflow="visible"/>
					</clipPath>
					<path clip-path="url(#SVGID_20_)" fill="#1F1F24" d="M96.335,371.269h-4.787l-5.32-2.723l-23.273-0.6v16.611h33.38h33.38
						v-16.611h-25.4l-3.191,3.322H96.335z"/>
				</g>
			</g>
			<path clip-path="url(#SVGID_18_)" fill="#F3CFA6" d="M96.203,367.283c-0.997,0-2.327-0.199-3.192-0.599
				c-1.063-0.466-4.787-3.057-6.051-4.186c-1.663-1.527-2.526-3.388-2.793-6.645c-0.267-3.255-1.263-14.884-1.263-17.54
				c0-3.787,3.391-9.635,13.233-9.635l0,0l0,0l0,0l0,0c9.841,0,13.232,5.848,13.232,9.635c0,2.656-0.998,14.285-1.264,17.54
				c-0.266,3.257-1.063,5.117-2.792,6.645c-1.263,1.129-5.053,3.72-6.051,4.186C98.53,367.084,97.2,367.283,96.203,367.283
				L96.203,367.283z"/>
			<g clip-path="url(#SVGID_18_)">
				<g>
					<defs>
						<path id="SVGID_21_" d="M96.203,367.283c-0.997,0-2.327-0.199-3.192-0.599c-1.063-0.466-4.787-3.057-6.051-4.186
							c-1.663-1.527-2.526-3.388-2.793-6.645c-0.267-3.255-1.263-14.884-1.263-17.54c0-3.787,3.391-9.635,13.233-9.635l0,0l0,0l0,0
							l0,0c9.841,0,13.232,5.848,13.232,9.635c0,2.656-0.998,14.285-1.264,17.54c-0.266,3.257-1.063,5.117-2.792,6.645
							c-1.263,1.129-5.053,3.72-6.051,4.186C98.53,367.084,97.2,367.283,96.203,367.283L96.203,367.283z"/>
					</defs>
					<clipPath id="SVGID_22_">
						<use xlink:href="#SVGID_21_"  overflow="visible"/>
					</clipPath>
					<path clip-path="url(#SVGID_22_)" fill="#2E2F36" d="M103.517,358.646c-0.665-0.799-1.996-1.929-4.189-1.994
						c-2.195-0.066-1.662,1.263-3.125,1.329h-0.066c0,0,0,0-0.067,0c-1.396-0.066-0.864-1.329-3.125-1.329
						c-2.261,0-3.591,1.129-4.189,1.994l-5.32-7.31v17.94h12.701h12.7v-17.94L103.517,358.646z M98.862,363.295
						c-0.732-0.066-1.13-0.265-1.329-0.53c0-0.398-0.267-0.865-1.397-0.798c-1.131-0.067-1.331,0.399-1.396,0.798
						c-0.201,0.266-0.599,0.53-1.331,0.53c-2.527-0.132-3.325-1.793-3.325-2.99c0-1.193,0.998-1.659,3.325-1.659
						c1.662,0,1.13,0.598,2.66,0.664h0.067c0,0,0,0,0.066,0c1.53,0,0.998-0.664,2.66-0.664c2.327,0,3.325,0.466,3.325,1.659
						C102.187,361.502,101.389,363.163,98.862,363.295z"/>
				</g>
			</g>
			<path clip-path="url(#SVGID_18_)" fill="#A37160" d="M98.197,361.303h-3.989c-0.399,0-0.664-0.265-0.664-0.664
				s0.265-0.666,0.664-0.666h3.989c0.4,0,0.666,0.267,0.666,0.666S98.597,361.303,98.197,361.303z"/>
			<path clip-path="url(#SVGID_18_)" fill="#CC9872" d="M93.942,347.019c-0.332-0.533-1.264-1.662-3.657-1.662
				c-2.727,0-3.391,1.528-3.391,1.596l-1.264-0.467c0.066-0.066,0.931-2.392,4.655-2.392c3.059,0,4.388,1.594,4.787,2.325
				L93.942,347.019z"/>
			<path clip-path="url(#SVGID_18_)" fill="#262626" d="M102.187,349.344c0.731,0,1.33-0.599,1.33-1.33
				c0-0.73-0.599-1.328-1.33-1.328s-1.329,0.598-1.329,1.328C100.858,348.745,101.456,349.344,102.187,349.344z M90.219,349.344
				c0.731,0,1.33-0.599,1.33-1.33c0-0.73-0.598-1.328-1.33-1.328c-0.732,0-1.331,0.598-1.331,1.328
				C88.888,348.745,89.486,349.344,90.219,349.344z"/>
			<path clip-path="url(#SVGID_18_)" fill="#BB8660" d="M96.868,353.993c0-0.199,0-4.716,0-5.979c0-1.661,1.662-3.92,5.319-3.986
				c3.658,0,4.587,2.325,4.655,2.392l-1.264,0.466c0-0.066-0.666-1.528-3.391-1.595c-2.726,0-3.99,1.595-3.99,2.657
				c0,1.264,0,5.913,0,5.979L96.868,353.993z"/>
			<path clip-path="url(#SVGID_18_)" fill="#D4B08D" d="M86.295,367.55l1.131-1.859l8.578,3.918l8.71-3.257l1.463,1.463v4.318
				c0,0-7.181,7.044-9.975,7.109c-2.793,0-9.908-7.641-9.908-7.641V367.55z"/>
			<g clip-path="url(#SVGID_18_)">
				<g>
					<defs>
						<ellipse id="SVGID_23_" cx="96.203" cy="351.336" rx="33.247" ry="33.222"/>
					</defs>
					<clipPath id="SVGID_24_">
						<use xlink:href="#SVGID_23_"  overflow="visible"/>
					</clipPath>
					<path clip-path="url(#SVGID_24_)" fill="#6C373E" d="M106.177,368.546c0,1.526,0,2.127,0,3.386
						c0,9.37-5.653,13.091-5.653,13.091h-1.196h-2.926h-2.858h-1.197c0,0-6.118-4.45-6.118-12.424c0-1.33,0-3.454,0-4.053
						c0.666,0.664,1.729,6.046,10.173,6.046S105.512,369.21,106.177,368.546z"/>
				</g>
			</g>
			<rect x="90.285" y="338.048" clip-path="url(#SVGID_18_)" fill="#E1BD91" width="11.902" height="1.328"/>
			<rect x="92.944" y="340.705" clip-path="url(#SVGID_18_)" fill="#E1BD91" width="6.583" height="1.329"/>
			<path clip-path="url(#SVGID_18_)" fill="#2E2F36" d="M108.904,348.014c0,0,0.066-8.704-3.658-13.486
				c-0.864,0.797-2.328,1.46-4.322,1.46c-1.994,0-3.923-0.729-6.183-1.861c-2.262-1.127-3.525-2.058-5.521-2.257
				c-1.33,0.464-5.651,3.918-5.651,9.899c0,5.978,0.132,8.172,0.132,8.172s-2.793-3.789-2.793-9.501
				c0-5.714,3.192-9.834,7.115-9.966c1.596-1.462,4.654-2.525,7.912-2.525c3.26,0,9.642,1.595,12.301,6.113
				C112.163,340.638,108.904,348.014,108.904,348.014z"/>
		</g>
	</g>
</g>
<g>
	<g>
		<ellipse fill="#F5EEE5" cx="303.51" cy="351.779" rx="33.248" ry="33.221"/>
		<g>
			<g>
				<defs>
					<ellipse id="SVGID_25_" cx="303.51" cy="351.779" rx="33.248" ry="33.221"/>
				</defs>
				<clipPath id="SVGID_26_">
					<use xlink:href="#SVGID_25_"  overflow="visible"/>
				</clipPath>
				<rect x="286.221" y="345.799" clip-path="url(#SVGID_26_)" fill="#D98C21" width="20.613" height="28.569"/>
			</g>
			<g>
				<defs>
					<ellipse id="SVGID_27_" cx="303.51" cy="351.779" rx="33.248" ry="33.221"/>
				</defs>
				<clipPath id="SVGID_28_">
					<use xlink:href="#SVGID_27_"  overflow="visible"/>
				</clipPath>
				<rect x="300.186" y="343.143" clip-path="url(#SVGID_28_)" fill="#CC751F" width="20.613" height="31.226"/>
			</g>
			<g>
				<defs>
					<ellipse id="SVGID_29_" cx="303.51" cy="351.779" rx="33.248" ry="33.221"/>
				</defs>
				<clipPath id="SVGID_30_">
					<use xlink:href="#SVGID_29_"  overflow="visible"/>
				</clipPath>
				<path clip-path="url(#SVGID_30_)" fill="#E6C19D" d="M312.154,366.33c0,2.658,3.125,3.455,4.721,3.854
					c5.053,1.33,15.16,3.919,15.16,3.919c2.127,0.732,3.789,2.327,4.723,4.386V385h-66.494v-6.512
					c0.863-2.059,2.592-3.653,4.721-4.386c0,0,10.107-2.589,15.16-3.919c1.596-0.398,4.723-1.195,4.723-3.854
					c0-2.657,0-7.241,0-7.241h17.287C312.154,359.089,312.154,363.673,312.154,366.33z"/>
			</g>
			<g>
				<defs>
					<ellipse id="SVGID_31_" cx="303.51" cy="351.779" rx="33.248" ry="33.221"/>
				</defs>
				<clipPath id="SVGID_32_">
					<use xlink:href="#SVGID_31_"  overflow="visible"/>
				</clipPath>
				<g clip-path="url(#SVGID_32_)">
					<g>
						<defs>
							<path id="SVGID_33_" d="M312.154,366.33c0,2.658,3.125,3.455,4.721,3.854c5.053,1.33,15.16,3.919,15.16,3.919
								c2.127,0.732,3.789,2.327,4.723,4.386V385h-66.494v-6.512c0.863-2.059,2.592-3.653,4.721-4.386c0,0,10.107-2.589,15.16-3.919
								c1.596-0.398,4.723-1.195,4.723-3.854c0-2.657,0-7.241,0-7.241h17.287C312.154,359.089,312.154,363.673,312.154,366.33z"/>
						</defs>
						<defs>
							<path id="SVGID_34_" d="M312.154,366.33c0,2.658,3.125,3.455,4.721,3.854c5.053,1.33,15.16,3.919,15.16,3.919
								c2.127,0.732,3.789,2.327,4.723,4.386V385h-66.494v-6.512c0.863-2.059,2.592-3.653,4.721-4.386c0,0,10.107-2.589,15.16-3.919
								c1.596-0.398,4.723-1.195,4.723-3.854c0-2.657,0-7.241,0-7.241h17.287C312.154,359.089,312.154,363.673,312.154,366.33z"/>
						</defs>
						<defs>
							<path id="SVGID_35_" d="M312.154,366.33c0,2.658,3.125,3.455,4.721,3.854c5.053,1.33,15.16,3.919,15.16,3.919
								c2.127,0.732,3.789,2.327,4.723,4.386V385h-66.494v-6.512c0.863-2.059,2.592-3.653,4.721-4.386c0,0,10.107-2.589,15.16-3.919
								c1.596-0.398,4.723-1.195,4.723-3.854c0-2.657,0-7.241,0-7.241h17.287C312.154,359.089,312.154,363.673,312.154,366.33z"/>
						</defs>
						<clipPath id="SVGID_36_">
							<use xlink:href="#SVGID_33_"  overflow="visible"/>
						</clipPath>
						<clipPath id="SVGID_37_" clip-path="url(#SVGID_36_)">
							<use xlink:href="#SVGID_34_"  overflow="visible"/>
						</clipPath>
						<clipPath id="SVGID_38_" clip-path="url(#SVGID_37_)">
							<use xlink:href="#SVGID_35_"  overflow="visible"/>
						</clipPath>
						<path clip-path="url(#SVGID_38_)" fill="#D4B08D" d="M303.643,325.866h0.133l0,0c2.195,0,5.451,0.133,7.582,1.328
							c2.193,1.264,4.854,3.722,5.65,8.04c1.596,9.103-1.396,23.52-4.188,28.172c-2.662,4.452-6.518,6.114-8.979,6.247h-0.066
							h-0.133h-0.133h-0.066c-2.459-0.133-6.316-1.795-8.977-6.247c-2.791-4.652-5.785-19.069-4.189-28.172
							c0.799-4.318,3.457-6.776,5.652-8.04c2.129-1.195,5.387-1.328,7.58-1.328l0,0H303.643z"/>
						<path clip-path="url(#SVGID_38_)" fill="#6C373E" d="M270.264,357.095h66.494V385h-66.494V357.095z M303.51,377.692
							c8.047,0,13.83-9.37,13.83-9.37s-6.582-10.564-13.83-10.564c-7.246,0-13.83,10.564-13.83,10.564
							S295.465,377.692,303.51,377.692z"/>
						<g clip-path="url(#SVGID_38_)">
							<g>
								<defs>
									<path id="SVGID_39_" d="M270.264,357.095h66.494V385h-66.494V357.095z M303.51,377.692c8.047,0,13.83-9.37,13.83-9.37
										s-6.582-10.564-13.83-10.564c-7.246,0-13.83,10.564-13.83,10.564S295.465,377.692,303.51,377.692z"/>
								</defs>
								<clipPath id="SVGID_40_">
									<use xlink:href="#SVGID_39_"  overflow="visible"/>
								</clipPath>
								<path clip-path="url(#SVGID_40_)" fill="#FFFFFF" d="M318.406,370.184c-0.867,6.644-6.186,11.495-6.186,11.495
									s-5.453-4.652-6.783-5.05c8.445-5.049,11.371-7.974,11.371-7.974S319.201,363.54,318.406,370.184z M288.682,370.184
									c0.863,6.71,6.186,11.495,6.186,11.495s5.451-4.652,6.781-5.05c-8.443-5.049-11.371-7.974-11.371-7.974
									S287.883,363.54,288.682,370.184z"/>
							</g>
						</g>
					</g>
				</g>
				<path clip-path="url(#SVGID_32_)" fill="#F3CFA6" d="M303.51,329.188c12.701,0,13.764,9.169,13.83,10.031
					c0.732,7.908-1.994,18.672-4.52,22.394c-2.662,3.919-6.518,5.381-8.979,5.514c-0.133,0-0.133,0-0.199,0l-0.133-0.066
					c-2.525-0.133-6.383-1.595-9.043-5.514c-2.527-3.723-5.252-14.485-4.521-22.457C290.014,338.291,290.809,329.188,303.51,329.188
					z"/>
				<path clip-path="url(#SVGID_32_)" fill="#A37160" d="M300.717,359.089c-0.133,0-0.266,0.266-0.199,0.466
					c0.6,1.394,1.529,2.189,2.793,2.256c1.33,0.134,2.727-0.795,3.457-2.256c0.066-0.2,0-0.466-0.197-0.466H300.717z"/>
				<circle clip-path="url(#SVGID_32_)" fill="#262626" cx="309.494" cy="348.457" r="1.329"/>
				<circle clip-path="url(#SVGID_32_)" fill="#262626" cx="297.525" cy="348.457" r="1.329"/>
				<path clip-path="url(#SVGID_32_)" fill="none" stroke="#CC9872" stroke-width="2" d="M293.869,345.268
					c0,0,0.932-0.798,3.258-0.798c1.662,0,3.258,0.466,4.256,1.727"/>
				<path clip-path="url(#SVGID_32_)" fill="none" stroke="#BB8660" stroke-width="2" d="M313.086,345.268
					c0,0-0.932-0.798-3.258-0.798c-2.328,0-4.59,0.997-5.121,3.787c-0.531,2.793,0.201,5.117,1.398,6.712"/>
				<path clip-path="url(#SVGID_32_)" fill="#E6A523" d="M286.221,348.655c1.596-0.597,4.789-2.324,7.98-7.906
					c4.521-7.973,11.438-4.317,13.631-1.728c0.268,0.267,0.6,0.133,0.6,0.133s5.717-2.458,7.979,2.524
					c1.662,3.655,2.594,4.719,4.322,5.847v-5.249c0.066-10.298-6.25-10.431-6.518-10.431c-0.266,0-0.465,0-0.598-0.397
					c-0.598-1.928-6.783-8.306-17.154-4.254c-10.373,4.055-10.242,18.604-10.242,18.604V348.655z"/>
				<g clip-path="url(#SVGID_32_)">
					<g>
						<defs>
							<path id="SVGID_41_" d="M286.221,348.655c1.596-0.597,4.789-2.324,7.98-7.906c4.521-7.973,11.438-4.317,13.631-1.728
								c0.268,0.267,0.6,0.133,0.6,0.133s5.717-2.458,7.979,2.524c1.662,3.655,2.594,4.719,4.322,5.847v-5.249
								c0.066-10.298-6.25-10.431-6.518-10.431c-0.266,0-0.465,0-0.598-0.397c-0.598-1.928-6.783-8.306-17.154-4.254
								c-10.373,4.055-10.242,18.604-10.242,18.604V348.655z"/>
						</defs>
						<clipPath id="SVGID_42_">
							<use xlink:href="#SVGID_41_"  overflow="visible"/>
						</clipPath>
						<path clip-path="url(#SVGID_42_)" fill="#D98C21" d="M308.033,339.553c0,0,1.994-4.98,5.982-8.038
							c3.99-3.057,7.449,4.917,7.449,4.917l0.199,13.021L308.033,339.553z"/>
					</g>
				</g>
			</g>
		</g>
	</g>
</g>
<g>
	<g>
		<ellipse fill="#F5EEE5" cx="33.247" cy="153.956" rx="33.248" ry="33.222"/>
		<g>
			<g>
				<defs>
					<ellipse id="SVGID_43_" cx="33.247" cy="153.956" rx="33.248" ry="33.222"/>
				</defs>
				<clipPath id="SVGID_44_">
					<use xlink:href="#SVGID_43_"  overflow="visible"/>
				</clipPath>
				<path clip-path="url(#SVGID_44_)" fill="#E6C19D" d="M41.892,168.507c0,2.658,3.125,3.455,4.721,3.854
					c5.054,1.329,15.162,3.92,15.162,3.92c2.126,0.732,3.789,2.325,4.721,4.386v6.512H0v-6.512c0.864-2.061,2.593-3.653,4.721-4.386
					c0,0,10.108-2.591,15.162-3.92c1.596-0.398,4.721-1.195,4.721-3.854s0-7.242,0-7.242h17.289
					C41.892,161.265,41.892,165.849,41.892,168.507z"/>
			</g>
			<g>
				<defs>
					<ellipse id="SVGID_45_" cx="33.247" cy="153.956" rx="33.248" ry="33.222"/>
				</defs>
				<clipPath id="SVGID_46_">
					<use xlink:href="#SVGID_45_"  overflow="visible"/>
				</clipPath>
				<g clip-path="url(#SVGID_46_)">
					<g>
						<defs>
							<path id="SVGID_47_" d="M41.892,168.507c0,2.658,3.125,3.455,4.721,3.854c5.054,1.329,15.162,3.92,15.162,3.92
								c2.126,0.732,3.789,2.325,4.721,4.386v6.512H0v-6.512c0.864-2.061,2.593-3.653,4.721-4.386c0,0,10.108-2.591,15.162-3.92
								c1.596-0.398,4.721-1.195,4.721-3.854s0-7.242,0-7.242h17.289C41.892,161.265,41.892,165.849,41.892,168.507z"/>
						</defs>
						<defs>
							<path id="SVGID_48_" d="M41.892,168.507c0,2.658,3.125,3.455,4.721,3.854c5.054,1.329,15.162,3.92,15.162,3.92
								c2.126,0.732,3.789,2.325,4.721,4.386v6.512H0v-6.512c0.864-2.061,2.593-3.653,4.721-4.386c0,0,10.108-2.591,15.162-3.92
								c1.596-0.398,4.721-1.195,4.721-3.854s0-7.242,0-7.242h17.289C41.892,161.265,41.892,165.849,41.892,168.507z"/>
						</defs>
						<defs>
							<path id="SVGID_49_" d="M41.892,168.507c0,2.658,3.125,3.455,4.721,3.854c5.054,1.329,15.162,3.92,15.162,3.92
								c2.126,0.732,3.789,2.325,4.721,4.386v6.512H0v-6.512c0.864-2.061,2.593-3.653,4.721-4.386c0,0,10.108-2.591,15.162-3.92
								c1.596-0.398,4.721-1.195,4.721-3.854s0-7.242,0-7.242h17.289C41.892,161.265,41.892,165.849,41.892,168.507z"/>
						</defs>
						<clipPath id="SVGID_50_">
							<use xlink:href="#SVGID_47_"  overflow="visible"/>
						</clipPath>
						<clipPath id="SVGID_51_" clip-path="url(#SVGID_50_)">
							<use xlink:href="#SVGID_48_"  overflow="visible"/>
						</clipPath>
						<clipPath id="SVGID_52_" clip-path="url(#SVGID_51_)">
							<use xlink:href="#SVGID_49_"  overflow="visible"/>
						</clipPath>
						<path clip-path="url(#SVGID_52_)" fill="#D4B08D" d="M33.38,129.372h0.134l0,0c2.194,0,5.451,0.133,7.58,1.329
							c2.194,1.263,4.853,3.721,5.652,8.039c1.596,9.103-1.396,23.521-4.189,28.172c-2.66,4.451-6.516,6.113-8.977,6.247h-0.066
							H33.38h-0.133h-0.066c-2.46-0.134-6.316-1.796-8.977-6.247c-2.792-4.65-5.785-19.069-4.189-28.172
							c0.798-4.318,3.458-6.776,5.652-8.039c2.127-1.196,5.386-1.329,7.58-1.329l0,0H33.38z"/>
						<path clip-path="url(#SVGID_52_)" fill="#C7539A" d="M66.495,159.271v27.906H0v-27.906H66.495z M33.247,181.861
							c8.978-0.133,13.964-9.966,13.964-9.966s-6.649-11.295-13.964-11.295c-7.314,0-13.964,11.295-13.964,11.295
							S24.27,181.995,33.247,181.861z"/>
						<path clip-path="url(#SVGID_52_)" fill="#BA4F86" d="M33.247,157.278c-8.711,0-16.557,13.421-16.557,13.421
							s5.918,11.96,16.557,11.827c10.64-0.134,16.558-11.827,16.558-11.827S41.958,157.278,33.247,157.278z M33.247,179.868
							c-8.045,0-13.831-9.367-13.831-9.367s6.516-10.565,13.831-10.565c7.315,0,13.831,10.565,13.831,10.565
							S41.293,179.868,33.247,179.868z"/>
					</g>
				</g>
				<path clip-path="url(#SVGID_46_)" fill="#6C373E" d="M44.019,137.678c0,0-0.066-5.049,4.92-5.049
					c4.987,0,7.581,3.985,7.581,9.301s-6.051,8.704-6.65,12.293c-0.599,3.586,1.264,5.846,1.264,5.846s-4.721,1.527-6.916-3.455
					C42.024,151.63,44.019,137.678,44.019,137.678z"/>
				<path clip-path="url(#SVGID_46_)" fill="#B33F82" d="M48.009,136.216L48.009,136.216c-0.998-1.527-3.059-1.993-4.589-0.997
					c-1.529,0.997-1.994,3.057-0.997,4.585c0.997,1.528,3.059,1.993,4.588,0.996C48.541,139.804,49.006,137.743,48.009,136.216z"/>
				<path clip-path="url(#SVGID_46_)" fill="#884450" d="M21.81,137.678c0,0,0.067-5.049-4.92-5.049
					c-4.987,0-7.581,3.985-7.581,9.301s6.051,8.704,6.649,12.293c0.599,3.653-1.264,5.846-1.264,5.846s4.722,1.527,6.85-3.455
					C23.672,151.63,21.81,137.678,21.81,137.678z"/>
				<path clip-path="url(#SVGID_46_)" fill="#C7539A" d="M17.82,136.216L17.82,136.216c0.998-1.527,3.059-1.993,4.588-0.997
					c1.529,0.997,1.995,3.057,0.997,4.585c-0.997,1.528-3.059,1.993-4.588,0.996C17.289,139.804,16.823,137.743,17.82,136.216z"/>
				<path clip-path="url(#SVGID_46_)" fill="#F3CFA6" d="M33.247,135.352c12.7,0,13.765,8.505,13.831,9.369
					c0.732,7.906-1.995,16.677-4.521,20.398c-2.66,3.92-6.516,5.382-8.977,5.514c-0.134,0-0.134,0-0.2,0l-0.133-0.065
					c-2.526-0.134-6.383-1.595-9.043-5.515c-2.527-3.723-5.252-12.492-4.522-20.465C19.749,143.79,20.546,135.352,33.247,135.352z"
					/>
				<path clip-path="url(#SVGID_46_)" fill="#A37160" d="M33.247,163.258c-1.995,0-3.125-0.664-3.125-0.664
					c-0.199,0-0.266,0.266-0.199,0.465c0.598,1.396,2.061,2.192,3.324,2.192c1.263,0,2.594-0.797,3.258-2.192
					c0.133-0.199,0-0.465-0.2-0.465C36.373,162.594,35.242,163.258,33.247,163.258z"/>
				<circle clip-path="url(#SVGID_46_)" fill="#262626" cx="39.231" cy="153.292" r="1.329"/>
				<circle clip-path="url(#SVGID_46_)" fill="#262626" cx="27.263" cy="153.292" r="1.329"/>
				<path clip-path="url(#SVGID_46_)" fill="none" stroke="#CC9872" stroke-width="2" d="M23.54,151.564
					c0.664-1.062,1.795-1.596,2.859-1.596c1.264,0,2.527,0.399,3.591,1.196"/>
				<path clip-path="url(#SVGID_46_)" fill="none" stroke="#BB8660" stroke-width="2" d="M42.423,151.564
					c-0.666-1.062-1.796-1.596-2.859-1.596c-2.327,0-4.654,1.329-5.586,4.12c-0.93,2.791-0.332,4.12,0.599,4.784"/>
				<path clip-path="url(#SVGID_46_)" fill="#6C373E" d="M19.616,150.035c0,0,6.384-2.657,9.509-7.108
					c0.599,0.664,1.329,2.923,1.329,4.451c4.056-0.664,6.583-3.056,9.708-5.647c0,3.721,6.051,7.043,6.982,8.305
					c0,0,0.73-3.321,0.73-6.378c0-3.322-1.196-6.512-3.923-7.109c-1.196-3.455-6.384-5.847-10.706-5.847
					c-8.112,0-14.629,5.78-14.629,12.89C18.618,146.714,19.616,150.035,19.616,150.035z"/>
				<g clip-path="url(#SVGID_46_)">
					<g>
						<defs>
							<path id="SVGID_53_" d="M19.616,150.035c0,0,6.384-2.657,9.509-7.108c0.599,0.664,1.329,2.923,1.329,4.451
								c4.056-0.664,6.583-3.056,9.708-5.647c0,3.721,6.051,7.043,6.982,8.305c0,0,0.73-3.321,0.73-6.378
								c0-3.322-1.196-6.512-3.923-7.109c-1.196-3.455-6.384-5.847-10.706-5.847c-8.112,0-14.629,5.78-14.629,12.89
								C18.618,146.714,19.616,150.035,19.616,150.035z"/>
						</defs>
						<clipPath id="SVGID_54_">
							<use xlink:href="#SVGID_53_"  overflow="visible"/>
						</clipPath>
						<path clip-path="url(#SVGID_54_)" fill="#51282F" d="M45.815,134.022c0,0-4.722,6.379-5.786,8.174
							c-1.065,1.794,6.649,13.088,6.649,13.088s12.234-8.903,6.25-14.086C46.945,136.017,45.815,134.022,45.815,134.022z"/>
					</g>
				</g>
			</g>
		</g>
	</g>
</g>
<g>
	<g>
		<ellipse fill="#991915" cx="200.658" cy="208.232" rx="39.157" ry="39.127"/>
		<g>
			<g>
				<defs>
					<ellipse id="SVGID_55_" cx="200.658" cy="208.232" rx="39.157" ry="39.127"/>
				</defs>
				<clipPath id="SVGID_56_">
					<use xlink:href="#SVGID_55_"  overflow="visible"/>
				</clipPath>
				<path clip-path="url(#SVGID_56_)" fill="#D4B08D" d="M212.407,228.501l21.85,6.021c2.503,0.864,4.462,2.742,5.559,5.167v7.67
					H161.5v-7.67c1.019-2.425,3.056-4.303,5.561-5.167l21.851-6.021v-11.66h23.496V228.501z"/>
			</g>
			<g>
				<defs>
					<ellipse id="SVGID_57_" cx="200.658" cy="208.232" rx="39.157" ry="39.127"/>
				</defs>
				<clipPath id="SVGID_58_">
					<use xlink:href="#SVGID_57_"  overflow="visible"/>
				</clipPath>
				<g clip-path="url(#SVGID_58_)">
					<g>
						<defs>
							<path id="SVGID_59_" d="M212.407,228.501l21.85,6.021c2.503,0.864,4.462,2.742,5.559,5.167v7.67H161.5v-7.67
								c1.019-2.425,3.056-4.303,5.561-5.167l21.851-6.021v-11.66h23.496V228.501z"/>
						</defs>
						<defs>
							<path id="SVGID_60_" d="M212.407,228.501l21.85,6.021c2.503,0.864,4.462,2.742,5.559,5.167v7.67H161.5v-7.67
								c1.019-2.425,3.056-4.303,5.561-5.167l21.851-6.021v-11.66h23.496V228.501z"/>
						</defs>
						<defs>
							<path id="SVGID_61_" d="M212.407,228.501l21.85,6.021c2.503,0.864,4.462,2.742,5.559,5.167v7.67H161.5v-7.67
								c1.019-2.425,3.056-4.303,5.561-5.167l21.851-6.021v-11.66h23.496V228.501z"/>
						</defs>
						<defs>
							<path id="SVGID_62_" d="M212.407,228.501l21.85,6.021c2.503,0.864,4.462,2.742,5.559,5.167v7.67H161.5v-7.67
								c1.019-2.425,3.056-4.303,5.561-5.167l21.851-6.021v-11.66h23.496V228.501z"/>
						</defs>
						<defs>
							<path id="SVGID_63_" d="M212.407,228.501l21.85,6.021c2.503,0.864,4.462,2.742,5.559,5.167v7.67H161.5v-7.67
								c1.019-2.425,3.056-4.303,5.561-5.167l21.851-6.021v-11.66h23.496V228.501z"/>
						</defs>
						<clipPath id="SVGID_64_">
							<use xlink:href="#SVGID_59_"  overflow="visible"/>
						</clipPath>
						<clipPath id="SVGID_65_" clip-path="url(#SVGID_64_)">
							<use xlink:href="#SVGID_60_"  overflow="visible"/>
						</clipPath>
						<clipPath id="SVGID_66_" clip-path="url(#SVGID_65_)">
							<use xlink:href="#SVGID_61_"  overflow="visible"/>
						</clipPath>
						<clipPath id="SVGID_67_" clip-path="url(#SVGID_66_)">
							<use xlink:href="#SVGID_62_"  overflow="visible"/>
						</clipPath>
						<clipPath id="SVGID_68_" clip-path="url(#SVGID_67_)">
							<use xlink:href="#SVGID_63_"  overflow="visible"/>
						</clipPath>
						<polygon clip-path="url(#SVGID_68_)" fill="#1F1F24" points="200.815,231.709 195.175,231.709 191.418,227.796 161.5,227.796 
							161.5,247.359 200.815,247.359 240.052,247.359 240.052,227.796 210.212,227.796 206.456,231.709 						"/>
						<polygon clip-path="url(#SVGID_68_)" fill="#C1CAD4" points="200.658,231.709 201.44,231.709 212.953,225.684 
							208.413,248.296 200.658,247.437 192.903,248.296 188.364,225.684 199.875,231.709 						"/>
						<polygon clip-path="url(#SVGID_68_)" fill="#3768B1" points="198.7,238.752 202.616,238.752 205.745,248.144 195.569,248.144 
													"/>
						<polygon clip-path="url(#SVGID_68_)" fill="#4596D2" points="192.436,231.709 208.879,231.709 202.616,238.752 198.7,238.752 
													"/>
						<path clip-path="url(#SVGID_68_)" fill="#FFFFFF" d="M212.796,223.881l-11.274,7.828l8.454,8.609l3.212-15.655
							L212.796,223.881z M188.52,223.881l11.274,7.828l-8.455,8.609l-3.213-15.655L188.52,223.881z"/>
					</g>
				</g>
				<path clip-path="url(#SVGID_58_)" fill="#F3CFA6" d="M200.658,227.014c-1.175,0-2.741-0.233-3.761-0.706
					c-1.251-0.546-5.636-3.601-7.124-4.93c-1.96-1.799-2.977-3.99-3.289-7.824c-0.316-3.833-1.487-17.451-1.487-20.58
					c0-4.46,3.994-11.348,15.661-11.348l0,0l0,0l0,0l0,0c11.668,0,15.663,6.888,15.663,11.348c0,3.129-1.172,16.822-1.487,20.658
					c-0.314,3.835-1.253,6.025-3.293,7.824c-1.486,1.329-5.947,4.382-7.122,4.933C203.399,226.78,201.833,227.014,200.658,227.014
					L200.658,227.014z"/>
				<path clip-path="url(#SVGID_58_)" fill="#A37160" d="M206.141,216.057h-10.966c-0.314,0-0.47,0.312-0.314,0.629
					c1.02,1.796,2.9,2.733,5.246,2.894c2.429,0.156,5.093-1.02,6.349-2.894C206.612,216.447,206.456,216.057,206.141,216.057z"/>
				<circle clip-path="url(#SVGID_58_)" fill="#262626" cx="207.706" cy="204.319" r="1.563"/>
				<circle clip-path="url(#SVGID_58_)" fill="#262626" cx="193.61" cy="204.319" r="1.563"/>
				<path clip-path="url(#SVGID_58_)" fill="none" stroke="#CC9872" stroke-width="2" d="M188.911,201.972
					c0,0,0.862-2.348,4.773-2.348c2.668,0,4.232,1.175,5.016,2.348"/>
				<path clip-path="url(#SVGID_58_)" fill="none" stroke="#BB8660" stroke-width="2" d="M212.481,201.972
					c0,0-0.859-2.348-4.775-2.348c-3.758,0-5.48,2.348-5.48,3.914c0,1.485,0,7.044,0,7.044"/>
				<path clip-path="url(#SVGID_58_)" fill="#D98C21" d="M215.381,206.825c0,0,0.627-4.934,2.898-5.634
					c0.311-1.412,1.175-5.479,1.175-7.749s-0.234-4.462-1.489-6.339c-1.409-2.034-4.385-3.208-5.952-3.208
					c-1.801,1.094-6.028,3.6-7.362,5.085c-0.703,0.784,0.312,1.408,0.312,1.408s0.94-0.391,1.333-0.469
					c1.96-0.546,6.266-0.939,7.6,1.019c1.639,2.346,1.639,9.232,1.639,10.253C215.535,202.128,215.381,206.825,215.381,206.825z"/>
				<path clip-path="url(#SVGID_58_)" fill="#E6A523" d="M183.037,201.191c2.272,0.78,2.898,5.634,2.898,5.634
					s-0.155-4.697-0.155-5.634c0-1.255,0.155-7.124,2.662-9.943c2.819-3.128,6.576-4.145,8.693-2.734
					c1.096,0.7,4.777,4.301,8.688,1.329c2.353-1.801,6.658-5.869,6.658-5.869s-2.269-6.966-12.605-6.182
					c-4.384,0.391-9.241-0.705-9.241-0.705s-0.077,1.956,0.705,2.974c-6.499,1.878-8.615,6.572-9.242,10.173
					c-0.154,0.705-0.236,1.409-0.236,2.112c0,0.392,0,0.782,0,1.097C181.861,195.712,182.724,199.702,183.037,201.191z"/>
			</g>
		</g>
	</g>
</g>
<g>
	<g>
		<ellipse fill="#F5EEE5" cx="366.754" cy="153.956" rx="33.246" ry="33.222"/>
		<g>
			<g>
				<defs>
					<ellipse id="SVGID_69_" cx="366.754" cy="153.956" rx="33.246" ry="33.222"/>
				</defs>
				<clipPath id="SVGID_70_">
					<use xlink:href="#SVGID_69_"  overflow="visible"/>
				</clipPath>
				<path clip-path="url(#SVGID_70_)" fill="#E6C19D" d="M375.398,169.836l4.721,1.196c5.053,1.328,15.162,3.92,15.162,3.92
					c2.127,0.73,3.789,2.326,4.719,4.385v7.841h-66.492v-7.841c0.863-2.059,2.592-3.654,4.719-4.385c0,0,10.107-2.592,15.162-3.92
					c1.596-0.399,4.721-1.196,4.721-1.196v-9.9h17.289V169.836z"/>
			</g>
			<g>
				<defs>
					<ellipse id="SVGID_71_" cx="366.754" cy="153.956" rx="33.246" ry="33.222"/>
				</defs>
				<clipPath id="SVGID_72_">
					<use xlink:href="#SVGID_71_"  overflow="visible"/>
				</clipPath>
				<g clip-path="url(#SVGID_72_)">
					<g>
						<defs>
							<path id="SVGID_73_" d="M375.398,169.836l4.721,1.196c5.053,1.328,15.162,3.92,15.162,3.92
								c2.127,0.73,3.789,2.326,4.719,4.385v7.841h-66.492v-7.841c0.863-2.059,2.592-3.654,4.719-4.385
								c0,0,10.107-2.592,15.162-3.92c1.596-0.399,4.721-1.196,4.721-1.196v-9.9h17.289V169.836z"/>
						</defs>
						<defs>
							<path id="SVGID_74_" d="M375.398,169.836l4.721,1.196c5.053,1.328,15.162,3.92,15.162,3.92
								c2.127,0.73,3.789,2.326,4.719,4.385v7.841h-66.492v-7.841c0.863-2.059,2.592-3.654,4.719-4.385
								c0,0,10.107-2.592,15.162-3.92c1.596-0.399,4.721-1.196,4.721-1.196v-9.9h17.289V169.836z"/>
						</defs>
						<defs>
							<path id="SVGID_75_" d="M375.398,169.836l4.721,1.196c5.053,1.328,15.162,3.92,15.162,3.92
								c2.127,0.73,3.789,2.326,4.719,4.385v7.841h-66.492v-7.841c0.863-2.059,2.592-3.654,4.719-4.385
								c0,0,10.107-2.592,15.162-3.92c1.596-0.399,4.721-1.196,4.721-1.196v-9.9h17.289V169.836z"/>
						</defs>
						<clipPath id="SVGID_76_">
							<use xlink:href="#SVGID_73_"  overflow="visible"/>
						</clipPath>
						<clipPath id="SVGID_77_" clip-path="url(#SVGID_76_)">
							<use xlink:href="#SVGID_74_"  overflow="visible"/>
						</clipPath>
						<clipPath id="SVGID_78_" clip-path="url(#SVGID_77_)">
							<use xlink:href="#SVGID_75_"  overflow="visible"/>
						</clipPath>
						<path clip-path="url(#SVGID_78_)" fill="#D4B08D" d="M366.887,128.043h0.135l0,0c2.193,0,5.451,0.133,7.578,1.329
							c2.195,1.263,4.854,3.721,5.652,8.039c1.596,9.103-1.396,23.521-4.189,28.172c-2.66,4.452-6.518,6.113-8.977,6.245h-0.064
							h-0.135h-0.133h-0.066c-2.461-0.132-6.316-1.793-8.979-6.245c-2.791-4.65-5.783-19.069-4.188-28.172
							c0.797-4.318,3.457-6.776,5.652-8.039c2.127-1.196,5.385-1.329,7.58-1.329l0,0H366.887z"/>
						<path clip-path="url(#SVGID_78_)" fill="#90BF21" d="M333.508,159.271H400v27.906h-66.492V159.271z M366.754,180.533
							c8.977-0.133,13.963-9.966,13.963-9.966s-6.648-11.296-13.963-11.296s-13.965,11.296-13.965,11.296
							S357.775,180.666,366.754,180.533z"/>
						<path clip-path="url(#SVGID_78_)" fill="#71A72D" d="M366.754,155.949c-8.711,0-16.557,13.421-16.557,13.421
							s5.916,11.961,16.557,11.828c10.639-0.133,16.557-11.828,16.557-11.828S375.465,155.949,366.754,155.949z M366.754,178.54
							c-8.047,0-13.832-9.368-13.832-9.368s6.518-10.565,13.832-10.565s13.83,10.565,13.83,10.565S374.799,178.54,366.754,178.54z"
							/>
					</g>
				</g>
				<path clip-path="url(#SVGID_72_)" fill="#F3CFA6" d="M366.621,134.022c12.701,0,13.766,8.505,13.83,9.368
					c0.73,7.907-1.994,16.678-4.521,20.399c-2.66,3.919-6.518,5.382-8.977,5.514c-0.133,0-0.133,0-0.199,0h-0.133
					c-2.527-0.132-6.385-1.595-9.043-5.514c-2.527-3.722-5.254-12.492-4.523-20.466C353.121,142.462,353.92,134.022,366.621,134.022
					z"/>
				<path clip-path="url(#SVGID_72_)" fill="#A37160" d="M366.82,161.929c-2.395,0-3.725-0.664-3.725-0.664
					c-0.199,0-0.266,0.267-0.199,0.465c0.199,1.197,1.529,2.857,3.99,2.857c2.459,0,3.725-1.66,3.924-2.857
					c0.066-0.198,0-0.465-0.199-0.465C370.477,161.265,369.148,161.929,366.82,161.929z"/>
				<g clip-path="url(#SVGID_72_)">
					<g>
						<defs>
							<rect id="SVGID_79_" x="356.113" y="149.969" width="20.613" height="3.321"/>
						</defs>
						<clipPath id="SVGID_80_">
							<use xlink:href="#SVGID_79_"  overflow="visible"/>
						</clipPath>
						<path clip-path="url(#SVGID_80_)" fill="#2A1F21" d="M372.736,151.298c0.736,0,1.332,0.596,1.332,1.329
							s-0.596,1.329-1.332,1.329c-0.732,0-1.328-0.596-1.328-1.329S372.004,151.298,372.736,151.298z"/>
					</g>
					<g>
						<defs>
							<rect id="SVGID_81_" x="356.113" y="149.969" width="20.613" height="3.321"/>
						</defs>
						<clipPath id="SVGID_82_">
							<use xlink:href="#SVGID_81_"  overflow="visible"/>
						</clipPath>
						<circle clip-path="url(#SVGID_82_)" fill="#2A1F21" cx="360.77" cy="152.627" r="1.329"/>
					</g>
				</g>
				<path clip-path="url(#SVGID_72_)" fill="none" stroke="#CC9872" stroke-width="2" d="M357.445,150.235
					c0.664-1.064,1.793-1.595,2.859-1.595c1.662,0,3.324,0.397,4.32,1.395"/>
				<path clip-path="url(#SVGID_72_)" fill="none" stroke="#BB8660" stroke-width="2" d="M375.93,150.235
					c-0.664-1.064-1.795-1.595-2.859-1.595c-2.326,0-4.588,0.73-5.121,2.856c-0.531,2.126-1.195,5.781-1.195,5.781"/>
				<path clip-path="url(#SVGID_72_)" fill="#462329" d="M380.119,151.829c0,0,0.465-2.259,1.729-2.922
					c0.863-3.656,0.93-4.917,0.93-5.517c0-1.926-0.197-3.786-1.262-5.381c-1.195-1.728-3.725-2.725-5.055-2.725
					c-1.529,0.931-5.119,3.057-6.25,4.319c-0.6,0.664,0.266,1.195,0.266,1.195s3.059-3.986,3.26-1.794
					c0.199,2.192,6.516,7.708,6.516,7.708v5.115H380.119z"/>
				<path clip-path="url(#SVGID_72_)" fill="#6C373E" d="M351.127,145.052c0,0.665,0.467,3.124,0.799,4.053
					c1.062,0.466,1.529,2.924,1.529,2.924v-5.314c3.99-1.13,8.512-3.39,11.104-6.844c0.801,2.392-0.066,4.053-0.066,4.053
					s4.455,0.133,7.781-2.393c1.994-1.528,4.387-6.112,4.387-6.112s-1.195-5.248-9.973-4.519c-3.725,0.332-5.52,2.592-11.57,1.993
					c0,0,0.6,1.463,1.264,2.326C353.721,136.416,351.127,139.804,351.127,145.052z"/>
			</g>
		</g>
	</g>
</g>
<g>
	<path fill="#FFEB54" d="M119.002,86.161c-1.446-0.467-2.903-0.701-4.367-0.701c-0.38,0-0.71,0.14-0.989,0.416
		c-0.279,0.278-0.417,0.608-0.417,0.988c0,0.381,0.138,0.711,0.417,0.986c0.278,0.278,0.608,0.419,0.989,0.419
		c1.521,0,3.074,0.364,4.652,1.097c1.582,0.73,2.373,1.769,2.373,3.113c0,0.381,0.138,0.71,0.416,0.988
		c0.279,0.278,0.608,0.416,0.99,0.416s0.708-0.137,0.986-0.416c0.279-0.278,0.419-0.607,0.419-0.988c0-1.52-0.551-2.835-1.649-3.948
		C121.728,87.421,120.453,86.631,119.002,86.161z"/>
	<path fill="#FFEB54" d="M135.162,84.385c-1.304-2.502-3.016-4.578-5.136-6.229c-2.123-1.654-4.524-2.956-7.204-3.906
		c-2.676-0.95-5.408-1.427-8.187-1.427c-2.782,0-5.51,0.477-8.189,1.427c-2.681,0.95-5.078,2.252-7.201,3.906
		c-2.123,1.651-3.835,3.727-5.139,6.229c-1.303,2.501-1.952,5.199-1.952,8.094c0,4.536,1.507,8.455,4.524,11.76
		c1.316,1.433,2.404,2.706,3.268,3.816c0.865,1.11,1.736,2.509,2.613,4.191c0.88,1.68,1.377,3.254,1.496,4.716
		c-1.377,0.819-2.065,2.019-2.065,3.596c0,1.084,0.364,2.019,1.098,2.809c-0.734,0.79-1.098,1.728-1.098,2.809
		c0,1.52,0.659,2.706,1.976,3.554c-0.382,0.673-0.57,1.36-0.57,2.062c0,1.347,0.461,2.387,1.383,3.115
		c0.921,0.73,2.055,1.098,3.402,1.098c0.583,1.286,1.464,2.31,2.636,3.07c1.168,0.76,2.442,1.141,3.819,1.141
		c1.373,0,2.648-0.381,3.82-1.141c1.168-0.761,2.049-1.784,2.635-3.07c1.344,0,2.481-0.367,3.403-1.098
		c0.922-0.729,1.383-1.769,1.383-3.115c0-0.701-0.192-1.389-0.574-2.062c1.319-0.848,1.976-2.034,1.976-3.554
		c0-1.081-0.365-2.019-1.094-2.809c0.729-0.791,1.094-1.725,1.094-2.809c0-1.577-0.688-2.777-2.062-3.596
		c0.115-1.462,0.615-3.036,1.492-4.716c0.877-1.682,1.748-3.081,2.613-4.191c0.865-1.11,1.953-2.383,3.272-3.816
		c3.012-3.305,4.521-7.224,4.521-11.76C137.115,89.584,136.465,86.887,135.162,84.385z M128.509,100.378
		c-0.291,0.323-0.74,0.803-1.338,1.446c-0.598,0.646-1.047,1.129-1.338,1.449c-3.749,4.476-5.811,8.833-6.192,13.075h-10.013
		c-0.38-4.242-2.442-8.599-6.188-13.075c-0.294-0.32-0.739-0.803-1.342-1.449c-0.598-0.643-1.047-1.123-1.337-1.446
		c-1.992-2.31-2.988-4.943-2.988-7.899c0-2.105,0.506-4.063,1.518-5.877c1.009-1.813,2.324-3.298,3.951-4.453
		c1.623-1.155,3.426-2.063,5.402-2.722c1.976-0.656,3.973-0.985,5.993-0.985c2.021,0,4.018,0.329,5.994,0.985
		c1.976,0.659,3.775,1.567,5.401,2.722c1.624,1.155,2.939,2.64,3.951,4.453c1.008,1.814,1.515,3.772,1.515,5.877
		C131.496,95.436,130.5,98.068,128.509,100.378z"/>
</g>
<g>
	<path fill="#FFEB54" d="M91.546,259.006H67.924c-0.313,0-0.57,0.099-0.771,0.3c-0.204,0.199-0.303,0.46-0.303,0.771v2.149
		c0,0.31,0.099,0.566,0.303,0.771c0.201,0.201,0.458,0.298,0.771,0.298h23.622c0.312,0,0.57-0.097,0.77-0.298
		c0.204-0.205,0.304-0.462,0.304-0.771v-2.149c0-0.311-0.1-0.571-0.304-0.771C92.116,259.104,91.858,259.006,91.546,259.006z"/>
	<path fill="#FFEB54" d="M104.833,231.375c-0.446-1.067-0.985-1.919-1.609-2.546L92.755,218.37
		c-0.626-0.624-1.478-1.164-2.553-1.607c-1.07-0.45-2.058-0.676-2.95-0.676H57.188c-0.896,0-1.656,0.318-2.283,0.938
		c-0.626,0.627-0.939,1.388-0.939,2.285v53.642c0,0.896,0.312,1.652,0.939,2.278c0.626,0.625,1.387,0.939,2.283,0.939h45.098
		c0.892,0,1.653-0.314,2.28-0.939c0.626-0.626,0.939-1.382,0.939-2.278V234.33C105.504,233.435,105.282,232.452,104.833,231.375z
		 M88.323,220.647c0.649,0.226,1.109,0.471,1.378,0.739l10.501,10.493c0.269,0.268,0.514,0.729,0.738,1.375H88.323V220.647z
		 M101.209,271.882H58.258v-51.503H84.03v13.951c0,0.895,0.312,1.652,0.939,2.276c0.626,0.628,1.387,0.938,2.282,0.938h13.958
		V271.882z"/>
	<path fill="#FFEB54" d="M91.546,250.419H67.924c-0.313,0-0.57,0.104-0.771,0.307c-0.204,0.197-0.303,0.457-0.303,0.771v2.142
		c0,0.318,0.099,0.571,0.303,0.77c0.201,0.203,0.458,0.308,0.771,0.308h23.622c0.312,0,0.57-0.104,0.77-0.308
		c0.204-0.198,0.304-0.451,0.304-0.77v-2.142c0-0.314-0.1-0.574-0.304-0.771C92.116,250.523,91.858,250.419,91.546,250.419z"/>
	<path fill="#FFEB54" d="M67.152,242.139c-0.204,0.205-0.303,0.46-0.303,0.771v2.146c0,0.315,0.099,0.574,0.303,0.775
		c0.201,0.2,0.458,0.299,0.771,0.299h23.622c0.312,0,0.57-0.099,0.77-0.299c0.204-0.201,0.304-0.46,0.304-0.775v-2.146
		c0-0.312-0.1-0.566-0.304-0.771c-0.2-0.201-0.458-0.297-0.77-0.297H67.924C67.611,241.842,67.354,241.938,67.152,242.139z"/>
</g>
<path fill="#FFEB54" d="M211.673,337.896v7.315c0,0.264-0.094,0.517-0.279,0.771c-0.184,0.247-0.395,0.385-0.632,0.414l-6.129,0.946
	c-0.292,0.922-0.712,1.923-1.267,3.001c0.896,1.27,2.083,2.784,3.562,4.548c0.183,0.265,0.277,0.53,0.277,0.788
	c0,0.318-0.095,0.571-0.277,0.751c-0.609,0.794-1.695,1.969-3.264,3.536c-1.568,1.568-2.604,2.352-3.103,2.352
	c-0.291,0-0.566-0.094-0.831-0.276l-4.549-3.556c-0.976,0.502-1.99,0.91-3.045,1.227c-0.289,2.842-0.591,4.89-0.908,6.119
	c-0.186,0.636-0.58,0.952-1.186,0.952h-7.355c-0.291,0-0.555-0.097-0.794-0.294c-0.236-0.202-0.369-0.433-0.395-0.691l-0.908-6.052
	c-0.897-0.258-1.886-0.666-2.968-1.22l-4.665,3.515c-0.185,0.183-0.45,0.276-0.79,0.276c-0.291,0-0.568-0.104-0.831-0.316
	c-3.797-3.502-5.694-5.607-5.694-6.322c0-0.235,0.092-0.484,0.276-0.749c0.263-0.367,0.806-1.066,1.621-2.098
	c0.816-1.024,1.437-1.826,1.859-2.408c-0.608-1.159-1.07-2.237-1.384-3.237l-6.012-0.952c-0.263-0.023-0.488-0.148-0.673-0.375
	c-0.184-0.224-0.275-0.478-0.275-0.77v-7.31c0-0.265,0.092-0.518,0.275-0.77c0.185-0.25,0.396-0.388,0.633-0.417l6.13-0.944
	c0.291-0.924,0.712-1.927,1.266-3.009c-0.896-1.262-2.082-2.778-3.558-4.541c-0.185-0.288-0.277-0.553-0.277-0.79
	c0-0.315,0.093-0.581,0.277-0.787c0.579-0.798,1.66-1.966,3.24-3.521c1.584-1.551,2.624-2.328,3.126-2.328
	c0.288,0,0.564,0.091,0.83,0.276l4.547,3.556c0.898-0.473,1.912-0.896,3.046-1.269c0.288-2.84,0.593-4.868,0.908-6.085
	c0.185-0.627,0.58-0.945,1.188-0.945h7.355c0.288,0,0.553,0.1,0.789,0.295c0.237,0.201,0.369,0.433,0.396,0.689l0.908,6.046
	c0.896,0.265,1.885,0.674,2.966,1.228l4.667-3.515c0.209-0.186,0.476-0.276,0.792-0.276c0.287,0,0.565,0.104,0.831,0.316
	c3.793,3.504,5.691,5.606,5.691,6.32c0,0.237-0.093,0.486-0.276,0.751c-0.315,0.421-0.869,1.134-1.661,2.13
	c-0.791,1.004-1.385,1.795-1.78,2.376c0.607,1.261,1.057,2.346,1.347,3.237l6.011,0.91c0.261,0.054,0.486,0.192,0.67,0.417
	C211.58,337.357,211.673,337.609,211.673,337.896z M193.521,348.65c1.979-1.977,2.968-4.362,2.968-7.158
	c0-2.789-0.989-5.174-2.968-7.15c-1.975-1.977-4.364-2.962-7.157-2.962c-2.794,0-5.18,0.985-7.156,2.962
	c-1.979,1.977-2.968,4.361-2.968,7.15c0,2.796,0.989,5.182,2.968,7.158c1.977,1.972,4.362,2.963,7.156,2.963
	C189.157,351.613,191.546,350.622,193.521,348.65z M236.98,318.502v5.531c0,0.421-1.963,0.83-5.891,1.221
	c-0.317,0.717-0.714,1.4-1.186,2.057c1.345,2.974,2.016,4.796,2.016,5.452c0,0.104-0.051,0.195-0.157,0.278
	c-3.215,1.872-4.85,2.806-4.903,2.806c-0.213,0-0.819-0.616-1.818-1.855c-1.003-1.24-1.69-2.14-2.057-2.694
	c-0.527,0.06-0.926,0.083-1.188,0.083c-0.262,0-0.658-0.023-1.184-0.083c-0.372,0.555-1.057,1.454-2.056,2.694
	c-1.004,1.239-1.612,1.855-1.822,1.855c-0.053,0-1.688-0.934-4.902-2.806c-0.107-0.083-0.158-0.174-0.158-0.278
	c0-0.656,0.672-2.479,2.017-5.452c-0.475-0.656-0.87-1.34-1.188-2.057c-3.927-0.391-5.889-0.8-5.889-1.221v-5.531
	c0-0.423,1.962-0.832,5.889-1.229c0.344-0.766,0.739-1.445,1.188-2.06c-1.345-2.971-2.017-4.791-2.017-5.448
	c0-0.104,0.051-0.196,0.158-0.277c0.105-0.051,0.568-0.318,1.384-0.789c0.816-0.472,1.594-0.922,2.333-1.343
	c0.737-0.42,1.133-0.634,1.186-0.634c0.21,0,0.818,0.609,1.822,1.838c0.999,1.227,1.684,2.115,2.056,2.667
	c0.525-0.052,0.922-0.081,1.184-0.081c0.263,0,0.661,0.029,1.188,0.081c1.343-1.873,2.556-3.346,3.636-4.424l0.239-0.081
	c0.103,0,1.739,0.92,4.903,2.766c0.106,0.081,0.157,0.173,0.157,0.277c0,0.657-0.671,2.478-2.016,5.448
	c0.446,0.614,0.844,1.294,1.186,2.06C235.017,317.67,236.98,318.079,236.98,318.502z M226.859,321.266
	c0-1.37-0.501-2.557-1.505-3.561c-1-0.996-2.188-1.498-3.559-1.498c-1.369,0-2.559,0.502-3.558,1.498
	c-1.004,1.004-1.504,2.19-1.504,3.561c0,1.396,0.494,2.588,1.483,3.574c0.988,0.99,2.181,1.48,3.578,1.48
	c1.398,0,2.591-0.49,3.577-1.48C226.364,323.854,226.859,322.661,226.859,321.266z"/>
<g>
	<path fill="#FFEB54" d="M297.047,266.501h-6.826c-0.197,0-0.398,0.076-0.553,0.229c-0.154,0.156-0.229,0.354-0.229,0.556v0.594
		h8.391v-0.594c0-0.201-0.076-0.399-0.232-0.556C297.447,266.577,297.246,266.501,297.047,266.501z"/>
	<path fill="#FFEB54" d="M307.291,256.821h-6.826c-0.199,0-0.398,0.076-0.553,0.227c-0.152,0.155-0.229,0.357-0.229,0.556v10.275
		h8.389v-10.275c0-0.198-0.076-0.402-0.229-0.556C307.689,256.897,307.49,256.821,307.291,256.821z"/>
	<path fill="#FFEB54" d="M317.535,252.842h-6.826c-0.199,0-0.4,0.072-0.553,0.226c-0.154,0.156-0.229,0.354-0.229,0.556v14.258
		h8.389v-14.258c0-0.201-0.076-0.399-0.229-0.556C317.938,252.915,317.736,252.842,317.535,252.842z"/>
	<path fill="#FFEB54" d="M327.781,254.486h-6.824c-0.203,0-0.402,0.074-0.555,0.229c-0.154,0.154-0.232,0.353-0.232,0.555v12.608
		h8.393v-12.608c0-0.202-0.074-0.401-0.23-0.555C328.182,254.561,327.98,254.486,327.781,254.486z"/>
	<path fill="#FFEB54" d="M338.023,248.09h-6.822c-0.205,0-0.404,0.077-0.557,0.229s-0.23,0.352-0.23,0.554v19.008h8.395v-19.008
		c0-0.202-0.078-0.401-0.232-0.556C338.426,248.167,338.225,248.09,338.023,248.09z"/>
	<path fill="#FFEB54" d="M348.268,240.105h-6.824c-0.199,0-0.4,0.074-0.555,0.229c-0.15,0.15-0.227,0.354-0.227,0.553v26.992h8.389
		v-26.992c0-0.199-0.074-0.402-0.23-0.553C348.668,240.181,348.469,240.105,348.268,240.105z"/>
	<path fill="#FFEB54" d="M355.314,224.576c-0.135-0.173-0.361-0.238-0.559-0.179l-8.383,2.454c-0.16,0.046-0.295,0.168-0.352,0.341
		c-0.055,0.171-0.016,0.349,0.086,0.48l1.016,1.303l-25.387,19.789l-14.072-5.957l-23.463,22.26
		c-0.145,0.141-0.238,0.332-0.244,0.549c-0.004,0.216,0.078,0.414,0.217,0.562l1.08,1.133c0.139,0.144,0.33,0.24,0.547,0.245
		c0.217,0.004,0.414-0.078,0.559-0.218l21.975-20.848l13.877,5.875l26.84-20.922l1.02,1.301c0.1,0.129,0.262,0.211,0.441,0.199
		c0.182-0.012,0.334-0.111,0.416-0.257l4.424-7.525C355.457,224.981,355.449,224.75,355.314,224.576z"/>
</g>
<g>
	<path fill="#FFEB54" d="M266.711,81.623c-0.023,0.074-0.055,0.123-0.078,0.205c0.652,0.65,4.885,7.805,5.859,9.431
		c0.637,1.061,2.799,1.704,5.037,2.025c0.943,0.156,1.902,0.252,2.775,0.252c0.324,0,0.324,0,0.652,0
		c2.926,0,7.482-1.302,7.158-3.579c-0.326-4.229,3.906-9.756,4.559-10.406c0.975-1.302,0.65-4.229-1.953-4.229
		c-0.652,0-1.303,0-1.957,0.326c-0.648,0.325-1.625,0.65-2.602,0.65c-0.648,0-1.301-0.326-1.627-0.977
		c-1.953-2.601-3.578-2.926-4.883-2.926c-1.627,0-3.254,0.326-4.881,2.926c-1.305,2.276-3.254,2.276-6.184,2.276
		c-2.604,0-3.254,1.953-1.955,3.903C266.654,81.532,266.686,81.583,266.711,81.623z M279.652,79.875
		c0.977,1.302,2.281,1.953,3.58,2.603c-0.375,0.936-0.635,1.76-0.857,2.542c-1.273-0.848-1.758-2.868-3.047-2.868
		c-1.615,0-1.949,2.235-3.227,2.588c-0.135-0.228-0.26-0.447-0.354-0.638c0-0.325-0.322-0.649-0.322-0.649
		C276.725,82.803,278.352,81.502,279.652,79.875z"/>
	<path fill="#FFEB54" d="M285.438,94.511c-1.658,0.976-3.553,1.625-4.738,1.625h-0.475c-0.473,0-2.605,0-4.504-0.975
		c-10.189,4.228-17.772,18.538-17.772,28.619c0,12.032,10.665,13.659,23.698,13.659c13.035,0,23.699-1.627,23.699-13.659
		C305.346,113.048,296.812,97.764,285.438,94.511z M287.463,126.056c-0.977,0.976-2.277,1.627-3.904,1.952v2.927h-2.279v-2.927
		c-1.627-0.324-3.254-0.976-4.229-1.952c-0.979-0.975-1.625-2.926-1.625-4.877h4.227c0,1.3,0.326,2.276,0.652,2.926
		c0.324,0.651,1.303,0.976,1.951,0.976c0.65,0,1.303-0.325,1.627-0.651c0.326-0.65,0.652-1.3,0.652-1.951
		c0-0.976-0.326-1.626-0.652-1.952c-0.324-0.649-0.977-0.975-1.949-1.625c-1.955-0.651-3.582-1.628-4.559-2.603
		c-0.977-0.976-1.627-2.601-1.627-4.228c0-1.625,0.65-3.251,1.627-4.228c0.977-0.975,2.277-1.626,3.904-1.951v-3.252h2.279v3.252
		c1.627,0.325,2.928,0.977,3.904,2.276c0.977,1.302,1.301,2.601,1.301,4.553h-4.229c0-0.975-0.326-1.952-0.652-2.602
		c-0.324-0.65-0.977-0.976-1.627-0.976c-0.648,0-1.299,0.326-1.627,0.651c-0.324,0.651-0.324,1.3-0.324,1.952
		c0.324,0.324,0.324,0.975,0.652,1.3c0.322,0.326,0.977,0.975,1.949,1.626c1.955,0.65,3.58,1.626,4.557,2.601
		c0.977,0.977,1.629,2.604,1.629,4.554C289.092,123.455,288.439,125.081,287.463,126.056z"/>
</g>
</svg>
