<?xml version="1.0" encoding="utf-8"?>
<!-- Generator: Adobe Illustrator 16.0.0, SVG Export Plug-In . SVG Version: 6.00 Build 0)  -->
<!DOCTYPE svg PUBLIC "-//W3C//DTD SVG 1.1//EN" "http://www.w3.org/Graphics/SVG/1.1/DTD/svg11.dtd">
<svg version="1.1" id="Layer_1" xmlns="http://www.w3.org/2000/svg" xmlns:xlink="http://www.w3.org/1999/xlink" x="0px" y="0px"
	 width="455px" height="761px" viewBox="0 0 455 761" enable-background="new 0 0 455 761" xml:space="preserve">
<g>
	<path id="BG_7_" fill-rule="evenodd" clip-rule="evenodd" fill="#FFFFFF" d="M440.365,690.964h-294.88
		c-0.574,0-1.041-0.466-1.041-1.039v-96.423c0,0,169.815,0,170.389,0l0-429.18h125.531c0.573,0,1.04,0.464,1.04,1.039v524.563
		C441.405,690.498,440.938,690.964,440.365,690.964z"/>
	<g id="Toolbar_1_">
		<rect x="144.406" y="650.526" fill-rule="evenodd" clip-rule="evenodd" fill="#D5E1E5" width="296.96" height="40.796"/>
		<path fill-rule="evenodd" clip-rule="evenodd" fill="#FFFFFF" d="M183.38,656.933c-2.562,0-4.639,2.076-4.639,4.638v17.614
			c0,2.56,2.081,4.638,4.639,4.638h211.587c2.562,0,4.639-2.078,4.639-4.638V661.57c0-2.562-2.08-4.638-4.639-4.638H183.38z"/>
		<g>
			<path fill="#83A1AC" d="M187.695,665.09h1.025l2.177,6.101l0.82,2.301h0.063l0.789-2.301l2.177-6.101h1.025v10.388h-0.709v-6.825
				c0-0.431,0.01-0.896,0.031-1.395s0.042-0.97,0.063-1.411h-0.063l-0.82,2.286l-2.224,6.21h-0.647l-2.24-6.21l-0.82-2.286h-0.063
				c0.021,0.441,0.042,0.912,0.063,1.411s0.032,0.964,0.032,1.395v6.825h-0.678V665.09z"/>
			<path fill="#83A1AC" d="M198.123,671.71c0-0.619,0.092-1.177,0.276-1.67c0.184-0.494,0.431-0.912,0.742-1.254
				c0.31-0.341,0.663-0.604,1.057-0.788c0.395-0.184,0.802-0.275,1.223-0.275c0.904,0,1.614,0.305,2.13,0.914
				c0.515,0.609,0.773,1.472,0.773,2.585c0,0.095,0,0.189,0,0.284c0,0.094-0.011,0.188-0.032,0.283h-5.458
				c0.01,0.473,0.084,0.912,0.221,1.316s0.329,0.751,0.576,1.04s0.544,0.515,0.892,0.678s0.736,0.244,1.167,0.244
				c0.41,0,0.781-0.06,1.112-0.181c0.332-0.121,0.639-0.286,0.923-0.497l0.284,0.536c-0.305,0.179-0.639,0.347-1.002,0.505
				c-0.363,0.157-0.823,0.236-1.38,0.236c-0.484,0-0.938-0.09-1.364-0.269c-0.426-0.179-0.797-0.438-1.112-0.78
				c-0.315-0.341-0.565-0.756-0.75-1.245C198.214,672.885,198.123,672.33,198.123,671.71z M203.66,671.253
				c0-0.977-0.2-1.71-0.6-2.198c-0.399-0.489-0.941-0.733-1.625-0.733c-0.326,0-0.637,0.068-0.931,0.205s-0.56,0.331-0.796,0.583
				c-0.237,0.253-0.431,0.56-0.583,0.922c-0.153,0.363-0.25,0.771-0.292,1.222H203.66z"/>
			<path fill="#83A1AC" d="M205.836,674.106c0.326,0.273,0.673,0.502,1.041,0.686s0.826,0.275,1.373,0.275
				c0.6,0,1.049-0.149,1.349-0.449c0.3-0.299,0.45-0.648,0.45-1.048c0-0.231-0.055-0.436-0.166-0.614s-0.255-0.331-0.434-0.458
				c-0.179-0.126-0.376-0.236-0.591-0.33c-0.216-0.095-0.434-0.185-0.655-0.269c-0.284-0.104-0.571-0.215-0.86-0.331
				c-0.289-0.115-0.549-0.255-0.781-0.418c-0.231-0.162-0.418-0.356-0.56-0.583c-0.142-0.226-0.213-0.501-0.213-0.827
				c0-0.273,0.052-0.533,0.158-0.78c0.105-0.247,0.263-0.462,0.473-0.646c0.21-0.184,0.465-0.328,0.765-0.434
				c0.3-0.104,0.649-0.157,1.049-0.157c0.399,0,0.791,0.073,1.175,0.221c0.384,0.147,0.712,0.336,0.986,0.567l-0.379,0.488
				c-0.252-0.188-0.521-0.349-0.804-0.48c-0.284-0.131-0.621-0.197-1.01-0.197c-0.294,0-0.547,0.04-0.757,0.118
				c-0.21,0.079-0.386,0.182-0.528,0.308s-0.247,0.273-0.315,0.441c-0.069,0.168-0.103,0.336-0.103,0.504
				c0,0.221,0.05,0.408,0.15,0.56c0.1,0.153,0.234,0.287,0.402,0.402c0.168,0.116,0.36,0.218,0.576,0.308
				c0.215,0.089,0.434,0.176,0.655,0.26c0.294,0.116,0.589,0.231,0.883,0.347c0.294,0.116,0.56,0.258,0.796,0.426
				c0.237,0.168,0.429,0.376,0.576,0.623c0.147,0.246,0.221,0.554,0.221,0.922c0,0.283-0.055,0.554-0.166,0.812
				c-0.111,0.258-0.276,0.483-0.497,0.678s-0.489,0.35-0.805,0.465s-0.678,0.174-1.088,0.174c-0.568,0-1.088-0.103-1.562-0.308
				c-0.474-0.205-0.878-0.449-1.215-0.733L205.836,674.106z"/>
			<path fill="#83A1AC" d="M212.226,674.106c0.326,0.273,0.673,0.502,1.041,0.686s0.826,0.275,1.373,0.275
				c0.6,0,1.049-0.149,1.349-0.449c0.3-0.299,0.45-0.648,0.45-1.048c0-0.231-0.055-0.436-0.166-0.614s-0.255-0.331-0.434-0.458
				c-0.179-0.126-0.376-0.236-0.591-0.33c-0.216-0.095-0.434-0.185-0.655-0.269c-0.284-0.104-0.571-0.215-0.86-0.331
				c-0.289-0.115-0.549-0.255-0.781-0.418c-0.231-0.162-0.418-0.356-0.56-0.583c-0.142-0.226-0.213-0.501-0.213-0.827
				c0-0.273,0.052-0.533,0.158-0.78c0.105-0.247,0.263-0.462,0.473-0.646c0.21-0.184,0.465-0.328,0.765-0.434
				c0.3-0.104,0.649-0.157,1.049-0.157c0.399,0,0.791,0.073,1.175,0.221c0.384,0.147,0.712,0.336,0.986,0.567l-0.379,0.488
				c-0.252-0.188-0.521-0.349-0.804-0.48c-0.284-0.131-0.621-0.197-1.01-0.197c-0.294,0-0.547,0.04-0.757,0.118
				c-0.21,0.079-0.386,0.182-0.528,0.308s-0.247,0.273-0.315,0.441c-0.069,0.168-0.103,0.336-0.103,0.504
				c0,0.221,0.05,0.408,0.15,0.56c0.1,0.153,0.234,0.287,0.402,0.402c0.168,0.116,0.36,0.218,0.576,0.308
				c0.215,0.089,0.434,0.176,0.655,0.26c0.294,0.116,0.589,0.231,0.883,0.347c0.294,0.116,0.56,0.258,0.796,0.426
				c0.237,0.168,0.429,0.376,0.576,0.623c0.147,0.246,0.221,0.554,0.221,0.922c0,0.283-0.055,0.554-0.166,0.812
				c-0.111,0.258-0.276,0.483-0.497,0.678s-0.489,0.35-0.805,0.465s-0.678,0.174-1.088,0.174c-0.568,0-1.088-0.103-1.562-0.308
				c-0.474-0.205-0.878-0.449-1.215-0.733L212.226,674.106z"/>
			<path fill="#83A1AC" d="M218.725,673.586c0-0.83,0.395-1.466,1.183-1.907s2.024-0.757,3.707-0.945
				c0.011-0.284-0.008-0.57-0.055-0.859s-0.137-0.546-0.268-0.772c-0.131-0.226-0.315-0.409-0.552-0.552
				c-0.236-0.142-0.539-0.213-0.907-0.213c-0.516,0-0.984,0.101-1.404,0.3c-0.42,0.2-0.757,0.395-1.009,0.583l-0.316-0.52
				c0.137-0.095,0.302-0.2,0.497-0.315c0.194-0.115,0.41-0.221,0.647-0.315c0.236-0.095,0.497-0.176,0.781-0.244
				c0.284-0.068,0.578-0.103,0.883-0.103c0.452,0,0.831,0.076,1.136,0.229s0.552,0.36,0.742,0.622
				c0.189,0.264,0.323,0.57,0.402,0.923c0.079,0.352,0.118,0.732,0.118,1.143v4.839h-0.583l-0.079-0.978h-0.032
				c-0.389,0.306-0.807,0.575-1.254,0.812c-0.447,0.236-0.923,0.354-1.428,0.354c-0.305,0-0.589-0.042-0.852-0.126
				c-0.263-0.084-0.497-0.211-0.702-0.379s-0.366-0.383-0.481-0.646C218.782,674.254,218.725,673.943,218.725,673.586z
				 M219.45,673.555c0,0.546,0.158,0.936,0.473,1.166c0.316,0.231,0.689,0.347,1.12,0.347c0.442,0,0.862-0.104,1.262-0.314
				c0.399-0.211,0.836-0.516,1.309-0.915v-2.568c-0.778,0.094-1.433,0.21-1.964,0.347c-0.531,0.137-0.96,0.299-1.286,0.488
				c-0.326,0.189-0.56,0.404-0.702,0.646C219.521,672.992,219.45,673.261,219.45,673.555z"/>
			<path fill="#83A1AC" d="M226.392,677.022c0-0.337,0.1-0.662,0.3-0.978c0.2-0.315,0.473-0.599,0.82-0.852v-0.062
				c-0.189-0.115-0.347-0.273-0.473-0.473c-0.126-0.2-0.189-0.447-0.189-0.741c0-0.336,0.095-0.622,0.284-0.859
				c0.189-0.236,0.368-0.412,0.537-0.527v-0.063c-0.242-0.21-0.46-0.493-0.655-0.851c-0.195-0.357-0.292-0.768-0.292-1.229
				c0-0.389,0.068-0.746,0.205-1.072c0.137-0.325,0.326-0.606,0.568-0.843c0.242-0.237,0.525-0.421,0.852-0.552
				c0.326-0.132,0.673-0.197,1.041-0.197c0.21,0,0.4,0.019,0.568,0.055c0.168,0.037,0.31,0.082,0.426,0.135h2.571v0.583h-1.767
				c0.242,0.21,0.441,0.48,0.599,0.812s0.237,0.696,0.237,1.096c0,0.389-0.068,0.746-0.205,1.071
				c-0.137,0.326-0.323,0.607-0.56,0.844s-0.516,0.42-0.836,0.552c-0.321,0.131-0.666,0.197-1.034,0.197
				c-0.21,0-0.428-0.026-0.654-0.079c-0.227-0.053-0.429-0.132-0.607-0.236c-0.168,0.137-0.313,0.289-0.434,0.457
				c-0.121,0.168-0.181,0.378-0.181,0.63c0,0.273,0.1,0.508,0.3,0.702c0.2,0.194,0.583,0.291,1.151,0.291h1.625
				c0.852,0,1.48,0.14,1.885,0.418c0.405,0.278,0.607,0.717,0.607,1.316c0,0.325-0.084,0.644-0.252,0.953
				c-0.168,0.31-0.408,0.583-0.718,0.819c-0.311,0.237-0.687,0.426-1.128,0.568c-0.442,0.142-0.937,0.212-1.483,0.212
				c-0.958,0-1.714-0.188-2.272-0.567C226.67,678.173,226.392,677.663,226.392,677.022z M227.054,676.959
				c0,0.473,0.218,0.856,0.655,1.15c0.436,0.295,1.059,0.441,1.869,0.441c0.42,0,0.805-0.055,1.152-0.165
				c0.347-0.11,0.641-0.255,0.883-0.434c0.242-0.179,0.428-0.381,0.56-0.606c0.131-0.227,0.197-0.46,0.197-0.702
				c0-0.42-0.15-0.717-0.45-0.891c-0.3-0.173-0.733-0.26-1.302-0.26h-1.625c-0.084,0-0.213-0.008-0.387-0.023
				c-0.173-0.016-0.36-0.05-0.56-0.103c-0.347,0.241-0.599,0.499-0.757,0.772C227.133,676.413,227.054,676.686,227.054,676.959z
				 M229.389,672.515c0.263,0,0.513-0.05,0.75-0.15c0.237-0.1,0.444-0.244,0.623-0.434c0.179-0.188,0.321-0.415,0.426-0.678
				c0.105-0.262,0.158-0.552,0.158-0.866c0-0.315-0.053-0.604-0.158-0.867c-0.105-0.263-0.245-0.483-0.418-0.662
				c-0.173-0.179-0.381-0.317-0.623-0.418c-0.242-0.1-0.494-0.149-0.757-0.149c-0.273,0-0.528,0.05-0.765,0.149
				c-0.237,0.101-0.445,0.239-0.624,0.418s-0.321,0.396-0.426,0.654s-0.158,0.549-0.158,0.875c0,0.314,0.053,0.604,0.158,0.866
				c0.105,0.263,0.25,0.489,0.434,0.678c0.184,0.189,0.394,0.334,0.631,0.434C228.876,672.465,229.126,672.515,229.389,672.515z"/>
			<path fill="#83A1AC" d="M233.9,671.71c0-0.619,0.092-1.177,0.276-1.67c0.184-0.494,0.431-0.912,0.742-1.254
				c0.31-0.341,0.663-0.604,1.057-0.788c0.395-0.184,0.802-0.275,1.223-0.275c0.904,0,1.614,0.305,2.13,0.914
				c0.515,0.609,0.773,1.472,0.773,2.585c0,0.095,0,0.189,0,0.284c0,0.094-0.011,0.188-0.032,0.283h-5.458
				c0.01,0.473,0.084,0.912,0.221,1.316s0.329,0.751,0.576,1.04s0.544,0.515,0.892,0.678s0.736,0.244,1.167,0.244
				c0.41,0,0.781-0.06,1.112-0.181c0.332-0.121,0.639-0.286,0.923-0.497l0.284,0.536c-0.305,0.179-0.639,0.347-1.002,0.505
				c-0.363,0.157-0.823,0.236-1.38,0.236c-0.484,0-0.938-0.09-1.364-0.269c-0.426-0.179-0.797-0.438-1.112-0.78
				c-0.315-0.341-0.565-0.756-0.75-1.245C233.992,672.885,233.9,672.33,233.9,671.71z M239.438,671.253c0-0.977-0.2-1.71-0.6-2.198
				c-0.399-0.489-0.941-0.733-1.625-0.733c-0.326,0-0.637,0.068-0.931,0.205s-0.56,0.331-0.796,0.583
				c-0.237,0.253-0.431,0.56-0.583,0.922c-0.153,0.363-0.25,0.771-0.292,1.222H239.438z"/>
		</g>
		<g>
			<path fill="#83A1AC" d="M405.697,674.148c0.368,0.389,0.802,0.701,1.302,0.938c0.499,0.236,1.018,0.354,1.554,0.354
				c0.684,0,1.215-0.154,1.593-0.465c0.378-0.31,0.568-0.717,0.568-1.222c0-0.262-0.045-0.485-0.134-0.67
				c-0.09-0.184-0.211-0.341-0.363-0.473c-0.152-0.131-0.334-0.249-0.544-0.354c-0.21-0.104-0.437-0.215-0.678-0.331l-1.483-0.646
				c-0.242-0.104-0.489-0.23-0.742-0.378s-0.479-0.325-0.678-0.536c-0.2-0.21-0.363-0.459-0.489-0.748
				c-0.126-0.289-0.189-0.623-0.189-1.001c0-0.389,0.081-0.752,0.245-1.088c0.163-0.336,0.389-0.628,0.678-0.875
				c0.289-0.247,0.631-0.438,1.025-0.575c0.394-0.137,0.828-0.205,1.301-0.205c0.621,0,1.193,0.118,1.72,0.354
				c0.525,0.236,0.973,0.544,1.341,0.923l-0.71,0.851c-0.315-0.305-0.665-0.544-1.049-0.717c-0.384-0.174-0.818-0.261-1.302-0.261
				c-0.579,0-1.044,0.135-1.396,0.402c-0.353,0.268-0.528,0.639-0.528,1.111c0,0.252,0.05,0.465,0.15,0.639
				c0.1,0.173,0.234,0.325,0.402,0.457c0.168,0.131,0.353,0.247,0.552,0.347s0.405,0.191,0.615,0.275l1.467,0.631
				c0.294,0.126,0.573,0.271,0.836,0.434c0.263,0.163,0.489,0.352,0.678,0.567c0.189,0.215,0.339,0.468,0.45,0.757
				s0.166,0.622,0.166,1c0,0.41-0.082,0.794-0.244,1.151c-0.164,0.357-0.397,0.67-0.702,0.938c-0.305,0.268-0.673,0.479-1.104,0.631
				s-0.92,0.229-1.467,0.229c-0.726,0-1.399-0.137-2.02-0.41s-1.157-0.646-1.609-1.119L405.697,674.148z"/>
			<path fill="#83A1AC" d="M413.395,672.588c0-0.631,0.097-1.195,0.292-1.694c0.194-0.499,0.452-0.922,0.773-1.269
				s0.686-0.612,1.096-0.796c0.41-0.185,0.836-0.276,1.278-0.276c0.484,0,0.917,0.084,1.302,0.252
				c0.384,0.169,0.704,0.41,0.962,0.726s0.455,0.693,0.592,1.135s0.205,0.936,0.205,1.481c0,0.284-0.016,0.521-0.047,0.709h-5.174
				c0.053,0.831,0.308,1.487,0.765,1.971s1.054,0.725,1.791,0.725c0.368,0,0.707-0.055,1.018-0.165
				c0.31-0.11,0.607-0.255,0.891-0.434l0.458,0.852c-0.336,0.21-0.71,0.394-1.12,0.552c-0.41,0.157-0.878,0.236-1.404,0.236
				c-0.516,0-0.997-0.093-1.443-0.276c-0.447-0.184-0.836-0.446-1.167-0.788c-0.332-0.341-0.592-0.759-0.781-1.253
				C413.49,673.78,413.395,673.219,413.395,672.588z M418.759,672.005c0-0.788-0.166-1.39-0.497-1.805
				c-0.331-0.415-0.796-0.623-1.396-0.623c-0.273,0-0.534,0.056-0.781,0.166c-0.248,0.11-0.471,0.268-0.67,0.473
				c-0.2,0.205-0.366,0.457-0.497,0.757c-0.132,0.299-0.218,0.644-0.26,1.032H418.759z"/>
			<path fill="#83A1AC" d="M421.787,668.742h1.073l0.11,1.104h0.047c0.368-0.368,0.754-0.676,1.16-0.923
				c0.405-0.246,0.875-0.37,1.412-0.37c0.81,0,1.401,0.252,1.775,0.757c0.373,0.504,0.56,1.25,0.56,2.238v4.854h-1.293v-4.682
				c0-0.725-0.116-1.247-0.347-1.568c-0.231-0.32-0.6-0.48-1.104-0.48c-0.399,0-0.752,0.1-1.057,0.3
				c-0.305,0.199-0.652,0.494-1.042,0.883v5.548h-1.293V668.742z"/>
			<path fill="#83A1AC" d="M429.864,672.588c0-0.62,0.092-1.18,0.276-1.679c0.184-0.499,0.428-0.922,0.733-1.269
				s0.657-0.615,1.057-0.804c0.399-0.189,0.82-0.284,1.262-0.284c0.442,0,0.826,0.079,1.152,0.236
				c0.326,0.158,0.657,0.373,0.994,0.646l-0.063-1.309v-2.947h1.31v11.223h-1.073l-0.111-0.898h-0.047
				c-0.305,0.294-0.655,0.549-1.049,0.765c-0.395,0.215-0.818,0.323-1.27,0.323c-0.968,0-1.738-0.347-2.311-1.041
				C430.151,674.857,429.864,673.87,429.864,672.588z M431.206,672.572c0,0.925,0.184,1.645,0.552,2.159s0.889,0.772,1.562,0.772
				c0.357,0,0.694-0.087,1.01-0.26c0.315-0.174,0.631-0.438,0.946-0.796v-4.004c-0.326-0.294-0.639-0.502-0.938-0.623
				c-0.3-0.12-0.607-0.181-0.923-0.181c-0.305,0-0.592,0.07-0.86,0.213c-0.268,0.142-0.502,0.341-0.702,0.599
				s-0.357,0.565-0.473,0.922C431.263,671.731,431.206,672.131,431.206,672.572z"/>
		</g>
		<g id="Camera_2_">
			<g>
				<path fill-rule="evenodd" clip-rule="evenodd" fill="#83A1AC" d="M170.499,663.164h-2.631c-0.499-1.408-0.631-2.418-2.208-2.418
					h-7.262c-1.577,0-1.709,1.013-2.208,2.418h-2.632c-2,0-3.62,1.621-3.62,3.628v9.655c0,2.004,1.624,3.627,3.62,3.627h16.94
					c2,0,3.62-1.62,3.62-3.627v-9.655C174.119,664.788,172.495,663.164,170.499,663.164z M162.028,677.659
					c-3.339,0-6.045-2.704-6.045-6.04c0-3.334,2.706-6.04,6.045-6.04c3.338,0,6.044,2.706,6.044,6.04
					C168.073,674.955,165.367,677.659,162.028,677.659z M170.492,667.714c-0.668,0-1.209-0.54-1.209-1.207
					c0-0.666,0.541-1.207,1.209-1.207c0.667,0,1.209,0.541,1.209,1.207C171.701,667.174,171.159,667.714,170.492,667.714z
					 M162.028,666.788c-2.671,0-4.836,2.162-4.836,4.831c0,2.668,2.166,4.832,4.836,4.832c2.67,0,4.836-2.164,4.836-4.832
					C166.864,668.95,164.699,666.788,162.028,666.788z"/>
			</g>
		</g>
	</g>
	<path id="Bubble_12_" fill-rule="evenodd" clip-rule="evenodd" fill="#DCE6EA" d="M314.167,289.684h37.854
		c11.284,0,20.458,9.134,20.504,20.398c0.046,11.27-9.058,20.398-20.336,20.398h-38.022"/>
	<g>
		<g id="Bubble_9_">
			<g>
				<path fill-rule="evenodd" clip-rule="evenodd" fill="#83A1AC" d="M389.289,363.1c0-0.334-0.019-0.614-0.047-0.87
					c0.016-0.329,0.05-0.653,0.05-0.986c0-11.265-9.149-20.396-20.418-20.396h-54.04l-0.334,40.796h54.374
					c5.477,0,10.439-2.166,14.106-5.672c0.016,0.029,0.027,0.063,0.044,0.092c2.785,4.636,15.536,5.58,15.536,5.58
					S389.289,374.226,389.289,363.1z"/>
			</g>
		</g>
		<g id="Avatar_3_">
			
				<ellipse id="BG_3_" fill-rule="evenodd" clip-rule="evenodd" fill="#DCE6EA" cx="417.238" cy="361.554" rx="20.416" ry="20.398"/>
			<g>
				<defs>
					<ellipse id="SVGID_1_" cx="417.238" cy="361.554" rx="20.416" ry="20.398"/>
				</defs>
				<clipPath id="SVGID_2_">
					<use xlink:href="#SVGID_1_"  overflow="visible"/>
				</clipPath>
				<path clip-path="url(#SVGID_2_)" fill-rule="evenodd" clip-rule="evenodd" fill="#83A1AC" d="M402.39,384.734
					c0-2.665,1.856-6.492,2.784-8.346c0.928-1.854,5.615-2.782,12.064-2.782c5.268,0,11.136,0.928,12.064,2.782
					c0.928,1.854,2.784,5.506,2.784,8.346"/>
				
					<ellipse clip-path="url(#SVGID_2_)" fill-rule="evenodd" clip-rule="evenodd" fill="#83A1AC" cx="417.238" cy="362.481" rx="7.424" ry="7.417"/>
			</g>
		</g>
	</g>
	<path id="Bubble_8_" fill-rule="evenodd" clip-rule="evenodd" fill="#DCE6EA" d="M316.914,389.986
		c11.284,0,20.44,9.133,20.463,20.399l0.053,26.887c0.022,11.271-9.104,20.399-20.382,20.399L316.914,389.986z"/>
	<g>
		<g id="Bubble_6_">
			<g>
				<path fill-rule="evenodd" clip-rule="evenodd" fill="#DCE6EA" d="M387.551,621.784c0-0.341-0.02-0.626-0.049-0.886
					c0.015-0.324,0.049-0.643,0.049-0.97V487.342c0-11.265-9.149-20.398-20.417-20.398H315.5l-0.666,173.384h52.3
					c5.477,0,10.439-2.168,14.106-5.677c0.017,0.031,0.029,0.067,0.047,0.098c2.784,4.636,15.536,5.579,15.536,5.579
					S387.551,632.909,387.551,621.784z"/>
			</g>
		</g>
		<g id="Avatar_1_">
			<ellipse id="BG_1_" fill-rule="evenodd" clip-rule="evenodd" fill="#DCE6EA" cx="416.31" cy="619.929" rx="20.417" ry="20.398"/>
			<g>
				<defs>
					<ellipse id="SVGID_3_" cx="416.31" cy="619.929" rx="20.417" ry="20.398"/>
				</defs>
				<clipPath id="SVGID_4_">
					<use xlink:href="#SVGID_3_"  overflow="visible"/>
				</clipPath>
				<path clip-path="url(#SVGID_4_)" fill-rule="evenodd" clip-rule="evenodd" fill="#83A1AC" d="M401.462,643.109
					c0-2.664,1.855-6.491,2.784-8.346c0.928-1.854,5.615-2.782,12.064-2.782c5.268,0,11.137,0.928,12.064,2.782
					c0.928,1.854,2.784,5.506,2.784,8.346"/>
				
					<ellipse clip-path="url(#SVGID_4_)" fill-rule="evenodd" clip-rule="evenodd" fill="#83A1AC" cx="416.31" cy="620.855" rx="7.424" ry="7.418"/>
			</g>
		</g>
	</g>
	<g id="Search_Bar_1_">
		<rect x="314.75" y="222.166" fill-rule="evenodd" clip-rule="evenodd" fill="#D7E2E6" width="126.616" height="40.797"/>
		<path fill-rule="evenodd" clip-rule="evenodd" fill="#FFFFFF" d="M314.75,256.473h112.697c2.049,0,3.711-1.662,3.711-3.711
			v-19.467c0-2.049-1.671-3.711-3.711-3.711H314.75V256.473z"/>
	</g>
	<g>
		<path fill="#255061" d="M314.909,200.151c0.789,0,1.375,0.252,1.759,0.757c0.384,0.504,0.576,1.25,0.576,2.238v4.855h-1.293
			v-4.681c0-0.725-0.116-1.248-0.347-1.568c-0.231-0.321-0.589-0.481-1.073-0.481"/>
		<path fill="#255061" d="M319.168,204.187c0-0.63,0.097-1.195,0.292-1.694c0.194-0.499,0.452-0.922,0.773-1.269
			s0.686-0.612,1.096-0.796c0.41-0.184,0.836-0.276,1.278-0.276c0.484,0,0.917,0.084,1.302,0.252
			c0.384,0.168,0.704,0.41,0.962,0.725c0.258,0.315,0.455,0.693,0.592,1.135s0.205,0.935,0.205,1.481
			c0,0.284-0.016,0.521-0.047,0.71h-5.174c0.053,0.83,0.308,1.486,0.765,1.97s1.054,0.726,1.791,0.726
			c0.368,0,0.707-0.056,1.018-0.166c0.31-0.11,0.607-0.255,0.891-0.434l0.458,0.852c-0.336,0.21-0.71,0.394-1.12,0.551
			c-0.41,0.158-0.878,0.236-1.404,0.236c-0.516,0-0.997-0.092-1.443-0.275c-0.447-0.184-0.836-0.446-1.167-0.788
			c-0.332-0.341-0.592-0.759-0.781-1.253C319.263,205.379,319.168,204.816,319.168,204.187z M324.532,203.604
			c0-0.788-0.166-1.39-0.497-1.805c-0.331-0.415-0.796-0.623-1.396-0.623c-0.273,0-0.534,0.055-0.781,0.166
			c-0.248,0.11-0.471,0.268-0.67,0.473c-0.2,0.205-0.366,0.457-0.497,0.756c-0.132,0.3-0.218,0.644-0.26,1.033H324.532z"/>
	</g>
	<g id="Status_Bar_1_">
		<g id="Battery_2_">
			<g>
				<path fill-rule="evenodd" clip-rule="evenodd" fill="#B0C4CD" d="M432.023,168.344h-13.894c-1.021,0-1.85,0.823-1.85,1.855
					v5.562c0,1.023,0.825,1.854,1.85,1.854h13.894c1.021,0,1.85-0.823,1.85-1.854v-5.562
					C433.873,169.175,433.048,168.344,432.023,168.344z M432.48,175.762c0,0.26-0.201,0.464-0.458,0.464h-13.894
					c-0.252,0-0.458-0.208-0.458-0.464v-5.562c0-0.261,0.202-0.465,0.458-0.465h13.894c0.252,0,0.458,0.209,0.458,0.465V175.762z
					 M419.094,174.532h6.685v-3.385h-6.685V174.532z M434.377,171.147v3.546c0.803-0.125,1.42-0.869,1.42-1.773
					C435.797,172.019,435.18,171.272,434.377,171.147z"/>
			</g>
		</g>
	</g>
	<g>
		<g>
			<path fill-rule="evenodd" clip-rule="evenodd" fill="#363636" d="M397.601,94h-47.057c-2.394,0-4.334,2.001-4.334,4.47
				c0,2.469,1.941,4.469,4.334,4.469h47.057c2.394,0,4.334-2,4.334-4.469C401.935,96.001,399.995,94,397.601,94z"/>
		</g>
	</g>
	<path fill-rule="evenodd" clip-rule="evenodd" fill="#313B3D" d="M405.67,96.667h-90.611l-0.559,68.499h126.753v526H144.92v-99.329
		h-13.5v122.049c0,26.021,22.086,47.115,49.331,47.115H405.67c27.244,0,49.33-21.095,49.33-47.115V143.783
		C455,117.762,432.914,96.667,405.67,96.667z"/>
	<path fill-rule="evenodd" clip-rule="evenodd" fill="#363636" d="M314.833,139.691h5.614c2.302,0,4.167,1.755,4.167,3.92
		c0,2.164-1.866,3.92-4.167,3.92h-5.614V139.691z"/>
	<g>
		<path fill="#363636" d="M293.133,707.019c12.026,0,21.81,9.047,21.81,20.168s-9.784,20.168-21.81,20.168
			s-21.81-9.047-21.81-20.168S281.107,707.019,293.133,707.019 M293.133,704.519c-13.426,0-24.31,10.149-24.31,22.668
			s10.884,22.668,24.31,22.668c13.426,0,24.31-10.149,24.31-22.668S306.559,704.519,293.133,704.519L293.133,704.519z"/>
	</g>
</g>
<g>
	<path id="BG_6_" fill-rule="evenodd" clip-rule="evenodd" fill="#4E6266" d="M311.945,166.964H17.065
		c-0.574,0-1.041-0.466-1.041-1.039V71.361c0-0.575,0.467-1.039,1.041-1.039h294.88c0.573,0,1.04,0.464,1.04,1.039v94.563
		C312.985,166.498,312.518,166.964,311.945,166.964z"/>
	<g id="Toolbar">
		<rect x="15.986" y="556.526" fill-rule="evenodd" clip-rule="evenodd" fill="#9AB1B6" width="296.96" height="40.796"/>
		<path fill-rule="evenodd" clip-rule="evenodd" fill="#4E6266" d="M54.96,562.933c-2.562,0-4.639,2.076-4.639,4.638v17.614
			c0,2.56,2.081,4.638,4.639,4.638h211.587c2.562,0,4.639-2.078,4.639-4.638V567.57c0-2.562-2.08-4.638-4.639-4.638H54.96z"/>
		<g>
			<path fill="#EAF7F7" d="M277.277,580.148c0.368,0.389,0.802,0.701,1.302,0.938c0.499,0.236,1.018,0.354,1.554,0.354
				c0.684,0,1.215-0.154,1.593-0.465c0.378-0.31,0.568-0.717,0.568-1.222c0-0.262-0.045-0.485-0.134-0.67
				c-0.09-0.184-0.211-0.341-0.363-0.473c-0.152-0.131-0.334-0.249-0.544-0.354c-0.21-0.104-0.437-0.215-0.678-0.331l-1.483-0.646
				c-0.242-0.104-0.489-0.23-0.742-0.378s-0.479-0.325-0.678-0.536c-0.2-0.21-0.363-0.459-0.489-0.748
				c-0.126-0.289-0.189-0.623-0.189-1.001c0-0.389,0.081-0.752,0.245-1.088c0.163-0.336,0.389-0.628,0.678-0.875
				c0.289-0.247,0.631-0.438,1.025-0.575c0.394-0.137,0.828-0.205,1.301-0.205c0.621,0,1.193,0.118,1.72,0.354
				c0.525,0.236,0.973,0.544,1.341,0.923l-0.71,0.851c-0.315-0.305-0.665-0.544-1.049-0.717c-0.384-0.174-0.818-0.261-1.302-0.261
				c-0.579,0-1.044,0.135-1.396,0.402c-0.353,0.268-0.528,0.639-0.528,1.111c0,0.252,0.05,0.465,0.15,0.639
				c0.1,0.173,0.234,0.325,0.402,0.457c0.168,0.131,0.353,0.247,0.552,0.347s0.405,0.191,0.615,0.275l1.467,0.631
				c0.294,0.126,0.573,0.271,0.836,0.434c0.263,0.163,0.489,0.352,0.678,0.567c0.189,0.215,0.339,0.468,0.45,0.757
				s0.166,0.622,0.166,1c0,0.41-0.082,0.794-0.244,1.151c-0.164,0.357-0.397,0.67-0.702,0.938c-0.305,0.268-0.673,0.479-1.104,0.631
				s-0.92,0.229-1.467,0.229c-0.726,0-1.399-0.137-2.02-0.41s-1.157-0.646-1.609-1.119L277.277,580.148z"/>
			<path fill="#EAF7F7" d="M284.975,578.588c0-0.631,0.097-1.195,0.292-1.694c0.194-0.499,0.452-0.922,0.773-1.269
				s0.686-0.612,1.096-0.796c0.41-0.185,0.836-0.276,1.278-0.276c0.484,0,0.917,0.084,1.302,0.252
				c0.384,0.169,0.704,0.41,0.962,0.726s0.455,0.693,0.592,1.135s0.205,0.936,0.205,1.481c0,0.284-0.016,0.521-0.047,0.709h-5.174
				c0.053,0.831,0.308,1.487,0.765,1.971s1.054,0.725,1.791,0.725c0.368,0,0.707-0.055,1.018-0.165
				c0.31-0.11,0.607-0.255,0.891-0.434l0.458,0.852c-0.336,0.21-0.71,0.394-1.12,0.552c-0.41,0.157-0.878,0.236-1.404,0.236
				c-0.516,0-0.997-0.093-1.443-0.276c-0.447-0.184-0.836-0.446-1.167-0.788c-0.332-0.341-0.592-0.759-0.781-1.253
				C285.07,579.78,284.975,579.219,284.975,578.588z M290.339,578.005c0-0.788-0.166-1.39-0.497-1.805
				c-0.331-0.415-0.796-0.623-1.396-0.623c-0.273,0-0.534,0.056-0.781,0.166c-0.248,0.11-0.471,0.268-0.67,0.473
				c-0.2,0.205-0.366,0.457-0.497,0.757c-0.132,0.299-0.218,0.644-0.26,1.032H290.339z"/>
			<path fill="#EAF7F7" d="M293.367,574.742h1.073l0.11,1.104h0.047c0.368-0.368,0.754-0.676,1.16-0.923
				c0.405-0.246,0.875-0.37,1.412-0.37c0.81,0,1.401,0.252,1.775,0.757c0.373,0.504,0.56,1.25,0.56,2.238v4.854h-1.293v-4.682
				c0-0.725-0.116-1.247-0.347-1.568c-0.231-0.32-0.6-0.48-1.104-0.48c-0.399,0-0.752,0.1-1.057,0.3
				c-0.305,0.199-0.652,0.494-1.042,0.883v5.548h-1.293V574.742z"/>
			<path fill="#EAF7F7" d="M301.444,578.588c0-0.62,0.092-1.18,0.276-1.679c0.184-0.499,0.428-0.922,0.733-1.269
				s0.657-0.615,1.057-0.804c0.399-0.189,0.82-0.284,1.262-0.284c0.442,0,0.826,0.079,1.152,0.236
				c0.326,0.158,0.657,0.373,0.994,0.646l-0.063-1.309v-2.947h1.31v11.223h-1.073l-0.111-0.898h-0.047
				c-0.305,0.294-0.655,0.549-1.049,0.765c-0.395,0.215-0.818,0.323-1.27,0.323c-0.968,0-1.738-0.347-2.311-1.041
				C301.731,580.857,301.444,579.87,301.444,578.588z M302.786,578.572c0,0.925,0.184,1.645,0.552,2.159s0.889,0.772,1.562,0.772
				c0.357,0,0.694-0.087,1.01-0.26c0.315-0.174,0.631-0.438,0.946-0.796v-4.004c-0.326-0.294-0.639-0.502-0.938-0.623
				c-0.3-0.12-0.607-0.181-0.923-0.181c-0.305,0-0.592,0.07-0.86,0.213c-0.268,0.142-0.502,0.341-0.702,0.599
				s-0.357,0.565-0.473,0.922C302.843,577.731,302.786,578.131,302.786,578.572z"/>
		</g>
		<g id="Camera">
			<g>
				<path fill-rule="evenodd" clip-rule="evenodd" fill="#EAF7F7" d="M42.079,569.164h-2.631c-0.499-1.408-0.631-2.418-2.208-2.418
					h-7.262c-1.577,0-1.709,1.013-2.208,2.418h-2.632c-2,0-3.62,1.621-3.62,3.628v9.655c0,2.004,1.624,3.627,3.62,3.627h16.94
					c2,0,3.62-1.62,3.62-3.627v-9.655C45.699,570.788,44.075,569.164,42.079,569.164z M33.608,583.659
					c-3.339,0-6.045-2.704-6.045-6.04c0-3.334,2.706-6.04,6.045-6.04c3.338,0,6.044,2.706,6.044,6.04
					C39.653,580.955,36.947,583.659,33.608,583.659z M42.072,573.714c-0.668,0-1.209-0.54-1.209-1.207
					c0-0.666,0.541-1.207,1.209-1.207c0.667,0,1.209,0.541,1.209,1.207C43.281,573.174,42.739,573.714,42.072,573.714z
					 M33.608,572.788c-2.671,0-4.836,2.162-4.836,4.831c0,2.668,2.166,4.832,4.836,4.832c2.67,0,4.836-2.164,4.836-4.832
					C38.444,574.95,36.279,572.788,33.608,572.788z"/>
			</g>
		</g>
	</g>
	<g id="Search_Bar_2_">
		<rect x="15.985" y="128.167" fill-rule="evenodd" clip-rule="evenodd" fill="#95ACB1" width="296.961" height="40.796"/>
		<path fill-rule="evenodd" clip-rule="evenodd" fill="#4E6266" d="M28.049,135.584c-2.05,0-3.711,1.662-3.711,3.71v19.467
			c0,2.049,1.67,3.711,3.711,3.711h270.978c2.049,0,3.711-1.662,3.711-3.711v-19.467c0-2.049-1.671-3.71-3.711-3.71H28.049z"/>
		<g id="Search_4_">
			<g>
				<path fill-rule="evenodd" clip-rule="evenodd" fill="#FFFFFF" d="M161.667,141.146c-3.075,0-5.568,2.491-5.568,5.563
					s2.493,5.563,5.568,5.563s5.568-2.491,5.568-5.563S164.743,141.146,161.667,141.146z M161.667,150.882
					c-2.306,0-4.176-1.869-4.176-4.172c0-2.304,1.87-4.172,4.176-4.172s4.176,1.868,4.176,4.172
					C165.844,149.014,163.974,150.882,161.667,150.882z M170.762,154.902l-3.375-3.372c-0.248-0.247-0.647-0.247-0.895,0
					c-0.247,0.247-0.247,0.648,0,0.894l3.374,3.373c0.248,0.246,0.648,0.246,0.895,0
					C171.009,155.55,171.009,155.149,170.762,154.902z"/>
			</g>
		</g>
	</g>
	<g id="Nav_1_">
		
			<rect id="NavBG_1_" x="15.971" y="90.205" display="none" fill-rule="evenodd" clip-rule="evenodd" fill="#FFFFFF" width="295.947" height="40.693"/>
		<g>
			<path fill="#FFFFFF" d="M131.529,103.661h1.309v6.1c0,0.62,0.063,1.141,0.189,1.561c0.126,0.42,0.297,0.757,0.513,1.009
				c0.215,0.252,0.471,0.434,0.765,0.544s0.61,0.166,0.946,0.166c0.347,0,0.668-0.055,0.962-0.166s0.552-0.292,0.773-0.544
				c0.221-0.252,0.395-0.588,0.521-1.009c0.126-0.42,0.189-0.94,0.189-1.561v-6.1h1.262v6.068c0,0.83-0.095,1.529-0.284,2.096
				c-0.189,0.567-0.45,1.027-0.781,1.379s-0.723,0.604-1.175,0.756c-0.452,0.152-0.941,0.229-1.467,0.229s-1.017-0.076-1.475-0.229
				c-0.458-0.152-0.852-0.404-1.183-0.756c-0.332-0.352-0.592-0.812-0.781-1.379c-0.189-0.567-0.284-1.266-0.284-2.096V103.661z"/>
			<path fill="#FFFFFF" d="M141.42,112.267c0.336,0.273,0.681,0.494,1.033,0.662c0.353,0.168,0.76,0.252,1.223,0.252
				c0.505,0,0.883-0.115,1.136-0.347c0.252-0.231,0.379-0.515,0.379-0.851c0-0.2-0.053-0.373-0.158-0.52
				c-0.105-0.147-0.239-0.276-0.402-0.386s-0.35-0.208-0.56-0.292s-0.421-0.168-0.631-0.252c-0.274-0.094-0.547-0.202-0.82-0.323
				c-0.274-0.121-0.518-0.268-0.734-0.441c-0.215-0.174-0.392-0.376-0.528-0.607s-0.205-0.51-0.205-0.835
				c0-0.305,0.061-0.591,0.182-0.859c0.121-0.268,0.294-0.499,0.521-0.694c0.226-0.194,0.502-0.347,0.828-0.457
				c0.326-0.11,0.694-0.166,1.104-0.166c0.484,0,0.928,0.084,1.333,0.252s0.755,0.373,1.049,0.615l-0.615,0.819
				c-0.263-0.199-0.537-0.362-0.82-0.489c-0.284-0.126-0.594-0.189-0.931-0.189c-0.484,0-0.839,0.11-1.065,0.331
				s-0.339,0.479-0.339,0.772c0,0.179,0.047,0.333,0.142,0.465s0.221,0.247,0.378,0.347c0.158,0.1,0.339,0.189,0.544,0.268
				s0.418,0.16,0.639,0.244c0.273,0.105,0.549,0.216,0.828,0.331c0.278,0.116,0.528,0.26,0.749,0.434
				c0.221,0.173,0.402,0.386,0.544,0.638c0.142,0.252,0.213,0.557,0.213,0.915c0,0.315-0.061,0.609-0.181,0.882
				c-0.121,0.273-0.3,0.515-0.537,0.725c-0.237,0.21-0.531,0.376-0.883,0.497c-0.353,0.121-0.755,0.181-1.207,0.181
				c-0.547,0-1.067-0.1-1.562-0.299c-0.495-0.2-0.926-0.452-1.293-0.756L141.42,112.267z"/>
			<path fill="#FFFFFF" d="M147.667,110.187c0-0.63,0.097-1.195,0.292-1.694c0.194-0.499,0.452-0.922,0.773-1.269
				s0.686-0.612,1.096-0.796c0.41-0.184,0.836-0.276,1.278-0.276c0.484,0,0.917,0.084,1.302,0.252
				c0.384,0.168,0.704,0.41,0.962,0.725c0.258,0.315,0.455,0.693,0.592,1.135s0.205,0.935,0.205,1.481
				c0,0.284-0.016,0.52-0.047,0.709h-5.174c0.053,0.83,0.308,1.487,0.765,1.97s1.054,0.725,1.791,0.725
				c0.368,0,0.707-0.055,1.018-0.166c0.31-0.11,0.607-0.255,0.891-0.434l0.458,0.851c-0.336,0.21-0.71,0.394-1.12,0.552
				s-0.878,0.236-1.404,0.236c-0.516,0-0.997-0.092-1.443-0.276c-0.447-0.184-0.836-0.446-1.167-0.788
				c-0.332-0.341-0.592-0.759-0.781-1.253C147.762,111.379,147.667,110.817,147.667,110.187z M153.031,109.604
				c0-0.788-0.166-1.39-0.497-1.805c-0.331-0.415-0.796-0.623-1.396-0.623c-0.273,0-0.534,0.055-0.781,0.166
				c-0.248,0.11-0.471,0.268-0.67,0.473c-0.2,0.205-0.366,0.457-0.497,0.756c-0.132,0.3-0.218,0.644-0.26,1.033H153.031z"/>
			<path fill="#FFFFFF" d="M156.059,106.34h1.073l0.11,1.387h0.047c0.263-0.483,0.581-0.867,0.955-1.15
				c0.373-0.284,0.781-0.426,1.223-0.426c0.305,0,0.578,0.053,0.82,0.158l-0.252,1.135c-0.126-0.042-0.242-0.073-0.347-0.095
				c-0.105-0.021-0.237-0.031-0.395-0.031c-0.326,0-0.665,0.131-1.018,0.394c-0.352,0.263-0.66,0.72-0.923,1.371v4.918h-1.293
				V106.34z"/>
			<path fill="#FFFFFF" d="M161.533,106.34h1.073l0.11,1.104h0.047c0.368-0.368,0.754-0.675,1.16-0.922
				c0.405-0.247,0.875-0.371,1.412-0.371c0.81,0,1.401,0.252,1.775,0.757c0.373,0.504,0.56,1.25,0.56,2.238v4.855h-1.293v-4.681
				c0-0.725-0.116-1.248-0.347-1.568c-0.231-0.321-0.6-0.481-1.104-0.481c-0.399,0-0.752,0.1-1.057,0.299
				c-0.305,0.2-0.652,0.494-1.042,0.883v5.548h-1.293V106.34z"/>
			<path fill="#FFFFFF" d="M169.784,112.015c0-0.841,0.376-1.484,1.128-1.931c0.752-0.446,1.948-0.759,3.589-0.938
				c0-0.241-0.024-0.478-0.071-0.709c-0.047-0.231-0.131-0.436-0.252-0.615c-0.121-0.179-0.282-0.323-0.481-0.434
				s-0.458-0.166-0.773-0.166c-0.452,0-0.87,0.084-1.254,0.252c-0.384,0.168-0.729,0.357-1.034,0.567l-0.521-0.898
				c0.357-0.231,0.794-0.455,1.31-0.67c0.515-0.215,1.083-0.323,1.704-0.323c0.936,0,1.614,0.287,2.035,0.859
				c0.42,0.573,0.631,1.337,0.631,2.293v4.697h-1.073l-0.11-0.914h-0.032c-0.368,0.305-0.765,0.565-1.191,0.78
				c-0.426,0.215-0.875,0.323-1.349,0.323c-0.652,0-1.191-0.189-1.617-0.567C169.997,113.245,169.784,112.708,169.784,112.015z
				 M171.062,111.92c0,0.441,0.128,0.756,0.386,0.946c0.258,0.189,0.576,0.284,0.955,0.284c0.368,0,0.718-0.087,1.049-0.26
				c0.332-0.173,0.681-0.428,1.049-0.764v-2.128c-0.642,0.084-1.183,0.184-1.625,0.299c-0.441,0.116-0.796,0.252-1.065,0.41
				c-0.268,0.158-0.46,0.339-0.576,0.544S171.062,111.679,171.062,111.92z"/>
			<path fill="#FFFFFF" d="M178.239,106.34h1.073l0.11,1.104h0.047c0.336-0.368,0.702-0.675,1.097-0.922
				c0.394-0.247,0.823-0.371,1.286-0.371c0.589,0,1.049,0.129,1.38,0.386c0.331,0.258,0.576,0.617,0.733,1.08
				c0.399-0.441,0.802-0.796,1.207-1.064c0.404-0.268,0.844-0.402,1.317-0.402c0.789,0,1.375,0.252,1.759,0.757
				c0.384,0.504,0.576,1.25,0.576,2.238v4.855h-1.293v-4.681c0-0.725-0.116-1.248-0.347-1.568c-0.231-0.321-0.589-0.481-1.073-0.481
				c-0.579,0-1.22,0.394-1.925,1.182v5.548h-1.293v-4.681c0-0.725-0.116-1.248-0.347-1.568c-0.231-0.321-0.594-0.481-1.088-0.481
				c-0.579,0-1.22,0.394-1.925,1.182v5.548h-1.293V106.34z"/>
			<path fill="#FFFFFF" d="M190.749,110.187c0-0.63,0.097-1.195,0.292-1.694c0.194-0.499,0.452-0.922,0.773-1.269
				s0.686-0.612,1.096-0.796c0.41-0.184,0.836-0.276,1.278-0.276c0.484,0,0.917,0.084,1.302,0.252
				c0.384,0.168,0.704,0.41,0.962,0.725c0.258,0.315,0.455,0.693,0.592,1.135s0.205,0.935,0.205,1.481
				c0,0.284-0.016,0.52-0.047,0.709h-5.174c0.053,0.83,0.308,1.487,0.765,1.97s1.054,0.725,1.791,0.725
				c0.368,0,0.707-0.055,1.018-0.166c0.31-0.11,0.607-0.255,0.891-0.434l0.458,0.851c-0.336,0.21-0.71,0.394-1.12,0.552
				s-0.878,0.236-1.404,0.236c-0.516,0-0.997-0.092-1.443-0.276c-0.447-0.184-0.836-0.446-1.167-0.788
				c-0.332-0.341-0.592-0.759-0.781-1.253C190.843,111.379,190.749,110.817,190.749,110.187z M196.112,109.604
				c0-0.788-0.166-1.39-0.497-1.805c-0.331-0.415-0.796-0.623-1.396-0.623c-0.273,0-0.534,0.055-0.781,0.166
				c-0.248,0.11-0.471,0.268-0.67,0.473c-0.2,0.205-0.366,0.457-0.497,0.756c-0.132,0.3-0.218,0.644-0.26,1.033H196.112z"/>
		</g>
		<path id="Btn_Back" opacity="0.7" fill-rule="evenodd" clip-rule="evenodd" fill="#FFFFFF" d="M25.475,108.599
			c-0.03-0.148,0.012-0.305,0.125-0.419l8.537-8.528c0.182-0.182,0.475-0.178,0.658,0.002l1.235,1.235
			c0.182,0.181,0.184,0.476,0.003,0.657l-7.061,7.056l7.061,7.054c0.183,0.184,0.179,0.475-0.003,0.658l-1.235,1.233
			c-0.182,0.181-0.478,0.184-0.658,0.004l-8.537-8.529C25.483,108.906,25.443,108.746,25.475,108.599z"/>
		<g opacity="0.7">
			<path fill="#FFFFFF" d="M42.443,103.824h1.546l2.003,5.548l0.757,2.112h0.063l0.726-2.112l1.988-5.548h1.546v10.34h-1.246v-5.69
				c0-0.462,0.018-0.972,0.055-1.529c0.037-0.557,0.076-1.066,0.118-1.529h-0.063l-0.836,2.301l-1.988,5.406h-0.742l-2.003-5.406
				l-0.82-2.301h-0.063c0.032,0.462,0.068,0.972,0.11,1.529c0.042,0.557,0.063,1.067,0.063,1.529v5.69h-1.214V103.824z"/>
			<path fill="#FFFFFF" d="M53.217,110.349c0-0.63,0.097-1.195,0.292-1.694c0.194-0.499,0.452-0.922,0.773-1.269
				s0.686-0.612,1.096-0.796c0.41-0.184,0.836-0.276,1.278-0.276c0.484,0,0.917,0.084,1.302,0.252
				c0.384,0.168,0.704,0.41,0.962,0.725c0.258,0.315,0.455,0.693,0.592,1.135s0.205,0.935,0.205,1.481
				c0,0.284-0.016,0.52-0.047,0.709h-5.174c0.053,0.83,0.308,1.487,0.765,1.97s1.054,0.725,1.791,0.725
				c0.368,0,0.707-0.055,1.018-0.166c0.31-0.11,0.607-0.255,0.891-0.434l0.458,0.851c-0.336,0.21-0.71,0.394-1.12,0.552
				s-0.878,0.236-1.404,0.236c-0.516,0-0.997-0.092-1.443-0.276c-0.447-0.184-0.836-0.446-1.167-0.788
				c-0.332-0.341-0.592-0.759-0.781-1.253C53.312,111.542,53.217,110.979,53.217,110.349z M58.581,109.766
				c0-0.788-0.166-1.39-0.497-1.805c-0.331-0.415-0.796-0.623-1.396-0.623c-0.273,0-0.534,0.055-0.781,0.166
				c-0.248,0.11-0.471,0.268-0.67,0.473c-0.2,0.205-0.366,0.457-0.497,0.756c-0.132,0.3-0.218,0.644-0.26,1.033H58.581z"/>
			<path fill="#FFFFFF" d="M61.405,112.43c0.336,0.273,0.681,0.494,1.033,0.662c0.353,0.168,0.76,0.252,1.223,0.252
				c0.505,0,0.883-0.115,1.136-0.347c0.252-0.231,0.379-0.515,0.379-0.851c0-0.2-0.053-0.373-0.158-0.52
				c-0.105-0.147-0.239-0.276-0.402-0.386s-0.35-0.208-0.56-0.292s-0.421-0.168-0.631-0.252c-0.274-0.094-0.547-0.202-0.82-0.323
				c-0.274-0.121-0.518-0.268-0.734-0.441c-0.215-0.174-0.392-0.376-0.528-0.607s-0.205-0.51-0.205-0.835
				c0-0.305,0.061-0.591,0.182-0.859c0.121-0.268,0.294-0.499,0.521-0.694c0.226-0.194,0.502-0.347,0.828-0.457
				c0.326-0.11,0.694-0.166,1.104-0.166c0.484,0,0.928,0.084,1.333,0.252s0.755,0.373,1.049,0.615L65.538,108
				c-0.263-0.199-0.537-0.362-0.82-0.489c-0.284-0.126-0.594-0.189-0.931-0.189c-0.484,0-0.839,0.11-1.065,0.331
				s-0.339,0.479-0.339,0.772c0,0.179,0.047,0.333,0.142,0.465s0.221,0.247,0.378,0.347c0.158,0.1,0.339,0.189,0.544,0.268
				s0.418,0.16,0.639,0.244c0.273,0.105,0.549,0.216,0.828,0.331c0.278,0.116,0.528,0.26,0.749,0.434
				c0.221,0.173,0.402,0.386,0.544,0.638c0.142,0.252,0.213,0.557,0.213,0.915c0,0.315-0.061,0.609-0.181,0.882
				c-0.121,0.273-0.3,0.515-0.537,0.725c-0.237,0.21-0.531,0.376-0.883,0.497c-0.353,0.121-0.755,0.181-1.207,0.181
				c-0.547,0-1.067-0.1-1.562-0.299c-0.495-0.2-0.926-0.452-1.293-0.756L61.405,112.43z"/>
			<path fill="#FFFFFF" d="M68.014,112.43c0.336,0.273,0.681,0.494,1.033,0.662c0.353,0.168,0.76,0.252,1.223,0.252
				c0.505,0,0.883-0.115,1.136-0.347c0.252-0.231,0.379-0.515,0.379-0.851c0-0.2-0.053-0.373-0.158-0.52
				c-0.105-0.147-0.239-0.276-0.402-0.386s-0.35-0.208-0.56-0.292s-0.421-0.168-0.631-0.252c-0.274-0.094-0.547-0.202-0.82-0.323
				c-0.274-0.121-0.518-0.268-0.734-0.441c-0.215-0.174-0.392-0.376-0.528-0.607s-0.205-0.51-0.205-0.835
				c0-0.305,0.061-0.591,0.182-0.859c0.121-0.268,0.294-0.499,0.521-0.694c0.226-0.194,0.502-0.347,0.828-0.457
				c0.326-0.11,0.694-0.166,1.104-0.166c0.484,0,0.928,0.084,1.333,0.252s0.755,0.373,1.049,0.615L72.147,108
				c-0.263-0.199-0.537-0.362-0.82-0.489c-0.284-0.126-0.594-0.189-0.931-0.189c-0.484,0-0.839,0.11-1.065,0.331
				s-0.339,0.479-0.339,0.772c0,0.179,0.047,0.333,0.142,0.465s0.221,0.247,0.378,0.347c0.158,0.1,0.339,0.189,0.544,0.268
				s0.418,0.16,0.639,0.244c0.273,0.105,0.549,0.216,0.828,0.331c0.278,0.116,0.528,0.26,0.749,0.434
				c0.221,0.173,0.402,0.386,0.544,0.638c0.142,0.252,0.213,0.557,0.213,0.915c0,0.315-0.061,0.609-0.181,0.882
				c-0.121,0.273-0.3,0.515-0.537,0.725c-0.237,0.21-0.531,0.376-0.883,0.497c-0.353,0.121-0.755,0.181-1.207,0.181
				c-0.547,0-1.067-0.1-1.562-0.299c-0.495-0.2-0.926-0.452-1.293-0.756L68.014,112.43z"/>
			<path fill="#FFFFFF" d="M74.451,112.178c0-0.841,0.376-1.484,1.128-1.931c0.752-0.446,1.948-0.759,3.589-0.938
				c0-0.241-0.024-0.478-0.071-0.709c-0.047-0.231-0.131-0.436-0.252-0.615c-0.121-0.179-0.282-0.323-0.481-0.434
				s-0.458-0.166-0.773-0.166c-0.452,0-0.87,0.084-1.254,0.252c-0.384,0.168-0.729,0.357-1.034,0.567l-0.521-0.898
				c0.357-0.231,0.794-0.455,1.31-0.67c0.515-0.215,1.083-0.323,1.704-0.323c0.936,0,1.614,0.287,2.035,0.859
				c0.42,0.573,0.631,1.337,0.631,2.293v4.697h-1.073l-0.11-0.914h-0.032c-0.368,0.305-0.765,0.565-1.191,0.78
				c-0.426,0.215-0.875,0.323-1.349,0.323c-0.652,0-1.191-0.189-1.617-0.567C74.664,113.407,74.451,112.871,74.451,112.178z
				 M75.729,112.083c0,0.441,0.128,0.756,0.386,0.946c0.258,0.189,0.576,0.284,0.955,0.284c0.368,0,0.718-0.087,1.049-0.26
				c0.332-0.173,0.681-0.428,1.049-0.764v-2.128c-0.642,0.084-1.183,0.184-1.625,0.299c-0.441,0.116-0.796,0.252-1.065,0.41
				c-0.268,0.158-0.46,0.339-0.576,0.544S75.729,111.841,75.729,112.083z"/>
			<path fill="#FFFFFF" d="M82.322,115.629c0-0.326,0.1-0.636,0.3-0.93c0.2-0.294,0.473-0.562,0.82-0.804v-0.063
				c-0.189-0.115-0.35-0.276-0.481-0.48c-0.131-0.205-0.197-0.46-0.197-0.765c0-0.326,0.089-0.609,0.269-0.851
				c0.179-0.242,0.368-0.431,0.568-0.567v-0.063c-0.252-0.21-0.481-0.491-0.687-0.844c-0.205-0.352-0.308-0.759-0.308-1.221
				c0-0.42,0.076-0.799,0.229-1.135c0.152-0.336,0.36-0.623,0.623-0.859c0.263-0.236,0.57-0.417,0.923-0.544
				c0.352-0.126,0.723-0.189,1.112-0.189c0.21,0,0.407,0.019,0.591,0.055c0.184,0.037,0.35,0.082,0.497,0.134h2.666v0.993H87.67
				c0.179,0.179,0.329,0.405,0.45,0.678c0.121,0.273,0.182,0.573,0.182,0.898c0,0.41-0.074,0.78-0.221,1.111s-0.347,0.609-0.6,0.835
				c-0.252,0.226-0.549,0.402-0.891,0.528c-0.342,0.126-0.708,0.189-1.096,0.189c-0.189,0-0.384-0.024-0.584-0.071
				c-0.2-0.047-0.389-0.113-0.568-0.197c-0.137,0.116-0.252,0.244-0.347,0.386c-0.094,0.142-0.142,0.318-0.142,0.528
				c0,0.242,0.095,0.441,0.284,0.599c0.189,0.158,0.547,0.236,1.073,0.236h1.483c0.894,0,1.564,0.145,2.011,0.434
				c0.447,0.289,0.67,0.754,0.67,1.395c0,0.357-0.089,0.696-0.268,1.017c-0.179,0.32-0.437,0.602-0.773,0.843
				s-0.744,0.434-1.223,0.575c-0.479,0.142-1.018,0.213-1.617,0.213c-0.474,0-0.905-0.045-1.294-0.134
				c-0.389-0.09-0.723-0.224-1.001-0.402c-0.279-0.179-0.495-0.394-0.647-0.646C82.398,116.26,82.322,115.966,82.322,115.629z
				 M83.458,115.456c0,0.41,0.197,0.735,0.592,0.977c0.394,0.242,0.938,0.363,1.632,0.363c0.368,0,0.702-0.045,1.002-0.134
				c0.3-0.09,0.555-0.205,0.765-0.347c0.21-0.142,0.373-0.307,0.489-0.497c0.116-0.189,0.174-0.383,0.174-0.583
				c0-0.357-0.132-0.604-0.395-0.741c-0.263-0.137-0.647-0.205-1.151-0.205h-1.325c-0.147,0-0.308-0.008-0.481-0.023
				c-0.173-0.016-0.344-0.05-0.513-0.103c-0.273,0.2-0.473,0.41-0.599,0.63C83.521,115.015,83.458,115.235,83.458,115.456z
				 M85.493,110.869c0.221,0,0.428-0.042,0.623-0.126c0.194-0.084,0.368-0.205,0.521-0.362c0.152-0.158,0.271-0.35,0.355-0.576
				c0.084-0.226,0.126-0.48,0.126-0.764c0-0.567-0.158-1.006-0.473-1.316c-0.315-0.31-0.699-0.465-1.151-0.465
				c-0.453,0-0.836,0.155-1.152,0.465c-0.315,0.31-0.473,0.749-0.473,1.316c0,0.284,0.042,0.539,0.126,0.764
				c0.084,0.226,0.203,0.418,0.355,0.576c0.152,0.157,0.326,0.278,0.521,0.362C85.064,110.828,85.272,110.869,85.493,110.869z"/>
			<path fill="#FFFFFF" d="M90.289,110.349c0-0.63,0.097-1.195,0.292-1.694c0.194-0.499,0.452-0.922,0.773-1.269
				s0.686-0.612,1.096-0.796c0.41-0.184,0.836-0.276,1.278-0.276c0.484,0,0.917,0.084,1.302,0.252
				c0.384,0.168,0.704,0.41,0.962,0.725c0.258,0.315,0.455,0.693,0.592,1.135s0.205,0.935,0.205,1.481
				c0,0.284-0.016,0.52-0.047,0.709h-5.174c0.053,0.83,0.308,1.487,0.765,1.97s1.054,0.725,1.791,0.725
				c0.368,0,0.707-0.055,1.018-0.166c0.31-0.11,0.607-0.255,0.891-0.434l0.458,0.851c-0.336,0.21-0.71,0.394-1.12,0.552
				s-0.878,0.236-1.404,0.236c-0.516,0-0.997-0.092-1.443-0.276c-0.447-0.184-0.836-0.446-1.167-0.788
				c-0.332-0.341-0.592-0.759-0.781-1.253C90.383,111.542,90.289,110.979,90.289,110.349z M95.652,109.766
				c0-0.788-0.166-1.39-0.497-1.805c-0.331-0.415-0.796-0.623-1.396-0.623c-0.273,0-0.534,0.055-0.781,0.166
				c-0.248,0.11-0.471,0.268-0.67,0.473c-0.2,0.205-0.366,0.457-0.497,0.756c-0.132,0.3-0.218,0.644-0.26,1.033H95.652z"/>
			<path fill="#FFFFFF" d="M98.476,112.43c0.336,0.273,0.681,0.494,1.033,0.662c0.353,0.168,0.76,0.252,1.223,0.252
				c0.505,0,0.883-0.115,1.136-0.347c0.252-0.231,0.379-0.515,0.379-0.851c0-0.2-0.053-0.373-0.158-0.52
				c-0.105-0.147-0.239-0.276-0.402-0.386s-0.35-0.208-0.56-0.292s-0.421-0.168-0.631-0.252c-0.274-0.094-0.547-0.202-0.82-0.323
				c-0.274-0.121-0.518-0.268-0.734-0.441c-0.215-0.174-0.392-0.376-0.528-0.607s-0.205-0.51-0.205-0.835
				c0-0.305,0.061-0.591,0.182-0.859c0.121-0.268,0.294-0.499,0.521-0.694c0.226-0.194,0.502-0.347,0.828-0.457
				c0.326-0.11,0.694-0.166,1.104-0.166c0.484,0,0.928,0.084,1.333,0.252s0.755,0.373,1.049,0.615L102.609,108
				c-0.263-0.199-0.537-0.362-0.82-0.489c-0.284-0.126-0.594-0.189-0.931-0.189c-0.484,0-0.839,0.11-1.065,0.331
				s-0.339,0.479-0.339,0.772c0,0.179,0.047,0.333,0.142,0.465s0.221,0.247,0.378,0.347c0.158,0.1,0.339,0.189,0.544,0.268
				s0.418,0.16,0.639,0.244c0.273,0.105,0.549,0.216,0.828,0.331c0.278,0.116,0.528,0.26,0.749,0.434
				c0.221,0.173,0.402,0.386,0.544,0.638c0.142,0.252,0.213,0.557,0.213,0.915c0,0.315-0.061,0.609-0.181,0.882
				c-0.121,0.273-0.3,0.515-0.537,0.725c-0.237,0.21-0.531,0.376-0.883,0.497c-0.353,0.121-0.755,0.181-1.207,0.181
				c-0.547,0-1.067-0.1-1.562-0.299c-0.495-0.2-0.926-0.452-1.293-0.756L98.476,112.43z"/>
		</g>
	</g>
	<g id="Status_Bar_7_">
		<g id="Signal_13_">
			<g>
				<path fill-rule="evenodd" clip-rule="evenodd" fill="#C7DADE" d="M43.902,76.203c-1.431,0-2.591,1.143-2.591,2.549
					c0,1.407,1.16,2.55,2.591,2.55c1.43,0,2.589-1.143,2.589-2.55C46.492,77.345,45.332,76.203,43.902,76.203z M43.902,79.911
					c-0.661,0-1.199-0.52-1.199-1.159c0-0.639,0.538-1.159,1.199-1.159c0.66,0,1.198,0.52,1.198,1.159
					C45.1,79.391,44.562,79.911,43.902,79.911z M50.509,76.203c-1.431,0-2.59,1.143-2.59,2.549c0,1.407,1.16,2.55,2.59,2.55
					s2.59-1.143,2.59-2.55C53.1,77.345,51.94,76.203,50.509,76.203z M50.509,79.911c-0.661,0-1.198-0.52-1.198-1.159
					c0-0.639,0.538-1.159,1.198-1.159s1.198,0.52,1.198,1.159C51.707,79.391,51.17,79.911,50.509,79.911z M30.739,76.203
					c-1.43,0-2.59,1.143-2.59,2.549c0,1.407,1.16,2.55,2.59,2.55c1.431,0,2.591-1.143,2.591-2.55
					C33.33,77.345,32.17,76.203,30.739,76.203z M37.346,76.203c-1.431,0-2.59,1.143-2.59,2.549c0,1.407,1.159,2.55,2.59,2.55
					s2.59-1.143,2.59-2.55C39.936,77.345,38.777,76.203,37.346,76.203z M24.115,76.203c-1.431,0-2.59,1.143-2.59,2.549
					c0,1.407,1.159,2.55,2.59,2.55s2.59-1.143,2.59-2.55C26.705,77.345,25.546,76.203,24.115,76.203z"/>
			</g>
		</g>
		
			<rect id="Time_7_" x="145.906" y="77.147" fill-rule="evenodd" clip-rule="evenodd" fill="#C7DADE" width="37.12" height="3.709"/>
		<g id="Battery_13_">
			<g>
				<path fill-rule="evenodd" clip-rule="evenodd" fill="#C7DADE" d="M303.603,74.344h-13.894c-1.021,0-1.85,0.823-1.85,1.854v5.563
					c0,1.023,0.825,1.854,1.85,1.854h13.894c1.021,0,1.85-0.824,1.85-1.854v-5.563C305.453,75.175,304.628,74.344,303.603,74.344z
					 M304.061,81.762c0,0.259-0.201,0.463-0.458,0.463h-13.894c-0.252,0-0.458-0.208-0.458-0.463v-5.563
					c0-0.26,0.202-0.464,0.458-0.464h13.894c0.252,0,0.458,0.208,0.458,0.464V81.762z M290.674,80.532h6.685v-3.385h-6.685V80.532z
					 M305.957,77.147v3.546c0.803-0.125,1.42-0.87,1.42-1.773C307.377,78.019,306.76,77.272,305.957,77.147z"/>
			</g>
		</g>
	</g>
	<g>
		<g>
			<path fill-rule="evenodd" clip-rule="evenodd" fill="#BBBBBB" d="M269.181,0h-47.057c-2.394,0-4.334,2.001-4.334,4.47
				c0,2.469,1.941,4.469,4.334,4.469h47.057c2.394,0,4.334-2,4.334-4.469C273.515,2.001,271.575,0,269.181,0z M2.514,99.719h5.03
				c1.389,0,2.515-1.039,2.515-2.321v-24.38c0-1.283-1.126-2.322-2.515-2.322h-5.03C1.126,70.695,0,71.734,0,73.017v24.38
				C0,98.68,1.126,99.719,2.514,99.719z M11.759,134.549H2.365c-1.297,0-2.349,1.04-2.349,2.322v17.414
				c0,1.283,1.052,2.322,2.349,2.322h9.394c1.297,0,2.349-1.039,2.349-2.322v-17.414C14.107,135.588,13.056,134.549,11.759,134.549z
				 M11.759,191.779H2.365c-1.297,0-2.349,1.04-2.349,2.322v17.416c0,1.281,1.052,2.321,2.349,2.321h9.394
				c1.297,0,2.349-1.04,2.349-2.321v-17.416C14.107,192.818,13.056,191.779,11.759,191.779z"/>
		</g>
	</g>
	<path fill-rule="evenodd" clip-rule="evenodd" fill="#FFFFFF" d="M277.25,2.667H52.331C25.086,2.667,3,23.761,3,49.783v570.102
		C3,645.905,25.086,667,52.331,667H277.25c27.244,0,49.33-21.095,49.33-47.115V49.783C326.58,23.761,304.494,2.667,277.25,2.667z
		 M312.833,597.165H16.5v-526h296.333V597.165z"/>
	<path fill-rule="evenodd" clip-rule="evenodd" fill="#BBBBBB" d="M165.521,19.292c4.127,0,7.474,3.137,7.474,7.007
		c0,3.869-3.346,7.006-7.474,7.006s-7.473-3.137-7.473-7.006C158.047,22.429,161.393,19.292,165.521,19.292z"/>
	<path fill-rule="evenodd" clip-rule="evenodd" fill="#BBBBBB" d="M137.144,45.691h54.884c2.302,0,4.167,1.755,4.167,3.92
		c0,2.165-1.866,3.919-4.167,3.919h-54.884c-2.302,0-4.168-1.755-4.168-3.919C132.976,47.446,134.842,45.691,137.144,45.691z"/>
	<g>
		<path fill="#BBBBBB" d="M164.713,613.019c12.026,0,21.81,9.047,21.81,20.168s-9.784,20.168-21.81,20.168
			s-21.81-9.047-21.81-20.168S152.688,613.019,164.713,613.019 M164.713,610.519c-13.426,0-24.31,10.149-24.31,22.668
			s10.884,22.668,24.31,22.668c13.426,0,24.31-10.149,24.31-22.668S178.139,610.519,164.713,610.519L164.713,610.519z"/>
	</g>
</g>
</svg>
