<?xml version="1.0" encoding="utf-8"?>
<!-- Generator: Adobe Illustrator 16.0.0, SVG Export Plug-In . SVG Version: 6.00 Build 0)  -->
<!DOCTYPE svg PUBLIC "-//W3C//DTD SVG 1.1//EN" "http://www.w3.org/Graphics/SVG/1.1/DTD/svg11.dtd">
<svg version="1.1" id="Layer_1" xmlns="http://www.w3.org/2000/svg" xmlns:xlink="http://www.w3.org/1999/xlink" x="0px" y="0px"
	 width="326.58px" height="667px" viewBox="64.21 47 326.58 667" enable-background="new 64.21 47 326.58 667" xml:space="preserve"
	>
<g>
	<path id="BG_6_" fill="#4E6266" d="M376.155,213.964H81.275c-0.574,0-1.041-0.466-1.041-1.039v-94.564
		c0-0.575,0.467-1.039,1.041-1.039h294.88c0.572,0,1.04,0.464,1.04,1.039v94.563C377.195,213.498,376.728,213.964,376.155,213.964z"
		/>
	<g id="Toolbar">
		<rect x="80.196" y="603.526" fill="#9AB1B6" width="296.96" height="40.796"/>
		<path fill="#4E6266" d="M119.17,609.933c-2.562,0-4.639,2.076-4.639,4.639v17.613c0,2.561,2.081,4.639,4.639,4.639h211.587
			c2.562,0,4.639-2.078,4.639-4.639V614.57c0-2.562-2.08-4.639-4.639-4.639L119.17,609.933L119.17,609.933z"/>
		<g>
			<path fill="#EAF7F7" d="M341.487,627.148c0.367,0.389,0.802,0.7,1.302,0.938c0.499,0.236,1.019,0.354,1.554,0.354
				c0.684,0,1.215-0.154,1.594-0.466c0.377-0.31,0.567-0.717,0.567-1.222c0-0.262-0.045-0.485-0.134-0.67
				c-0.09-0.184-0.211-0.341-0.363-0.473s-0.334-0.249-0.544-0.354c-0.21-0.104-0.437-0.215-0.678-0.331l-1.483-0.646
				c-0.242-0.104-0.488-0.23-0.742-0.378c-0.252-0.148-0.479-0.325-0.678-0.536c-0.2-0.21-0.363-0.459-0.488-0.748
				c-0.127-0.289-0.189-0.623-0.189-1.001c0-0.39,0.08-0.752,0.244-1.088s0.39-0.628,0.679-0.875s0.631-0.438,1.024-0.575
				c0.395-0.137,0.828-0.205,1.302-0.205c0.62,0,1.192,0.118,1.72,0.354c0.525,0.236,0.973,0.545,1.341,0.924l-0.71,0.851
				c-0.314-0.305-0.665-0.544-1.049-0.717c-0.384-0.174-0.818-0.261-1.302-0.261c-0.579,0-1.044,0.135-1.396,0.401
				c-0.353,0.269-0.528,0.64-0.528,1.111c0,0.252,0.051,0.465,0.15,0.639c0.1,0.173,0.234,0.325,0.402,0.457
				c0.168,0.131,0.354,0.247,0.552,0.347c0.199,0.101,0.405,0.191,0.615,0.275l1.467,0.631c0.294,0.126,0.573,0.271,0.836,0.435
				s0.489,0.352,0.679,0.566c0.188,0.215,0.338,0.468,0.449,0.757s0.166,0.622,0.166,1c0,0.41-0.082,0.795-0.244,1.151
				c-0.164,0.357-0.396,0.67-0.701,0.938c-0.306,0.268-0.674,0.479-1.104,0.631c-0.431,0.151-0.92,0.229-1.467,0.229
				c-0.726,0-1.399-0.137-2.021-0.41c-0.621-0.272-1.156-0.646-1.609-1.119L341.487,627.148z"/>
			<path fill="#EAF7F7" d="M349.185,625.588c0-0.631,0.098-1.195,0.293-1.693c0.193-0.5,0.451-0.923,0.772-1.27
				s0.687-0.612,1.097-0.796c0.409-0.185,0.836-0.276,1.277-0.276c0.484,0,0.917,0.084,1.302,0.252
				c0.384,0.169,0.704,0.41,0.962,0.727c0.258,0.315,0.455,0.692,0.592,1.135c0.138,0.442,0.205,0.936,0.205,1.481
				c0,0.283-0.016,0.521-0.047,0.709h-5.174c0.053,0.831,0.309,1.486,0.766,1.971s1.054,0.725,1.791,0.725
				c0.367,0,0.707-0.055,1.018-0.165c0.311-0.109,0.607-0.255,0.891-0.434l0.459,0.852c-0.337,0.21-0.711,0.395-1.121,0.553
				c-0.41,0.156-0.877,0.235-1.404,0.235c-0.516,0-0.996-0.093-1.442-0.275c-0.446-0.185-0.836-0.446-1.167-0.788
				c-0.332-0.341-0.592-0.759-0.781-1.253C349.28,626.78,349.185,626.219,349.185,625.588z M354.549,625.005
				c0-0.788-0.166-1.39-0.497-1.805s-0.796-0.623-1.396-0.623c-0.272,0-0.533,0.056-0.78,0.166c-0.248,0.11-0.472,0.268-0.67,0.473
				c-0.2,0.205-0.366,0.457-0.497,0.757c-0.132,0.3-0.219,0.645-0.26,1.032H354.549L354.549,625.005z"/>
			<path fill="#EAF7F7" d="M357.577,621.742h1.072l0.11,1.104h0.048c0.367-0.367,0.754-0.676,1.159-0.923
				c0.405-0.246,0.875-0.37,1.412-0.37c0.81,0,1.401,0.252,1.774,0.758c0.373,0.504,0.561,1.25,0.561,2.237v4.854h-1.293v-4.683
				c0-0.725-0.116-1.247-0.348-1.567c-0.23-0.32-0.6-0.48-1.104-0.48c-0.398,0-0.752,0.101-1.057,0.3s-0.652,0.494-1.042,0.884
				v5.548h-1.293L357.577,621.742L357.577,621.742z"/>
			<path fill="#EAF7F7" d="M365.653,625.588c0-0.62,0.093-1.18,0.277-1.679c0.184-0.499,0.428-0.922,0.732-1.27
				c0.305-0.347,0.656-0.614,1.057-0.804c0.399-0.189,0.82-0.284,1.262-0.284c0.442,0,0.826,0.079,1.152,0.236
				c0.326,0.158,0.657,0.373,0.994,0.646l-0.062-1.309v-2.947h1.31v11.224h-1.073l-0.11-0.898h-0.048
				c-0.305,0.294-0.654,0.549-1.049,0.765s-0.818,0.323-1.27,0.323c-0.969,0-1.738-0.347-2.311-1.041
				C365.94,627.857,365.653,626.87,365.653,625.588z M366.996,625.572c0,0.925,0.185,1.645,0.552,2.159
				c0.368,0.514,0.889,0.771,1.562,0.771c0.356,0,0.693-0.087,1.01-0.26c0.314-0.174,0.631-0.438,0.946-0.796v-4.004
				c-0.326-0.295-0.64-0.502-0.938-0.623c-0.3-0.12-0.607-0.182-0.923-0.182c-0.306,0-0.593,0.07-0.86,0.213s-0.502,0.342-0.701,0.6
				c-0.201,0.258-0.357,0.564-0.474,0.922C367.053,624.731,366.996,625.131,366.996,625.572z"/>
		</g>
		<g id="Camera">
			<g>
				<path fill="#EAF7F7" d="M106.289,616.164h-2.631c-0.499-1.408-0.631-2.418-2.208-2.418h-7.262c-1.577,0-1.709,1.013-2.208,2.418
					h-2.632c-2,0-3.62,1.621-3.62,3.628v9.655c0,2.004,1.624,3.627,3.62,3.627h16.94c2,0,3.62-1.62,3.62-3.627v-9.655
					C109.909,617.788,108.285,616.164,106.289,616.164z M97.818,630.659c-3.339,0-6.045-2.704-6.045-6.04
					c0-3.334,2.706-6.04,6.045-6.04c3.338,0,6.044,2.706,6.044,6.04C103.863,627.955,101.157,630.659,97.818,630.659z
					 M106.282,620.714c-0.668,0-1.209-0.54-1.209-1.207c0-0.666,0.541-1.207,1.209-1.207c0.667,0,1.209,0.541,1.209,1.207
					C107.491,620.174,106.949,620.714,106.282,620.714z M97.818,619.788c-2.671,0-4.836,2.162-4.836,4.831
					c0,2.668,2.166,4.832,4.836,4.832s4.836-2.164,4.836-4.832C102.654,621.95,100.489,619.788,97.818,619.788z"/>
			</g>
		</g>
	</g>
	<g id="Search_Bar_2_">
		<rect x="80.195" y="175.167" fill="#95ACB1" width="296.961" height="40.796"/>
		<path fill="#4E6266" d="M92.259,182.584c-2.05,0-3.711,1.662-3.711,3.71v19.467c0,2.049,1.67,3.711,3.711,3.711h270.979
			c2.049,0,3.711-1.662,3.711-3.711v-19.467c0-2.049-1.672-3.71-3.711-3.71H92.259z"/>
		<g id="Search_4_">
			<g>
				<path fill="#FFFFFF" d="M225.877,188.146c-3.075,0-5.568,2.491-5.568,5.563c0,3.072,2.493,5.563,5.568,5.563
					s5.568-2.491,5.568-5.563C231.445,190.637,228.953,188.146,225.877,188.146z M225.877,197.882c-2.306,0-4.176-1.869-4.176-4.172
					c0-2.304,1.87-4.172,4.176-4.172c2.307,0,4.176,1.868,4.176,4.172C230.054,196.014,228.184,197.882,225.877,197.882z
					 M234.973,201.902l-3.375-3.372c-0.248-0.247-0.647-0.247-0.896,0c-0.247,0.247-0.247,0.648,0,0.894l3.374,3.373
					c0.248,0.246,0.648,0.246,0.895,0C235.219,202.55,235.219,202.149,234.973,201.902z"/>
			</g>
		</g>
	</g>
	<g id="Nav_1_">
		<rect id="NavBG_1_" x="80.181" y="137.205" display="none" fill="#FFFFFF" width="295.947" height="40.693"/>
		<g>
			<path fill="#FFFFFF" d="M195.739,150.661h1.309v6.1c0,0.62,0.063,1.141,0.189,1.561c0.126,0.42,0.297,0.757,0.513,1.009
				c0.215,0.252,0.471,0.434,0.765,0.544s0.61,0.166,0.946,0.166c0.347,0,0.668-0.055,0.962-0.166s0.552-0.292,0.773-0.544
				c0.221-0.252,0.395-0.588,0.521-1.009c0.126-0.42,0.189-0.94,0.189-1.561v-6.1h1.262v6.068c0,0.83-0.095,1.529-0.284,2.096
				c-0.189,0.567-0.45,1.027-0.781,1.379s-0.723,0.604-1.175,0.756c-0.452,0.152-0.941,0.229-1.467,0.229s-1.017-0.076-1.475-0.229
				c-0.458-0.152-0.852-0.404-1.183-0.756c-0.332-0.352-0.592-0.812-0.781-1.379c-0.189-0.567-0.284-1.266-0.284-2.096
				L195.739,150.661L195.739,150.661z"/>
			<path fill="#FFFFFF" d="M205.63,159.267c0.336,0.273,0.681,0.494,1.033,0.662c0.353,0.168,0.76,0.252,1.223,0.252
				c0.505,0,0.883-0.115,1.136-0.347c0.252-0.231,0.379-0.515,0.379-0.851c0-0.2-0.053-0.373-0.158-0.52s-0.239-0.276-0.402-0.386
				c-0.163-0.11-0.35-0.208-0.56-0.292c-0.21-0.084-0.421-0.168-0.631-0.252c-0.274-0.094-0.547-0.202-0.82-0.323
				c-0.274-0.121-0.518-0.268-0.734-0.441c-0.215-0.174-0.392-0.376-0.528-0.607c-0.136-0.231-0.205-0.51-0.205-0.835
				c0-0.305,0.061-0.591,0.182-0.859c0.121-0.268,0.294-0.499,0.521-0.694c0.226-0.194,0.502-0.347,0.828-0.457
				s0.694-0.166,1.104-0.166c0.484,0,0.928,0.084,1.333,0.252c0.405,0.168,0.755,0.373,1.049,0.615l-0.615,0.819
				c-0.263-0.199-0.537-0.362-0.82-0.489c-0.284-0.126-0.594-0.189-0.931-0.189c-0.484,0-0.839,0.11-1.065,0.331
				c-0.226,0.221-0.339,0.479-0.339,0.772c0,0.179,0.047,0.333,0.142,0.465s0.221,0.247,0.378,0.347
				c0.158,0.1,0.339,0.189,0.544,0.268c0.205,0.079,0.418,0.16,0.639,0.244c0.273,0.105,0.549,0.216,0.828,0.331
				c0.278,0.116,0.528,0.26,0.749,0.434c0.221,0.173,0.402,0.386,0.544,0.638c0.142,0.252,0.213,0.557,0.213,0.915
				c0,0.315-0.061,0.609-0.181,0.882c-0.121,0.273-0.3,0.515-0.537,0.725c-0.237,0.21-0.531,0.376-0.883,0.497
				c-0.353,0.121-0.755,0.181-1.207,0.181c-0.547,0-1.067-0.1-1.562-0.299c-0.495-0.2-0.926-0.452-1.293-0.756L205.63,159.267z"/>
			<path fill="#FFFFFF" d="M211.877,157.187c0-0.63,0.097-1.195,0.292-1.694c0.194-0.499,0.452-0.922,0.773-1.269
				c0.321-0.347,0.686-0.612,1.096-0.796c0.41-0.184,0.836-0.276,1.278-0.276c0.484,0,0.917,0.084,1.302,0.252
				c0.384,0.168,0.704,0.41,0.962,0.725c0.258,0.315,0.455,0.693,0.592,1.135c0.137,0.442,0.205,0.935,0.205,1.481
				c0,0.284-0.016,0.52-0.047,0.709h-5.174c0.053,0.83,0.308,1.487,0.765,1.97c0.457,0.483,1.054,0.725,1.791,0.725
				c0.368,0,0.707-0.055,1.018-0.166c0.31-0.11,0.607-0.255,0.891-0.434l0.458,0.851c-0.336,0.21-0.71,0.394-1.12,0.552
				c-0.41,0.158-0.878,0.236-1.404,0.236c-0.516,0-0.997-0.092-1.443-0.276c-0.447-0.184-0.836-0.446-1.167-0.788
				c-0.332-0.341-0.592-0.759-0.781-1.253C211.972,158.379,211.877,157.817,211.877,157.187z M217.241,156.604
				c0-0.788-0.166-1.39-0.497-1.805s-0.796-0.623-1.396-0.623c-0.273,0-0.534,0.055-0.781,0.166c-0.248,0.11-0.471,0.268-0.67,0.473
				c-0.2,0.205-0.366,0.457-0.497,0.756c-0.132,0.3-0.218,0.644-0.26,1.033H217.241z"/>
			<path fill="#FFFFFF" d="M220.269,153.34h1.073l0.11,1.387h0.047c0.263-0.483,0.581-0.867,0.955-1.15
				c0.373-0.284,0.781-0.426,1.223-0.426c0.305,0,0.578,0.053,0.82,0.158l-0.252,1.135c-0.126-0.042-0.242-0.073-0.347-0.095
				c-0.105-0.021-0.237-0.031-0.395-0.031c-0.326,0-0.665,0.131-1.018,0.394c-0.352,0.263-0.66,0.72-0.923,1.371v4.918h-1.293
				V153.34z"/>
			<path fill="#FFFFFF" d="M225.743,153.34h1.073l0.11,1.104h0.047c0.368-0.368,0.754-0.675,1.16-0.922
				c0.405-0.247,0.875-0.371,1.412-0.371c0.811,0,1.4,0.252,1.775,0.757c0.373,0.504,0.56,1.25,0.56,2.238v4.855h-1.293v-4.681
				c0-0.725-0.116-1.248-0.347-1.568c-0.231-0.321-0.6-0.481-1.104-0.481c-0.399,0-0.752,0.1-1.057,0.299
				c-0.305,0.2-0.652,0.494-1.042,0.883v5.548h-1.293L225.743,153.34L225.743,153.34z"/>
			<path fill="#FFFFFF" d="M233.994,159.015c0-0.841,0.376-1.484,1.128-1.931c0.752-0.446,1.948-0.759,3.589-0.938
				c0-0.241-0.023-0.478-0.07-0.709c-0.048-0.231-0.132-0.436-0.252-0.615c-0.121-0.179-0.283-0.323-0.482-0.434
				c-0.198-0.111-0.457-0.166-0.772-0.166c-0.452,0-0.87,0.084-1.254,0.252s-0.729,0.357-1.034,0.567l-0.521-0.898
				c0.356-0.231,0.794-0.455,1.31-0.67c0.516-0.215,1.083-0.323,1.704-0.323c0.937,0,1.614,0.287,2.035,0.859
				c0.42,0.573,0.631,1.337,0.631,2.293v4.697h-1.073l-0.109-0.914h-0.032c-0.368,0.305-0.765,0.565-1.19,0.78
				c-0.427,0.215-0.875,0.323-1.35,0.323c-0.652,0-1.191-0.189-1.617-0.567C234.207,160.245,233.994,159.708,233.994,159.015z
				 M235.271,158.92c0,0.441,0.129,0.756,0.387,0.946c0.258,0.189,0.576,0.284,0.955,0.284c0.367,0,0.718-0.087,1.049-0.26
				c0.332-0.173,0.681-0.428,1.049-0.764v-2.128c-0.643,0.084-1.184,0.184-1.625,0.299c-0.441,0.116-0.796,0.252-1.064,0.41
				s-0.461,0.339-0.576,0.544C235.329,158.456,235.271,158.679,235.271,158.92z"/>
			<path fill="#FFFFFF" d="M242.449,153.34h1.072l0.11,1.104h0.047c0.337-0.368,0.702-0.675,1.097-0.922s0.824-0.371,1.287-0.371
				c0.588,0,1.049,0.129,1.379,0.386c0.332,0.258,0.576,0.617,0.733,1.08c0.399-0.441,0.802-0.796,1.207-1.064
				c0.404-0.268,0.845-0.402,1.317-0.402c0.789,0,1.375,0.252,1.759,0.757c0.384,0.504,0.576,1.25,0.576,2.238v4.855h-1.293v-4.681
				c0-0.725-0.116-1.248-0.347-1.568c-0.231-0.321-0.59-0.481-1.074-0.481c-0.578,0-1.219,0.394-1.924,1.182v5.548h-1.293v-4.681
				c0-0.725-0.117-1.248-0.348-1.568c-0.23-0.321-0.594-0.481-1.088-0.481c-0.579,0-1.221,0.394-1.925,1.182v5.548h-1.293
				L242.449,153.34L242.449,153.34z"/>
			<path fill="#FFFFFF" d="M254.959,157.187c0-0.63,0.098-1.195,0.292-1.694s0.452-0.922,0.772-1.269
				c0.321-0.347,0.687-0.612,1.097-0.796c0.409-0.184,0.836-0.276,1.278-0.276c0.483,0,0.916,0.084,1.302,0.252
				c0.384,0.168,0.704,0.41,0.962,0.725s0.455,0.693,0.592,1.135c0.137,0.442,0.205,0.935,0.205,1.481
				c0,0.284-0.016,0.52-0.047,0.709h-5.174c0.053,0.83,0.308,1.487,0.765,1.97c0.457,0.483,1.054,0.725,1.791,0.725
				c0.368,0,0.707-0.055,1.019-0.166c0.31-0.11,0.606-0.255,0.891-0.434l0.458,0.851c-0.336,0.21-0.71,0.394-1.12,0.552
				c-0.41,0.158-0.878,0.236-1.404,0.236c-0.516,0-0.996-0.092-1.443-0.276c-0.446-0.184-0.836-0.446-1.166-0.788
				c-0.332-0.341-0.592-0.759-0.781-1.253C255.053,158.379,254.959,157.817,254.959,157.187z M260.322,156.604
				c0-0.788-0.166-1.39-0.497-1.805s-0.796-0.623-1.396-0.623c-0.273,0-0.535,0.055-0.781,0.166c-0.248,0.11-0.472,0.268-0.67,0.473
				c-0.201,0.205-0.367,0.457-0.498,0.756c-0.131,0.3-0.217,0.644-0.26,1.033H260.322z"/>
		</g>
		<path id="Btn_Back" opacity="0.7" fill="#FFFFFF" enable-background="new    " d="M89.685,155.599
			c-0.03-0.148,0.012-0.305,0.125-0.419l8.537-8.528c0.182-0.182,0.475-0.178,0.658,0.002l1.235,1.235
			c0.182,0.181,0.184,0.476,0.003,0.657l-7.061,7.056l7.061,7.054c0.183,0.184,0.179,0.475-0.003,0.658l-1.235,1.233
			c-0.182,0.181-0.478,0.184-0.658,0.004l-8.537-8.529C89.693,155.906,89.653,155.746,89.685,155.599z"/>
		<g opacity="0.7">
			<path fill="#FFFFFF" d="M106.653,150.824h1.546l2.003,5.548l0.757,2.112h0.063l0.726-2.112l1.988-5.548h1.546v10.34h-1.246v-5.69
				c0-0.462,0.018-0.972,0.055-1.529c0.037-0.557,0.076-1.066,0.118-1.529h-0.063l-0.836,2.301l-1.988,5.406h-0.742l-2.003-5.406
				l-0.82-2.301h-0.063c0.032,0.462,0.068,0.972,0.11,1.529c0.042,0.557,0.063,1.067,0.063,1.529v5.69h-1.214V150.824
				L106.653,150.824z"/>
			<path fill="#FFFFFF" d="M117.427,157.349c0-0.63,0.097-1.195,0.292-1.694c0.194-0.499,0.452-0.922,0.773-1.269
				c0.321-0.347,0.686-0.612,1.096-0.796c0.41-0.184,0.836-0.276,1.278-0.276c0.484,0,0.917,0.084,1.302,0.252
				c0.384,0.168,0.704,0.41,0.962,0.725c0.258,0.315,0.455,0.693,0.592,1.135c0.137,0.442,0.205,0.935,0.205,1.481
				c0,0.284-0.016,0.52-0.047,0.709h-5.174c0.053,0.83,0.308,1.487,0.765,1.97c0.457,0.483,1.054,0.725,1.791,0.725
				c0.368,0,0.707-0.055,1.018-0.166c0.31-0.11,0.607-0.255,0.891-0.434l0.458,0.851c-0.336,0.21-0.71,0.394-1.12,0.552
				c-0.41,0.158-0.878,0.236-1.404,0.236c-0.516,0-0.997-0.092-1.443-0.276c-0.447-0.184-0.836-0.446-1.167-0.788
				c-0.332-0.341-0.592-0.759-0.781-1.253C117.522,158.542,117.427,157.979,117.427,157.349z M122.791,156.766
				c0-0.788-0.166-1.39-0.497-1.805s-0.796-0.623-1.396-0.623c-0.273,0-0.534,0.055-0.781,0.166c-0.248,0.11-0.471,0.268-0.67,0.473
				c-0.2,0.205-0.366,0.457-0.497,0.756c-0.132,0.3-0.218,0.644-0.26,1.033H122.791z"/>
			<path fill="#FFFFFF" d="M125.615,159.43c0.336,0.273,0.681,0.494,1.033,0.662c0.353,0.168,0.76,0.252,1.223,0.252
				c0.505,0,0.883-0.115,1.136-0.347c0.252-0.231,0.379-0.515,0.379-0.851c0-0.2-0.053-0.373-0.158-0.52s-0.239-0.276-0.402-0.386
				c-0.163-0.11-0.35-0.208-0.56-0.292s-0.421-0.168-0.631-0.252c-0.274-0.094-0.547-0.202-0.82-0.323
				c-0.274-0.121-0.518-0.268-0.734-0.441c-0.215-0.174-0.392-0.376-0.528-0.607c-0.136-0.231-0.205-0.51-0.205-0.835
				c0-0.305,0.061-0.591,0.182-0.859c0.121-0.268,0.294-0.499,0.521-0.694c0.226-0.194,0.502-0.347,0.828-0.457
				s0.694-0.166,1.104-0.166c0.484,0,0.928,0.084,1.333,0.252s0.755,0.373,1.049,0.615L129.748,155
				c-0.263-0.199-0.537-0.362-0.82-0.489c-0.284-0.126-0.594-0.189-0.931-0.189c-0.484,0-0.839,0.11-1.065,0.331
				c-0.226,0.221-0.339,0.479-0.339,0.772c0,0.179,0.047,0.333,0.142,0.465c0.095,0.132,0.221,0.247,0.378,0.347
				c0.158,0.1,0.339,0.189,0.544,0.268c0.205,0.079,0.418,0.16,0.639,0.244c0.273,0.105,0.549,0.216,0.828,0.331
				c0.278,0.116,0.528,0.26,0.749,0.434c0.221,0.173,0.402,0.386,0.544,0.638s0.213,0.557,0.213,0.915
				c0,0.315-0.061,0.609-0.181,0.882c-0.121,0.273-0.3,0.515-0.537,0.725c-0.237,0.21-0.531,0.376-0.883,0.497
				c-0.353,0.121-0.755,0.181-1.207,0.181c-0.547,0-1.067-0.1-1.562-0.299c-0.495-0.2-0.926-0.452-1.293-0.756L125.615,159.43z"/>
			<path fill="#FFFFFF" d="M132.224,159.43c0.336,0.273,0.681,0.494,1.033,0.662c0.353,0.168,0.76,0.252,1.223,0.252
				c0.505,0,0.883-0.115,1.136-0.347c0.252-0.231,0.379-0.515,0.379-0.851c0-0.2-0.053-0.373-0.158-0.52s-0.239-0.276-0.402-0.386
				c-0.163-0.11-0.35-0.208-0.56-0.292s-0.421-0.168-0.631-0.252c-0.274-0.094-0.547-0.202-0.82-0.323
				c-0.274-0.121-0.518-0.268-0.734-0.441c-0.215-0.174-0.392-0.376-0.528-0.607c-0.136-0.231-0.205-0.51-0.205-0.835
				c0-0.305,0.061-0.591,0.182-0.859c0.121-0.268,0.294-0.499,0.521-0.694c0.226-0.194,0.502-0.347,0.828-0.457
				c0.326-0.11,0.694-0.166,1.104-0.166c0.484,0,0.928,0.084,1.333,0.252c0.405,0.168,0.755,0.373,1.049,0.615L136.357,155
				c-0.263-0.199-0.537-0.362-0.82-0.489c-0.284-0.126-0.594-0.189-0.931-0.189c-0.484,0-0.839,0.11-1.065,0.331
				c-0.226,0.221-0.339,0.479-0.339,0.772c0,0.179,0.047,0.333,0.142,0.465c0.095,0.132,0.221,0.247,0.378,0.347
				c0.158,0.1,0.339,0.189,0.544,0.268s0.418,0.16,0.639,0.244c0.273,0.105,0.549,0.216,0.828,0.331
				c0.278,0.116,0.528,0.26,0.749,0.434c0.221,0.173,0.402,0.386,0.544,0.638s0.213,0.557,0.213,0.915
				c0,0.315-0.061,0.609-0.181,0.882c-0.121,0.273-0.3,0.515-0.537,0.725s-0.531,0.376-0.883,0.497
				c-0.353,0.121-0.755,0.181-1.207,0.181c-0.547,0-1.067-0.1-1.562-0.299c-0.495-0.2-0.926-0.452-1.293-0.756L132.224,159.43z"/>
			<path fill="#FFFFFF" d="M138.661,159.178c0-0.841,0.376-1.484,1.128-1.931c0.752-0.446,1.948-0.759,3.589-0.938
				c0-0.241-0.024-0.478-0.071-0.709c-0.047-0.231-0.131-0.436-0.252-0.615c-0.121-0.179-0.282-0.323-0.481-0.434
				c-0.199-0.111-0.458-0.166-0.773-0.166c-0.452,0-0.87,0.084-1.254,0.252c-0.384,0.168-0.729,0.357-1.034,0.567l-0.521-0.898
				c0.357-0.231,0.794-0.455,1.31-0.67c0.515-0.215,1.083-0.323,1.704-0.323c0.936,0,1.614,0.287,2.035,0.859
				c0.42,0.573,0.631,1.337,0.631,2.293v4.697h-1.073l-0.11-0.914h-0.032c-0.368,0.305-0.765,0.565-1.191,0.78
				c-0.426,0.215-0.875,0.323-1.349,0.323c-0.652,0-1.191-0.189-1.617-0.567C138.874,160.407,138.661,159.871,138.661,159.178z
				 M139.939,159.083c0,0.441,0.128,0.756,0.386,0.946c0.258,0.189,0.576,0.284,0.955,0.284c0.368,0,0.718-0.087,1.049-0.26
				c0.332-0.173,0.681-0.428,1.049-0.764v-2.128c-0.642,0.084-1.183,0.184-1.625,0.299c-0.441,0.116-0.796,0.252-1.065,0.41
				c-0.268,0.158-0.46,0.339-0.576,0.544C139.996,158.619,139.939,158.841,139.939,159.083z"/>
			<path fill="#FFFFFF" d="M146.532,162.629c0-0.326,0.1-0.636,0.3-0.93c0.2-0.294,0.473-0.562,0.82-0.804v-0.063
				c-0.189-0.115-0.35-0.276-0.481-0.48c-0.131-0.205-0.197-0.46-0.197-0.765c0-0.326,0.089-0.609,0.269-0.851
				c0.179-0.242,0.368-0.431,0.568-0.567v-0.063c-0.252-0.21-0.481-0.491-0.687-0.844c-0.205-0.352-0.308-0.759-0.308-1.221
				c0-0.42,0.076-0.799,0.229-1.135c0.152-0.336,0.36-0.623,0.623-0.859c0.263-0.236,0.57-0.417,0.923-0.544
				c0.352-0.126,0.723-0.189,1.112-0.189c0.21,0,0.407,0.019,0.591,0.055c0.184,0.037,0.35,0.082,0.497,0.134h2.666v0.993h-1.577
				c0.179,0.179,0.329,0.405,0.45,0.678s0.182,0.573,0.182,0.898c0,0.41-0.074,0.78-0.221,1.111s-0.347,0.609-0.6,0.835
				c-0.252,0.226-0.549,0.402-0.891,0.528c-0.342,0.126-0.708,0.189-1.096,0.189c-0.189,0-0.384-0.024-0.584-0.071
				c-0.2-0.047-0.389-0.113-0.568-0.197c-0.137,0.116-0.252,0.244-0.347,0.386c-0.094,0.142-0.142,0.318-0.142,0.528
				c0,0.242,0.095,0.441,0.284,0.599s0.547,0.236,1.073,0.236h1.483c0.894,0,1.564,0.145,2.011,0.434
				c0.447,0.289,0.67,0.754,0.67,1.395c0,0.357-0.089,0.696-0.268,1.017c-0.179,0.32-0.437,0.602-0.773,0.843
				c-0.336,0.241-0.744,0.434-1.223,0.575c-0.479,0.142-1.018,0.213-1.617,0.213c-0.474,0-0.905-0.045-1.294-0.134
				c-0.389-0.09-0.723-0.224-1.001-0.402c-0.279-0.179-0.495-0.394-0.647-0.646C146.608,163.26,146.532,162.966,146.532,162.629z
				 M147.668,162.456c0,0.41,0.197,0.735,0.592,0.977c0.394,0.242,0.938,0.363,1.632,0.363c0.368,0,0.702-0.045,1.002-0.134
				c0.3-0.09,0.555-0.205,0.765-0.347s0.373-0.307,0.489-0.497c0.116-0.189,0.174-0.383,0.174-0.583
				c0-0.357-0.132-0.604-0.395-0.741c-0.263-0.137-0.647-0.205-1.151-0.205h-1.325c-0.147,0-0.308-0.008-0.481-0.023
				c-0.173-0.016-0.344-0.05-0.513-0.103c-0.273,0.2-0.473,0.41-0.599,0.63C147.731,162.015,147.668,162.235,147.668,162.456z
				 M149.703,157.869c0.221,0,0.428-0.042,0.623-0.126c0.194-0.084,0.368-0.205,0.521-0.362c0.152-0.158,0.271-0.35,0.355-0.576
				s0.126-0.48,0.126-0.764c0-0.567-0.158-1.006-0.473-1.316s-0.699-0.465-1.151-0.465c-0.453,0-0.836,0.155-1.152,0.465
				c-0.315,0.31-0.473,0.749-0.473,1.316c0,0.284,0.042,0.539,0.126,0.764c0.084,0.226,0.203,0.418,0.355,0.576
				c0.152,0.157,0.326,0.278,0.521,0.362C149.274,157.828,149.482,157.869,149.703,157.869z"/>
			<path fill="#FFFFFF" d="M154.499,157.349c0-0.63,0.097-1.195,0.292-1.694c0.194-0.499,0.452-0.922,0.773-1.269
				c0.321-0.347,0.686-0.612,1.096-0.796c0.41-0.184,0.836-0.276,1.278-0.276c0.484,0,0.917,0.084,1.302,0.252
				c0.384,0.168,0.704,0.41,0.962,0.725c0.258,0.315,0.455,0.693,0.592,1.135c0.137,0.442,0.205,0.935,0.205,1.481
				c0,0.284-0.016,0.52-0.047,0.709h-5.174c0.053,0.83,0.308,1.487,0.765,1.97s1.054,0.725,1.791,0.725
				c0.368,0,0.707-0.055,1.018-0.166c0.31-0.11,0.607-0.255,0.891-0.434l0.458,0.851c-0.336,0.21-0.71,0.394-1.12,0.552
				c-0.41,0.158-0.878,0.236-1.404,0.236c-0.516,0-0.997-0.092-1.443-0.276c-0.447-0.184-0.836-0.446-1.167-0.788
				c-0.332-0.341-0.592-0.759-0.781-1.253C154.593,158.542,154.499,157.979,154.499,157.349z M159.862,156.766
				c0-0.788-0.166-1.39-0.497-1.805c-0.331-0.415-0.796-0.623-1.396-0.623c-0.273,0-0.534,0.055-0.781,0.166
				c-0.248,0.11-0.471,0.268-0.67,0.473c-0.2,0.205-0.366,0.457-0.497,0.756c-0.132,0.3-0.218,0.644-0.26,1.033H159.862z"/>
			<path fill="#FFFFFF" d="M162.686,159.43c0.336,0.273,0.681,0.494,1.033,0.662c0.353,0.168,0.76,0.252,1.223,0.252
				c0.505,0,0.883-0.115,1.136-0.347c0.252-0.231,0.379-0.515,0.379-0.851c0-0.2-0.053-0.373-0.158-0.52s-0.239-0.276-0.402-0.386
				c-0.163-0.11-0.35-0.208-0.56-0.292s-0.421-0.168-0.631-0.252c-0.274-0.094-0.547-0.202-0.82-0.323
				c-0.274-0.121-0.518-0.268-0.734-0.441c-0.215-0.174-0.392-0.376-0.528-0.607c-0.136-0.231-0.205-0.51-0.205-0.835
				c0-0.305,0.061-0.591,0.182-0.859s0.294-0.499,0.521-0.694c0.226-0.194,0.502-0.347,0.828-0.457
				c0.326-0.11,0.694-0.166,1.104-0.166c0.484,0,0.928,0.084,1.333,0.252c0.405,0.168,0.755,0.373,1.049,0.615L166.819,155
				c-0.263-0.199-0.537-0.362-0.82-0.489c-0.284-0.126-0.594-0.189-0.931-0.189c-0.484,0-0.839,0.11-1.065,0.331
				c-0.226,0.221-0.339,0.479-0.339,0.772c0,0.179,0.047,0.333,0.142,0.465c0.095,0.132,0.221,0.247,0.378,0.347
				c0.158,0.1,0.339,0.189,0.544,0.268s0.418,0.16,0.639,0.244c0.273,0.105,0.549,0.216,0.828,0.331
				c0.278,0.116,0.528,0.26,0.749,0.434c0.221,0.173,0.402,0.386,0.544,0.638c0.142,0.252,0.213,0.557,0.213,0.915
				c0,0.315-0.061,0.609-0.181,0.882c-0.121,0.273-0.3,0.515-0.537,0.725s-0.531,0.376-0.883,0.497
				c-0.353,0.121-0.755,0.181-1.207,0.181c-0.547,0-1.067-0.1-1.562-0.299c-0.495-0.2-0.926-0.452-1.293-0.756L162.686,159.43z"/>
		</g>
	</g>
	<g id="Status_Bar_7_">
		<g id="Signal_13_">
			<g>
				<path fill="#C7DADE" d="M108.112,123.203c-1.431,0-2.591,1.143-2.591,2.549c0,1.407,1.16,2.55,2.591,2.55
					c1.43,0,2.589-1.143,2.589-2.55C110.702,124.345,109.542,123.203,108.112,123.203z M108.112,126.911
					c-0.661,0-1.199-0.52-1.199-1.159s0.538-1.159,1.199-1.159c0.66,0,1.198,0.52,1.198,1.159S108.772,126.911,108.112,126.911z
					 M114.719,123.203c-1.431,0-2.59,1.143-2.59,2.549c0,1.407,1.16,2.55,2.59,2.55c1.43,0,2.59-1.143,2.59-2.55
					C117.31,124.345,116.15,123.203,114.719,123.203z M114.719,126.911c-0.661,0-1.198-0.52-1.198-1.159s0.538-1.159,1.198-1.159
					c0.66,0,1.198,0.52,1.198,1.159S115.38,126.911,114.719,126.911z M94.949,123.203c-1.43,0-2.59,1.143-2.59,2.549
					c0,1.407,1.16,2.55,2.59,2.55c1.431,0,2.591-1.143,2.591-2.55C97.54,124.345,96.38,123.203,94.949,123.203z M101.556,123.203
					c-1.431,0-2.59,1.143-2.59,2.549c0,1.407,1.159,2.55,2.59,2.55c1.431,0,2.59-1.143,2.59-2.55
					C104.146,124.345,102.987,123.203,101.556,123.203z M88.325,123.203c-1.431,0-2.59,1.143-2.59,2.549
					c0,1.407,1.159,2.55,2.59,2.55c1.431,0,2.59-1.143,2.59-2.55C90.915,124.345,89.756,123.203,88.325,123.203z"/>
			</g>
		</g>
		<rect id="Time_7_" x="210.116" y="124.147" fill="#C7DADE" width="37.12" height="3.709"/>
		<g id="Battery_13_">
			<g>
				<path fill="#C7DADE" d="M367.813,121.344h-13.895c-1.021,0-1.85,0.823-1.85,1.854v5.562c0,1.023,0.824,1.854,1.85,1.854h13.895
					c1.021,0,1.85-0.824,1.85-1.854v-5.562C369.663,122.175,368.838,121.344,367.813,121.344z M368.271,128.762
					c0,0.259-0.201,0.463-0.457,0.463h-13.895c-0.252,0-0.458-0.208-0.458-0.463v-5.563c0-0.26,0.202-0.464,0.458-0.464h13.895
					c0.252,0,0.457,0.208,0.457,0.464V128.762z M354.884,127.532h6.686v-3.385h-6.686V127.532z M370.167,124.147v3.546
					c0.803-0.125,1.42-0.87,1.42-1.773C371.587,125.019,370.97,124.272,370.167,124.147z"/>
			</g>
		</g>
	</g>
	<g>
		<g>
			<path fill="#BBBBBB" d="M333.392,47h-47.058c-2.395,0-4.334,2.001-4.334,4.47c0,2.469,1.941,4.469,4.334,4.469h47.058
				c2.394,0,4.334-2,4.334-4.469C337.726,49.001,335.785,47,333.392,47z M66.724,146.719h5.03c1.389,0,2.515-1.039,2.515-2.321
				v-24.38c0-1.283-1.126-2.322-2.515-2.322h-5.03c-1.388-0.001-2.514,1.038-2.514,2.321v24.38
				C64.21,145.68,65.336,146.719,66.724,146.719z M75.969,181.549h-9.394c-1.297,0-2.349,1.04-2.349,2.322v17.414
				c0,1.283,1.052,2.322,2.349,2.322h9.394c1.297,0,2.349-1.039,2.349-2.322v-17.414C78.317,182.588,77.266,181.549,75.969,181.549z
				 M75.969,238.779h-9.394c-1.297,0-2.349,1.04-2.349,2.322v17.416c0,1.281,1.052,2.321,2.349,2.321h9.394
				c1.297,0,2.349-1.04,2.349-2.321v-17.416C78.317,239.818,77.266,238.779,75.969,238.779z"/>
		</g>
	</g>
	<path fill="#FFFFFF" d="M341.46,49.667H116.541c-27.245,0-49.331,21.094-49.331,47.116v570.102
		c0,26.021,22.086,47.115,49.331,47.115H341.46c27.244,0,49.33-21.095,49.33-47.115V96.783
		C390.79,70.761,368.704,49.667,341.46,49.667z M377.043,644.165H80.71v-526h296.333V644.165z"/>
	<path fill="#BBBBBB" d="M229.73,66.292c4.127,0,7.475,3.137,7.475,7.007c0,3.869-3.346,7.006-7.475,7.006
		c-4.127,0-7.473-3.137-7.473-7.006C222.257,69.429,225.603,66.292,229.73,66.292z"/>
	<path fill="#BBBBBB" d="M201.354,92.691h54.884c2.302,0,4.166,1.755,4.166,3.92s-1.865,3.919-4.166,3.919h-54.884
		c-2.302,0-4.168-1.755-4.168-3.919C197.186,94.446,199.052,92.691,201.354,92.691z"/>
	<g>
		<path fill="#BBBBBB" d="M228.923,660.019c12.026,0,21.81,9.048,21.81,20.169c0,11.12-9.783,20.168-21.81,20.168
			c-12.026,0-21.81-9.048-21.81-20.168C207.113,669.066,216.898,660.019,228.923,660.019 M228.923,657.519
			c-13.426,0-24.31,10.149-24.31,22.669c0,12.519,10.884,22.668,24.31,22.668c13.427,0,24.31-10.149,24.31-22.668
			C253.232,667.668,242.35,657.519,228.923,657.519L228.923,657.519z"/>
	</g>
</g>
</svg>
