<?xml version="1.0" encoding="utf-8"?>
<!DOCTYPE svg PUBLIC "-//W3C//DTD SVG 1.1//EN" "http://www.w3.org/Graphics/SVG/1.1/DTD/svg11.dtd">
<svg version="1.1" id="Layer_1" xmlns="http://www.w3.org/2000/svg" xmlns:xlink="http://www.w3.org/1999/xlink" x="0px" y="0px" width="270px" height="91px" viewBox="0 0 270 91" xml:space="preserve">
	<polyline fill="#003368" points="88.631,68.222 119.115,58.337 88.631,20.22 11.276,17.284 70.213,29.03 85.784,69.641 119.115,58.337"></polyline>
	<path fill="#ffffff" d="M164.103,58.191l0.505,3.464l0.738-3.121l5.185-18.33h2.915l5.059,18.33l0.72,3.175l0.558-3.536 l4.068-17.968h3.474l-6.354,26.267h-3.15l-5.4-19.141l-0.413-2.002l-0.414,2.002l-5.599,19.141h-3.149l-6.337-26.267h3.456 L164.103,58.191z"></path>
	<path fill="#ffffff" d="M194.866,66.472h-3.456V40.205h3.456V66.472z"></path>
	<path fill="#ffffff" d="M221.326,66.472h-3.474L204.658,46.23v20.241h-3.474V40.205h3.474l13.23,20.332V40.205h3.438V66.472z"></path>
	<path fill="#ffffff" d="M246.653,63.351c-0.768,1.095-1.972,1.949-3.609,2.562s-3.471,0.92-5.499,0.92 c-2.052,0-3.876-0.493-5.472-1.479c-1.597-0.986-2.833-2.382-3.708-4.186c-0.876-1.804-1.32-3.873-1.333-6.206v-3.319 c0-3.645,0.919-6.521,2.755-8.633c1.835-2.11,4.302-3.166,7.398-3.166c2.699,0,4.871,0.688,6.516,2.065 c1.644,1.377,2.622,3.275,2.935,5.692h-2.215c-0.323-1.931-1.106-3.393-2.349-4.389c-1.242-0.995-2.865-1.493-4.869-1.493 c-2.448,0-4.387,0.873-5.814,2.618c-1.428,1.746-2.142,4.207-2.142,7.385v3.105c0,1.998,0.339,3.764,1.017,5.299 c0.679,1.535,1.649,2.724,2.917,3.566c1.266,0.843,2.721,1.264,4.364,1.264c1.908,0,3.547-0.3,4.914-0.902 c0.889-0.397,1.549-0.86,1.979-1.389v-6.783h-7.037v-1.877h9.252V63.351z"></path>
	<path fill="#ffffff" d="M267.769,60.013c0-1.455-0.511-2.607-1.531-3.455c-1.02-0.848-2.886-1.654-5.597-2.417 c-2.712-0.764-4.692-1.597-5.941-2.499c-1.775-1.275-2.664-2.947-2.664-5.016c0-2.008,0.825-3.641,2.476-4.898 c1.65-1.256,3.759-1.885,6.327-1.885c1.739,0,3.297,0.336,4.671,1.01s2.439,1.612,3.195,2.814s1.134,2.544,1.134,4.023h-2.231 c0-1.797-0.612-3.242-1.836-4.333c-1.225-1.092-2.869-1.638-4.933-1.638c-2.004,0-3.601,0.449-4.788,1.347 c-1.188,0.897-1.781,2.069-1.781,3.514c0,1.338,0.533,2.428,1.602,3.271s2.777,1.587,5.13,2.232 c2.352,0.644,4.134,1.312,5.347,2.004c1.211,0.691,2.123,1.519,2.735,2.48c0.612,0.962,0.918,2.099,0.918,3.409 c0,2.069-0.825,3.729-2.475,4.979c-1.65,1.251-3.825,1.876-6.525,1.876c-1.848,0-3.544-0.331-5.085-0.993 c-1.543-0.661-2.712-1.587-3.511-2.777c-0.798-1.191-1.196-2.556-1.196-4.095h2.214c0,1.852,0.689,3.313,2.069,4.383 c1.38,1.071,3.217,1.605,5.509,1.605c2.04,0,3.678-0.451,4.914-1.353S267.769,61.505,267.769,60.013z"></path>
	<polygon fill="#92F1FF" points="18.488,91 151.479,14.115 163.037,33.236 147.855,30.094 147.411,49.905"></polygon>
	<polyline fill="#58B5EF" points="98.21,64.671 136.913,53.251 98.21,3.729 0,0 74.827,14.914 95.128,66.472 136.913,52.121"></polyline>
</svg>
