<?xml version="1.0" encoding="utf-8"?>
<!-- Generator: Adobe Illustrator 19.2.1, SVG Export Plug-In . SVG Version: 6.00 Build 0)  -->
<svg version="1.1" id="Layer_1" xmlns="http://www.w3.org/2000/svg" xmlns:xlink="http://www.w3.org/1999/xlink" x="0px" y="0px"
	 viewBox="0 0 115.9 115.2" style="enable-background:new 0 0 115.9 115.2;" xml:space="preserve">
<style type="text/css">
	.st0{fill:#3F92D3;}
</style>
<title>slack</title>
<path class="st0" d="M9.9,61c-4.2,0.1-8-2.6-9.3-6.6c-0.1-0.2-0.1-0.3-0.1-0.5c-1.5-5.2,1.4-10.6,6.5-12.3l82-27.5
	c1-0.3,2-0.4,3-0.4c4.3-0.1,8.2,2.6,9.6,6.7l0.1,0.4c1.5,5.4-2.3,10.2-6.9,11.7L13.2,60.4C12.1,60.8,11,61,9.9,61L9.9,61z"/>
<path class="st0" d="M23.5,101.3c-4.2,0.1-8-2.5-9.4-6.5c-0.1-0.1-0.1-0.3-0.1-0.5c-1.5-5.2,1.3-10.7,6.5-12.4l82-27.7
	c1.1-0.4,2.2-0.5,3.3-0.6c4.3-0.1,8.1,2.6,9.6,6.6l0.1,0.4c0.8,2.8,0.3,5.9-1.2,8.3c-1.2,1.8-4.9,3.4-4.9,3.4L27,100.7
	C25.9,101.1,24.7,101.3,23.5,101.3L23.5,101.3L23.5,101.3z"/>
<path class="st0" d="M91.9,101.5c-4.4,0-8.3-2.7-9.6-6.9L54.8,13.3l-0.1-0.5C53,7.5,56,1.9,61.3,0.2c5.3-1.7,11,1.3,12.6,6.6
	l27.4,81.3l0.1,0.3c1.6,5.3-1.4,11-6.7,12.6C93.7,101.3,92.8,101.4,91.9,101.5L91.9,101.5L91.9,101.5z"/>
<path class="st0" d="M51.1,115.2c-4.4,0-8.3-2.7-9.6-6.9L14.1,27L14,26.5c-1.5-5.2,1.4-10.6,6.5-12.3c1-0.3,2.1-0.5,3.1-0.5
	c4.4,0,8.3,2.7,9.6,6.9l27.4,81.3c0.1,0.1,0.1,0.3,0.1,0.4c1.5,5.4-1.6,10.9-6.9,12.5C53,115,52,115.2,51.1,115.2L51.1,115.2
	L51.1,115.2z"/>
</svg>
