<svg id="Layer_1" data-name="Layer 1" xmlns="http://www.w3.org/2000/svg" viewBox="0 0 115.87 115.19"><defs><style>.cls-1{fill:#9aa4a6;}</style></defs><title>slack</title><path class="cls-1" d="M201,78a9.58,9.58,0,0,1-9.34-6.56c-0.05-.16-0.1-0.31-0.14-0.46A10,10,0,0,1,198,58.71l82-27.48a11.12,11.12,0,0,1,3-.44,9.83,9.83,0,0,1,9.58,6.7l0.12,0.4c1.53,5.36-2.28,10.15-6.85,11.69L204.34,77.43A10.62,10.62,0,0,1,201,78h0Z" transform="translate(-191.14 -17.02)"/><path class="cls-1" d="M214.68,118.34a9.57,9.57,0,0,1-9.37-6.47c-0.05-.15-0.1-0.3-0.14-0.46A10.11,10.11,0,0,1,211.66,99l82-27.73a10.56,10.56,0,0,1,3.26-.55,9.91,9.91,0,0,1,9.56,6.64l0.13,0.42a10.38,10.38,0,0,1-1.25,8.34c-1.17,1.83-4.88,3.44-4.88,3.44l-82.34,28.15a11.3,11.3,0,0,1-3.48.6h0Z" transform="translate(-191.14 -17.02)"/><path class="cls-1" d="M283,118.51a10.07,10.07,0,0,1-9.64-6.86L245.94,30.33l-0.14-.46a10.08,10.08,0,0,1,19.26-6l27.37,81.31,0.08,0.26a10.08,10.08,0,0,1-9.55,13h0Z" transform="translate(-191.14 -17.02)"/><path class="cls-1" d="M242.27,132.21a10.07,10.07,0,0,1-9.65-6.87L205.25,44l-0.14-.45a10.07,10.07,0,0,1,6.48-12.32,10.2,10.2,0,0,1,3.14-.53,10.07,10.07,0,0,1,9.65,6.86l27.37,81.32c0.05,0.14.1,0.3,0.14,0.45a10.08,10.08,0,0,1-9.61,12.85h0Z" transform="translate(-191.14 -17.02)"/></svg>