<svg style="position: absolute" xmlns="http://www.w3.org/2000/svg" xmlns:xlink="http://www.w3.org/1999/xlink" preserveAspectRatio="xMinYMin meet">
	<symbol id="logo" viewBox="0 0 270 91">
		<polyline fill="#003368" points="88.631,68.222 119.115,58.337 88.631,20.22 11.276,17.284 70.213,29.03 85.784,69.641 119.115,58.337"></polyline>
		<path fill="#FFFFFF" d="M164.103,58.191l0.505,3.464l0.738-3.121l5.185-18.33h2.915l5.059,18.33l0.72,3.175l0.558-3.536 l4.068-17.968h3.474l-6.354,26.267h-3.15l-5.4-19.141l-0.413-2.002l-0.414,2.002l-5.599,19.141h-3.149l-6.337-26.267h3.456 L164.103,58.191z"></path>
		<path fill="#FFFFFF" d="M194.866,66.472h-3.456V40.205h3.456V66.472z"></path>
		<path fill="#FFFFFF" d="M221.326,66.472h-3.474L204.658,46.23v20.241h-3.474V40.205h3.474l13.23,20.332V40.205h3.438V66.472z"></path>
		<path fill="#FFFFFF" d="M246.653,63.351c-0.768,1.095-1.972,1.949-3.609,2.562s-3.471,0.92-5.499,0.92 c-2.052,0-3.876-0.493-5.472-1.479c-1.597-0.986-2.833-2.382-3.708-4.186c-0.876-1.804-1.32-3.873-1.333-6.206v-3.319 c0-3.645,0.919-6.521,2.755-8.633c1.835-2.11,4.302-3.166,7.398-3.166c2.699,0,4.871,0.688,6.516,2.065 c1.644,1.377,2.622,3.275,2.935,5.692h-2.215c-0.323-1.931-1.106-3.393-2.349-4.389c-1.242-0.995-2.865-1.493-4.869-1.493 c-2.448,0-4.387,0.873-5.814,2.618c-1.428,1.746-2.142,4.207-2.142,7.385v3.105c0,1.998,0.339,3.764,1.017,5.299 c0.679,1.535,1.649,2.724,2.917,3.566c1.266,0.843,2.721,1.264,4.364,1.264c1.908,0,3.547-0.3,4.914-0.902 c0.889-0.397,1.549-0.86,1.979-1.389v-6.783h-7.037v-1.877h9.252V63.351z"></path>
		<path fill="#FFFFFF" d="M267.769,60.013c0-1.455-0.511-2.607-1.531-3.455c-1.02-0.848-2.886-1.654-5.597-2.417 c-2.712-0.764-4.692-1.597-5.941-2.499c-1.775-1.275-2.664-2.947-2.664-5.016c0-2.008,0.825-3.641,2.476-4.898 c1.65-1.256,3.759-1.885,6.327-1.885c1.739,0,3.297,0.336,4.671,1.01s2.439,1.612,3.195,2.814s1.134,2.544,1.134,4.023h-2.231 c0-1.797-0.612-3.242-1.836-4.333c-1.225-1.092-2.869-1.638-4.933-1.638c-2.004,0-3.601,0.449-4.788,1.347 c-1.188,0.897-1.781,2.069-1.781,3.514c0,1.338,0.533,2.428,1.602,3.271s2.777,1.587,5.13,2.232 c2.352,0.644,4.134,1.312,5.347,2.004c1.211,0.691,2.123,1.519,2.735,2.48c0.612,0.962,0.918,2.099,0.918,3.409 c0,2.069-0.825,3.729-2.475,4.979c-1.65,1.251-3.825,1.876-6.525,1.876c-1.848,0-3.544-0.331-5.085-0.993 c-1.543-0.661-2.712-1.587-3.511-2.777c-0.798-1.191-1.196-2.556-1.196-4.095h2.214c0,1.852,0.689,3.313,2.069,4.383 c1.38,1.071,3.217,1.605,5.509,1.605c2.04,0,3.678-0.451,4.914-1.353S267.769,61.505,267.769,60.013z"></path>
		<polygon fill="#92F1FF" points="18.488,91 151.479,14.115 163.037,33.236 147.855,30.094 147.411,49.905"></polygon>
		<polyline fill="#58B5EF" points="98.21,64.671 136.913,53.251 98.21,3.729 0,0 74.827,14.914 95.128,66.472 136.913,52.121"></polyline>
	</symbol>
	<symbol id="logo-gray" viewBox="0 0 270 91">
		<polyline fill="#59676b" points="88.631,68.222 119.115,58.337 88.631,20.22 11.276,17.284 70.213,29.03 85.784,69.641 119.115,58.337"></polyline>
		<path fill="#FFFFFF" d="M164.103,58.191l0.505,3.464l0.738-3.121l5.185-18.33h2.915l5.059,18.33l0.72,3.175l0.558-3.536 l4.068-17.968h3.474l-6.354,26.267h-3.15l-5.4-19.141l-0.413-2.002l-0.414,2.002l-5.599,19.141h-3.149l-6.337-26.267h3.456 L164.103,58.191z"></path>
		<path fill="#FFFFFF" d="M194.866,66.472h-3.456V40.205h3.456V66.472z"></path>
		<path fill="#FFFFFF" d="M221.326,66.472h-3.474L204.658,46.23v20.241h-3.474V40.205h3.474l13.23,20.332V40.205h3.438V66.472z"></path>
		<path fill="#FFFFFF" d="M246.653,63.351c-0.768,1.095-1.972,1.949-3.609,2.562s-3.471,0.92-5.499,0.92 c-2.052,0-3.876-0.493-5.472-1.479c-1.597-0.986-2.833-2.382-3.708-4.186c-0.876-1.804-1.32-3.873-1.333-6.206v-3.319 c0-3.645,0.919-6.521,2.755-8.633c1.835-2.11,4.302-3.166,7.398-3.166c2.699,0,4.871,0.688,6.516,2.065 c1.644,1.377,2.622,3.275,2.935,5.692h-2.215c-0.323-1.931-1.106-3.393-2.349-4.389c-1.242-0.995-2.865-1.493-4.869-1.493 c-2.448,0-4.387,0.873-5.814,2.618c-1.428,1.746-2.142,4.207-2.142,7.385v3.105c0,1.998,0.339,3.764,1.017,5.299 c0.679,1.535,1.649,2.724,2.917,3.566c1.266,0.843,2.721,1.264,4.364,1.264c1.908,0,3.547-0.3,4.914-0.902 c0.889-0.397,1.549-0.86,1.979-1.389v-6.783h-7.037v-1.877h9.252V63.351z"></path>
		<path fill="#FFFFFF" d="M267.769,60.013c0-1.455-0.511-2.607-1.531-3.455c-1.02-0.848-2.886-1.654-5.597-2.417 c-2.712-0.764-4.692-1.597-5.941-2.499c-1.775-1.275-2.664-2.947-2.664-5.016c0-2.008,0.825-3.641,2.476-4.898 c1.65-1.256,3.759-1.885,6.327-1.885c1.739,0,3.297,0.336,4.671,1.01s2.439,1.612,3.195,2.814s1.134,2.544,1.134,4.023h-2.231 c0-1.797-0.612-3.242-1.836-4.333c-1.225-1.092-2.869-1.638-4.933-1.638c-2.004,0-3.601,0.449-4.788,1.347 c-1.188,0.897-1.781,2.069-1.781,3.514c0,1.338,0.533,2.428,1.602,3.271s2.777,1.587,5.13,2.232 c2.352,0.644,4.134,1.312,5.347,2.004c1.211,0.691,2.123,1.519,2.735,2.48c0.612,0.962,0.918,2.099,0.918,3.409 c0,2.069-0.825,3.729-2.475,4.979c-1.65,1.251-3.825,1.876-6.525,1.876c-1.848,0-3.544-0.331-5.085-0.993 c-1.543-0.661-2.712-1.587-3.511-2.777c-0.798-1.191-1.196-2.556-1.196-4.095h2.214c0,1.852,0.689,3.313,2.069,4.383 c1.38,1.071,3.217,1.605,5.509,1.605c2.04,0,3.678-0.451,4.914-1.353S267.769,61.505,267.769,60.013z"></path>
		<polygon fill="#b9c5cb" points="18.488,91 151.479,14.115 163.037,33.236 147.855,30.094 147.411,49.905"></polygon>
		<polyline fill="#9ea8ad" points="98.21,64.671 136.913,53.251 98.21,3.729 0,0 74.827,14.914 95.128,66.472 136.913,52.121"></polyline>
	</symbol>
	<symbol id="icon-twitter" viewBox="0 0 128 128">
		<path d="M109.244,18.756C96.74,6.252,81.659,0,64,0C46.34,0,31.259,6.252,18.755,18.756 c-1.205,1.206-2.357,2.413-3.455,3.673C5.1,34.167,0,48.041,0,63.999c0,15.961,5.1,29.834,15.3,41.57 c1.098,1.261,2.25,2.468,3.455,3.674C31.259,121.747,46.34,128,64,128c17.659,0,32.74-6.253,45.244-18.757 C121.748,96.738,128,81.658,128,63.999C128,46.341,121.748,31.26,109.244,18.756z M96.026,50.344 c0.056,1.207,0.111,2.413,0.111,3.675c0,11.9-4.224,22.102-12.669,30.49c-7.843,7.844-17.276,12.012-28.353,12.615l-2.084,0.054 c-8.172,0-15.575-1.973-22.101-5.978c7.074,0.111,13.38-2.083,18.92-6.525c-7.898-1.314-13.382-5.046-16.397-11.243 c2.851,1.537,5.922,1.591,9.158,0.165c-6.911-2.687-10.915-6.964-12.065-12.833c-0.164-0.823-0.274-1.699-0.329-2.632 c0.055,0.054,0.109,0.054,0.165,0.109c1.865,1.151,3.948,1.7,6.252,1.646c-6.088-6.416-7.514-13.326-4.169-20.784 c8.775,10.583,19.524,15.793,32.247,15.629c-0.219-1.097-0.329-2.193-0.329-3.346c-0.054-4.331,1.48-8.006,4.553-11.022 c3.015-3.07,6.689-4.606,11.022-4.552c4.334-0.054,8.008,1.482,11.022,4.552c0.22,0.22,0.438,0.438,0.658,0.658 c0.823-0.11,1.7-0.274,2.523-0.438c2.414-0.714,4.716-1.372,6.965-2.084c-1.426,2.084-3.344,4.333-5.759,6.8 c2.797-0.054,5.375-0.658,7.788-1.809C101.072,46.561,98.715,48.863,96.026,50.344z"></path>
	</symbol>
	<symbol id="icon-facebook" viewBox="0 0 128 128">
		<path d="M109.244,18.756c-1.481-1.48-2.962-2.797-4.442-4.058 C93.23,4.881,79.63,0,63.999,0c-17.658,0-32.74,6.252-45.243,18.756C6.252,31.26,0,46.34,0,64c0,17.659,6.252,32.741,18.755,45.245 C31.259,121.748,46.341,128,63.999,128c15.631,0,29.231-4.881,40.803-14.645c1.48-1.26,2.961-2.633,4.442-4.111 C121.748,96.74,128,81.658,128,64C128,46.34,121.748,31.26,109.244,18.756z M69.05,53.874c3.129-0.04,6.258-0.015,9.595-0.015 c-0.097,1.483-0.168,2.862-0.276,4.237c-0.153,1.928-0.35,3.852-0.506,5.779c-0.162,2.021-0.184,2.052-2.175,2.056 c-2.164,0.002-4.33,0.053-6.488-0.021c-1.121-0.039-1.407,0.359-1.403,1.441c0.034,10.68,0.021,21.361,0.021,32.045 c0,1.811-0.003,1.814-1.796,1.814c-3.532,0.002-7.063,0.002-10.595,0c-2.053,0-2.056,0-2.056-2.002 c-0.002-10.461,0-20.922-0.002-31.383c0-1.838-0.002-1.84-1.889-1.84c-1.711,0-3.422,0-5.25,0c0-4.147,0-8.056,0-12.127 c2.005,0,3.935-0.049,5.86,0.02c0.993,0.033,1.29-0.305,1.294-1.285c0.013-3.348,0.013-6.702,0.205-10.043 c0.351-6.064,3.645-10.184,9.623-11.045c4.808-0.692,9.745-0.494,14.626-0.628c0.271-0.008,0.798,0.561,0.804,0.866 c0.058,3.574,0.021,7.15,0.048,10.726c0.008,0.889-0.479,0.994-1.179,0.989c-2.251-0.014-4.501-0.015-6.753,0.002 c-2.06,0.017-2.896,0.825-2.93,2.884c-0.036,2.118,0.033,4.238-0.026,6.355C67.771,53.671,68.167,53.885,69.05,53.874z"></path>
	</symbol>
	<symbol id="icon-bitcoin" viewBox="0 0 128 128">
		<path d="M78.112,50.43c-3.453-2.927-7.763-3.756-12.139-4.644c-1.1,4.443-2.133,8.612-3.366,13.584 c4.137,0.45,7.854,1.077,11.586,1.184c2.569,0.073,4.574-1.313,5.528-3.946C80.615,54.133,79.953,51.992,78.112,50.43z"></path>
		<path d="M75.596,71.616c-4.229-3.416-9.396-4.293-14.704-5.509c-1.23,4.96-2.4,9.679-3.597,14.49 c2.059,0.524,3.721,1.158,5.433,1.342c3.218,0.346,6.473,0.681,9.695,0.549c2.59-0.105,4.541-1.692,5.258-4.339 C78.378,75.566,77.687,73.308,75.596,71.616z"></path>
		<path d="M109.244,18.756C96.741,6.252,81.661,0,64,0S31.263,6.252,18.756,18.756C6.255,31.26,0,46.34,0,64 c0,17.659,6.255,32.74,18.756,45.244C31.263,121.746,46.339,128,64,128c9.709,0,18.592-1.864,26.762-5.648 c2.196-1.043,4.333-2.193,6.472-3.51c4.223-2.634,8.228-5.814,12.011-9.598C121.75,96.74,128,81.659,128,64 C128,46.34,121.75,31.26,109.244,18.756z M86.083,66.873c4.815,2.791,6.927,6.97,5.948,12.434 c-1.074,6.013-3.728,11.216-10.145,12.728c-3.599,0.848-7.501,0.416-11.27,0.483c-1.042,0.018-2.089-0.241-3.365-0.403 c-0.975,3.736-1.922,7.356-2.9,11.093c-2.422-0.594-4.603-1.133-7.021-1.727c0.894-3.691,1.758-7.26,2.689-11.104 c-1.65-0.385-3.235-0.757-5.038-1.175c-0.933,3.649-1.824,7.144-2.803,10.965c-2.357-0.567-4.59-1.103-7.055-1.695 c0.907-3.776,1.768-7.352,2.698-11.231c-4.466-1.167-8.886-2.321-13.601-3.552c1.225-2.8,2.328-5.328,3.471-7.947 c1.731,0.428,3.254,0.833,4.791,1.174c1.804,0.399,2.952-0.347,3.397-2.128c2.419-9.709,4.854-19.414,7.222-29.135 c0.48-1.971-0.328-3.437-2.33-4.066c-1.726-0.543-3.474-1.018-5.511-1.61c0.551-2.355,1.09-4.67,1.719-7.363 c1.415,0.288,2.721,0.512,4.007,0.825c2.651,0.645,5.299,1.309,7.931,2.022c1.269,0.344,1.909,0.105,2.224-1.333 c0.656-3.021,1.525-5.995,2.396-9.334c2.362,0.601,4.587,1.167,7.018,1.787c-0.88,3.637-1.712,7.075-2.605,10.763 c1.587,0.409,3.161,0.814,5.002,1.289c0.952-3.672,1.854-7.152,2.784-10.753c2.37,0.562,4.554,1.081,7.009,1.664 c-0.732,3.088-1.295,6.051-2.164,8.923c-0.5,1.654-0.244,2.38,1.431,3.031c4.129,1.608,8.093,3.565,10.366,7.711 c3.333,6.075,0.457,14.125-5.948,16.721c-0.278,0.111-0.533,0.277-0.982,0.517C85.723,66.631,85.896,66.764,86.083,66.873z"></path>
	</symbol>
	<symbol id="icon-hashtag" viewBox="0 0 128 128">
		<path d="M54.544,59.187c1.545,4.648,3.046,9.165,4.6,13.839 c4.711-1.534,9.292-3.029,13.917-4.537c-1.562-4.702-3.079-9.272-4.61-13.882C63.729,56.162,59.155,57.668,54.544,59.187z"></path>
		<path d="M109.244,18.756C96.741,6.252,81.661,0,64,0C46.339,0,31.263,6.252,18.756,18.756 C6.255,31.26,0,46.34,0,64.001c0,17.657,6.255,32.74,18.756,45.243C31.263,121.748,46.339,128,64,128 c9.709,0,18.592-1.865,26.762-5.65c2.196-1.041,4.333-2.193,6.472-3.508c4.223-2.633,8.228-5.815,12.011-9.598 C121.75,96.741,128,81.658,128,64.001C128,46.34,121.75,31.26,109.244,18.756z M101.484,69.271 c-0.396,2.603-2.213,3.912-4.497,4.707c-2.403,0.835-4.828,1.604-7.379,2.446c0.452,1.396,0.886,2.716,1.309,4.039 c0.429,1.336,0.958,2.65,1.245,4.019c0.733,3.482-1.273,6.692-4.657,7.622c-3.344,0.921-6.778-0.836-7.972-4.146 c-0.789-2.19-1.479-4.416-2.216-6.624c-0.07-0.206-0.154-0.407-0.29-0.764c-4.604,1.515-9.178,3.019-13.861,4.56 c0.8,2.428,1.593,4.758,2.337,7.104c1.244,3.927-0.811,7.547-4.808,8.524c-3.167,0.773-6.528-1.064-7.636-4.227 c-0.826-2.366-1.588-4.757-2.423-7.26c-2.497,0.81-4.833,1.622-7.201,2.322c-4.003,1.186-7.693-1.136-8.351-5.189 c-0.48-2.956,1.494-6.01,4.572-7.039c2.032-0.678,4.075-1.328,6.112-1.994c0.244-0.08,0.479-0.18,0.814-0.306 c-0.755-2.302-1.497-4.57-2.249-6.836c-0.757-2.277-1.522-4.552-2.315-6.918c-2.389,0.777-4.727,1.563-7.077,2.3 c-3.619,1.135-7.135-0.602-8.22-4.021c-1.062-3.355,0.669-6.85,4.061-8.04c2.333-0.819,4.701-1.536,7.185-2.341 c-0.351-1.124-0.677-2.202-1.024-3.275c-0.421-1.301-0.889-2.586-1.285-3.895c-1.024-3.405,0.758-6.899,4.084-8.054 c3.361-1.167,7.067,0.468,8.327,3.775c0.829,2.174,1.494,4.408,2.234,6.615c0.069,0.208,0.15,0.412,0.278,0.762 c4.604-1.484,9.185-2.96,13.9-4.478c-0.76-2.292-1.489-4.488-2.216-6.686c-0.591-1.791-0.654-3.572,0.238-5.283 c1.356-2.606,3.573-3.825,6.463-3.604c2.71,0.207,4.65,1.654,5.607,4.22c0.777,2.076,1.423,4.201,2.13,6.302 c0.104,0.31,0.233,0.612,0.371,0.973c2.373-0.756,4.684-1.508,7.003-2.229c2.968-0.921,5.957,0.029,7.613,2.391 c2.318,3.31,0.862,7.602-3.212,9.222c-1.921,0.763-3.92,1.328-5.882,1.984c-0.519,0.173-1.036,0.353-1.614,0.549 c1.545,4.661,3.064,9.245,4.609,13.908c2.433-0.794,4.779-1.574,7.137-2.323c2.205-0.701,4.333-0.528,6.246,0.835 C101.164,64.48,101.879,66.685,101.484,69.271z"></path>
	</symbol>
	<symbol id="icon-reddit" viewBox="0 0 128 128">
		<path d="M122.927,39.141C126.308,47.047,128,55.333,128,64c0,8.667-1.692,16.953-5.073,24.854 c-3.38,7.906-7.927,14.719-13.641,20.432c-5.713,5.714-12.525,10.261-20.427,13.641C80.953,126.308,72.667,128,64,128 c-8.667,0-16.953-1.692-24.859-5.073c-7.901-3.38-14.713-7.927-20.427-13.641C13,103.573,8.453,96.761,5.073,88.854 C1.688,80.953,0,72.667,0,64c0-8.667,1.688-16.953,5.073-24.859C8.453,31.24,13,24.427,18.713,18.713 C24.427,13,31.24,8.453,39.141,5.073C47.047,1.693,55.333,0,64,0c8.667,0,16.953,1.693,24.859,5.073 c7.901,3.38,14.714,7.927,20.427,13.641C115,24.427,119.547,31.24,122.927,39.141z M102.427,61.854c0-2.328-0.833-4.328-2.5-6 c-1.666-1.661-3.688-2.5-6.067-2.5c-2.386,0-4.433,0.859-6.146,2.573c-6.193-4.287-13.594-6.573-22.214-6.854L70,28.854 l14.286,3.219c0,1.761,0.62,3.261,1.854,4.5c1.239,1.234,2.739,1.854,4.5,1.854c1.766,0,3.276-0.63,4.536-1.891 c1.261-1.261,1.896-2.776,1.896-4.537s-0.636-3.276-1.896-4.537c-1.26-1.26-2.771-1.891-4.536-1.891 c-2.567,0-4.474,1.188-5.714,3.568l-15.786-3.5c-0.901-0.234-1.5,0.146-1.781,1.146l-4.932,22.286 C53.859,49.406,46.5,51.713,40.359,56c-1.672-1.76-3.74-2.646-6.219-2.646c-2.38,0-4.401,0.839-6.068,2.5 c-1.667,1.672-2.5,3.672-2.5,6c0,1.672,0.438,3.193,1.318,4.573c0.88,1.381,2.062,2.428,3.537,3.146 c-0.287,1.281-0.427,2.619-0.427,4c0,6.76,3.333,12.547,10,17.354c6.667,4.812,14.688,7.214,24.073,7.214 c9.427,0,17.474-2.401,24.141-7.214c6.666-4.807,10-10.594,10-17.354c0-1.526-0.167-2.881-0.5-4.073 c1.427-0.714,2.572-1.75,3.427-3.109C102,65.036,102.427,63.526,102.427,61.854z M54.427,65.891 c1.239,1.266,1.859,2.776,1.859,4.536c0,1.766-0.62,3.266-1.859,4.5c-1.24,1.24-2.74,1.859-4.5,1.859 c-1.761,0-3.271-0.619-4.537-1.859c-1.26-1.234-1.891-2.734-1.891-4.5c0-1.807,0.63-3.333,1.891-4.572 C46.656,64.62,48.167,64,49.927,64C51.688,64,53.188,64.63,54.427,65.891z M78.214,83.354c0.76,0.766,0.76,1.5,0,2.219 C75.261,88.526,70.521,90,64,90c-6.526,0-11.26-1.474-14.213-4.427c-0.766-0.719-0.766-1.453,0-2.219 c0.286-0.281,0.641-0.428,1.073-0.428c0.427,0,0.781,0.146,1.068,0.428c2.286,2.338,6.312,3.5,12.073,3.5 c5.714,0,9.739-1.162,12.073-3.5c0.286-0.281,0.641-0.428,1.067-0.428C77.573,82.927,77.927,83.073,78.214,83.354z M84.5,70.427 c0,1.766-0.63,3.266-1.891,4.5c-1.266,1.24-2.776,1.859-4.536,1.859c-1.766,0-3.266-0.619-4.5-1.859 c-1.24-1.234-1.859-2.734-1.859-4.5c0-1.76,0.619-3.271,1.859-4.536c1.234-1.26,2.734-1.891,4.5-1.891 c1.76,0,3.271,0.62,4.536,1.854C83.87,67.094,84.5,68.62,84.5,70.427z"></path>
	</symbol>
	<symbol id="icon-tumblr" viewBox="0 0 128 128">
		<path d="M122.927,39.141c-3.38-7.901-7.927-14.713-13.641-20.427C103.573,13,96.761,8.453,88.859,5.073C80.953,1.693,72.667,0,64,0 c-8.667,0-16.953,1.693-24.859,5.073C31.24,8.453,24.427,13,18.713,18.713C13,24.427,8.453,31.24,5.073,39.141 C1.688,47.047,0,55.333,0,64c0,8.667,1.688,16.953,5.073,24.854c3.38,7.906,7.927,14.719,13.641,20.432 c5.714,5.714,12.526,10.261,20.427,13.641C47.047,126.308,55.333,128,64,128c8.667,0,16.953-1.692,24.859-5.073 c7.901-3.38,14.714-7.927,20.427-13.641c5.714-5.713,10.261-12.525,13.641-20.432C126.308,80.953,128,72.667,128,64 C128,55.333,126.308,47.047,122.927,39.141z M81.159,101.404c-2.744,0.965-5.503,1.463-8.274,1.493 c-3.242,0.064-6.212-0.341-8.908-1.213c-2.697-0.873-4.917-2.029-6.663-3.461c-1.745-1.432-3.225-3.085-4.441-4.957 c-1.218-1.868-2.08-3.74-2.595-5.609c-0.516-1.871-0.771-3.709-0.771-5.52V56.704h-7.854V46.65c2.243-0.808,4.255-1.892,6.031-3.249 c1.776-1.357,3.194-2.758,4.255-4.208c1.057-1.449,1.964-3.041,2.71-4.77c0.751-1.732,1.278-3.273,1.589-4.63 c0.313-1.356,0.546-2.734,0.702-4.139c0.031-0.153,0.103-0.286,0.212-0.396c0.109-0.109,0.225-0.164,0.352-0.164h11.407v19.826 h15.57v11.782H68.861v24.221c0,0.934,0.103,1.807,0.304,2.618c0.204,0.812,0.556,1.629,1.054,2.454s1.269,1.474,2.315,1.94 c1.042,0.467,2.314,0.686,3.811,0.655c2.431-0.062,4.518-0.515,6.264-1.357l3.74,11.081 C85.632,99.407,83.904,100.437,81.159,101.404z"></path>
	</symbol>
	<symbol id="icon-grow" viewBox="0 0 113 128">
		<path d="M110.626,47.114H85.344c-1.308,0-2.368,1.063-2.368,2.378v76.135c0,1.31,1.061,2.373,2.368,2.373h25.282 c1.312,0,2.374-1.063,2.374-2.373V49.492C113,48.178,111.938,47.114,110.626,47.114z M108.258,123.249H87.716V51.865h20.542V123.249 z"></path>
		<path d="M69.14,128h-25.28c-1.312,0-2.371-1.063-2.371-2.373v-43.56c0-1.31,1.06-2.373,2.371-2.373h25.28 c1.312,0,2.372,1.063,2.372,2.373v43.56C71.512,126.937,70.452,128,69.14,128L69.14,128z M46.229,123.249h20.542V84.445H46.229 V123.249L46.229,123.249z"></path>
		<path d="M27.653,128H2.371C1.06,128,0,126.937,0,125.627v-19.919c0-1.314,1.06-2.378,2.371-2.378h25.282 c1.309,0,2.369,1.063,2.369,2.378v19.919C30.022,126.937,28.962,128,27.653,128L27.653,128z M4.742,123.249h20.54v-15.168H4.742 V123.249L4.742,123.249z"></path>
		<path d="M97.538,19.084L79.194,0.695c-0.92-0.927-2.421-0.927-3.347,0c-0.931,0.927-0.931,2.432,0,3.358 l14.298,14.343c-37.13,0.091-69.216,26.863-76.33,63.734c-0.252,1.285,0.589,2.53,1.877,2.78c0.149,0.029,0.303,0.045,0.45,0.045 c1.113,0,2.106-0.79,2.325-1.928c6.684-34.632,36.809-59.789,71.67-59.884l-14.29,14.333c-0.931,0.928-0.931,2.433,0,3.359 c0.46,0.466,1.065,0.696,1.674,0.696c0.606,0,1.213-0.23,1.673-0.696l18.344-18.394C98.459,21.517,98.459,20.016,97.538,19.084z"></path>
	</symbol>
	<symbol id="icon-communicate" viewBox="0 0 128 114">
		<path d="M92.934,58.094c-0.006-1.261-1.562-2.518-2.396-3.779 c-0.985,1.109-2.806,2.198-2.841,3.334c-0.328,13.087-11.671,23.437-23.361,23.554c-1.16,0.011-2.305,1.778-3.46,2.73 c1.089,1.115,2.181,2.22,2.604,2.656C79.452,86.436,93.009,72.797,92.934,58.094z"></path>
		<path d="M36.46,59.472c2.538,0.588,2.791-1.717,3.021-3.759 c1.526-13.447,9.339-21.122,23.128-22.759c1.974-0.239,3.953-0.816,3.334-3.106c-0.286-1.059-2.371-2.311-3.649-2.325 C47.998,27.41,34.61,40.609,33.423,55.591C34.421,56.949,35.217,59.188,36.46,59.472z"></path>
		<path d="M80.872,54.507c-2.27-0.562-2.749,1.458-3.058,3.409 c-1.284,8.203-5.526,12.246-13.522,13.574c-1.251,0.202-2.277,1.788-3.404,2.74c1.229,0.816,2.449,2.326,3.688,2.347 c9.396,0.136,18.188-8.498,18.688-19.386C82.909,56.766,82.096,54.811,80.872,54.507z"></path>
		<path d="M43.929,56.027c0.003,1.221,1.603,2.44,2.462,3.662 c0.96-1.145,2.57-2.188,2.768-3.45c1.243-7.96,5.575-12.561,13.471-13.568c2.015-0.253,3.885-0.734,3.326-3.061 c-0.28-1.159-2.029-1.96-2.416-2.31C52.671,37.564,43.901,46.35,43.929,56.027z"></path>
		<path d="M118.247,47.597c-6.879,0.061-11.651,7.179-8.719,13.521 c1.031,2.234,0.737,3.669-0.42,5.518c-3.938,6.328-7.749,12.742-11.636,19.102c-1.117,1.829-2.311,3.748,0.105,5.31 c2.472,1.596,3.69-0.36,4.792-2.179c3.812-6.268,7.653-12.515,11.373-18.833c1.173-1.996,2.265-3.136,4.964-3.08 c5.404,0.111,9.383-4.443,9.292-9.859C127.913,51.729,123.62,47.555,118.247,47.597z M118.333,61.108 c-2.305,0.37-3.841-1.46-3.852-3.774c0-2.316,1.507-4.16,3.832-3.785c1.607,0.253,2.992,1.885,4.483,2.908 c0.005,0.567,0.005,1.135,0.005,1.703C121.32,59.193,119.94,60.854,118.333,61.108z"></path>
		<path d="M37.441,94.659c-2.508-0.061-3.531-1.201-4.583-3.076 c-3.697-6.591-7.496-13.122-11.26-19.678c-1.009-1.754-2.207-3.496-4.499-2.22c-2.459,1.368-1.6,3.309-0.478,5.234 c3.627,6.222,7.117,12.515,10.803,18.695c1.37,2.301,2.328,4.282,0.299,6.769c-0.751,0.918-0.721,2.478-0.837,2.924 c-0.016,6.196,4.19,10.554,9.46,10.686c5.168,0.126,9.713-4.16,9.96-9.409C46.539,99.533,42.569,94.786,37.441,94.659z M40.332,104.281c-0.272,1.616-2.021,2.974-3.113,4.447c-0.519-0.01-1.039-0.025-1.557-0.03c-0.991-1.524-2.583-2.954-2.826-4.59 c-0.344-2.325,1.397-3.775,3.804-3.739C39.089,100.404,40.704,102.076,40.332,104.281z"></path>
		<path d="M111.014,39.079c-3.559-6.141-7.011-12.337-10.63-18.438 c-1.396-2.351-2.674-4.407-0.49-7.063c0.748-0.917,0.697-2.492,0.829-3.014C100.713,4.408,96.467,0.061,91.174,0 c-5.11-0.056-9.447,4.018-9.78,9.201c-0.35,5.28,3.624,9.986,9.012,10.153c2.169,0.065,3.165,0.917,4.12,2.614 c3.766,6.713,7.643,13.365,11.459,20.049c1.017,1.772,2.188,3.537,4.483,2.315C112.95,43.016,112.126,41.01,111.014,39.079z M91.139,13.503c-2.335,0.471-3.812-1.262-3.893-3.628c-0.08-2.417,1.456-4.155,3.7-3.886c1.598,0.182,3.023,1.829,4.529,2.827 c0.01,0.562,0.021,1.129,0.03,1.697C94.061,11.557,92.73,13.184,91.139,13.503z"></path>
		<path d="M30.675,28.009c1.173-1.916,1.999-3.83-0.482-5.209 c-2.351-1.308-3.487,0.558-4.512,2.24c-3.744,6.16-7.517,12.301-11.164,18.518c-1.271,2.174-2.487,3.521-5.457,3.491 c-5.351-0.051-9.275,4.696-9.051,10.087c0.22,5.194,4.423,9.236,9.627,9.246c5.323,0.016,9.599-4.225,9.682-10.152 c-0.121-0.623-0.022-2.027-0.642-2.934c-1.66-2.442-0.801-4.342,0.559-6.505C23.133,40.579,26.846,34.256,30.675,28.009z M9.755,60.43c-1.602-0.228-3.013-1.834-4.506-2.823c-0.01-0.557-0.018-1.113-0.028-1.672c1.446-1.063,2.785-2.771,4.37-3.05 c2.254-0.395,3.809,1.287,3.856,3.699C13.495,58.98,12.06,60.743,9.755,60.43z"></path>
		<path d="M93.302,94.796c-4.175-1.068-8.467,0.618-10.711,4.696 c-0.985,1.805-2.093,2.215-3.938,2.2c-7.685-0.077-15.367-0.016-23.051-0.021c-2.024,0-4.125,0.081-4.165,2.761 c-0.04,2.857,2.139,3.06,4.312,3.06c3.963-0.01,7.924-0.005,11.887-0.005c0-0.005,0-0.01,0-0.016c3.718,0,7.458-0.182,11.159,0.098 c1.375,0.105,3.063,0.987,3.923,2.067c2.932,3.662,6.935,5.233,11.105,3.886c4.291-1.384,6.864-5.011,6.772-9.541 C100.5,99.595,97.563,95.891,93.302,94.796z M95.35,105.304c-1.532,0.968-2.987,2.574-4.595,2.741 c-2.275,0.243-3.791-1.586-3.67-3.942c0.121-2.31,1.658-4.093,3.993-3.591c1.598,0.35,2.906,2.017,4.347,3.095 C95.395,104.17,95.375,104.736,95.35,105.304z"></path>
		<path d="M69.331,7.083c-6.475-0.142-12.952-0.131-19.423-0.036 c-2.512,0.031-4.271-0.314-5.811-2.863c-2.881-4.767-9.563-5.492-13.878-2.016c-4.197,3.39-4.799,9.703-1.312,13.842 c3.554,4.226,10.855,5.081,13.894,0.597c2.798-4.124,6.081-3.8,9.831-3.774c2.398,0.016,4.797,0,7.195,0c0,0.011,0,0.016,0,0.016 c3.119,0,6.245,0.168,9.352-0.046c2.477-0.172,6.491,1.42,6.572-2.746C75.838,5.913,71.849,7.133,69.331,7.083z M40.666,10.817 c-1.514,0.917-2.957,2.417-4.557,2.615c-2.338,0.288-3.69-1.479-3.589-3.871c0.101-2.407,1.65-4.002,3.938-3.506 c1.569,0.345,2.86,1.981,4.278,3.045C40.709,9.667,40.688,10.245,40.666,10.817z"></path>
		<path d="M63.589,47.529c-5.254-0.02-9.387,4.009-9.492,9.252 c-0.111,5.411,4.046,9.683,9.422,9.688c5.227,0.011,9.427-4.063,9.549-9.252C73.193,51.888,68.938,47.55,63.589,47.529z M63.557,60.951c-2.368,0.38-4.413-1.52-3.928-3.941c0.311-1.551,2.29-3.72,3.68-3.851c1.507-0.138,3.202,1.768,4.82,2.786 c0.015,0.593,0.035,1.176,0.055,1.764C66.649,58.843,65.227,60.683,63.557,60.951z"></path>
	</symbol>
	<symbol id="icon-backed" viewBox="0 0 103 128">
		<path d="M91.021,94.717c1.353-3.365,2.705-6.731,4.077-10.088c0.19-0.453,0.708-0.902,1.175-1.1 c1.783-0.744,3.005-2.396,3.013-4.283c0.012-1.84-1.107-3.549-2.89-4.191c-0.692-0.246-0.97-0.611-1.084-1.307 c-1.381-8.326-2.796-16.643-4.164-24.969c-0.062-0.417,0.119-1.003,0.396-1.327c1.454-1.706,1.755-3.726,0.727-5.581 c-1.036-1.875-2.941-2.684-5.224-2.298c-0.348,0.06-0.873-0.063-1.106-0.307c-2.599-2.652-5.184-5.333-7.772-8.009 c7.173-1.461,12.576-7.831,12.576-15.47C90.745,7.067,83.707,0,75.031,0c-8.683,0-15.714,7.067-15.714,15.787 c0,0.544,0.027,1.082,0.081,1.612c-5.133-1.115-10.272-2.213-15.409-3.306c-0.674-0.143-1.141-0.37-1.461-1.112 c-0.842-1.949-2.997-2.791-4.923-2.068c-1.92,0.719-2.997,2.79-2.381,4.801c0.212,0.689,0.075,1.066-0.381,1.543 C29.511,22.782,24.21,28.333,18.869,33.85c-0.301,0.312-0.858,0.488-1.31,0.521c-1.303,0.096-2.456,0.477-3.404,1.406 c-2.313,2.269-1.969,5.52,0.926,7.942c-2.895,7.471-5.764,14.889-8.678,22.289c-0.13,0.33-0.7,0.666-1.089,0.697 c-2.201,0.164-4.023,1.549-4.613,3.613c-0.597,2.105,0.148,4.279,2.028,5.471c0.683,0.434,0.825,0.887,0.814,1.609 C3.432,84.779,3.36,92.16,3.228,99.533c-0.007,0.406-0.33,0.941-0.67,1.164c-2.021,1.314-2.956,3.4-2.4,5.557 c0.553,2.17,2.42,3.719,4.571,3.799c2.204,0.088,4.104-1.311,4.94-3.516c0.135-0.361,0.635-0.768,1.009-0.814 c1.477-0.188,2.973-0.238,4.46-0.338c11.598-0.766,23.193-1.541,34.795-2.271c0.43-0.029,1.032,0.266,1.307,0.607 c1.469,1.863,3.638,2.395,5.785,1.406c0.446-0.207,1.067-0.303,1.511-0.16c3.599,1.194,7.184,2.423,10.774,3.634 c-0.109,0.782-0.186,1.574-0.186,2.386c0,9.398,7.584,17.014,16.94,17.014c9.354,0,16.935-7.615,16.935-17.014 C102.999,103.321,97.956,96.846,91.021,94.717z M88.221,94.126c-0.708-0.091-1.424-0.153-2.156-0.153 c-2.361,0-4.607,0.487-6.649,1.363c-0.077-0.27-0.153-0.539-0.231-0.809c-1.242-4.312-2.468-8.635-3.74-12.941 c-0.202-0.691-0.111-1.072,0.435-1.602c0.791-0.773,1.367-1.771,2.174-2.871c3.148,0.98,6.406,2.145,9.747,2.967 c2.045,0.504,3.429,1.68,4.729,3.316C91.1,86.953,89.66,90.542,88.221,94.126z M86.569,49.653c0.198-0.372,0.641-0.795,1.013-0.849 c0.728-0.107,0.791,0.538,0.886,1.116c1.36,8.162,2.74,16.324,4.089,24.49c0.052,0.326-0.04,0.771-0.237,1.025 c-0.665,0.842-1.407,1.621-2.302,2.631c-3.815-1.199-7.853-2.469-11.886-3.76c-0.246-0.086-0.467-0.373-0.629-0.611 c-0.613-0.896-1.202-1.811-1.902-2.879c1.476-2.861,3.058-5.94,4.643-9.012C82.347,57.75,84.435,53.691,86.569,49.653z M83.873,48.735c-3.63,6.847-7.173,13.745-10.747,20.623c-0.53,1.018-2.84,1.207-3.551,0.295 c-5.047-6.553-10.068-13.118-15.153-19.634c-0.601-0.769-0.302-1.345,0.04-1.907c0.21-0.339,0.735-0.649,1.144-0.679 c8.181-0.54,16.365-1.041,24.551-1.55c1.17-0.075,2.336-0.148,3.439-0.216C84.569,46.667,84.498,47.563,83.873,48.735z M38.539,77.574c0.182,0.557,0.371,1.104,0.553,1.664c0.334,1.041-0.134,2.045-1.097,2.355c-0.99,0.322-1.966-0.207-2.304-1.248 c-0.199-0.611-0.401-1.223-0.614-1.875c-1.266,0.414-2.509,0.826-3.788,1.248c0.215,0.652,0.423,1.283,0.633,1.91 c0.188,0.561,0.147,1.102-0.185,1.594c-0.401,0.596-0.982,0.869-1.688,0.791c-0.72-0.084-1.233-0.477-1.484-1.168 c-0.206-0.561-0.377-1.133-0.566-1.693c-0.028-0.094-0.068-0.186-0.11-0.305c-0.63,0.211-1.237,0.42-1.85,0.607 c-0.655,0.203-1.283,0.146-1.813-0.33c-1.001-0.906-0.619-2.525,0.693-2.971c0.507-0.168,1.013-0.33,1.521-0.492 c0.111-0.037,0.223-0.08,0.363-0.129c-0.413-1.264-0.824-2.502-1.244-3.766c-0.656,0.211-1.289,0.424-1.93,0.627 c-1.002,0.318-1.977-0.189-2.247-1.16c-0.245-0.896,0.245-1.818,1.142-2.129c0.507-0.174,1.016-0.326,1.521-0.492 c0.134-0.043,0.262-0.096,0.422-0.15c-0.21-0.641-0.419-1.264-0.619-1.883c-0.302-0.957,0.156-1.916,1.063-2.246 c0.934-0.344,1.954,0.115,2.296,1.053c0.233,0.643,0.435,1.295,0.664,1.982c1.26-0.408,2.499-0.811,3.763-1.219 c-0.017-0.084-0.024-0.16-0.046-0.234c-0.18-0.549-0.365-1.09-0.541-1.637c-0.322-1.004,0.147-1.982,1.101-2.304 c0.963-0.323,1.946,0.179,2.284,1.171c0.209,0.625,0.415,1.246,0.628,1.889c0.659-0.211,1.296-0.422,1.938-0.619 c0.918-0.281,1.838,0.121,2.197,0.947c0.36,0.836-0.013,1.771-0.929,2.17c-0.55,0.242-1.137,0.396-1.708,0.596 c-0.13,0.043-0.266,0.088-0.429,0.143c0.417,1.268,0.83,2.518,1.251,3.805c0.658-0.217,1.303-0.428,1.95-0.635 c0.626-0.199,1.219-0.135,1.745,0.27c0.548,0.422,0.722,1.002,0.623,1.678c-0.105,0.707-0.594,1.072-1.215,1.287 c-0.652,0.23-1.312,0.438-1.992,0.66C38.507,77.422,38.514,77.502,38.539,77.574z M41.163,60.979 c0.402-0.65,0.804-1.302,1.207-1.955c1.303-2.107,2.588-4.233,3.935-6.316c0.202-0.312,0.683-0.588,1.06-0.628 c1.479-0.148,2.972-0.2,4.836-0.312c5.01,6.488,10.32,13.371,15.579,20.175c-0.363,2.244-1.768,2.133-3.416,2.006 c-5.608-0.438-11.22-0.827-16.833-1.203C47.231,67.922,44.8,63.69,41.163,60.979z M83.893,42.232 c-0.225,0.361-0.645,0.814-1.008,0.847c-3.053,0.264-6.109,0.442-9.166,0.637c-6.029,0.378-12.068,0.737-18.094,1.145 c-0.712,0.048-0.926-0.183-1.281-0.795c-0.696-1.207-0.358-1.996,0.415-2.999c2.985-3.863,5.88-7.796,8.806-11.703 c0.189-0.25,0.396-0.484,0.641-0.788c1.278,0.765,2.56,1.224,3.864,1.35c1.971,0.981,4.172,1.559,6.505,1.626 c3.096,3.217,6.184,6.44,9.243,9.69C83.999,41.435,84.035,41.992,83.893,42.232z M62.387,15.378c0.26-0.288,0.612-0.443,0.968-0.58 c1.696-0.657,3.397-1.315,5.09-1.972c4.831-1.875,9.667-3.747,14.503-5.62c0.862-0.336,1.503,0.107,1.499,1.12 c-0.06,0.574-0.233,1.209-0.367,1.851c-1.021,4.835-2.04,9.681-3.065,14.518c-0.252,1.172-1.048,1.469-2.004,0.758 c-1.574-1.163-3.147-2.327-4.714-3.503c-0.189-0.141-0.296-0.139-0.467,0.034c-0.774,0.774-1.565,1.531-2.34,2.298 c-0.285,0.282-0.614,0.427-1.021,0.407c-0.292-0.017-0.449-0.142-0.537-0.415c-0.625-1.959-1.266-3.909-1.882-5.869 c-0.096-0.303-0.254-0.439-0.542-0.526c-1.468-0.445-2.931-0.912-4.394-1.371c-0.226-0.071-0.459-0.145-0.641-0.294 C62.161,15.976,62.125,15.668,62.387,15.378z M43.762,16.943c5.297,1.128,10.594,2.254,15.889,3.378 c0.116,0.025,0.236,0.059,0.355,0.09c0.201,0.659,0.453,1.293,0.734,1.913c0.087,1.499,0.549,2.925,1.449,4.257 c-3.539,4.715-7.059,9.407-10.542,14.049c-0.957-0.221-1.726-0.57-2.474-0.536c-1.265,0.067-1.513-0.634-1.809-1.631 c-1.894-6.384-3.852-12.744-5.787-19.114C41.002,17.457,41.839,16.534,43.762,16.943z M21.352,35.127 c5.253-5.323,10.508-10.649,15.77-15.971c1.018-1.028,1.145-0.997,1.56,0.368c2.082,6.857,4.154,13.718,6.247,20.568 c0.181,0.588,0.134,0.955-0.312,1.451c-0.724,0.805-1.257,1.778-1.945,2.795c-2.203-0.634-4.532-1.307-6.859-1.971 c-4.113-1.178-8.221-2.373-12.34-3.514c-0.719-0.2-1.107-0.506-1.341-1.247c-0.218-0.689-0.718-1.289-1.15-2.02 C21.071,35.475,21.198,35.289,21.352,35.127z M21.103,42.841c0.281-0.506,0.696-0.933,1.092-1.441 c5.423,1.521,10.856,3.047,16.291,4.572c0.413,0.115,0.82,0.27,1.243,0.359c1.734,0.365,3.435,0.717,3.846,2.91 c0.095,0.484,0.605,0.894,0.967,1.394c-1.855,3-3.712,6.002-5.552,8.976c-2.17-1.124-4.625-1.77-7.235-1.77 c-1.73,0-3.391,0.289-4.949,0.804c-1.982-4.892-3.953-9.788-5.906-14.692C20.781,43.65,20.925,43.158,21.103,42.841z M9.185,65.971 c2.689-6.808,5.31-13.641,7.958-20.465c0.071-0.183,0.103-0.392,0.214-0.544c0.17-0.238,0.39-0.438,0.591-0.654 c0.188,0.215,0.455,0.397,0.56,0.648c1.289,3.132,2.556,6.268,3.823,9.408c0.709,1.759,1.416,3.519,2.125,5.278 c-4.403,2.306-7.578,6.627-8.336,11.748c-1.597-0.163-3.186-0.324-4.775-0.479c-0.694-0.066-1.185-0.238-1.321-1.027 c-0.059-0.33-0.241-0.723-0.494-0.922C8.386,68.055,8.74,67.1,9.185,65.971z M7.546,100.693c-1.281-0.107-1.502-0.779-1.482-1.852 c0.138-7.094,0.213-14.189,0.291-21.291c0.006-0.598,0.146-0.879,0.737-1.229c1.006-0.602,1.807-1.539,2.724-2.301 c0.309-0.262,0.728-0.607,1.066-0.58c1.686,0.155,3.371,0.326,5.055,0.499c0.052,4.274,1.778,8.142,4.557,10.97 C16.217,90.124,11.871,95.424,7.546,100.693z M50.85,99.307c-0.304,0.703-0.664,0.93-1.374,0.973 c-6.309,0.402-12.614,0.836-18.921,1.256c-6.737,0.453-13.474,0.891-20.213,1.332c-0.296,0.02-0.595,0.004-1.253,0.004 c4.532-5.529,8.947-10.915,13.355-16.291c2.614,1.918,5.826,3.062,9.311,3.062c3.188,0,6.15-0.956,8.635-2.586 c3.338,3.627,6.705,7.225,10.057,10.84C50.817,98.295,51.156,98.596,50.85,99.307z M57.42,95.895 c-0.396,0.676-0.72,1.184-1.625,0.771c-0.329-0.152-0.822-0.184-1.159-0.057c-1.166,0.461-1.767-0.223-2.459-0.98 c-3.18-3.453-6.375-6.894-9.571-10.334c2.631-2.496,4.411-5.88,4.855-9.682c6.337,0.438,12.716,0.877,19.077,1.316 c1.056,1.311,0.72,2.373-0.028,3.607C63.414,85.613,60.425,90.762,57.42,95.895z M69.926,105.816 c-2.414-0.817-4.815-1.629-7.208-2.438c-0.146-0.057-0.293-0.111-0.442-0.158c-3.01-1.002-3.072-1.07-3.294-4.203 c-0.02-0.246,0.118-0.525,0.258-0.756c3.373-5.736,6.758-11.473,10.139-17.209c0.059-0.098,0.134-0.189,0.197-0.285 c0.569,0.184,0.98,0.441,1.388,0.43c1.423-0.029,1.72,0.912,2.036,2.033c1.267,4.499,2.564,8.991,3.871,13.479 C73.614,98.827,71.127,102.029,69.926,105.816z M99.255,110.141c-0.091,1.08-0.324,2.129-0.712,3.137 c-0.565,1.475-1.416,2.766-2.523,3.877c-0.707,0.717-1.502,1.316-2.38,1.812c-1.594,0.898-3.31,1.391-5.141,1.445 c-1.993,0.064-3.875-0.373-5.646-1.307c-0.072-0.035-0.166-0.059-0.238-0.035c-0.901,0.281-1.803,0.572-2.7,0.857 c-0.724,0.23-1.443,0.461-2.163,0.691c-0.379,0.123-0.763,0.258-1.143,0.389c-0.028-0.023-0.051-0.047-0.075-0.07 c0.035-0.08,0.087-0.16,0.11-0.242c0.111-0.334,0.222-0.672,0.333-1.006c0.51-1.502,1.02-3.004,1.518-4.504 c0.031-0.088,0.016-0.207-0.023-0.291c-0.135-0.281-0.293-0.557-0.435-0.838c-0.411-0.814-0.688-1.676-0.866-2.566 c-0.32-1.621-0.293-3.242,0.099-4.846c0.411-1.668,1.163-3.154,2.255-4.465c0.842-1.01,1.826-1.844,2.961-2.504 c1.284-0.742,2.657-1.223,4.124-1.414c0.281-0.039,0.553-0.074,0.83-0.111c0.459,0,0.918,0,1.384,0 c0.048,0.016,0.1,0.033,0.155,0.033c1.157,0.094,2.281,0.354,3.356,0.793c1.898,0.779,3.479,1.986,4.718,3.627 c1.162,1.547,1.886,3.285,2.13,5.217c0.032,0.258,0.072,0.516,0.104,0.777c0,0.461,0,0.922,0,1.383 C99.278,110.037,99.255,110.084,99.255,110.141z"></path>
		<path d="M93.893,101.926c-1.122-0.875-2.372-1.479-3.761-1.773c-2.257-0.484-4.408-0.193-6.448,0.891 c-1.408,0.75-2.555,1.811-3.437,3.146c-0.613,0.938-1.048,1.945-1.293,3.035c-0.198,0.873-0.258,1.756-0.206,2.645 c0.048,0.842,0.214,1.652,0.482,2.447c0.289,0.842,0.7,1.629,1.206,2.355c0.036,0.057,0.056,0.156,0.036,0.219 c-0.206,0.627-0.419,1.252-0.633,1.879c-0.158,0.48-0.32,0.957-0.499,1.475c0.179-0.049,0.317-0.088,0.455-0.131 c0.993-0.314,1.981-0.633,2.97-0.955c0.135-0.043,0.237-0.016,0.355,0.045c0.491,0.262,0.962,0.557,1.472,0.754 c2.372,0.934,4.753,0.938,7.117-0.023c0.988-0.404,1.883-0.977,2.688-1.699c0.843-0.764,1.527-1.645,2.057-2.646 c0.602-1.141,0.941-2.363,1.027-3.654c0.104-1.445-0.114-2.84-0.671-4.176C96.179,104.221,95.201,102.941,93.893,101.926z M93.568,113.191c-0.149,0.365-0.451,0.588-0.759,0.811c-0.467,0.328-1.005,0.504-1.562,0.523c-0.383,0.012-0.782-0.08-1.154-0.191 c-0.652-0.205-1.293-0.451-1.925-0.707c-0.673-0.27-1.27-0.674-1.836-1.135c-1.052-0.859-1.91-1.9-2.673-3.027 c-0.423-0.619-0.767-1.279-0.917-2.025c-0.048-0.252-0.055-0.518-0.079-0.775c0.047-0.906,0.428-1.645,1.103-2.229 c0.144-0.119,0.353-0.188,0.543-0.215c0.245-0.031,0.497-0.012,0.742,0.027c0.119,0.021,0.27,0.119,0.317,0.227 c0.189,0.357,0.34,0.736,0.501,1.109c0.155,0.357,0.289,0.727,0.455,1.076c0.139,0.289,0.071,0.549-0.103,0.787 c-0.182,0.246-0.379,0.484-0.577,0.715c-0.158,0.186-0.198,0.338-0.067,0.547c0.529,0.875,1.174,1.648,1.997,2.266 c0.514,0.385,1.083,0.68,1.672,0.938c0.345,0.154,0.475,0.127,0.712-0.16c0.258-0.301,0.511-0.619,0.756-0.934 c0.19-0.242,0.34-0.305,0.609-0.178c0.755,0.35,1.498,0.711,2.245,1.064c0.15,0.072,0.222,0.188,0.222,0.346 C93.79,112.443,93.727,112.826,93.568,113.191z"></path>
		<path d="M28.95,72.643c0.419,1.268,0.83,2.508,1.249,3.787c1.273-0.414,2.521-0.828,3.788-1.244 c-0.421-1.275-0.832-2.523-1.252-3.793C31.459,71.812,30.211,72.223,28.95,72.643z"></path>
		<path d="M70.01,21.741c0.162,0.493,0.324,0.987,0.482,1.486c0.02-0.008,0.039-0.01,0.063-0.014c0.004-0.038,0.023-0.072,0.023-0.105 c0.103-1.091,0.206-2.181,0.3-3.271c0.017-0.246,0.088-0.439,0.285-0.614c2.626-2.369,5.239-4.74,7.861-7.112 c0.455-0.413,0.91-0.83,1.367-1.247c0.088-0.08,0.214-0.173,0.128-0.31c-0.076-0.119-0.214-0.101-0.341-0.08 c-0.189,0.034-0.355,0.122-0.518,0.225c-3.578,2.271-7.161,4.543-10.743,6.807c-0.194,0.121-0.218,0.234-0.151,0.439 C69.19,19.207,69.599,20.472,70.01,21.741z"></path>
	</symbol>
	<symbol id="icon-backed-o" viewBox="0 0 128 128">
		<path d="M109.379,45.376c-3.964,0-7.635,1.255-10.657,3.374L78.564,30.196c2.533-3.182,4.059-7.2,4.059-11.574 C82.623,8.354,74.27,0,64.002,0C53.731,0,45.376,8.354,45.376,18.622c0,3.967,1.256,7.641,3.379,10.666L29.575,48.971 c-3.078-2.25-6.856-3.594-10.951-3.594C8.354,45.376,0,53.731,0,64.002C0,74.27,8.354,82.623,18.624,82.623 c3.878,0,7.481-1.195,10.467-3.231l20.205,18.598c-2.447,3.151-3.919,7.096-3.919,11.386c0,10.27,8.355,18.625,18.625,18.625 c10.268,0,18.621-8.355,18.621-18.625c0-4.172-1.396-8.016-3.723-11.123l19.053-19.577c3.158,2.466,7.119,3.948,11.426,3.948 c10.268,0,18.621-8.354,18.621-18.621C128,53.731,119.646,45.376,109.379,45.376z M65.993,90.863l0.049-8.357 c8.655-0.949,15.543-7.848,16.471-16.51l8.361,0.049c0.413,3.767,1.954,7.195,4.278,9.947L76.266,95.398 C73.455,92.93,69.91,91.282,65.993,90.863z M51.973,95.182L32.064,76.857c2.77-2.895,4.624-6.668,5.072-10.864l8.357,0.049 c0.955,8.708,7.933,15.628,16.669,16.488l-0.047,8.319C58.269,91.237,54.771,92.809,51.973,95.182z M62.166,37.153l-0.048,8.318 c-8.783,0.886-15.782,7.901-16.648,16.691l-8.319-0.047c-0.408-4.036-2.124-7.681-4.695-10.542l18.859-19.354 C54.224,34.935,57.988,36.743,62.166,37.153z M64.002,78.744c-8.132,0-14.747-6.613-14.747-14.742 c0-8.132,6.615-14.747,14.747-14.747c8.129,0,14.742,6.615,14.742,14.747C78.744,72.131,72.131,78.744,64.002,78.744z M90.849,62.166l-8.321-0.048c-0.881-8.731-7.816-15.698-16.531-16.63l0.049-8.358c3.702-0.406,7.083-1.897,9.811-4.154 l19.926,18.342C93.067,54.225,91.26,57.989,90.849,62.166z M64.002,3.879c8.129,0,14.742,6.613,14.742,14.743 c0,8.131-6.613,14.746-14.742,14.746c-8.132,0-14.747-6.615-14.747-14.746C49.255,10.492,55.87,3.879,64.002,3.879z M3.879,64.002 c0-8.132,6.614-14.747,14.745-14.747c8.13,0,14.744,6.615,14.744,14.747c0,8.129-6.614,14.742-14.744,14.742 C10.493,78.744,3.879,72.131,3.879,64.002z M64.002,124.121c-8.132,0-14.747-6.615-14.747-14.746 c0-8.129,6.615-14.742,14.747-14.742c8.129,0,14.742,6.613,14.742,14.742C78.744,117.506,72.131,124.121,64.002,124.121z M109.379,78.744c-8.13,0-14.744-6.613-14.744-14.742c0-8.132,6.614-14.747,14.744-14.747c8.129,0,14.742,6.615,14.742,14.747 C124.121,72.131,117.508,78.744,109.379,78.744z"></path>
	</symbol>
	<symbol id="icon-cog" viewBox="0 0 128 128">
		<path d="M71.312,128H56.689c-3.767,0-6.833-3.066-6.833-6.833v-9.456c0-0.978-0.917-2.25-1.847-2.561l-4.45-1.822 c-1.369-0.667-2.644-0.233-3.283,0.411l-6.697,6.694c-2.566,2.566-7.089,2.566-9.655,0l-10.345-10.351c-1.286-1.277-2-2.994-2-4.827 c0-1.834,0.714-3.551,2.008-4.839l6.681-6.678c0.675-0.678,0.928-2.245,0.5-3.111l-1.842-4.467 c-0.377-1.103-1.647-2.017-2.625-2.017H6.833C3.067,78.145,0,75.08,0,71.316V56.689c0-3.767,3.067-6.833,6.833-6.833H16.3 c0.978,0,2.248-0.914,2.559-1.844l1.822-4.447c0.522-1.064,0.27-2.608-0.422-3.306l-6.681-6.681c-1.286-1.278-2-2.994-2-4.828 s0.714-3.55,2.008-4.836l10.336-10.342c2.561-2.572,7.091-2.575,9.658,0.003l6.686,6.686c0.653,0.647,2.294,0.911,3.105,0.505 l4.45-1.85c1.122-0.38,2.033-1.644,2.033-2.622V6.833C49.855,3.067,52.922,0,56.689,0h14.623c3.774,0,6.844,3.067,6.844,6.833v9.461 c0,0.978,0.908,2.242,1.836,2.553l4.453,1.836c1.348,0.653,2.636,0.228,3.292-0.425l6.686-6.686 c2.584-2.578,7.089-2.575,9.667-0.003l10.333,10.353c1.289,1.278,2,2.994,2,4.828s-0.711,3.55-2.011,4.836l-6.678,6.681 c-0.684,0.689-0.934,2.233-0.5,3.108l1.85,4.456c0.378,1.117,1.645,2.025,2.628,2.025h9.467c3.761,0,6.822,3.067,6.822,6.833v14.627 c0,3.764-3.062,6.828-6.822,6.828h-9.467c-0.983,0-2.25,0.908-2.556,1.828l-1.839,4.478c-0.511,1.044-0.261,2.611,0.417,3.289 l6.688,6.688c1.289,1.277,2,2.994,2,4.828c0,1.833-0.711,3.55-2.011,4.839l-10.322,10.333c-2.589,2.578-7.086,2.566-9.658,0.011 l-6.697-6.694c-0.653-0.649-2.286-0.916-3.105-0.505l-4.453,1.844c-1.108,0.378-2.02,1.65-2.02,2.628v9.456 C78.155,124.934,75.086,128,71.312,128L71.312,128z M42.308,101.339c1.294,0,2.542,0.277,3.608,0.812l4.081,1.678 c3.083,1.021,5.547,4.444,5.547,7.883v9.456c0,0.628,0.514,1.145,1.145,1.145h14.623c0.636,0,1.155-0.517,1.155-1.145v-9.456 c0-3.438,2.455-6.85,5.714-7.95l4.089-1.699c2.45-1.25,7.15-0.678,9.486,1.661l6.688,6.688c0.566,0.562,1.047,0.572,1.631-0.006 l10.325-10.344c0.288-0.289,0.333-0.628,0.333-0.806s-0.045-0.517-0.322-0.795l-6.7-6.7c-2.434-2.433-3.103-6.589-1.566-9.666 l1.684-4.098c1.005-3.075,4.428-5.542,7.883-5.542h9.467c0.611,0,1.134-0.521,1.134-1.139V56.689c0-0.62-0.522-1.145-1.134-1.145 h-9.467c-3.455,0-6.878-2.467-7.955-5.736l-1.694-4.078c-1.45-2.886-0.778-7.042,1.639-9.478l6.7-6.697 c0.288-0.289,0.333-0.628,0.333-0.806s-0.045-0.517-0.322-0.797l-10.348-10.358c-0.566-0.572-1.044-0.575-1.622,0.003l-6.686,6.686 c-2.345,2.336-6.7,3.059-9.673,1.572L78,24.172c-3.075-1.02-5.533-4.436-5.533-7.878V6.833c0-0.62-0.53-1.145-1.155-1.145H56.689 c-0.62,0-1.145,0.525-1.145,1.145v9.461c0,3.444-2.467,6.861-5.736,7.95l-4.075,1.694c-2.456,1.258-7.169,0.678-9.492-1.658 l-6.686-6.687c-0.572-0.572-1.042-0.569-1.608-0.002L17.6,27.944c-0.292,0.289-0.333,0.628-0.333,0.806s0.042,0.517,0.325,0.797 l6.697,6.697c2.428,2.444,3.1,6.6,1.566,9.669l-1.669,4.083c-1.03,3.086-4.45,5.547-7.886,5.547H6.833 c-0.62,0-1.145,0.525-1.145,1.145v14.627c0,0.617,0.525,1.139,1.145,1.139H16.3c3.437,0,6.856,2.462,7.953,5.723l1.689,4.105 c1.45,2.889,0.777,7.045-1.65,9.478L17.6,98.45c-0.292,0.289-0.333,0.628-0.333,0.806s0.042,0.517,0.325,0.794l10.353,10.361 c0.567,0.566,1.044,0.566,1.611,0l6.689-6.688C37.725,102.228,39.995,101.339,42.308,101.339L42.308,101.339z M64,86.122 c-12.192,0-22.111-9.925-22.111-22.122S51.808,41.878,64,41.878c12.197,0,22.122,9.925,22.122,22.122S76.197,86.122,64,86.122 L64,86.122z M64,47.567c-9.056,0-16.422,7.372-16.422,16.433c0,9.062,7.367,16.434,16.422,16.434 c9.062,0,16.434-7.372,16.434-16.434C80.434,54.939,73.062,47.567,64,47.567L64,47.567z"></path>
	</symbol>
	<symbol id="icon-arrows" viewBox="0 0 128 128">
		<path d="M54.968,75.778c0-0.184-0.02-0.367-0.055-0.548c-0.014-0.071-0.042-0.137-0.061-0.206 c-0.03-0.106-0.056-0.213-0.098-0.315c-0.036-0.086-0.085-0.163-0.128-0.244c-0.042-0.078-0.077-0.159-0.127-0.234 c-0.205-0.307-0.47-0.569-0.777-0.774c-0.051-0.033-0.106-0.056-0.159-0.086c-0.105-0.061-0.208-0.122-0.322-0.169 c-0.077-0.031-0.157-0.049-0.236-0.073c-0.094-0.029-0.185-0.064-0.283-0.084c-0.167-0.033-0.335-0.048-0.504-0.051 c-0.014,0-0.026-0.004-0.04-0.004H12.406c-1.542,0-2.791,1.248-2.791,2.791c0,1.542,1.248,2.79,2.791,2.79h33.038L0.818,123.236 c-1.09,1.091-1.09,2.862,0,3.947C1.363,127.728,2.077,128,2.791,128c0.714,0,1.431-0.272,1.973-0.816l44.622-44.662v33.021 c0,1.543,1.249,2.79,2.791,2.79s2.791-1.247,2.791-2.79V75.78C54.968,75.779,54.968,75.779,54.968,75.778z"></path>
		<path d="M127.183,123.236L82.557,78.57h33.026c1.542,0,2.791-1.248,2.791-2.79c0-1.543-1.249-2.791-2.791-2.791 h-39.76c-0.183,0-0.366,0.02-0.546,0.055c-0.091,0.019-0.175,0.052-0.262,0.078c-0.086,0.025-0.174,0.045-0.258,0.079 c-0.108,0.046-0.208,0.105-0.31,0.163c-0.057,0.032-0.116,0.057-0.17,0.093c-0.307,0.204-0.571,0.467-0.776,0.773 c-0.052,0.078-0.089,0.163-0.133,0.245c-0.041,0.077-0.089,0.151-0.122,0.233c-0.044,0.105-0.071,0.215-0.102,0.325 c-0.019,0.065-0.044,0.128-0.058,0.196c-0.036,0.181-0.056,0.364-0.056,0.549v0.001v39.762c0,1.543,1.248,2.79,2.791,2.79 s2.791-1.247,2.791-2.79V82.521l44.621,44.662c0.546,0.544,1.26,0.816,1.974,0.816s1.429-0.272,1.974-0.816 C128.272,126.099,128.272,124.327,127.183,123.236z"></path>
		<path d="M127.183,0.818c-1.091-1.09-2.862-1.09-3.947,0L78.614,45.479v-33.02c0-1.542-1.248-2.791-2.791-2.791 s-2.791,1.248-2.791,2.791V52.22v0c0,0.184,0.02,0.367,0.055,0.547c0.017,0.079,0.046,0.152,0.068,0.229 c0.028,0.098,0.051,0.197,0.091,0.292c0.039,0.095,0.093,0.182,0.143,0.272c0.038,0.069,0.068,0.141,0.112,0.207 c0.205,0.307,0.47,0.571,0.777,0.776c0.053,0.035,0.109,0.058,0.164,0.089c0.103,0.059,0.205,0.121,0.316,0.166 c0.081,0.034,0.165,0.052,0.249,0.077c0.09,0.028,0.177,0.062,0.27,0.081c0.181,0.036,0.363,0.055,0.546,0.055h39.76 c1.542,0,2.791-1.248,2.791-2.791s-1.249-2.79-2.791-2.79H82.556l44.627-44.667C128.272,3.673,128.272,1.905,127.183,0.818z"></path>
		<path d="M54.754,53.288c0.038-0.092,0.06-0.188,0.087-0.282c0.023-0.08,0.055-0.156,0.071-0.239 c0.036-0.18,0.055-0.362,0.055-0.545c0-0.001,0-0.001,0-0.002V12.458c0-1.542-1.249-2.791-2.791-2.791s-2.791,1.248-2.791,2.791 v33.021L4.764,0.818c-1.09-1.09-2.856-1.09-3.946,0c-1.09,1.087-1.09,2.855,0,3.945L45.445,49.43H12.406 c-1.542,0-2.791,1.248-2.791,2.79s1.248,2.791,2.791,2.791h39.771c0.183,0,0.366-0.019,0.546-0.055 c0.092-0.019,0.177-0.052,0.266-0.079c0.084-0.026,0.17-0.044,0.253-0.079c0.112-0.046,0.214-0.107,0.317-0.167 c0.054-0.031,0.11-0.053,0.162-0.088c0.308-0.205,0.573-0.469,0.778-0.777c0.042-0.062,0.07-0.131,0.106-0.196 C54.657,53.478,54.713,53.387,54.754,53.288z"></path>
	</symbol>
	<symbol id="icon-puzzle" viewBox="0 0 128 128">
		<path d="M64,0C28.709,0,0,28.709,0,64c0,35.291,28.709,64,64,64c35.288,0,64-28.709,64-64C128,28.709,99.288,0,64,0z M93.831,68.34L87.5,74.675c-0.547-1.166-1.291-2.233-2.209-3.154c-4.228-4.227-11.604-4.227-15.832,0 c-4.363,4.363-4.363,11.465,0.003,15.834c0.919,0.916,1.985,1.66,3.151,2.204l-7.247,7.25C65,97.175,64.515,97.375,64,97.375 c-0.521,0-1.006-0.2-1.372-0.566L34.16,68.337c-0.366-0.366-0.569-0.849-0.569-1.366s0.203-1,0.572-1.369l7.247-7.253 c0.547,1.175,1.291,2.242,2.207,3.157c4.227,4.232,11.599,4.232,15.832,0c4.363-4.363,4.363-11.465,0-15.834 c-0.916-0.916-1.982-1.66-3.154-2.206l6.334-6.334c0.732-0.732,2.006-0.732,2.738,0l9.803,9.799 c0.441,0.442,1.119,0.561,1.674,0.299c0.567-0.261,0.91-0.846,0.86-1.468c-0.188-2.43,0.663-4.785,2.344-6.459 c3.104-3.104,8.512-3.104,11.622,0c3.203,3.204,3.203,8.416,0,11.619c-1.687,1.683-4.041,2.529-6.466,2.34 c-0.61-0.049-1.206,0.293-1.468,0.86c-0.262,0.564-0.143,1.232,0.3,1.674l9.802,9.811c0.366,0.363,0.57,0.849,0.57,1.363 S94.203,67.971,93.831,68.34z"></path>
	</symbol>
	<symbol id="icon-paper" viewBox="0 0 128 128">
		<path d="M64,0C28.709,0,0,28.709,0,64c0,35.291,28.709,64,64,64c35.288,0,64-28.709,64-64C128,28.709,99.288,0,64,0z M60.276,101.688l-28.172-13.7V32.515l28.172,13.701V101.688z M95.896,87.988l-28.172,13.7V46.215l28.172-13.701V87.988z"></path>
	</symbol>
	<symbol id="icon-email" viewBox="0 0 128 105">
		<path d="M128,11.364v77.272c0,3.125-1.119,5.801-3.357,8.027c-2.238,2.225-4.929,3.337-8.072,3.337H11.429 c-3.143,0-5.834-1.112-8.072-3.337C1.118,94.437,0,91.761,0,88.636V11.364c0-3.125,1.118-5.799,3.357-8.025 C5.595,1.113,8.286,0,11.429,0H116.57c3.144,0,5.834,1.113,8.072,3.338C126.881,5.564,128,8.239,128,11.364z M118.858,13.992 c0-0.095,0-0.355,0-0.782c0-0.426,0-0.746,0-0.958c0-0.213-0.014-0.521-0.037-0.924c-0.024-0.402-0.097-0.698-0.214-0.888 c-0.12-0.188-0.249-0.401-0.395-0.639c-0.143-0.236-0.355-0.414-0.643-0.532c-0.284-0.118-0.618-0.178-1-0.178H11.429 c-0.62,0-1.155,0.225-1.607,0.675c-0.453,0.45-0.678,0.983-0.678,1.598c0,7.955,3.5,14.678,10.5,20.17 c9.19,7.198,18.737,14.702,28.643,22.515c0.285,0.237,1.119,0.936,2.5,2.095c1.381,1.161,2.475,2.049,3.285,2.664 c0.811,0.616,1.869,1.361,3.18,2.237c1.309,0.877,2.51,1.527,3.607,1.953c1.094,0.426,2.117,0.639,3.07,0.639H64h0.071 c0.952,0,1.976-0.213,3.071-0.639c1.094-0.426,2.297-1.076,3.607-1.953c1.309-0.876,2.368-1.622,3.178-2.237 c0.809-0.615,1.904-1.502,3.285-2.664c1.381-1.159,2.215-1.857,2.5-2.095c9.905-7.813,19.453-15.317,28.646-22.515 c2.57-2.035,4.963-4.77,7.177-8.203C117.75,19.898,118.858,16.786,118.858,13.992z M118.858,88.636V34.091 c-1.525,1.705-3.169,3.268-4.931,4.688C101.167,48.533,91.024,56.535,83.5,62.784c-2.43,2.037-4.406,3.622-5.93,4.759 c-1.522,1.137-3.583,2.285-6.177,3.444c-2.597,1.161-5.036,1.74-7.322,1.74H64h-0.072c-2.285,0-4.727-0.579-7.32-1.74 c-2.597-1.159-4.656-2.308-6.18-3.444c-1.523-1.137-3.5-2.722-5.928-4.759c-7.525-6.25-17.668-14.251-30.429-24.006 c-1.762-1.42-3.405-2.983-4.928-4.688v54.545c0,0.616,0.225,1.15,0.678,1.599c0.452,0.45,0.988,0.675,1.607,0.675H116.57 c0.619,0,1.154-0.225,1.608-0.675C118.631,89.786,118.858,89.252,118.858,88.636z"></path>
	</symbol>
	<symbol id="icon-telegram" viewBox="0 0 128 107">
		<path d="M119.326,0.716L5.956,44.333c-7.747,3.13-7.649,7.436-1.372,9.292l29.126,9.095l67.374-42.347 c3.14-1.956,6.081-0.879,3.728,1.271L50.088,70.643l-2.451,29.339v0.979c2.941,0,4.217-1.369,5.885-2.935 c1.073-1.029,7.503-7.262,14.586-14.13l29.447,21.658c5.395,2.934,9.316,1.467,10.689-4.986l19.32-90.757 C129.525,1.889,124.524-1.631,119.326,0.716z"></path>
	</symbol>
	<symbol id="icon-rocket-chat" viewBox="0 0 256 219">
		<path d="M255.95,109.307c0-12.852-3.845-25.173-11.429-36.63c-6.811-10.282-16.353-19.384-28.357-27.056 c-23.18-14.807-53.646-22.963-85.781-22.963c-10.734,0-21.315,0.907-31.577,2.706C92.44,19.402,84.985,14.04,77.1,9.802 C34.963-10.62,0.021,9.322,0.021,9.322S32.509,36.01,27.226,59.402C12.692,73.821,4.814,91.207,4.814,109.307 c0,0.056,0.002,0.115,0.002,0.174c0,0.056-0.002,0.112-0.002,0.174c0,18.1,7.876,35.486,22.412,49.901 c5.283,23.396-27.204,50.083-27.204,50.083s34.942,19.939,77.078-0.48c7.886-4.237,15.338-9.602,21.706-15.56 c10.265,1.796,20.843,2.702,31.577,2.702c32.138,0,62.602-8.151,85.781-22.957c12.005-7.672,21.547-16.771,28.357-27.059 c7.584-11.455,11.429-23.781,11.429-36.628c0-0.059-0.003-0.115-0.003-0.174C255.947,109.424,255.95,109.363,255.95,109.307z M130.383,178.476c-13.25,0-25.939-1.533-37.662-4.325c-11.915,14.332-38.125,34.26-63.587,27.82 c8.282-8.896,20.552-23.928,17.926-48.687c-15.261-11.874-24.422-27.071-24.422-43.633c-0.002-38.012,48.239-68.824,107.745-68.824 c59.506,0,107.746,30.814,107.746,68.824C238.129,147.659,189.889,178.476,130.383,178.476z"></path>
		<path d="M130.383,126.18c7.906,0,14.314-6.408,14.314-14.313c0-7.905-6.408-14.313-14.314-14.313 c-7.904,0-14.313,6.409-14.313,14.313C116.07,119.771,122.479,126.18,130.383,126.18L130.383,126.18z M180.147,126.18 c7.905,0,14.313-6.408,14.313-14.313c0-7.905-6.408-14.313-14.313-14.313s-14.313,6.409-14.313,14.313 C165.834,119.771,172.242,126.18,180.147,126.18L180.147,126.18z M80.617,126.178c7.904,0,14.311-6.408,14.311-14.312 s-6.407-14.311-14.311-14.311s-14.311,6.407-14.311,14.311S72.713,126.178,80.617,126.178L80.617,126.178z"></path>
	</symbol>
	<symbol id="icon-line-chart" viewBox="0 0 128 96">
		<path d="M128,88.001v7.998H0V0h7.998v88.001H128z M119.997,10.003v27.184c0,0.875-0.405,1.49-1.217,1.846 c-0.811,0.355-1.554,0.196-2.219-0.47l-7.561-7.561L69.439,70.564c-0.42,0.415-0.898,0.625-1.44,0.625s-1.021-0.21-1.436-0.625 L51.999,56l-26,26L14,70l36.563-36.563c0.415-0.415,0.893-0.624,1.436-0.624c0.542,0,1.021,0.209,1.44,0.624l14.561,14.565 l29.003-29.003l-7.565-7.56c-0.665-0.666-0.825-1.408-0.47-2.22c0.355-0.811,0.971-1.217,1.846-1.217h27.188 c0.579,0,1.062,0.187,1.436,0.561C119.811,8.937,119.997,9.42,119.997,10.003z"></path>
	</symbol>
	<symbol id="icon-lock" viewBox="0 0 105 128">
		<path d="M105,66.91v52.359c0,2.427-0.851,4.488-2.552,6.185c-1.701,1.697-3.769,2.546-6.2,2.546H8.753 c-2.433,0-4.5-0.849-6.201-2.546C0.851,123.758,0,121.696,0,119.27V66.91c0-2.426,0.851-4.481,2.552-6.185 c1.701-1.69,3.768-2.545,6.201-2.545h2.911V40.727c0-11.149,4.015-20.728,12.036-28.722C31.721,4.004,41.318,0,52.497,0 c11.186,0,20.782,4.004,28.804,12.004c8.021,7.994,12.029,17.573,12.029,28.722V58.18h2.918c2.432,0,4.499,0.855,6.2,2.545 C104.149,62.429,105,64.484,105,66.91z M29.169,58.18h46.662V40.727c0-6.423-2.28-11.905-6.832-16.452 c-4.559-4.547-10.062-6.821-16.502-6.821c-6.439,0-11.936,2.274-16.495,6.821s-6.832,10.029-6.832,16.452V58.18z"></path>
	</symbol>
	<symbol id="icon-gavel" viewBox="0 0 128 128">
		<path d="M128,110.623c0,2.612-0.914,4.83-2.736,6.655l-7.913,7.986c-1.921,1.823-4.165,2.735-6.728,2.735 c-2.614,0-4.833-0.912-6.655-2.735L77.125,98.349c-1.874-1.774-2.811-3.993-2.811-6.655c0-2.612,1.061-4.979,3.181-7.099 L58.564,65.663l-9.317,9.318c-0.691,0.69-1.529,1.035-2.514,1.035c-0.987,0-1.824-0.345-2.514-1.035 c0.098,0.1,0.407,0.396,0.924,0.888c0.518,0.494,0.825,0.813,0.924,0.961c0.098,0.148,0.344,0.433,0.739,0.851 c0.394,0.42,0.64,0.753,0.739,0.999c0.099,0.247,0.246,0.58,0.444,0.997c0.196,0.42,0.333,0.827,0.406,1.221 c0.074,0.395,0.111,0.839,0.111,1.331c0,1.874-0.691,3.549-2.071,5.028c-0.148,0.148-0.554,0.592-1.22,1.331 c-0.666,0.739-1.134,1.245-1.405,1.516c-0.271,0.271-0.728,0.678-1.368,1.221c-0.641,0.543-1.183,0.924-1.626,1.146 c-0.444,0.222-0.987,0.443-1.627,0.665c-0.642,0.223-1.283,0.333-1.923,0.333c-1.972,0-3.648-0.689-5.028-2.07L2.07,61.228 C0.69,59.848,0,58.171,0,56.198c0-0.64,0.111-1.281,0.333-1.922c0.222-0.64,0.443-1.183,0.666-1.626 c0.222-0.444,0.603-0.985,1.146-1.626c0.542-0.64,0.949-1.096,1.22-1.368c0.271-0.27,0.776-0.739,1.516-1.405 c0.739-0.665,1.183-1.073,1.331-1.22c1.479-1.38,3.154-2.07,5.028-2.07c0.492,0,0.936,0.037,1.331,0.11 c0.394,0.075,0.801,0.211,1.22,0.408c0.418,0.197,0.751,0.345,0.999,0.443c0.246,0.1,0.579,0.346,0.998,0.74 c0.418,0.395,0.703,0.641,0.851,0.739c0.147,0.099,0.468,0.406,0.961,0.924c0.492,0.517,0.788,0.826,0.887,0.924 c-0.69-0.689-1.035-1.527-1.035-2.515c0-0.985,0.345-1.823,1.035-2.514l25.733-25.733c0.69-0.69,1.527-1.035,2.514-1.035 c0.985,0,1.823,0.345,2.514,1.035c-0.099-0.098-0.407-0.394-0.924-0.887c-0.518-0.492-0.826-0.813-0.925-0.961 c-0.099-0.147-0.345-0.431-0.739-0.85c-0.395-0.418-0.641-0.751-0.739-0.999c-0.099-0.246-0.247-0.579-0.444-0.998 c-0.197-0.418-0.333-0.825-0.407-1.22c-0.074-0.394-0.111-0.837-0.111-1.331c0-1.874,0.69-3.55,2.07-5.029 c0.148-0.148,0.555-0.592,1.22-1.332c0.666-0.739,1.134-1.244,1.405-1.516c0.271-0.271,0.727-0.677,1.369-1.22 c0.64-0.542,1.183-0.924,1.627-1.146c0.443-0.222,0.985-0.444,1.626-0.666C54.916,0.111,55.557,0,56.198,0 c1.971,0,3.647,0.691,5.029,2.071l30.17,30.17c1.379,1.38,2.07,3.057,2.07,5.028c0,0.642-0.112,1.283-0.333,1.923 c-0.222,0.641-0.445,1.183-0.666,1.626c-0.222,0.444-0.604,0.986-1.146,1.626c-0.544,0.641-0.95,1.097-1.221,1.368 s-0.775,0.74-1.516,1.405c-0.741,0.665-1.184,1.071-1.332,1.219c-1.479,1.382-3.154,2.071-5.028,2.071 c-0.492,0-0.937-0.037-1.329-0.111c-0.396-0.074-0.803-0.209-1.221-0.407c-0.42-0.196-0.753-0.344-0.999-0.443 c-0.248-0.099-0.579-0.345-0.999-0.74c-0.42-0.394-0.701-0.64-0.85-0.739c-0.147-0.098-0.47-0.406-0.962-0.924 s-0.788-0.825-0.887-0.924c0.69,0.69,1.036,1.528,1.036,2.514c0,0.987-0.346,1.825-1.036,2.515l-9.317,9.317l18.93,18.931 c2.12-2.119,4.486-3.18,7.101-3.18c2.562,0,4.806,0.912,6.728,2.736l26.843,26.842C127.086,105.816,128,108.061,128,110.623z"></path>
	</symbol>
	<symbol id="icon-mobile" viewBox="0 0 77 128">
		<path d="M77,12.797v102.406c0,3.464-1.272,6.468-3.816,8.998c-2.537,2.53-5.548,3.799-9.021,3.799H12.83 c-3.472,0-6.484-1.269-9.021-3.799S0,118.667,0,115.203V12.797c0-3.463,1.272-6.468,3.809-8.998S9.357,0,12.83,0h51.333 c3.473,0,6.484,1.269,9.021,3.799C75.728,6.329,77,9.333,77,12.797z M67.372,99.197V28.795c0-0.86-0.322-1.612-0.95-2.246 c-0.636-0.634-1.39-0.948-2.259-0.948H12.83c-0.87,0-1.616,0.313-2.251,0.948s-0.95,1.386-0.95,2.246v70.402 c0,0.868,0.314,1.619,0.95,2.253c0.636,0.635,1.381,0.948,2.251,0.948h51.333c0.87,0,1.624-0.313,2.259-0.948 C67.05,100.816,67.372,100.065,67.372,99.197z M48.124,14.401c0-1.072-0.534-1.604-1.608-1.604H30.477 c-1.067,0-1.601,0.533-1.601,1.604c0,1.064,0.534,1.597,1.601,1.597h16.039C47.59,15.998,48.124,15.466,48.124,14.401z M44.162,120.847c1.572-1.561,2.354-3.449,2.354-5.644c0-2.202-0.782-4.084-2.354-5.651s-3.458-2.355-5.666-2.355 c-2.2,0-4.094,0.788-5.665,2.355c-1.572,1.567-2.354,3.449-2.354,5.651c0,2.194,0.782,4.083,2.354,5.644 c1.571,1.567,3.465,2.355,5.665,2.355C40.704,123.202,42.59,122.414,44.162,120.847z"></path>
	</symbol>
	<symbol id="icon-flag-checkered" viewBox="0 0 128 114">
		<path d="M18.964,9.503c0,1.731-0.438,3.312-1.296,4.746c-0.87,1.439-2.015,2.576-3.446,3.415v93.966 c0,0.688-0.222,1.261-0.67,1.705c-0.443,0.443-1.01,0.665-1.701,0.665H7.108c-0.691,0-1.258-0.222-1.701-0.665 c-0.443-0.444-0.67-1.018-0.67-1.705V17.664c-1.431-0.839-2.576-1.976-3.44-3.415C0.432,12.815,0,11.235,0,9.503 c0-2.625,0.924-4.866,2.776-6.716C4.629,0.931,6.86,0,9.479,0s4.85,0.931,6.703,2.787C18.035,4.638,18.964,6.878,18.964,9.503z M128,14.25v56.629c0,1.932-0.864,3.345-2.593,4.232c-0.497,0.248-0.913,0.471-1.259,0.671 c-10.765,5.735-19.876,8.604-27.336,8.604c-4.342,0-8.247-0.861-11.704-2.598l-2.074-1.039c-3.16-1.629-5.602-2.82-7.329-3.561 c-1.729-0.742-3.976-1.456-6.741-2.155c-2.766-0.687-5.585-1.039-8.448-1.039c-5.034,0-10.851,1.095-17.441,3.27 c-6.595,2.176-12.239,4.702-16.928,7.571c-0.74,0.443-1.555,0.665-2.447,0.665c-0.789,0-1.577-0.194-2.371-0.595 c-1.577-0.937-2.366-2.322-2.366-4.156V25.679c0-1.727,0.762-3.09,2.295-4.081c1.729-1.039,3.667-2.089,5.812-3.155 c2.15-1.061,4.964-2.349,8.448-3.858c3.479-1.51,7.243-2.733,11.294-3.675c4.051-0.936,7.875-1.407,11.483-1.407 c5.531,0,10.689,0.768,15.48,2.3c4.791,1.531,9.949,3.664,15.48,6.38c1.879,0.942,4.077,1.413,6.595,1.413 c6.022,0,13.676-2.771,22.961-8.312c1.086-0.595,1.853-1.012,2.301-1.261c1.528-0.79,3.058-0.742,4.591,0.146 C127.233,11.159,128,12.523,128,14.25z M56.887,33.699V19.077c-8.491,0.396-17.976,3.512-28.443,9.352v14.027 C39.062,36.963,48.542,34.046,56.887,33.699z M56.887,64.72v-14.25c-8.939,0.79-18.418,3.686-28.443,8.686v13.73 C38.565,68.135,48.05,65.412,56.887,64.72z M118.521,68.06V54.405c-11.607,5.742-21.092,7.496-28.448,5.271V43.051 c-0.988-0.297-1.95-0.671-2.89-1.115c-0.243-0.151-1.059-0.568-2.441-1.261s-2.236-1.115-2.555-1.261 c-0.324-0.152-1.103-0.52-2.334-1.115c-1.236-0.596-2.09-0.979-2.555-1.153c-0.47-0.173-1.274-0.493-2.409-0.963 c-1.14-0.471-2.025-0.779-2.668-0.926c-0.643-0.151-1.507-0.362-2.593-0.633c-1.085-0.271-2.063-0.455-2.928-0.558 c-0.863-0.098-1.836-0.195-2.922-0.298c-1.091-0.097-2.176-0.146-3.262-0.146c-1.134,0-2.344,0.076-3.629,0.222v16.479h1.41 c5.034,0,9.787,0.714,14.259,2.149c4.467,1.439,9.345,3.463,14.627,6.088c0.939,0.444,1.901,0.817,2.89,1.115v13.952 c2.074,0.839,4.321,1.261,6.74,1.261C102.738,74.889,109.976,72.616,118.521,68.06z M118.521,36.368V22.34 c-8.351,4.503-15.906,6.754-22.669,6.754c-2.22,0-4.148-0.195-5.779-0.59v14.546C97.38,45.129,106.864,42.899,118.521,36.368z"></path>
	</symbol>
	<symbol id="icon-child" viewBox="0 0 91 128">
		<path d="M88.787,30.732L65.72,53.864v65.265c0,2.432-0.87,4.517-2.609,6.261c-1.733,1.744-3.819,2.61-6.238,2.61 c-2.425,0-4.504-0.866-6.238-2.61c-1.74-1.744-2.609-3.829-2.609-6.261V88.714h-5.057v30.415c0,2.432-0.87,4.517-2.604,6.261 c-1.739,1.744-3.819,2.61-6.244,2.61c-2.419,0-4.499-0.866-6.238-2.61s-2.609-3.829-2.609-6.261V53.864L2.212,30.732 C0.737,29.254,0,27.463,0,25.349c0-2.114,0.737-3.91,2.212-5.389c1.474-1.479,3.26-2.218,5.368-2.218 c2.108,0,3.899,0.739,5.374,2.218l18.011,18.061h29.07L78.039,19.96c1.475-1.479,3.267-2.218,5.374-2.218 c2.108,0,3.894,0.739,5.374,2.218C90.257,21.439,91,23.235,91,25.349C91,27.463,90.257,29.254,88.787,30.732z M58.019,5.187 c3.45,3.459,5.172,7.647,5.172,12.556c0,4.91-1.722,9.097-5.172,12.556c-3.45,3.46-7.626,5.187-12.522,5.187 c-4.896,0-9.072-1.727-12.522-5.187c-3.45-3.459-5.172-7.646-5.172-12.556c0-4.909,1.722-9.097,5.172-12.556 C36.425,1.733,40.601,0,45.497,0C50.393,0,54.569,1.733,58.019,5.187z"></path>
	</symbol>
	<symbol id="icon-users" viewBox="0 0 128 120">
		<path d="M39.536,60c-7.205,0.225-13.091,3.081-17.67,8.569h-8.93c-3.646,0-6.713-0.903-9.202-2.71S0,61.406,0,57.925 c0-15.762,2.756-23.638,8.269-23.638c0.262,0,1.229,0.469,2.897,1.406s3.835,1.885,6.5,2.842c2.669,0.962,5.313,1.44,7.934,1.44 c2.98,0,5.936-0.512,8.867-1.538c-0.224,1.65-0.331,3.125-0.331,4.419C34.135,49.062,35.934,54.775,39.536,60z M37.669,5.02 c3.33,3.35,4.997,7.393,4.997,12.124S41,25.913,37.669,29.263c-3.335,3.35-7.36,5.024-12.07,5.024s-8.731-1.675-12.065-5.024 c-3.335-3.35-5.002-7.388-5.002-12.119s1.667-8.774,5.002-12.124C16.868,1.675,20.889,0,25.599,0S34.334,1.675,37.669,5.02z M110.938,102.656c0,5.356-1.624,9.585-4.871,12.69c-3.242,3.101-7.555,4.653-12.931,4.653H34.869 c-5.381,0-9.693-1.553-12.936-4.653c-3.247-3.105-4.866-7.334-4.866-12.69c0-2.368,0.078-4.678,0.233-6.934 c0.156-2.251,0.467-4.688,0.934-7.295c0.467-2.612,1.055-5.034,1.765-7.266c0.709-2.231,1.667-4.409,2.868-6.533 c1.201-2.119,2.576-3.926,4.132-5.42c1.556-1.499,3.457-2.69,5.702-3.584c2.241-0.894,4.72-1.338,7.433-1.338 c0.442,0,1.4,0.479,2.868,1.436c1.463,0.962,3.087,2.036,4.866,3.218c1.774,1.182,4.156,2.256,7.131,3.213 c2.98,0.961,5.979,1.44,9.003,1.44c3.019,0,6.018-0.479,8.999-1.44c2.979-0.957,5.356-2.031,7.136-3.213 c1.774-1.182,3.398-2.256,4.866-3.218c1.463-0.957,2.421-1.436,2.863-1.436c2.712,0,5.191,0.444,7.438,1.338 c2.241,0.894,4.142,2.085,5.697,3.584c1.556,1.494,2.937,3.301,4.132,5.42c1.201,2.124,2.158,4.302,2.868,6.533 s1.303,4.653,1.77,7.266c0.467,2.607,0.773,5.044,0.934,7.295C110.854,97.979,110.938,100.288,110.938,102.656z M82.101,24.678 c5.002,5.02,7.501,11.079,7.501,18.179s-2.499,13.159-7.501,18.178c-4.997,5.024-11.035,7.535-18.098,7.535 c-7.068,0-13.101-2.511-18.103-7.535c-4.998-5.019-7.501-11.079-7.501-18.178s2.503-13.159,7.501-18.179 c5.002-5.024,11.035-7.534,18.103-7.534C71.065,17.144,77.104,19.653,82.101,24.678z M114.467,5.02 c3.334,3.35,5.002,7.393,5.002,12.124s-1.668,8.77-5.002,12.119c-3.33,3.35-7.355,5.024-12.065,5.024 c-4.711,0-8.731-1.675-12.065-5.024c-3.335-3.35-5.003-7.388-5.003-12.119s1.668-8.774,5.003-12.124C93.67,1.675,97.69,0,102.401,0 C107.111,0,111.137,1.675,114.467,5.02z M128,57.925c0,3.481-1.244,6.128-3.733,7.935s-5.557,2.71-9.197,2.71h-8.935 c-4.58-5.488-10.467-8.345-17.666-8.569c3.598-5.225,5.4-10.938,5.4-17.144c0-1.294-0.111-2.769-0.335-4.419 c2.937,1.026,5.887,1.538,8.867,1.538c2.62,0,5.27-0.478,7.933-1.44c2.669-0.957,4.832-1.904,6.5-2.842 c1.667-0.938,2.635-1.406,2.902-1.406C125.244,34.287,128,42.163,128,57.925z"></path>
	</symbol>
	<symbol id="icon-user-plus" viewBox="0 0 128 96">
		<path d="M58,70c0,2.169,0.788,4.042,2.374,5.628c1.582,1.581,3.459,2.374,5.624,2.374h16.001v14.875 c-2.835,2.083-6.394,3.122-10.687,3.122H16.688c-5.044,0-9.087-1.436-12.126-4.312C1.522,88.812,0,84.856,0,79.812 c0-2.206,0.073-4.361,0.219-6.467s0.438-4.375,0.875-6.813c0.438-2.438,0.989-4.698,1.654-6.781 c0.67-2.083,1.563-4.115,2.689-6.093c1.125-1.978,2.415-3.664,3.874-5.063c1.458-1.395,3.24-2.511,5.346-3.345 C16.762,44.42,19.081,44,21.624,44c0.793,0,1.604,0.355,2.438,1.062c3.29,2.543,6.508,4.448,9.657,5.719 c3.145,1.271,6.572,1.905,10.281,1.905c3.705,0,7.132-0.633,10.281-1.905c3.145-1.271,6.362-3.176,9.657-5.719 C64.768,44.356,65.584,44,66.377,44c5.496,0,10.017,2,13.562,6.002H65.998c-2.165,0-4.042,0.793-5.624,2.374 C58.789,53.958,58,55.835,58,58V70z M60.967,40.97C56.282,45.659,50.626,48.002,44,48.002c-6.626,0-12.282-2.343-16.971-7.032 c-4.685-4.689-7.027-10.345-7.027-16.967c0-6.626,2.342-12.282,7.027-16.971C31.719,2.347,37.374,0,44,0 c6.626,0,12.282,2.347,16.967,7.032c4.689,4.689,7.032,10.345,7.032,16.971C67.999,30.625,65.656,36.28,60.967,40.97z M104.001,56 h21.998c0.543,0,1.012,0.201,1.408,0.597C127.8,56.993,128,57.458,128,58v12c0,0.542-0.2,1.012-0.593,1.408 c-0.396,0.396-0.865,0.592-1.408,0.592h-21.998v22.003c0,0.538-0.2,1.007-0.597,1.403s-0.866,0.593-1.403,0.593H90.002 c-0.543,0-1.012-0.196-1.408-0.593s-0.593-0.865-0.593-1.403V72H65.998c-0.542,0-1.011-0.195-1.403-0.592 c-0.396-0.396-0.597-0.866-0.597-1.408V58c0-0.542,0.201-1.007,0.597-1.404C64.987,56.2,65.456,56,65.998,56h22.003V34.002 c0-0.542,0.196-1.012,0.593-1.408c0.396-0.392,0.865-0.593,1.408-0.593h11.999c0.537,0,1.007,0.201,1.403,0.593 c0.396,0.396,0.597,0.866,0.597,1.408V56z"></path>
	</symbol>
	<symbol id="icon-link" viewBox="0 0 128 128">
		<path d="M128,94.115c0,6.279-2.225,11.587-6.668,15.922l-11.529,11.455c-4.341,4.335-9.643,6.508-15.922,6.508 c-6.325,0-11.66-2.225-15.995-6.668l-16.156-16.236c-4.34-4.335-6.514-9.642-6.514-15.921c0-6.429,2.299-11.89,6.903-16.391 l-6.903-6.902c-4.495,4.604-9.934,6.902-16.31,6.902c-6.274,0-11.609-2.196-16.001-6.588L6.588,49.886 C2.196,45.494,0,40.158,0,33.884c0-6.273,2.225-11.581,6.668-15.921L18.197,6.514C22.538,2.173,27.845,0,34.119,0 C40.444,0,45.78,2.225,50.12,6.668l16.156,16.236c4.341,4.34,6.508,9.647,6.508,15.921c0,6.428-2.299,11.895-6.902,16.39 l6.902,6.903c4.495-4.598,9.934-6.903,16.316-6.903c6.273,0,11.609,2.196,16.001,6.588l16.311,16.316 C125.804,82.512,128,87.842,128,94.115z M57.807,38.826c0-2.093-0.732-3.872-2.196-5.336L39.455,17.254 c-1.464-1.458-3.243-2.196-5.336-2.196c-2.036,0-3.814,0.709-5.33,2.122L17.26,28.629c-1.47,1.464-2.196,3.214-2.196,5.255 c0,2.093,0.727,3.872,2.196,5.33L33.57,55.53c1.413,1.413,3.191,2.116,5.336,2.116c2.196,0,4.077-0.807,5.645-2.431 c-0.155-0.154-0.652-0.641-1.487-1.453c-0.84-0.806-1.401-1.373-1.687-1.681c-0.292-0.315-0.68-0.812-1.178-1.493 c-0.498-0.681-0.835-1.344-1.018-2.002c-0.183-0.652-0.274-1.373-0.274-2.156c0-2.087,0.732-3.866,2.196-5.33 s3.237-2.196,5.33-2.196c0.783,0,1.504,0.091,2.156,0.274c0.658,0.183,1.321,0.521,2.002,1.018c0.68,0.498,1.178,0.886,1.493,1.178 c0.314,0.286,0.875,0.847,1.687,1.682c0.806,0.84,1.292,1.338,1.447,1.493C56.943,42.932,57.807,41.021,57.807,38.826z M112.942,94.115c0-2.087-0.732-3.865-2.196-5.33L94.43,72.47c-1.464-1.464-3.242-2.196-5.329-2.196 c-2.196,0-4.078,0.841-5.65,2.511c0.16,0.16,0.657,0.641,1.492,1.452c0.835,0.812,1.396,1.373,1.688,1.688 c0.286,0.314,0.681,0.812,1.178,1.487c0.492,0.681,0.835,1.35,1.018,2.001c0.184,0.652,0.275,1.373,0.275,2.156 c0,2.093-0.732,3.872-2.196,5.336s-3.243,2.196-5.336,2.196c-0.783,0-1.504-0.092-2.156-0.275c-0.651-0.183-1.32-0.525-2.001-1.023 c-0.681-0.491-1.173-0.886-1.487-1.172s-0.875-0.853-1.688-1.688c-0.812-0.835-1.292-1.332-1.452-1.492 c-1.722,1.624-2.585,3.528-2.585,5.725c0,2.093,0.732,3.871,2.196,5.335l16.155,16.236c1.413,1.413,3.186,2.116,5.33,2.116 c2.094,0,3.872-0.681,5.336-2.036l11.529-11.455C112.21,97.907,112.942,96.157,112.942,94.115z"></path>
	</symbol>
	<symbol id="icon-weixin" viewBox="0 0 128 104">
		<path d="M91,31.738c-1.295-0.169-2.748-0.25-4.375-0.25c-7.041,0-13.521,1.601-19.438,4.801c-5.92,3.2-10.573,7.533-13.968,12.998 c-3.4,5.469-5.095,11.442-5.095,17.926c0,3.241,0.479,6.4,1.435,9.479c-1.458,0.122-2.871,0.186-4.247,0.186 c-1.084,0-2.124-0.032-3.126-0.095c-0.998-0.06-2.146-0.196-3.436-0.404c-1.294-0.205-2.219-0.352-2.78-0.437 c-0.565-0.082-1.7-0.301-3.409-0.655c-1.709-0.351-2.748-0.568-3.126-0.654l-15.809,7.919l4.498-13.593 C6.043,60.52,0,50.336,0,38.407c0-7.024,2.033-13.489,6.093-19.39c4.065-5.901,9.561-10.547,16.501-13.934 C29.531,1.696,37.105,0,45.313,0c7.333,0,14.259,1.373,20.781,4.115c6.521,2.746,11.977,6.537,16.375,11.379 C86.861,20.335,89.705,25.75,91,31.738z M34.686,28.959c1.043-1.014,1.563-2.377,1.563-4.082c0-1.705-0.52-3.074-1.563-4.115 c-1.039-1.037-2.416-1.559-4.125-1.559c-1.791,0-3.373,0.532-4.749,1.591c-1.376,1.06-2.064,2.423-2.064,4.083 c0,1.623,0.688,2.964,2.064,4.023c1.376,1.059,2.958,1.586,4.749,1.586C32.27,30.487,33.646,29.982,34.686,28.959z M128,66.712 c0,4.864-1.427,9.511-4.284,13.938c-2.853,4.424-6.717,8.447-11.594,12.062L115.563,104l-12.438-6.797 C96.874,98.74,92.33,99.508,89.5,99.508c-7.041,0-13.521-1.463-19.437-4.396c-5.92-2.928-10.573-6.91-13.968-11.938 C52.696,78.146,51,72.658,51,66.712c0-5.942,1.695-11.43,5.095-16.458c3.395-5.027,8.048-9.01,13.968-11.938 c5.915-2.932,12.396-4.396,19.437-4.396c6.708,0,13.021,1.464,18.936,4.396c5.915,2.929,10.659,6.92,14.219,11.971 C126.218,55.337,128,60.811,128,66.712z M66.404,28.959c1.021-1.014,1.531-2.377,1.531-4.082c0-1.705-0.511-3.074-1.531-4.115 c-1.021-1.037-2.384-1.559-4.093-1.559c-1.791,0-3.372,0.532-4.749,1.591c-1.376,1.06-2.064,2.423-2.064,4.083 c0,1.623,0.688,2.964,2.064,4.023c1.377,1.059,2.958,1.586,4.749,1.586C64.021,30.487,65.383,29.982,66.404,28.959z M82.688,56.487 c0-1.164-0.533-2.201-1.596-3.114C80.03,52.459,78.668,52,77,52c-1.126,0-2.156,0.469-3.095,1.4 c-0.938,0.937-1.403,1.964-1.403,3.087c0,1.164,0.465,2.214,1.403,3.15s1.969,1.4,3.095,1.4c1.668,0,3.03-0.454,4.092-1.368 C82.154,58.756,82.688,57.696,82.688,56.487z M107.624,56.487c0-1.164-0.542-2.201-1.627-3.114 c-1.08-0.914-2.434-1.373-4.061-1.373c-1.125,0-2.155,0.469-3.094,1.4c-0.939,0.937-1.404,1.964-1.404,3.087 c0,1.164,0.465,2.214,1.404,3.15c0.938,0.937,1.969,1.4,3.094,1.4c1.627,0,2.98-0.454,4.061-1.368 C107.082,58.756,107.624,57.696,107.624,56.487z"></path>
	</symbol>
	<symbol id="icon-balance-scale" viewBox="0 0 128 105">
		<path d="M52.707,67.5c0,2.851-0.914,5.409-2.737,7.674c-1.823,2.269-4.126,4.046-6.91,5.332c-2.784,1.29-5.619,2.256-8.501,2.901 c-2.882,0.645-5.619,0.965-8.206,0.965s-5.323-0.32-8.205-0.965c-2.882-0.646-5.718-1.611-8.501-2.901 c-2.784-1.286-5.087-3.063-6.91-5.332C0.914,72.909,0,70.351,0,67.5c0-0.431,0.687-2.012,2.059-4.747 c1.373-2.734,3.178-6.144,5.413-10.224c2.235-4.084,4.333-7.9,6.292-11.455c1.96-3.554,3.959-7.152,6.001-10.784 c2.037-3.631,3.135-5.584,3.294-5.857c0.708-1.29,1.801-1.935,3.294-1.935c1.489,0,2.586,0.645,3.294,1.935 c0.154,0.273,1.252,2.226,3.294,5.857c2.038,3.632,4.041,7.229,6.001,10.784c1.96,3.555,4.058,7.37,6.292,11.455 c2.235,4.08,4.041,7.489,5.413,10.224C52.02,65.488,52.707,67.069,52.707,67.5z M26.353,26.25L3.766,67.5H48.94L26.353,26.25z M74.646,15c-0.549,1.564-1.44,2.957-2.676,4.187s-2.638,2.119-4.204,2.666v75.644h35.765c0.549,0,0.999,0.18,1.354,0.53 c0.353,0.351,0.528,0.799,0.528,1.346v3.752c0,0.546-0.176,0.995-0.528,1.345c-0.355,0.355-0.806,0.53-1.354,0.53H24.47 c-0.549,0-1-0.175-1.351-0.53c-0.356-0.35-0.532-0.799-0.532-1.345v-3.752c0-0.547,0.176-0.995,0.532-1.346 c0.352-0.351,0.802-0.53,1.351-0.53h35.764V21.854c-1.565-0.547-2.968-1.436-4.203-2.666c-1.235-1.23-2.127-2.623-2.677-4.187 H24.47c-0.549,0-1-0.175-1.351-0.53c-0.356-0.351-0.532-0.799-0.532-1.346V9.374c0-0.546,0.176-0.996,0.532-1.346 c0.352-0.354,0.802-0.529,1.351-0.529h28.884c0.824-2.226,2.196-4.034,4.118-5.418C59.394,0.692,61.568,0,64,0 c2.432,0,4.606,0.692,6.528,2.081c1.922,1.384,3.294,3.192,4.117,5.418h28.885c0.549,0,0.999,0.175,1.354,0.529 c0.353,0.35,0.528,0.799,0.528,1.346v3.751c0,0.547-0.176,0.995-0.528,1.346c-0.355,0.355-0.806,0.53-1.354,0.53H74.646z M60.676,14.561c0.922,0.918,2.029,1.376,3.324,1.376c1.295,0,2.402-0.458,3.324-1.376s1.381-2.021,1.381-3.312 c0-1.29-0.459-2.392-1.381-3.311C66.402,7.02,65.295,6.562,64,6.562c-1.295,0-2.402,0.457-3.324,1.375 c-0.922,0.919-1.381,2.021-1.381,3.311C59.295,12.54,59.753,13.642,60.676,14.561z M128,67.5c0,2.851-0.909,5.409-2.732,7.674 c-1.827,2.269-4.131,4.046-6.914,5.332c-2.784,1.29-5.619,2.256-8.501,2.901c-2.883,0.645-5.615,0.965-8.206,0.965 c-2.586,0-5.322-0.32-8.205-0.965c-2.883-0.646-5.718-1.611-8.501-2.901c-2.784-1.286-5.087-3.063-6.91-5.332 c-1.823-2.265-2.736-4.823-2.736-7.674c0-0.431,0.686-2.012,2.059-4.747c1.372-2.734,3.179-6.144,5.413-10.224 c2.234-4.084,4.332-7.9,6.292-11.455c1.96-3.554,3.964-7.152,6.001-10.784c2.042-3.631,3.14-5.584,3.294-5.857 c0.708-1.29,1.806-1.935,3.294-1.935c1.493,0,2.591,0.645,3.295,1.935c0.158,0.273,1.256,2.226,3.294,5.857 c2.041,3.632,4.04,7.229,6,10.784c1.961,3.555,4.058,7.37,6.297,11.455c2.235,4.08,4.036,7.489,5.409,10.224 C127.313,65.488,128,67.069,128,67.5z M101.646,26.25L79.06,67.5h45.179L101.646,26.25z"></path>
	</symbol>
	<symbol id="icon-graduation-cap" viewBox="0 0 128 85">
		<path d="M128,21.253c0,0.847-0.409,1.42-1.224,1.715L64.555,42.445c-0.15,0.037-0.333,0.057-0.555,0.057s-0.409-0.02-0.555-0.057 L27.222,31.046c-1.592,1.255-2.909,3.312-3.946,6.169c-1.037,2.861-1.665,6.154-1.888,9.878c2.333,1.328,3.5,3.341,3.5,6.033 c0,2.546-1.074,4.52-3.221,5.92l3.221,23.964c0.073,0.517-0.073,0.977-0.446,1.384C24.111,84.799,23.666,85,23.11,85H12.444 c-0.555,0-1-0.201-1.333-0.605c-0.373-0.407-0.519-0.867-0.446-1.384l3.225-23.964c-2.151-1.4-3.225-3.374-3.225-5.92 c0-2.691,1.203-4.741,3.613-6.142c0.405-7.639,2.22-13.723,5.444-18.263l-18.5-5.754C0.405,22.673,0,22.1,0,21.253 c0-0.851,0.405-1.42,1.223-1.719L63.445,0.057C63.591,0.02,63.777,0,64,0s0.405,0.02,0.555,0.057l62.221,19.478 C127.591,19.833,128,20.402,128,21.253z M98.554,39.181l1.001,17.488c0.146,2.546-1.369,4.906-4.558,7.082 c-3.184,2.179-7.534,3.901-13.052,5.173c-5.521,1.275-11.5,1.913-17.945,1.913c-6.445,0-12.428-0.638-17.945-1.913 c-5.518-1.271-9.872-2.994-13.056-5.173c-3.184-2.175-4.703-4.536-4.553-7.082l1-17.488l31.889,10.015 c0.814,0.258,1.702,0.387,2.666,0.387c0.96,0,1.852-0.129,2.665-0.387L98.554,39.181z"></path>
	</symbol>
	<symbol id="icon-thumbs-o-up" viewBox="0 0 118 128">
		<path d="M118,59.002c0,4.565-1.255,8.745-3.765,12.537c0.459,1.693,0.694,3.46,0.694,5.306c0,3.954-0.975,7.646-2.924,11.078 c0.157,1.077,0.235,2.182,0.235,3.31c0,5.183-1.54,9.743-4.61,13.691c0.051,7.13-2.129,12.761-6.531,16.884 C96.696,125.936,90.882,128,83.662,128h-2.769h-7.142c-4.918,0-9.77-0.572-14.559-1.728s-10.334-2.833-16.631-5.037 c-5.943-2.053-9.479-3.079-10.604-3.079H9.831c-2.711,0-5.03-0.959-6.952-2.884C0.958,113.349,0,111.026,0,108.312V59.075 c0-2.715,0.958-5.037,2.879-6.961c1.921-1.924,4.241-2.883,6.952-2.883h21.051c1.843-1.229,5.35-5.206,10.526-11.925 c2.969-3.842,5.708-7.124,8.217-9.844c1.233-1.285,2.141-3.472,2.729-6.58c0.588-3.102,1.372-6.344,2.347-9.732 c0.969-3.382,2.56-6.153,4.761-8.307C61.456,0.948,63.764,0,66.375,0c4.302,0,8.167,0.836,11.601,2.501 c3.429,1.666,6.044,4.269,7.837,7.808c1.792,3.534,2.688,8.307,2.688,14.303c0,4.773-1.231,9.692-3.686,14.774h13.518 c5.326,0,9.937,1.946,13.83,5.845S118,53.718,118,59.002z M18.206,106.848c0.975-0.976,1.462-2.125,1.462-3.461 c0-1.335-0.487-2.484-1.462-3.46c-0.975-0.977-2.123-1.464-3.457-1.464c-1.333,0-2.481,0.487-3.456,1.464 c-0.975,0.976-1.462,2.125-1.462,3.46c0,1.336,0.487,2.485,1.462,3.461c0.975,0.977,2.123,1.464,3.456,1.464 C16.083,108.312,17.23,107.824,18.206,106.848z M108.168,59.075c0-2.614-1.002-4.908-2.996-6.882c-2-1.975-4.28-2.961-6.839-2.961 H71.292c0-2.973,1.228-7.062,3.687-12.268c2.459-5.205,3.686-9.322,3.686-12.351c0-5.02-0.817-8.739-2.453-11.151 c-1.641-2.412-4.919-3.618-9.836-3.618c-1.334,1.335-2.303,3.517-2.919,6.54c-0.616,3.029-1.395,6.243-2.342,9.653 c-0.952,3.41-2.476,6.22-4.571,8.425c-1.131,1.178-3.104,3.511-5.915,7c-0.208,0.258-0.795,1.027-1.77,2.306 c-0.975,1.284-1.782,2.333-2.42,3.158c-0.638,0.819-1.523,1.907-2.649,3.265c-1.126,1.363-2.151,2.49-3.07,3.388 c-0.924,0.897-1.91,1.806-2.958,2.732c-1.054,0.92-2.079,1.615-3.076,2.075c-0.997,0.46-1.91,0.69-2.728,0.69h-2.459v49.236h2.459 c0.667,0,1.473,0.073,2.42,0.23c0.946,0.151,1.792,0.319,2.537,0.499c0.74,0.18,1.714,0.46,2.918,0.847 c1.205,0.382,2.101,0.679,2.689,0.881c0.588,0.208,1.496,0.527,2.728,0.965c1.227,0.438,1.972,0.707,2.224,0.808 c10.806,3.741,19.567,5.615,26.278,5.615h9.293c9.837,0,14.749-4.28,14.749-12.845c0-1.335-0.128-2.771-0.38-4.309 c1.534-0.818,2.75-2.165,3.646-4.038s1.344-3.758,1.344-5.654c0-1.896-0.459-3.668-1.384-5.312 c2.717-2.563,4.073-5.615,4.073-9.154c0-1.278-0.258-2.703-0.768-4.269c-0.516-1.56-1.154-2.782-1.922-3.651 c1.642-0.051,3.009-1.257,4.112-3.618C107.614,62.951,108.168,60.875,108.168,59.075z"></path>
	</symbol>
	<symbol id="icon-sliders" viewBox="0 0 128 117">
		<path d="M18.667,10.634v10.64H0v-10.64H18.667z M72,53.183v10.634H0V53.183H72z M29.331,95.731v10.635H0V95.731H29.331z M47.998,0 c1.446,0,2.698,0.527,3.755,1.576c1.051,1.054,1.58,2.302,1.58,3.738v21.274c0,1.442-0.529,2.69-1.58,3.739 c-1.057,1.054-2.309,1.582-3.755,1.582H26.669c-1.446,0-2.698-0.527-3.755-1.582c-1.051-1.048-1.58-2.297-1.58-3.739V5.314 c0-1.436,0.528-2.684,1.58-3.738C23.972,0.527,25.223,0,26.669,0H47.998z M58.668,85.091c1.44,0,2.692,0.528,3.749,1.582 c1.058,1.055,1.586,2.297,1.586,3.738v21.274c0,1.436-0.528,2.685-1.586,3.739C61.36,116.473,60.108,117,58.668,117H37.333 c-1.446,0-2.698-0.527-3.749-1.575c-1.057-1.055-1.586-2.304-1.586-3.739V90.411c0-1.441,0.529-2.684,1.586-3.738 c1.051-1.054,2.303-1.582,3.749-1.582H58.668z M128,10.634v10.64H56v-10.64H128z M128,95.731v10.635H66.664V95.731H128z M101.337,42.542c1.439,0,2.691,0.527,3.749,1.582c1.051,1.054,1.58,2.303,1.58,3.738v21.274c0,1.442-0.529,2.691-1.58,3.738 c-1.058,1.055-2.31,1.582-3.749,1.582H80.002c-1.446,0-2.697-0.527-3.749-1.582c-1.057-1.047-1.586-2.296-1.586-3.738V47.862 c0-1.436,0.529-2.684,1.586-3.738c1.052-1.054,2.303-1.582,3.749-1.582H101.337z M128,53.183v10.634h-18.667V53.183H128z"></path>
	</symbol>
	<symbol id="icon-sort-amount-desc" viewBox="0 0 126 128">
		<path d="M49.789,26.787c-0.428,0.427-0.976,0.641-1.644,0.641H34.406v98.287c0,0.666-0.214,1.213-0.647,1.646 c-0.428,0.427-0.976,0.641-1.644,0.641H18.377c-0.667,0-1.215-0.214-1.648-0.641c-0.428-0.433-0.642-0.979-0.642-1.646V27.427 H2.348c-1.054,0-1.769-0.474-2.149-1.427c-0.381-0.906-0.214-1.74,0.501-2.5L23.601,0.646C24.122,0.213,24.675,0,25.244,0 c0.621,0,1.168,0.213,1.648,0.646l22.828,22.781c0.475,0.573,0.714,1.146,0.714,1.719C50.435,25.807,50.221,26.359,49.789,26.787z M125.358,127.359c-0.434,0.427-0.981,0.641-1.649,0.641H64.174c-0.668,0-1.216-0.214-1.649-0.641 c-0.428-0.433-0.642-0.979-0.642-1.646V112c0-0.667,0.213-1.214,0.642-1.641c0.433-0.433,0.981-0.646,1.649-0.646h59.535 c0.668,0,1.216,0.213,1.649,0.646c0.427,0.427,0.642,0.974,0.642,1.641v13.714C126,126.38,125.785,126.927,125.358,127.359z M111.614,90.786c-0.429,0.428-0.977,0.641-1.644,0.641H64.174c-0.668,0-1.216-0.213-1.649-0.641 c-0.428-0.427-0.642-0.979-0.642-1.641V75.427c0-0.666,0.213-1.213,0.642-1.641c0.433-0.427,0.981-0.641,1.649-0.641h45.797 c0.667,0,1.215,0.214,1.644,0.641c0.433,0.428,0.646,0.975,0.646,1.641v13.719C112.261,89.808,112.047,90.359,111.614,90.786z M97.876,54.213c-0.428,0.433-0.976,0.646-1.644,0.646H64.174c-0.668,0-1.216-0.213-1.649-0.646 c-0.428-0.427-0.642-0.974-0.642-1.641V38.859c0-0.667,0.213-1.213,0.642-1.646c0.433-0.427,0.981-0.641,1.649-0.641h32.059 c0.668,0,1.216,0.214,1.644,0.641c0.433,0.433,0.646,0.979,0.646,1.646v13.713C98.522,53.24,98.309,53.787,97.876,54.213z M84.137,17.646c-0.428,0.427-0.976,0.641-1.644,0.641H64.174c-0.668,0-1.216-0.214-1.649-0.641 c-0.428-0.433-0.642-0.979-0.642-1.646V2.287c0-0.667,0.213-1.214,0.642-1.641C62.958,0.213,63.506,0,64.174,0h18.319 c0.668,0,1.216,0.213,1.644,0.646c0.429,0.427,0.647,0.974,0.647,1.641V16C84.784,16.667,84.565,17.213,84.137,17.646z"></path>
	</symbol>
	<symbol id="icon-percent" viewBox="0 0 128 128">
		<path d="M54.627,9.376c6.247,6.252,9.376,13.793,9.376,22.628c0,8.829-3.129,16.37-9.376,22.623 c-6.252,6.253-13.793,9.376-22.628,9.376c-8.829,0-16.376-3.123-22.623-9.376C3.123,48.375,0,40.833,0,32.004 c0-8.835,3.123-16.376,9.376-22.628C15.623,3.129,23.169,0,31.999,0C40.833,0,48.375,3.129,54.627,9.376z M120.004,5.335 c0,1.112-0.365,2.169-1.088,3.166L30.917,125.837c-1.058,1.44-2.473,2.163-4.248,2.163H13.332c-1.446,0-2.692-0.528-3.749-1.58 c-1.057-1.057-1.58-2.309-1.58-3.749c0-1.112,0.359-2.169,1.082-3.166L97.083,2.169C98.141,0.723,99.557,0,101.337,0h13.331 c1.44,0,2.692,0.529,3.749,1.586C119.475,2.643,120.004,3.889,120.004,5.335z M39.503,39.503c2.108-2.108,3.166-4.612,3.166-7.499 c0-2.892-1.057-5.39-3.166-7.504c-2.115-2.108-4.612-3.166-7.504-3.166c-2.886,0-5.39,1.057-7.499,3.166 c-2.114,2.115-3.166,4.612-3.166,7.504c0,2.886,1.051,5.39,3.166,7.499c2.109,2.108,4.612,3.166,7.499,3.166 C34.891,42.668,37.388,41.611,39.503,39.503z M118.624,73.379C124.877,79.626,128,87.166,128,96.002 c0,8.835-3.123,16.376-9.376,22.628c-6.246,6.247-13.787,9.37-22.622,9.37c-8.836,0-16.376-3.123-22.629-9.37 c-6.247-6.252-9.37-13.793-9.37-22.628c0-8.836,3.123-16.376,9.37-22.623c6.253-6.253,13.793-9.376,22.629-9.376 C104.837,64.003,112.378,67.126,118.624,73.379z M103.5,103.5c2.108-2.108,3.166-4.606,3.166-7.498 c0-2.887-1.058-5.391-3.166-7.499s-4.612-3.166-7.498-3.166c-2.893,0-5.391,1.058-7.499,3.166 c-2.114,2.108-3.172,4.612-3.172,7.499c0,2.892,1.058,5.39,3.172,7.498c2.108,2.114,4.606,3.172,7.499,3.172 C98.888,106.672,101.392,105.614,103.5,103.5z"></path>
	</symbol>
	<symbol id="icon-facebook-o" viewBox="0 0 128 128">
		<path d="M120.915,0c1.944,0,3.615,0.699,5.001,2.084C127.308,3.476,128,5.141,128,7.085v113.836c0,1.944-0.692,3.609-2.084,5.001 c-1.386,1.386-3.057,2.078-5.001,2.078H88.333V78.416h16.583l2.503-19.329H88.333V46.752c0-3.111,0.65-5.444,1.957-7 c1.306-1.556,3.846-2.333,7.626-2.333l10.165-0.085V20.083c-3.5-0.498-8.439-0.748-14.832-0.748c-7.553,0-13.6,2.224-18.126,6.666 c-4.527,4.448-6.787,10.725-6.787,18.837v14.25H51.668v19.329h16.668V128H7.085c-1.944,0-3.615-0.692-5.001-2.078 C0.693,124.53,0,122.865,0,120.921V7.085c0-1.944,0.693-3.609,2.084-5.001C3.47,0.699,5.141,0,7.085,0H120.915z"></path>
	</symbol>
	<symbol id="icon-twitter-o" viewBox="0 0 128 104">
		<path d="M128,12.347c-3.63,5.308-8.013,9.834-13.159,13.573c0.054,0.758,0.083,1.896,0.083,3.413c0,7.039-1.03,14.071-3.085,21.08 c-2.062,7.021-5.188,13.75-9.381,20.191c-4.199,6.451-9.191,12.15-14.982,17.104c-5.798,4.959-12.78,8.91-20.959,11.867 C58.345,102.525,49.598,104,40.288,104C25.613,104,12.188,100.072,0,92.215c1.895,0.221,4.009,0.328,6.336,0.328 c12.182,0,23.037-3.74,32.572-11.211c-5.686-0.105-10.778-1.854-15.273-5.242c-4.495-3.383-7.581-7.703-9.256-12.958 c1.789,0.272,3.435,0.402,4.951,0.402c2.328,0,4.631-0.296,6.905-0.895c-6.064-1.244-11.086-4.266-15.066-9.059 C7.189,48.789,5.2,43.225,5.2,36.887v-0.326c3.684,2.062,7.633,3.169,11.856,3.33c-3.571-2.382-6.414-5.492-8.528-9.343 c-2.108-3.845-3.163-8.016-3.163-12.513c0-4.763,1.19-9.177,3.571-13.241c6.55,8.069,14.521,14.533,23.919,19.379 c9.392,4.846,19.448,7.542,30.172,8.081c-0.438-2.056-0.651-4.059-0.651-6.014c0-7.257,2.559-13.443,7.676-18.561 C75.169,2.559,81.352,0,88.612,0c7.58,0,13.97,2.761,19.164,8.289c5.904-1.138,11.453-3.253,16.652-6.339 c-2.008,6.227-5.851,11.049-11.536,14.462C117.933,15.872,122.966,14.515,128,12.347z"></path>
	</symbol>
	<symbol id="icon-hash-o" viewBox="0 0 128 126">
		<path d="M123.551,61.159c-3.259-2.325-6.881-2.62-10.635-1.424c-4.016,1.276-8.011,2.607-12.153,3.962 c-2.63-7.953-5.216-15.771-7.846-23.722c0.984-0.335,1.863-0.641,2.746-0.937c3.343-1.119,6.744-2.083,10.017-3.384 c6.936-2.763,9.414-10.083,5.467-15.729c-2.818-4.029-7.907-5.649-12.961-4.078c-3.948,1.23-7.883,2.513-11.923,3.802 c-0.236-0.615-0.456-1.131-0.632-1.659c-1.204-3.584-2.305-7.208-3.627-10.749c-1.629-4.376-4.933-6.845-9.547-7.198 c-4.92-0.376-8.695,1.702-11.004,6.147c-1.52,2.918-1.412,5.957-0.405,9.011c1.238,3.749,2.479,7.494,3.772,11.403 c-8.027,2.589-15.827,5.106-23.666,7.638c-0.218-0.597-0.355-0.945-0.473-1.3c-1.261-3.764-2.393-7.574-3.805-11.283 c-2.145-5.64-8.455-8.429-14.177-6.438c-5.663,1.97-8.698,7.929-6.954,13.737c0.674,2.233,1.471,4.424,2.188,6.644 c0.591,1.83,1.146,3.668,1.743,5.586c-4.229,1.373-8.26,2.595-12.232,3.992c-5.775,2.03-8.723,7.99-6.915,13.714 c1.847,5.831,7.833,8.794,13.995,6.858c4.001-1.257,7.982-2.599,12.05-3.923c1.35,4.034,2.653,7.915,3.941,11.798 c1.28,3.866,2.544,7.735,3.829,11.66c-0.57,0.216-0.97,0.387-1.386,0.522c-3.468,1.136-6.947,2.245-10.406,3.401 c-5.241,1.756-8.602,6.964-7.785,12.006c1.121,6.913,7.403,10.873,14.219,8.85c4.032-1.194,8.009-2.578,12.261-3.96 c1.422,4.269,2.719,8.347,4.125,12.383c1.887,5.394,7.609,8.528,13.001,7.209c6.805-1.666,10.305-7.84,8.187-14.538 c-1.267-4-2.617-7.975-3.979-12.116c7.975-2.629,15.761-5.194,23.601-7.777c0.231,0.607,0.374,0.95,0.492,1.302 c1.257,3.767,2.431,7.562,3.774,11.298c2.032,5.646,7.88,8.644,13.573,7.071c5.761-1.586,9.176-7.061,7.929-12.998 c-0.488-2.336-1.39-4.578-2.119-6.856c-0.721-2.256-1.459-4.508-2.23-6.889c4.345-1.437,8.474-2.749,12.563-4.172 c3.892-1.355,6.983-3.589,7.659-8.027C128.496,67.585,127.278,63.823,123.551,61.159z M55.734,78.399 c-2.646-7.973-5.202-15.677-7.833-23.604c7.851-2.59,15.639-5.159,23.679-7.812c2.607,7.862,5.189,15.658,7.849,23.679 C71.554,73.233,63.755,75.783,55.734,78.399z"></path>
	</symbol>
	<symbol id="icon-bitcoin-o" viewBox="0 0 98 128">
		<path d="M80.388,54.647c-0.351-0.051-0.695-0.146-1.227-0.253c0.533-0.643,0.821-1.054,1.172-1.394 c8.122-7.908,7.538-21.917-1.254-29.083c-5.997-4.894-13.216-5.414-20.468-5.301c-2.941,0.047-3.776-0.897-4.034-3.72 c-0.448-4.9-1.414-9.75-2.202-14.895c-4.083,0.633-7.717,1.196-11.657,1.808c0.804,6.047,1.574,11.892,2.387,18.06 c-3.084,0.417-5.722,0.776-8.381,1.137C33.811,14.849,32.96,9.111,32.06,3.042c-4.07,0.562-7.794,1.08-11.746,1.628 c0.73,5.611,1.24,10.667,2.103,15.663c0.406,2.379-0.418,3.139-2.554,3.401c-4.431,0.546-8.856,1.175-13.275,1.836 C4.444,25.889,2.324,26.357,0,26.795c0.702,4.48,1.306,8.331,1.918,12.25c3.455-0.362,6.398-0.722,9.351-0.964 c3.424-0.284,5.551,1.443,6.035,4.735c2.383,16.234,4.656,32.485,6.954,48.733c0.419,2.98-0.865,4.823-3.845,5.334 c-2.542,0.434-5.101,0.761-7.99,1.181c-0.125,4.688-0.244,9.209-0.381,14.222c7.91-1.048,15.325-2.028,22.818-3.02 c0.974,6.468,1.866,12.434,2.811,18.733c4.105-0.626,7.822-1.195,11.746-1.792c-0.863-6.411-1.66-12.271-2.488-18.393 c2.994-0.481,5.626-0.896,8.366-1.334c0.949,6.417,1.835,12.375,2.746,18.534c4.034-0.593,7.674-1.123,11.714-1.72 c-0.815-6.284-1.603-12.367-2.42-18.647c2.036-0.544,3.783-0.798,5.351-1.471c5.679-2.434,11.864-4.191,16.804-7.708 c8.808-6.265,9.634-15.813,7.565-25.614C95.182,60.949,89.409,55.907,80.388,54.647z M74.572,76.977 c0.539,4.465-1.443,8.084-5.31,9.846c-4.807,2.194-9.953,3.701-15.045,5.166c-2.712,0.778-5.621,0.843-9.069,1.322 c-1.142-8.051-2.267-15.945-3.451-24.24c8.802-1.436,17.18-3.301,25.695-0.728C71.606,69.618,74.042,72.623,74.572,76.977z M64.425,42.988c0.172,4.59-2.018,7.936-5.959,9.416c-5.729,2.146-11.754,3.493-18.307,5.371c-1.186-8.317-2.182-15.291-3.245-22.72 c7.188-1.36,14.235-2.767,21.272-0.456C61.939,35.831,64.261,38.674,64.425,42.988z"></path>
	</symbol>
	<symbol id="icon-" viewBox="0 0 128 128">
	</symbol>
</svg>